<?xml version="1.0" standalone="no"?>
<!DOCTYPE svg PUBLIC "-//W3C//DTD SVG 1.1//EN" "http://www.w3.org/Graphics/SVG/1.1/DTD/svg11.dtd" >
<!--
2013-9-30: Created.
-->
<svg>
<metadata>
Created by iconfont
</metadata>
<defs>

<font id="iconfont" horiz-adv-x="1024" >
  <font-face
    font-family="iconfont"
    font-weight="500"
    font-stretch="normal"
    units-per-em="1024"
    ascent="896"
    descent="-128"
  />
    <missing-glyph />
    
    <glyph glyph-name="delete" unicode="&#59060;" d="M608 128c-17.696 0-32 14.304-32 32L576 512c0 17.696 14.304 32 32 32s32-14.304 32-32l0-352C640 142.304 625.696 128 608 128zM416 128c-17.696 0-32 14.304-32 32L384 512c0 17.696 14.304 32 32 32s32-14.304 32-32l0-352C448 142.304 433.696 128 416 128zM928 672l-160 0L768 736c0 52.928-42.72 96-95.264 96L352 832C299.072 832 256 788.928 256 736l0-64L96 672C78.304 672 64 657.696 64 640s14.304-32 32-32l832 0c17.696 0 32 14.304 32 32S945.696 672 928 672zM320 736c0 17.632 14.368 32 32 32l320.736 0C690.272 768 704 753.952 704 736l0-64L320 672 320 736zM736.128-64 288.064-64c-52.928 0-96 43.072-96 96L192.064 512.48c0 17.664 14.336 32 32 32s32-14.336 32-32L256.064 32c0-17.664 14.368-32 32-32l448.064 0c17.664 0 32 14.336 32 32L768.128 511.168c0 17.664 14.304 32 32 32s32-14.336 32-32L832.128 32C832.128-20.928 789.056-64 736.128-64z"  horiz-adv-x="1024" />

    
    <glyph glyph-name="dianpu" unicode="&#58885;" d="M829.220317 771.575176l-7.074116 10.656711L211.680609 782.231887l-7.141654-9.141194C48.983109 574.501752 70.507332 453.583798 97.154225 399.139815c26.740014-54.537104 80.878029-89.831958 137.977491-89.831958l5.146207 0c72.043826 2.867304 119.953999 38.642089 145.190777 64.548108 22.793122-25.90602 65.699328-60.541865 132.855844-60.541865 70.02382 0 113.703645 37.70167 135.579885 63.877843 30.546713-24.907273 90.183975-65.721841 152.687518-65.721841 40.980343 0 76.085886 16.799618 104.681154 49.907667C1017.364371 484.917434 836.949348 759.933021 829.220317 771.575176zM874.641809 392.396227c-19.22383-22.49841-41.49916-33.236985-68.14503-33.236985-60.246129 0-122.821303 54.56064-136.7792 67.51979L669.717579 590.245318c0.023536 0.458441 0.258896 0.799202 0.258896 1.245364 0 13.252839-10.714016 23.967878-23.920806 23.967878-13.227256 0-23.919782-10.715039-23.919782-23.967878l-0.258896 0 0-177.851641c-13.063527-17.811668-46.172599-52.634778-103.552447-52.634778-64.784492 0-98.525967 44.292785-107.666138 58.367339l0 172.120103c0 13.252839-10.715039 23.967878-23.898293 23.967878-13.228279 0-23.943318-10.715039-23.943318-23.967878l0-171.250292c-11.725042-15.249309-52.070936-60.389392-124.465756-63.37233l-3.219321 0 0 0.047072c-31.933293 0-73.688279 19.585057-95.000678 63.232137-21.358447 43.540655-36.843116 141.948943 94.953605 314.397526l561.097208 0C845.996398 655.826965 940.480306 468.774779 874.641809 392.396227zM831.288418 282.16773c-13.277398 0-24.086581-10.761088-24.13263-24.037463l0-0.045025c0-0.048095 0-0.048095 0-0.095167 0 0 0-0.023536 0-0.059352l0-173.505659c0-26.693965-21.641903-48.312332-48.263214-48.312332L552.089555 36.112732c-0.022513 0-0.022513 0-0.046049 0L264.081049 36.112732c-26.623357 0-48.26526 21.618367-48.26526 48.312332l0 173.634596c-0.023536 13.323447-10.80816 24.108071-24.109094 24.108071-13.299911 0-24.084535-10.784624-24.131607-24.108071l0-178.452321c0-50.730405 41.026392-91.804892 91.664699-91.804892l504.492002 0c50.637284 0 91.662653 41.074487 91.662653 91.804892L855.394443 258.130268C855.325881 271.407666 844.562746 282.16773 831.288418 282.16773z"  horiz-adv-x="1024" />

    
    <glyph glyph-name="msnui-fullscreen" unicode="&#58963;" d="M905.75 552.75l-72.235 72.234-185.065-185.064-80.585 80.558 185.12 185.037-72.233 72.233c0 31.091 25.159 56.251 56.25 56.251h168.75c31.035 0 56.25-25.16 56.25-56.251v-168.749c-0.001-31.036-25.216-56.25-56.251-56.25v0zM343.25-9.751c0-31.033-25.214-56.249-56.251-56.249h-168.749c-31.092 0-56.25 25.215-56.25 56.249v168.75c0 31.090 25.158 56.252 56.25 56.252l72.233-72.234 185.067 185.064 80.529-80.528-185.065-185.066 72.234-72.237zM905.75-66h-168.75c-31.091 0-56.25 25.215-56.25 56.249l72.233 72.237-185.119 185.066 80.585 80.528 185.065-185.064 72.235 72.234c31.035 0 56.25-25.162 56.25-56.252v-168.75c0-31.033-25.215-56.249-56.25-56.249v0zM375.551 439.921l-185.067 185.064-72.233-72.234c-31.092 0-56.25 25.214-56.25 56.25v168.749c0 31.091 25.158 56.251 56.25 56.251h168.749c31.037 0 56.251-25.16 56.251-56.251l-72.234-72.233 185.065-185.037-80.528-80.558z"  horiz-adv-x="1025" />

    
    <glyph glyph-name="msnui-fullsceen-exit" unicode="&#58964;" d="M782.291 575.778l69.993-69.911c0-30.116-24.427-54.516-54.464-54.516h-163.495c-30.087 0-54.459 24.399-54.459 54.516v163.468c0 30.048 24.373 54.461 54.459 54.461l69.993-69.966 179.243 179.27 78.026-78.053-179.295-179.268zM961.587 18.508l-78.026-78.055-179.243 179.272-69.993-69.968c-30.087 0-54.459 24.414-54.459 54.543v147.265c0 30.115 24.373 54.517 54.459 54.517h163.495c30.038 0 54.464-24.401 54.464-54.517l-69.993-69.966 179.296-163.091zM390.212 49.756l-69.991 69.968-179.241-179.272-78.082 78.055 179.295 163.091-69.993 69.966c0 30.115 24.428 54.517 54.516 54.517h163.495c30.039 0 54.463-24.401 54.463-54.517v-147.266c0-30.128-24.424-54.542-54.463-54.542v0zM390.212 451.093h-163.494c-30.086 0-54.516 24.345-54.516 54.46l69.993 69.967-179.296 179.266 78.082 78 179.241-179.268 69.991 69.953c30.039 0 54.463-24.333 54.463-54.463v-163.455c0-30.116-24.424-54.46-54.463-54.46v0z"  horiz-adv-x="1024" />

    
    <glyph glyph-name="msnui-service" unicode="&#59035;" d="M272.16 832.396c-115.182 0-208.556-93.374-208.556-208.556s93.374-208.556 208.556-208.556h208.556v208.556c0 115.182-93.374 208.556-208.556 208.556zM416.546 479.454h-144.385c-79.618 0-144.385 64.766-144.385 144.385s64.766 144.385 144.385 144.385 144.385-64.766 144.385-144.385v-144.385zM962 623.84c0 115.182-93.374 208.556-208.556 208.556s-208.556-93.374-208.556-208.556v-208.556h208.556c115.182 0 208.556 93.374 208.556 208.556zM609.058 623.84c0 79.618 64.766 144.385 144.385 144.385s144.385-64.766 144.385-144.385-64.766-144.385-144.385-144.385h-144.385v144.385zM63.604 142.556c0-115.182 93.374-208.556 208.556-208.556s208.556 93.374 208.556 208.556v208.556h-208.556c-115.182 0-208.556-93.374-208.556-208.556zM416.546 142.556c0-79.618-64.766-144.385-144.385-144.385s-144.385 64.766-144.385 144.385 64.766 144.385 144.385 144.385h144.385v-144.385zM753.444 351.113h-208.556v-208.556c0-115.182 93.374-208.556 208.556-208.556s208.556 93.374 208.556 208.556-93.374 208.556-208.556 208.556zM753.444-1.829c-79.618 0-144.385 64.766-144.385 144.385v144.385h144.385c79.618 0 144.385-64.766 144.385-144.385s-64.766-144.385-144.385-144.385z"  horiz-adv-x="1024" />

    
    <glyph glyph-name="usertie" unicode="&#59577;" d="M320 704c0 106.04544 85.95456 192 192 192s192-85.95456 192-192c0-106.04544-85.95456-192-192-192s-192 85.95456-192 192zM768.08192 448l-35.4304 0-199.10656-404.23424 74.4448 372.24448-96.01024 96.01024-96.01024-96.01024 74.4448-372.24448-199.10656 404.23424-35.4304 0c-127.91808 0-127.91808-85.99552-127.91808-192l0-320 768 0 0 320c0 106.00448 0 192-127.91808 192z"  horiz-adv-x="1024" />

    
    <glyph glyph-name="hongbao" unicode="&#58883;" d="M628.621091 314.058045c15.165398 0 27.472702 12.272511 27.472702 27.408233 0 15.111163-12.308327 27.382651-27.472702 27.382651l-35.507702 0 43.008536 89.642646c5.558599 10.155291-0.435928 24.786523-13.385868 32.67212-12.94994 7.882528-27.952632 6.048763-33.521464-4.105504l-55.93801-116.615974c-0.261966-0.502443-0.186242-1.092891-0.39295-1.593288l-14.838963 0c-0.316202 0.939395-0.25071 2.010797-0.756223 2.904143l-55.279001 111.1331c-5.504364 9.738805-20.387329 11.510148-33.218566 3.929496-12.830213-7.55507-18.770506-21.598924-13.266142-31.335682l43.095517-86.631056-43.399439 0c-15.176654 0-27.472702-12.272511-27.472702-27.386744 0-15.132652 12.297071-27.40414 27.472702-27.40414l79.608106 0 0-36.294624-79.608106 0c-15.176654 0-27.472702-12.248975-27.472702-27.382651 0-15.135722 12.297071-27.38572 27.472702-27.38572l79.608106 0 0-79.94682c0-14.915711 12.119015-27.015284 27.088962-27.015284 14.959713 0 27.092032 12.100596 27.092032 27.015284l0 79.94682 79.609129 0c15.165398 0 27.472702 12.249999 27.472702 27.38572 0 15.133675-12.308327 27.382651-27.472702 27.382651l-79.609129 0 0 36.294624 79.610152 0L628.620068 314.058045zM879.708709 110.243079l0 0.26606-0.013303 0c-0.146333 12.292977-10.145058 22.215978-22.471804 22.215978-12.417821 0-22.485107-10.067286-22.485107-22.485107 0-1.076518 0.101307-2.12643 0.24764-3.163039l0-35.766598c0-12.33698-10.009981-22.364357-22.361287-22.364357L208.856795 48.946015c-12.351306 0-22.364357 10.027377-22.364357 22.364357L186.492438 696.219931l306.629609-142.592602 28.809139-12.441357 28.809139 12.441357 284.245809 132.184555 0-371.864356c-0.146333-1.036609-0.24764-2.087545-0.24764-3.163039 0-12.417821 10.067286-22.485107 22.485107-22.485107 12.245905 0 22.185278 9.794064 22.459524 21.974477l0.026606 0 0 0.508583c0 0.001023 0 0.002047 0 0.002047l0 0.002047L879.709733 697.442782c0.004093 4.748141-0.493234 9.381671-1.434675 13.850449 0 0-2.087545 9.124821-5.815449 16.737196-1.225921 2.501984-2.471284 5.086855-6.980995 10.732435-12.279674 15.684214-31.390941 25.762757-52.851719 25.762757L208.852702 764.52562c-37.042661 0-67.083861-30.02585-67.083861-67.083861l0-626.134457c0-37.058011 30.040177-67.086931 67.083861-67.086931l603.77317 0c37.047778 0 67.083861 30.029944 67.083861 67.086931l0 38.927591c0 0.001023 0 0.002047 0 0.002047C879.708709 110.242056 879.708709 110.242056 879.708709 110.243079zM797.387819 719.804069 521.931187 591.707622 246.477624 719.804069 797.387819 719.804069z"  horiz-adv-x="1024" />

    
    <glyph glyph-name="unie036" unicode="&#59031;" d="M426.656 820q78.016 0 149.152-30.496t122.496-81.824 81.824-122.496 30.496-149.152q0-67.008-21.824-128.32t-62.176-111.328l242.336-242.016q12.32-12.32 12.32-30.336 0-18.336-12.16-30.496t-30.496-12.16q-18.016 0-30.336 12.32l-242.016 242.336q-50.016-40.32-111.328-62.176t-128.32-21.824q-78.016 0-149.152 30.496t-122.496 81.824-81.824 122.496-30.496 149.152 30.496 149.152 81.824 122.496 122.496 81.824 149.152 30.496zM426.656 734.656q-60.672 0-116-23.68t-95.328-63.68-63.68-95.328-23.68-116 23.68-116 63.68-95.328 95.328-63.68 116-23.68 116 23.68 95.328 63.68 63.68 95.328 23.68 116-23.68 116-63.68 95.328-95.328 63.68-116 23.68z"  horiz-adv-x="1024" />

    
    <glyph glyph-name="home" unicode="&#58918;" d="M577.5584 504.151467l-21.345067 18.699733c-0.062933 0.061867-0.186667 0.123733-0.280533 0.186667l-44.305067 38.689067-53.752533-47.5648L127.009067 224.576l0-177.1392 0-155.0048c0-45.886933 37.454933-83.0976 83.610667-83.0976l183.966933 0L394.586667 76.1312c0 27.512533 22.448 49.8336 50.162133 49.8336l133.7728 0c27.714133 0 50.178133-22.321067 50.178133-49.8336L628.699733-190.666667l183.966933 0c46.170667 0 83.610667 37.211733 83.610667 83.0976L896.277333 48.0576 896.277333 225.2288 578.5216 503.312 577.5584 504.151467zM990.637867 393.835733l-94.360533 82.600533 0 181.290667c0 36.714667-29.952 66.482133-66.894933 66.482133-36.941867 0-66.893867-29.767467-66.893867-66.482133l0-64.197333L556.213333 774.088533c-25.291733 22.103467-63.165867 22.103467-88.4256 0L33.348267 393.835733c-27.730133-24.247467-30.402133-66.264533-5.9808-93.808 24.437333-27.544533 66.692267-30.219733 94.407467-5.938133L512 635.623467l390.2432-341.533867c12.7072-11.130667 28.4608-16.600533 44.181333-16.600533 18.549333 0 37.0048 7.617067 50.209067 22.538667C1021.054933 327.5872 1018.382933 369.5872 990.637867 393.835733z"  horiz-adv-x="1024" />

    
    <glyph glyph-name="icon2" unicode="&#58905;" d="M511.996418 788.479307c-269.76705 0-488.454748-218.688721-488.454748-488.454748 0-269.768073 218.688721-488.453724 488.454748-488.453724 269.766027 0 488.454748 218.685651 488.454748 488.453724C1000.451166 569.790586 781.762445 788.479307 511.996418 788.479307zM769.334391 96.844044l-54.156434-54.156434L511.996418 245.870172 308.813856 42.68761l-54.155411 54.156434L457.841008 300.024559 254.658446 503.207122l54.155411 54.155411L511.996418 354.17997l203.182562 203.182562 54.156434-54.155411L566.151829 300.024559 769.334391 96.844044z"  horiz-adv-x="1024" />

    
    <glyph glyph-name="yanzhengma" unicode="&#58916;" d="M830.989613 86.040864l-45.985334 0 0-68.978001c-2.156106-16.526395-22.992667-22.99369-22.992667-22.99369L187.190845-5.930827c-15.08865 1.436722-22.992667 22.99369-22.992667 22.99369L164.198178 752.833323c-2.155083 16.526395 22.992667 22.992667 22.992667 22.992667l574.820768 0c18.681478-0.719384 22.992667-22.992667 22.992667-22.992667l0-298.907741 45.985334 0L830.989613 798.818657c-5.02955 20.836561-22.99369 22.992667-22.99369 22.992667L141.205511 821.811324c-17.963117-1.437745-22.992667-22.992667-22.992667-22.992667l0-827.742151c1.436722-16.526395 22.992667-22.992667 22.992667-22.992667l666.791435 0c23.712051 5.747911 22.99369 22.992667 22.99369 22.992667L830.990636 86.040864zM716.025255 453.925582l0 68.978001L233.176179 522.903583l0-68.978001L716.025255 453.925582zM853.98228 407.940249 647.047254 201.006246l-91.970668 114.963335c-78.836533 26.282596-45.985334-45.985334-45.985334-45.985334l91.970668-114.965381c42.696428-49.275263 91.971691 0 91.971691 0l206.936049 206.936049C916.392702 434.222845 853.98228 407.940249 853.98228 407.940249z"  horiz-adv-x="1024" />

    
    <glyph glyph-name="time" unicode="&#58898;" d="M698.833 533.187l-193.815-193.862-127.488 127.488c-9.076 9.076-23.831 9.076-32.908 0-9.076-9.076-9.076-23.831 0-32.908l127.488-127.488-36.538-36.538c-9.076-9.076-9.076-23.831 0-32.908 9.076-9.076 23.831-9.076 32.908 0l36.538 36.538 37.097-37.097c9.076-9.076 23.831-9.076 32.908 0 9.076 9.076 9.076 23.831 0 32.908l-37.097 37.097 193.815 193.815c9.076 9.076 9.076 23.831 0 32.908-9.076 9.123-23.831 9.123-32.908 0.047zM512 814.182c-257.071 0-465.455-208.384-465.455-465.455s208.384-465.455 465.455-465.455c257.071 0 465.455 208.384 465.455 465.455 0 257.071-208.384 465.455-465.455 465.455zM535.273-68.646l0 114.828c0 12.847-10.426 23.273-23.273 23.273s-23.273-10.426-23.273-23.273l0-114.828c-211.27 11.776-383.348 181.807-394.333 394.1l115.06 0c12.847 0 23.273 10.426 23.273 23.273 0 12.847-10.426 23.273-23.273 23.273l-114.828 0c12.8 210.804 184.087 382.278 394.1 394.24l0-114.967c0-12.847 10.426-23.273 23.273-23.273s23.273 10.426 23.273 23.273l0 114.921c210.06-11.962 381.347-183.436 394.147-394.193l-114.874 0c-12.847 0-23.273-10.426-23.273-23.273s10.426-23.273 23.273-23.273l115.06 0c-10.985-212.294-183.063-382.324-394.333-394.1z"  horiz-adv-x="1024" />

    
    <glyph glyph-name="search" unicode="&#58894;" d="M437.178 817.598c-206.159 0-373.288-167.129-373.288-373.286 0-206.165 167.129-373.293 373.288-373.293 206.163 0 373.292 167.129 373.292 373.293 0.001 206.157-167.128 373.286-373.292 373.286v0zM437.178 144.731c-165.188 0-299.575 134.391-299.575 299.581 0 165.181 134.386 299.574 299.575 299.574 165.187 0 299.573-134.392 299.573-299.574 0.001-165.189-134.385-299.581-299.573-299.581v0zM949.208-0.895l-165.204 165.237c-15.488-19.161-32.703-36.783-51.107-53.136l164.197-164.22c7.198-7.198 16.624-10.794 26.057-10.794 9.432 0 18.859 3.596 26.063 10.794 14.39 14.395 14.39 37.723-0.006 52.119v0zM949.208-0.895z"  horiz-adv-x="1025" />

    
    <glyph glyph-name="dianhua" unicode="&#58884;" d="M507.918859 245.472488c-49.503789 40.346806-106.623387 94.611243-156.090335 155.822216-34.713235 42.89496-65.404683 87.94306-33.707276 119.633303L95.656089 742.757663C63.221866 702.344339-8.620745 509.896237 299.338585 194.825612c324.458887-332.036833 533.74323-261.005742 569.766359-223.573453L652.205814 187.850422C621.886867 157.599017 582.842793 184.496887 507.918859 245.472488zM947.385483 97.093135l0 0.201601c0 0-169.23738 168.702166-169.343809 168.769707-13.381394 13.347623-34.814547 13.078481-48.127376-0.067541l-61.340939-61.375733 217.469138-217.203066c0 0 61.409504 61.176179 61.342986 61.245767l0.165784 0.132013C961.605005 62.851667 960.162074 84.24798 947.385483 97.093135zM396.298428 598.873909l0 0.168854c14.051691 14.083415 12.74589 35.45005 0 48.196964l0 0.234348c0 0-174.132089 173.597897-174.200654 173.597897-13.452005 13.484753-34.884135 13.148069-48.163193 0l-61.342986-61.441228 222.299375-221.961668C334.888924 537.664983 396.298428 598.774644 396.298428 598.873909z"  horiz-adv-x="1025" />

    
    <glyph glyph-name="tianjia" unicode="&#58909;" d="M62.811501 432.379121l894.919081 0 0-95.727724-894.919081 0 0 95.727724ZM462.408203 831.9748l95.727724 0 0-894.919081-95.727724 0 0 894.919081Z"  horiz-adv-x="1025" />

    
    <glyph glyph-name="xiangji" unicode="&#59303;" d="M772.563946 599.59322c-39.380916 0-84.502579 27.996634-100.636025 47.311539l-43.714617 52.253084c-11.048637 13.175067-30.363542 28.9084-59.815317 28.9084L456.249767 728.066243c-30.219255 0-46.6249-12.32777-63.253626-32.234145l-41.427528-49.566906c-16.341177-19.47454-62.086034-46.671972-99.484805-46.671972-11.879562 0-21.473057 9.609869-21.473057 21.537526 0 11.879562 9.593496 21.521153 21.473057 21.521153 23.296589 0 57.560974 20.577664 66.514903 31.322379l41.427528 49.51881c19.682271 23.552415 46.512337 47.600111 96.222505 47.600111l112.14822 0c48.462758 0 78.922491-27.740808 92.78522-44.322461l42.578748-50.909483c10.264784-12.263301 43.74634-33.209356 68.800969-33.209356 11.879562 0 21.473057-9.641591 21.473057-21.521153C794.037003 609.202065 784.443507 599.59322 772.563946 599.59322L772.563946 599.59322zM834.346057-3.118781 189.630407-3.118781c-47.359634 0-85.925998 38.581714-85.925998 86.037539L103.704408 556.533518c0 47.50392 38.566364 86.117356 85.925998 86.117356l60.406788 0c11.879562 0 21.473057-9.641591 21.473057-21.521153 0-11.927657-9.593496-21.537526-21.473057-21.537526l-60.406788 0c-23.680329 0-42.947138-19.298532-42.947138-43.058678L146.683269 82.918757c0-23.712051 19.266809-43.010583 42.947138-43.010583L834.346057 39.908174c23.663956 0 42.97886 19.298532 42.97886 43.010583L877.324918 556.533518c0 23.760147-19.314904 43.058678-42.97886 43.058678l-60.647265 0c-11.879562 0-21.505803 9.609869-21.505803 21.537526 0 11.879562 9.625218 21.521153 21.505803 21.521153l60.647265 0c47.40773 0 85.957721-38.613436 85.957721-86.117356L920.303778 82.918757C920.303778 35.462932 881.753787-3.118781 834.346057-3.118781L834.346057-3.118781zM662.190139 319.766047c-11.879562 0-21.473057 9.609869-21.473057 21.48943 0 71.103408-57.768705 128.936581-128.72885 128.936581-70.943772 0-128.72885-57.833173-128.72885-128.936581 0-71.088058 57.785078-128.936581 128.72885-128.936581 24.38334 0 48.334845 7.14677 69.2809 20.658506 10.008958 6.460132 23.248494 3.485381 29.692253-6.507204 6.412037-10.025331 3.501754-23.344684-6.443759-29.755698-27.933189-17.972327-59.911508-27.453259-92.529393-27.453259-94.703919 0-171.70771 77.148078-171.70771 171.995259 0 94.863555 77.003791 172.043355 171.70771 172.043355s171.70771-77.1798 171.70771-172.043355C683.695942 329.375915 674.070724 319.766047 662.190139 319.766047L662.190139 319.766047z"  horiz-adv-x="1024" />

    
    <glyph glyph-name="queren" unicode="&#58897;" d="M512-96C246.896-96 32 118.896 32 384 32 649.104 246.896 864 512 864 777.104 864 992 649.104 992 384 992 118.896 777.104-96 512-96ZM792.832 536.832C780.704 548.96 761.024 548.96 748.896 536.832L447.536 235.472 276.032 406.976C264.16 418.864 244.896 418.864 233.024 406.976 221.136 395.104 221.136 375.84 233.024 363.968L419.664 177.328C421.12 174.416 422.688 171.536 425.12 169.104 437.232 156.976 456.912 156.976 469.04 169.104L792.832 492.896C804.96 505.024 804.96 524.704 792.832 536.832Z"  horiz-adv-x="1024" />

    
    <glyph glyph-name="xiangmuguanli" unicode="&#58899;" d="M40.704 580.579l-0.219-0.333 456.083-263.324c4.57-2.646 9.765-4.044 15.021-4.044 5.42 0 10.744 1.465 15.344 4.206L979.52 578.381c14.324 8.295 19.229 26.702 10.932 41.031-2.698 4.657-6.597 8.505-11.221 11.096L528.372 891.953C523.803 894.601 518.607 896 513.35 896c-5.917 0-11.646-1.718-16.578-4.97L44.548 629.939c-14.33-8.23-19.291-26.588-11.059-40.924C35.356 585.766 37.809 582.904 40.704 580.579zM513.242 831.312l391.271-226.896L511.614 377.575 119.484 603.98 513.242 831.312zM979.231 410.07l-84.858 49.209-59.987-34.632 70.128-40.671-392.9-226.839L119.484 383.54l70.28 40.576-59.954 34.615-85.263-49.23c-14.33-8.233-19.291-26.591-11.058-40.923 1.899-3.307 4.406-6.211 7.366-8.558l-0.19-0.321L496.569 96.48c4.57-2.645 9.764-4.042 15.02-4.042 5.42 0.001 10.743 1.464 15.344 4.204L979.52 357.937c14.324 8.3 19.229 26.707 10.932 41.032C987.753 403.63 983.854 407.479 979.231 410.07zM979.231 189.631l-84.509 49.008-59.985-34.632 69.778-40.467-392.9-226.842L119.484 163.1l69.93 40.377-59.951 34.613-84.915-49.03c-14.331-8.233-19.291-26.591-11.058-40.922 1.877-3.269 4.351-6.146 7.271-8.481l-0.208-0.328 456.015-263.283c4.571-2.647 9.766-4.047 15.023-4.046 5.418 0 10.741 1.463 15.342 4.202L979.521 137.5c14.323 8.301 19.227 26.708 10.931 41.033C987.756 183.188 983.857 187.037 979.231 189.631z"  horiz-adv-x="1024" />

    
    <glyph glyph-name="suoshuzhiwei" unicode="&#58914;" d="M976 326 976 326l0-290c0-32-26-58-58-58L106-22c-32 0-58 26-58 58L48 529c0 32 26 58 58 58l812 0c32 0 58-26 58-58l0-145 0 0L976 326zM918 529 106 529l0-145 319 0 0-58L106 326l0-290 812 0L918 326 599 326l0 58 319 0L918 529zM483 442l58 0 0-174-58 0L483 442zM744 732 280 732l0-145-58 0L222 732c0 32 26 58 58 58l464 0c32 0 58-26 58-58l0-145-58 0L744 732z"  horiz-adv-x="1024" />

    
    <glyph glyph-name="down-shang" unicode="&#58928;" d="M814.39 255.62199999999996l-303.351 303.351-303.351-303.351 54.604-54.603 248.747 248.748 248.748-248.748z"  horiz-adv-x="1024" />

    
    <glyph glyph-name="deletexx" unicode="&#59146;" d="M786.7392 562.57536L608.17408 384 786.7392 205.42463999999995c26.56256-26.56256 26.56256-69.61152 0-96.17408-13.27104-13.27104-30.6688-19.9168-48.06656-19.9168-17.408 0-34.80576 6.63552-48.0768 19.9168L512 287.83615999999995l-178.5856-178.5856c-13.27104-13.27104-30.6688-19.9168-48.0768-19.9168-17.39776 0-34.78528 6.63552-48.06656 19.9168-26.56256 26.55232-26.56256 69.60128 0 96.17408L415.82592 384 237.2608 562.57536c-26.56256 26.56256-26.56256 69.61152 0 96.17408 26.55232 26.54208 69.5808 26.54208 96.14336 0L512 480.16384l178.5856 178.5856c26.56256 26.54208 69.59104 26.54208 96.14336 0C813.30176 632.18688 813.30176 589.13792 786.7392 562.57536z"  horiz-adv-x="1024" />

    
    <glyph glyph-name="jianhaocu" unicode="&#58900;" d="M128.036583 447.615876l766.998695 0 0-126.889969-766.998695 0 0 126.889969Z"  horiz-adv-x="1024" />

    
    <glyph glyph-name="28" unicode="&#58911;" d="M512 128c-211.2 0-384 172.8-384 384s172.8 384 384 384 384-172.8 384-384S723.2 128 512 128zM512 832C332.8 832 192 691.2 192 512s140.8-320 320-320 320 140.8 320 320S691.2 832 512 832zM512-128c-108.8 0-192 83.2-192 192l0 12.8c0 12.8 6.4 19.2 12.8 25.6 6.4 6.4 19.2 6.4 32 0 89.6-44.8 198.4-44.8 288 0 12.8 6.4 19.2 6.4 32 0 6.4-6.4 12.8-19.2 12.8-25.6L697.6 64C704-44.8 620.8-128 512-128zM390.4 32C403.2-25.6 454.4-64 512-64s108.8 38.4 121.6 96C556.8 0 467.2 0 390.4 32zM627.2 339.2c-19.2 0-32 12.8-32 32L595.2 480 531.2 422.4c-12.8-12.8-32-12.8-44.8 0L435.2 480l0-108.8c0-19.2-12.8-32-32-32S371.2 352 371.2 371.2L371.2 550.4C371.2 563.2 377.6 576 384 582.4c12.8 6.4 25.6 0 32-6.4L512 492.8 601.6 576C614.4 582.4 627.2 582.4 640 582.4c12.8-6.4 19.2-19.2 19.2-32l0-179.2C652.8 352 640 339.2 627.2 339.2z"  horiz-adv-x="1024" />

    
    <glyph glyph-name="tianjia1" unicode="&#59419;" d="M800 384 576 384 576 608C576 625.92 561.92 640 544 640 526.08 640 512 625.92 512 608L512 384 288 384C270.08 384 256 369.92 256 352 256 334.08 270.08 320 288 320L512 320l0-224C512 78.08 526.08 64 544 64 561.92 64 576 78.08 576 96L576 320l224 0C817.92 320 832 334.08 832 352 832 369.92 817.92 384 800 384zM544 832C279.04 832 64 616.96 64 352 64 87.04 279.04-128 544-128S1024 87.04 1024 352C1024 616.96 808.96 832 544 832zM544-64C314.24-64 128 122.24 128 352 128 581.76 314.24 768 544 768 773.76 768 960 581.76 960 352 960 122.24 773.76-64 544-64z"  horiz-adv-x="1024" />

    
    <glyph glyph-name="duoyuyan" unicode="&#58927;" d="M848.805886 90.427778c70.998007 81.260745 109.779266 184.217628 109.779266 293.14448 0 119.204939-46.421262 231.277434-130.713041 315.569212C744.876861 782.137743 634.94103 828.38402 517.788843 829.786972c-1.924839 0.599657-10.290367 0.592494-12.227486-0.01535C388.878868 828.054515 279.434224 781.840984 196.73471 699.14147 113.863281 616.269018 67.630307 506.539894 66.095347 389.584182c-0.428765-1.64957-0.436952-8.601912-0.021489-10.226922 1.082658-117.628024 47.364751-228.058113 130.660852-311.354214 84.291778-84.291778 196.36325-130.713041 315.569212-130.713041 119.204939 0 231.277434 46.421262 315.569212 130.713041 6.139837 6.139837 12.054547 12.444427 17.789155 18.871813 0.50756 0.453325 1.001817 0.928139 1.471514 1.440815C847.750857 88.987986 848.295256 89.700207 848.805886 90.427778zM107.447151 363.956501l187.501418 0c1.322112-65.678862 9.253758-127.264499 22.505573-182.112688-61.690014-16.687054-100.819197-38.371936-121.076566-51.906184C144.30971 194.663794 111.676475 275.64313 107.447151 363.956501zM195.881272 636.591879c20.090571-13.556761 59.242266-35.461653 121.340579-52.260248-12.998035-54.127781-20.827351-114.778116-22.243607-179.432649L107.525945 404.898982C112.076588 492.268866 144.437623 572.387601 195.881272 636.591879zM917.081898 404.900006 729.628576 404.900006c-1.415232 64.630996-9.240455 125.260865-22.229281 179.37432 61.95505 16.693194 101.235682 38.444591 121.56673 52.020794C880.270505 572.139961 912.537396 492.133789 917.081898 404.900006zM688.677908 404.900006 532.167319 404.900006 532.167319 560.938851c52.209082 1.094938 97.103572 6.453992 135.272893 14.033621C680.000272 522.836045 687.286212 465.103156 688.677908 404.900006zM532.167319 601.884402 532.167319 786.081565c36.84107-10.398838 72.779583-49.205679 100.926644-110.015649 8.810666-19.035542 16.645099-39.641859 23.464411-61.521169C621.531626 607.772506 580.261687 602.937384 532.167319 601.884402zM491.223814 785.726477l0-183.805236c-47.504944 1.12666-88.378863 6.001691-123.120109 12.802584 6.807033 21.812795 14.623046 42.35976 23.409153 61.344137C419.351903 736.207667 454.809463 774.824173 491.223814 785.726477zM491.223814 560.959318l0-156.059312L335.928912 404.900006c1.391696 60.213383 8.679683 117.955482 21.243837 170.099073C395.008472 567.463452 439.487499 562.112584 491.223814 560.959318zM335.893096 363.956501l155.330718 0 0-158.667719c-51.609425-1.194198-96.019891-6.563486-133.821845-14.103206C344.576873 244.072087 337.193719 302.756651 335.893096 363.956501zM491.223814 164.327882l0-182.909843c-36.415374 10.902304-71.871911 49.51881-99.709933 109.659539-8.679683 18.752086-16.409738 39.034015-23.157419 60.551074C402.9964 158.354843 443.773106 163.179732 491.223814 164.327882zM532.167319-18.937049 532.167319 164.391327c47.904033-1.025353 89.103364-5.862521 124.116809-12.656251-6.755868-21.555945-14.497179-41.87369-23.190165-60.656475C604.946902 30.26863 569.008388-8.538211 532.167319-18.937049zM532.167319 205.339948 532.167319 363.956501l156.546406 0c-1.298576-61.096497-8.66024-119.68487-21.445428-172.502819C629.154233 198.986239 584.319096 204.289012 532.167319 205.339948zM729.659275 363.956501l187.501418 0c-4.221138-88.138386-36.732599-168.973436-88.620363-233.635131-20.469194 13.668301-59.635215 35.298947-121.30374 51.868321C720.43724 236.950899 728.33921 298.414763 729.659275 363.956501zM801.518906 667.257296c-18.329461-11.570523-52.309366-29.355585-104.858186-43.493583-19.295462 63.056128-46.110177 115.004267-78.06189 150.97655C689.00025 755.589087 751.833297 717.902766 801.518906 667.257296zM406.007991 774.740262c-31.905664-35.920094-58.690704-87.768973-77.979002-150.702304-52.40351 14.241352-86.370113 32.099069-104.581893 43.587728C273.076422 718.085938 335.777463 755.635135 406.007991 774.740262zM223.917816 99.036853c18.284435 11.535731 52.098565 29.230742 104.332207 43.335994 19.271926-62.60485 45.976124-114.186645 77.757968-149.968593C335.99952 11.449006 273.472442 48.818101 223.917816 99.036853zM618.59883-7.595746c31.801287 35.803437 58.517765 87.426165 77.792761 150.08218 51.984978-14.023388 85.972047-31.631418 104.533798-43.208081C751.3329 48.938851 688.718841 11.478681 618.59883-7.595746z"  horiz-adv-x="1024" />

    
    <glyph glyph-name="tishi" unicode="&#58915;" d="M896.355855-79.884143 127.652332-79.884143c-51.575656 0-92.993974 19.771299-113.653503 54.238298-20.708648 34.515095-18.194384 79.5815 6.9022 123.5632L408.803663 778.114103c25.244964 44.376697 62.767556 69.77004 102.953813 69.77004 40.136116 0 77.658707-25.393343 103.002932-69.671803L1003.006873 97.868237c25.097608-44.030819 27.711132-89.049129 6.952342-123.514081C989.348806-60.159916 947.881368-79.884143 896.355855-79.884143L896.355855-79.884143 896.355855-79.884143 896.355855-79.884143 896.355855-79.884143zM511.805572 776.488069c-12.769838 0-27.414373-12.376888-39.298028-33.134655L84.656075 63.107549c-12.130272-21.350261-14.989389-40.530089-7.741311-52.611242 7.297197-12.08013 25.787316-19.033495 50.737568-19.033495l768.703523 0c24.997324 0 43.439348 6.903224 50.736545 19.033495 7.197936 12.031011 4.387937 31.210839-7.791453 52.5611L551.055504 743.353414C539.220968 764.111181 524.527314 776.488069 511.805572 776.488069L511.805572 776.488069 511.805572 776.488069 511.805572 776.488069 511.805572 776.488069zM512.004093 242.192274c-20.1182 0-36.488029 15.975856-36.488029 35.69906L475.516064 599.226876c0 19.723204 16.369829 35.698037 36.488029 35.698037 20.117177 0 36.485983-15.975856 36.485983-35.698037l0-321.335543C548.490076 258.167107 532.12127 242.192274 512.004093 242.192274L512.004093 242.192274 512.004093 242.192274 512.004093 242.192274zM511.757476 67.691961c31.359218 0 56.851822 24.950252 56.851822 55.717999s-25.491581 55.716976-56.851822 55.716976c-31.408337 0-56.851822-24.949228-56.851822-55.716976S480.349139 67.691961 511.757476 67.691961L511.757476 67.691961 511.757476 67.691961 511.757476 67.691961z"  horiz-adv-x="1040" />

    
    <glyph glyph-name="xiazai41" unicode="&#58902;" d="M888.514259 153.665031 888.514259 153.665031c-12.409634-12.409634-32.715099-12.409634-45.124733 0l-90.248444 90.248444c-12.409634 12.409634-12.409634 32.715099 0 45.124733l0 0c12.409634 12.409634 32.715099 12.409634 45.124733 0l90.249467-90.248444C900.92287 186.38013 900.92287 166.074665 888.514259 153.665031zM935.280376 414.631648 935.280376 414.631648c0-17.549701-14.358009-31.907711-31.907711-31.907711L775.741823 382.723937c-17.549701 0-31.907711 14.358009-31.907711 31.907711l0 0c0 17.549701 14.358009 31.907711 31.907711 31.907711l127.630842 0C920.922367 446.539358 935.280376 432.181349 935.280376 414.631648zM753.141082 522.055263 753.141082 522.055263c12.409634-12.409634 32.715099-12.409634 45.124733 0l90.249467 90.248444c12.409634 12.409634 12.409634 32.715099 0 45.124733l0 0c-12.409634 12.409634-32.715099 12.409634-45.124733 0l-90.248444-90.248444C740.731448 554.770362 740.731448 534.464897 753.141082 522.055263zM623.036909-55.717743c-11.110035 0-22.583344 4.448312-32.720216 13.024641l-246.657726 208.682833c-13.453407 11.382235-15.132652 31.515784-3.750417 44.968168 11.382235 13.452383 31.515784 15.132652 44.968168 3.750417l216.285998-182.987614L601.162716 735.96719 407.043576 570.432063c-17.97335-15.326057-48.161906-26.450419-71.78186-26.450419L152.535045 543.981644l0-321.972039 87.490633 0c17.622356 0 31.907711-14.285355 31.907711-31.907711s-14.285355-31.907711-31.907711-31.907711l-90.391706 0c-33.589003 0-60.915371 27.325345-60.915371 60.914348L88.718601 546.882718c0 33.589003 27.326369 60.915371 60.915371 60.915371l185.626721 0c8.382924 0 23.99653 5.753027 30.375821 11.1919L590.295204 810.567235c15.430434 13.155624 33.994232 16.695241 49.662073 9.464559 15.666818-7.230682 25.02086-23.652699 25.02086-43.929512L664.978137-8.063397c0-20.249183-9.340739-36.671201-24.987091-43.928488C634.604362-54.489776 628.870778-55.717743 623.036909-55.717743z"  horiz-adv-x="1024" />

    
    <glyph glyph-name="ai-hongbao" unicode="&#58920;" d="M854.56 896h-689.376c-109.024 0-133.184-30.56-133.184-146.144v-57.216c72.224-37.6 163.328-85.44 264.96-117.792 28.32 89.216 112.928 153.952 212.896 153.952 99.84 0 184.352-64.576 212.736-153.568 102.528 33.664 192.32 84.224 265.12 124.096v50.56c0.032 115.552-24.16 146.112-133.152 146.112zM509.856 289.952c-118.496 0-215.136 91.008-222.304 205.824-92.032 29.152-179.008 69.792-255.552 105.44v-604.448c0-115.552 24.16-124.768 133.184-124.768h689.344c109.024 0 133.184 9.216 133.184 124.8v610.144c-77.728-37.92-163.616-80.416-255.552-110.56-6.816-115.104-103.584-206.432-222.304-206.432zM566.048 657.056l-45.216-100.64c-3.744-8.48-6.496-14.976-8.256-19.456h-0.8l-54.656 120.128h-66.72l74.752-134.016h-56.672v-38.176h69.12v-32.96h-69.12v-38.176h69.12v-55.36h63.328v55.328h66.912v38.176h-66.912v32.96h66.912v38.176h-55.488l76.96 134.016h-63.264z"  horiz-adv-x="1024" />

    
    <glyph glyph-name="tuichu" unicode="&#58959;" d="M527.270798 480.102778c9.046027 0 16.665565 3.097548 22.862707 9.29469 6.197142 6.200212 9.29469 13.654998 9.29469 22.363334l0 256.317737c0 8.711406-3.097548 16.249079-9.29469 22.614044-6.198166 6.364965-13.817704 9.5454-22.862707 9.5454-8.711406 0-16.166191-3.181459-22.363334-9.5454-6.197142-6.364965-9.29469-13.903661-9.29469-22.614044l0-256.316713c0-8.707312 3.097548-16.163121 9.29469-22.363334C511.104607 483.200326 518.560416 480.102778 527.270798 480.102778zM885.160885 465.33033c-7.135514 28.806069-17.565051 56.106856-31.281447 81.900312-13.716396 25.78834-30.178323 49.79408-49.383734 72.01722-19.206434 22.223141-41.159422 42.117237-65.849754 59.676148-66.653049-2.316765-59.473533-51.0507-47.844681-74.256214 74.944899-51.819203 124.057457-138.344858 124.057457-236.356103 0-158.600181-128.570237-287.170418-287.170418-287.170418s-287.170418 128.570237-287.170418 287.170418c0 94.438882 45.591361 178.224124 115.961058 230.564189 9.648754 22.668279 13.375635 74.133418-48.315402 74.28589-23.048949-17.559934-43.900859-37.312814-62.554708-59.265802-18.657942-21.945825-34.294061-45.541219-46.920636-70.78209-12.619412-25.244964-22.360264-51.853995-29.221532-79.839373-6.860245-27.985378-10.284227-56.522318-10.284227-85.60161 0-51.03842 9.599635-98.912777 28.810163-143.637398 19.201318-44.715411 45.540196-83.678818 79.014588-116.874871 33.473369-33.20424 72.568782-59.539025 117.293403-79.018681 44.724621-19.481703 92.325755-29.224602 142.81159-29.224602 51.025117 0 98.908684 9.741875 143.624095 29.224602 44.725644 19.478633 83.682911 45.813419 116.888174 79.018681 33.196053 33.19196 59.534931 72.155367 79.014588 116.874871 19.48375 44.724621 29.220508 92.598978 29.220508 143.633305C895.859551 407.303752 892.290259 436.520167 885.160885 465.33033z"  horiz-adv-x="1024" />

    
    <glyph glyph-name="fenlei" unicode="&#58968;" d="M372.374696 802.84581q25.491887 0 43.61527-17.653053t18.123383-43.113585l0-244.979227q0-25.491887-18.123383-43.61527t-43.61527-18.123383l-244.979227 0q-25.491887 0-43.113585 18.123383t-17.653053 43.61527l0 244.979227q0 25.491887 17.653053 43.113585t43.113585 17.653053l244.979227 0zM372.374696 312.918711q25.491887 0 43.61527-17.653053t18.123383-43.113585l0-245.951242q0-25.491887-18.123383-43.113585t-43.61527-17.653053l-244.979227 0q-25.491887 0-43.113585 17.653053t-17.653053 43.113585l0 245.951242q0 25.491887 17.653053 43.113585t43.113585 17.653053l244.979227 0zM863.27381 312.918711q25.491887 0 43.113585-17.653053t17.653053-43.113585l0-245.951242q0-25.491887-17.653053-43.113585t-43.113585-17.653053l-244.979227 0q-25.491887 0-43.61527 17.653053t-18.123383 43.113585l0 245.951242q0 25.491887 18.123383 43.113585t43.61527 17.653053l244.979227 0zM999.481383 695.077526q19.597084-19.597084 19.597084-46.060986t-19.597084-45.088971l-182.268558-182.268558q-19.597084-19.597084-45.559301-19.597084t-45.559301 19.597084l-182.268558 182.268558q-18.625069 18.625069-18.625069 45.088971t18.625069 46.060986l182.268558 182.268558q19.597084 18.625069 45.559301 18.625069t45.559301-18.625069z"  horiz-adv-x="1024" />

    
    <glyph glyph-name="jifen" unicode="&#58925;" d="M433.68843 503.051296c101.861174 0 207.804288 22.402015 271.42708 65.115205l0-77.763622 58.948509 0L764.064018 660.668163c0 102.359862-170.169196 157.621732-330.275851 157.621732C273.676647 818.289895 103.412579 763.028025 103.412579 660.668163l0-464.692803c0-102.359862 170.16433-157.621732 330.275851-157.621732l0 58.843906c-168.174446 0-271.431945 57.555833-271.431945 98.777826L162.256485 335.671102c63.627657-42.613453 169.471033-65.12007 271.431945-65.12007l0 58.948509c-168.174446 0-271.431945 57.550967-271.431945 98.771745L162.256485 568.066764C225.884142 525.453311 331.827255 503.051296 433.68843 503.051296L433.68843 503.051296zM433.68843 759.445989c168.174446 0 271.42708-57.557049 271.42708-98.777826 0-41.221993-103.25385-98.772961-271.42708-98.772961-168.174446 0-271.431945 57.550967-271.431945 98.772961C162.256485 701.88894 265.613722 759.445989 433.68843 759.445989L433.68843 759.445989zM697.747098 470.789866c-146.266253 0-222.736937-56.258029-222.736937-111.819112l0-298.614061c0-55.556218 76.570421-111.815463 222.736937-111.815463 145.177655 0 221.544952 55.461345 222.741802 110.622262l0.099737 0L920.588637 358.970754C920.4889 414.531837 844.018216 470.789866 697.747098 470.789866L697.747098 470.789866zM697.747098 411.942311c108.137339 0 163.893031-37.140054 163.893031-52.971557s-55.755693-52.971557-163.893031-52.971557c-108.132473 0-163.893031 37.140054-163.893031 52.971557S589.613408 411.942311 697.747098 411.942311L697.747098 411.942311zM697.747098 7.385136c-108.132473 0-163.893031 37.140054-163.893031 52.971557l0 71.296497c37.339529-20.316041 92.207314-33.857231 163.893031-33.857231 71.690582 0 126.45863 13.541189 163.893031 33.857231l0-71.296497C861.640129 44.526406 805.884436 7.385136 697.747098 7.385136L697.747098 7.385136zM697.747098 156.744468c-108.132473 0-163.893031 37.140054-163.893031 52.971557l0 71.291632c37.339529-20.311176 92.207314-33.852366 163.893031-33.852366 71.690582 0 126.45863 13.541189 163.893031 33.852366l0-71.291632C861.640129 193.884522 805.884436 156.744468 697.747098 156.744468L697.747098 156.744468zM697.747098 156.744468"  horiz-adv-x="1024" />

    
    <glyph glyph-name="arrow-down" unicode="&#58882;" d="M472.064 144.44799999999998L72.832 543.6800000000001c-22.08 22.08-22.08 57.792 0 79.872 22.016 22.016 57.792 22.08 79.872 0L512 264.256l359.296 359.296c22.016 22.016 57.792 22.08 79.872 0 22.08-22.08 22.016-57.792 0-79.872l-399.232-399.232C529.856 122.43200000000002 494.144 122.43200000000002 472.064 144.44799999999998z"  horiz-adv-x="1024" />

    
    <glyph glyph-name="yinxingqia1" unicode="&#58965;" d="M63.104 656.06144l897.79712 0 0-544.12288L63.104 111.93856 63.104 656.06144zM932.608 397.63968 88.33536 398.57152l1.0496-260.20352 842.67008-0.93184L932.608 397.63968zM932.608 516.96128l0.30208 111.72864L88.53504 629.62688l-0.19968-111.72864L932.608 516.96128zM122.66496 301.00992l143.36512 0 0-99.87072-143.36512 0 0 99.87072Z"  horiz-adv-x="1024" />

    
    <glyph glyph-name="arrow-top" unicode="&#58910;" d="M472.064 623.552l-399.232-399.232c-22.08-22.08-22.08-57.792 0-79.872 22.016-22.016 57.792-22.08 79.872 0L512 503.744l359.296-359.296c22.016-22.016 57.792-22.08 79.872 0 22.08 22.08 22.016 57.792 0 79.872L551.936 623.552C529.856 645.568 494.144 645.568 472.064 623.552z"  horiz-adv-x="1024" />

    
    <glyph glyph-name="duigou" unicode="&#59154;" d="M869.66 793.515l-503.318-501.329-200.543 210.069-85.339-85.338 285.882-295.409 588.657 586.667-85.34 85.339z"  horiz-adv-x="1024" />

    
    <glyph glyph-name="caidan" unicode="&#58904;" d="M79.169331 782.649446l121.006899 0 0-120.557773-121.006899 0 0 120.557773ZM324.965581 782.649446l647.967334 0 0-120.557773-647.967334 0 0 120.557773ZM79.169331 451.450163l121.006899 0 0-120.557773-121.006899 0 0 120.557773ZM324.965581 451.450163l647.967334 0 0-120.557773-647.967334 0 0 120.557773ZM79.169331 141.159219l121.006899 0 0-120.334643-121.006899 0 0 120.334643ZM324.965581 141.159219l647.967334 0 0-120.334643-647.967334 0 0 120.334643Z"  horiz-adv-x="1024" />

    
    <glyph glyph-name="shenfenzheng" unicode="&#58932;" d="M699.129958 709.401138l229.264591 0c12.737092 0 25.474185-8.491395 25.474185-25.474185l0 0 0-590.143755c0-12.737092-12.737092-25.474185-25.474185-25.474185l0 0L699.129958 68.309014l0 50.947346 203.790406 0L902.920364 658.453792 699.129958 658.453792 699.129958 709.401138 699.129958 709.401138zM699.129958 238.135888l144.351666 0c12.737092 0 21.228487 8.491395 21.228487 16.98279 0 12.737092-8.491395 21.228487-21.228487 21.228487L699.129958 276.347165 699.129958 238.135888 699.129958 238.135888zM699.129958 361.259066l144.351666 0c12.737092 0 21.228487 8.491395 21.228487 21.228487 0 12.737092-8.491395 21.228487-21.228487 21.228487L699.129958 403.716041 699.129958 361.259066 699.129958 361.259066zM699.129958 488.627942l144.351666 0c12.737092 0 21.228487 8.491395 21.228487 21.228487s-8.491395 21.228487-21.228487 21.228487L699.129958 531.084916 699.129958 488.627942zM329.759399 709.401138l369.370559 0 0-50.947346L329.759399 658.453792 329.759399 709.401138 329.759399 709.401138zM699.129958 68.310038 329.759399 68.310038l0 50.947346 369.370559 0L699.129958 68.310038 699.129958 68.310038zM699.129958 531.084916l0-42.455951L554.778292 488.628966c-8.491395 0-16.98279 8.491395-16.98279 21.228487s8.491395 21.228487 16.98279 21.228487L699.129958 531.08594 699.129958 531.084916zM699.129958 403.715017l0-42.455951L554.778292 361.259066c-8.491395 0-16.98279 8.491395-16.98279 21.228487 0 12.737092 8.491395 21.228487 16.98279 21.228487L699.129958 403.716041 699.129958 403.715017zM699.129958 276.346141l0-38.211277L554.778292 238.134865c-8.491395 0-16.98279 8.491395-16.98279 16.98279 0 12.737092 8.491395 21.228487 16.98279 21.228487L699.129958 276.346141 699.129958 276.346141zM329.759399 233.89019l0 42.455951 97.650017 0 0 21.228487 0 0 0 0c0 8.491395-4.245697 16.98279-12.737092 21.228487-12.737092 8.491395-25.474185 12.737092-38.210253 12.737092l0 0 0 0-46.701648 0 0 46.701648 0 0 0 0c21.228487 0 38.211277 8.491395 55.193043 25.474185 12.737092 12.737092 21.228487 33.965579 21.228487 55.193043l0 0 0 0 0 0 0 0c0 21.228487-8.491395 42.455951-21.228487 55.193043-16.98279 12.737092-33.965579 21.228487-55.193043 21.228487l0 0 0 0 0 42.455951 0 0 0 0c29.719882 0 59.438741-12.737092 84.912925-33.965579 21.228487-21.228487 33.965579-50.947346 33.965579-84.912925l0 0 0 0 0 0 0 0c0-33.965579-12.737092-63.684438-33.965579-84.912925-4.245697-4.245697-4.245697-4.245697-8.491395-4.245697 12.737092-4.245697 25.474185-8.491395 33.965579-16.98279 16.98279-12.737092 25.474185-33.965579 29.719882-55.193043l0 0 0 0 0-42.456974 0-21.228487-21.228487 0L329.759399 233.888144zM92.003414 709.401138l237.755985 0 0-50.947346L117.476575 658.453792l0-539.196409 212.281801 0 0-50.947346L92.003414 68.310038c-12.737092 0-25.474185 12.737092-25.474185 25.474185L66.529229 683.927977C66.529229 700.910767 79.266321 709.401138 92.003414 709.401138L92.003414 709.401138zM329.759399 577.786565 329.759399 577.786565 329.759399 577.786565c-33.965579 0-63.684438-12.737092-84.912925-33.965579-25.474185-21.228487-38.210253-50.947346-38.210253-84.912925l0 0 0 0 0 0 0 0c0-33.965579 12.737092-63.684438 38.210253-84.912925 0 0 0-4.245697 4.245697-4.245697-12.737092-4.245697-21.228487-8.491395-33.965579-16.98279l4.245697 0c-21.228487-12.737092-29.719882-33.965579-29.719882-55.193043l0 0 0 0 0-42.456974 0-21.228487 21.228487 0 118.877481 0 0 42.455951L227.863684 276.344095l0 21.228487 0 0 0 0c0 8.491395 8.491395 16.98279 12.737092 21.228487l0 0c12.737092 8.491395 25.474185 12.737092 38.210253 12.737092l0 0 0 0 50.947346 0 0 46.701648 0 0 0 0c-25.474185 0-42.455951 8.491395-55.193043 25.474185-16.98279 12.737092-25.474185 33.965579-25.474185 55.193043l0 0 0 0 0 0 0 0c0 21.228487 8.491395 42.455951 25.474185 55.193043 12.737092 12.737092 29.719882 21.228487 55.193043 21.228487l0 0 0 0L329.758376 577.786565z"  horiz-adv-x="1024" />

    
    <glyph glyph-name="xiuxi" unicode="&#58983;" d="M876.269568 414.036992c-34.97472 0-67.019776-12.530688-91.904-33.340416l0 61.312c0 14.420992-11.691008 26.112-26.112 26.112l-26.312704 0L58.5728 468.120576 32.259072 468.120576c-14.420992 0-26.112-11.691008-26.112-26.112l0-187.373568c0-169.662464 137.537536-307.2 307.2-307.2l163.816448 0c140.78976 0 259.449856 94.710784 295.762944 223.89248 26.084352-27.12576 62.74048-44.010496 103.344128-44.010496 79.174656 0 143.36 64.185344 143.36 143.36S955.445248 414.036992 876.269568 414.036992zM732.141568 255.659008c0-141.384704-114.615296-256-256.003072-256L314.371072-0.340992c-141.384704 0-256 114.615296-256 256L58.371072 415.896576l673.770496 0L732.141568 255.659008zM876.269568 179.028992c-50.61632 0-91.648 41.03168-91.648 91.648s41.03168 91.648 91.648 91.648 91.648-41.03168 91.648-91.648S926.885888 179.028992 876.269568 179.028992zM177.567744 682.253312c13.712384-13.712384 22.194176-32.656384 22.194176-53.5808s-8.481792-39.86944-22.194176-53.581824l0.032768-0.032768c-4.777984-4.732928-7.739392-11.29472-7.739392-18.550784 0-14.420992 11.691008-26.112 26.112-26.112 7.822336 0 14.835712 3.443712 19.621888 8.89344 22.51264 23.069696 36.390912 54.603776 36.390912 89.383936 0 35.265536-14.263296 67.197952-37.331968 90.34752l0.002048 0.002048c-13.713408 13.713408-22.194176 32.657408-22.194176 53.581824s8.480768 39.86944 22.194176 53.581824l-0.038912 0.038912c4.20864 4.635648 6.774784 10.791936 6.774784 17.547264 0 14.420992-11.691008 26.112-26.112 26.112-6.755328 0-12.910592-2.56512-17.547264-6.774784l-0.00512 0.00512c-0.043008-0.043008-0.084992-0.088064-0.128-0.131072-0.67072-0.618496-1.306624-1.272832-1.910784-1.956864-21.961728-22.980608-35.452928-54.125568-35.452928-88.4224 0-35.264512 14.263296-67.197952 37.332992-90.34752L177.567744 682.253312zM362.911744 682.253312c13.712384-13.712384 22.194176-32.656384 22.194176-53.5808s-8.481792-39.86944-22.194176-53.581824l0.032768-0.032768c-4.777984-4.732928-7.739392-11.29472-7.739392-18.550784 0-14.420992 11.691008-26.112 26.112-26.112 7.822336 0 14.835712 3.443712 19.621888 8.89344 22.51264 23.069696 36.390912 54.603776 36.390912 89.383936 0 35.265536-14.263296 67.197952-37.331968 90.34752l0.002048 0.002048c-13.713408 13.713408-22.194176 32.657408-22.194176 53.581824s8.480768 39.86944 22.194176 53.581824l-0.038912 0.038912c4.20864 4.635648 6.774784 10.791936 6.774784 17.547264 0 14.420992-11.691008 26.112-26.112 26.112-6.755328 0-12.910592-2.56512-17.547264-6.774784l-0.00512 0.00512c-0.043008-0.043008-0.084992-0.088064-0.128-0.131072-0.67072-0.618496-1.306624-1.272832-1.910784-1.956864-21.961728-22.980608-35.452928-54.125568-35.452928-88.4224 0-35.264512 14.263296-67.197952 37.332992-90.34752L362.911744 682.253312zM549.330944 682.253312c13.712384-13.712384 22.194176-32.656384 22.194176-53.5808s-8.481792-39.86944-22.194176-53.581824l0.031744-0.032768c-4.777984-4.732928-7.739392-11.29472-7.739392-18.550784 0-14.420992 11.691008-26.112 26.112-26.112 7.822336 0 14.835712 3.443712 19.620864 8.89344 22.51264 23.069696 36.391936 54.603776 36.391936 89.383936 0 35.265536-14.26432 67.197952-37.331968 90.34752l0.002048 0.002048c-13.714432 13.713408-22.194176 32.657408-22.194176 53.581824s8.479744 39.86944 22.194176 53.581824l-0.038912 0.038912c4.20864 4.635648 6.774784 10.791936 6.774784 17.547264 0 14.420992-11.691008 26.112-26.112 26.112-6.756352 0-12.911616-2.56512-17.548288-6.774784l-0.004096 0.00512c-0.044032-0.043008-0.086016-0.088064-0.128-0.131072-0.671744-0.618496-1.307648-1.272832-1.910784-1.956864-21.961728-22.980608-35.452928-54.125568-35.452928-88.4224 0-35.264512 14.26432-67.197952 37.334016-90.34752L549.330944 682.253312z"  horiz-adv-x="1036" />

    
    <glyph glyph-name="dizhi" unicode="&#58945;" d="M511.999488-53.020308c-117.532857 0-228.322126 18.036795-311.960011 50.78771-89.400123 35.006282-138.635477 83.833337-138.635477 137.485281 0 27.15036 13.024641 67.624167 75.074859 106.260116 43.931558 27.352975 105.499799 49.376571 178.050162 63.686485 10.534937 2.079358 20.759813-4.776793 22.838148-15.312754 2.077312-10.534937-4.777817-20.759813-15.312754-22.837124-132.644019-26.163893-221.763756-79.129198-221.763756-131.796722 0-36.011168 41.525766-72.925916 113.927749-101.276614 79.229482-31.024597 184.984085-48.110741 297.782104-48.110741 112.798019 0 218.551598 17.08512 297.78108 48.110741 72.40403 28.350698 113.928772 65.264423 113.928772 101.276614 0 53.358255-90.715071 106.633622-225.734184 132.569318-10.546194 2.025123-17.452487 12.216229-15.426341 22.7614 2.025123 10.547217 12.220323 17.452487 22.7614 15.426341 73.634044-14.144138 136.194892-36.170804 180.917466-63.696718 63.11855-38.848797 76.367295-79.662341 76.367295-107.060341 0-53.651944-49.234331-102.478999-138.635477-137.485281C740.321614-34.984536 629.531322-53.020308 511.999488-53.020308zM512.012791 127.69045c-5.720282 0-11.384281 2.511193-15.223726 7.334036-92.082208 115.657136-145.973606 214.814484-174.967964 277.630135-30.347169 65.7464-40.566928 106.270349-41.764196 111.246687-5.770424 20.85191-8.696056 42.488697-8.696056 64.314795 0 64.276932 25.031093 124.706233 70.481238 170.157401 45.451168 45.451168 105.880469 70.481238 170.157401 70.481238 10.737552 0 19.442818-8.704243 19.442818-19.442818 0-10.737552-8.705266-19.442818-19.442818-19.442818-111.246687 0-201.753003-90.506317-201.753003-201.753003 0-18.428721 2.480494-36.682457 7.372921-54.251601l0.211824-0.830925c0.085958-0.367367 9.552563-40.024575 39.969317-105.638969 28.078499-60.57154 80.263022-156.279323 169.410388-268.251533 6.688329-8.400321 5.300726-20.6319-3.100618-27.320229C520.531815 129.074983 516.256442 127.69045 512.012791 127.69045zM515.917728 127.69045c-4.243651 0-8.518001 1.384533-12.096503 4.233418-8.400321 6.688329-9.788947 18.919908-3.100618 27.320229 171.202197 215.035518 209.017454 372.32689 209.378681 373.890502l0.211824 0.829901c4.892427 17.571191 7.372921 35.823903 7.372921 54.251601 0 111.246687-90.505293 201.753003-201.753003 201.753003-10.737552 0-19.442818 8.705266-19.442818 19.442818 0 10.738575 8.705266 19.442818 19.442818 19.442818 64.276932 0 124.706233-25.031093 170.157401-70.481238 45.450145-45.451168 70.481238-105.880469 70.481238-170.157401 0-21.824051-2.925632-43.459814-8.696056-64.313771-1.195222-4.972245-11.414981-45.497217-41.764196-111.24771-28.994358-62.815651-82.885755-161.972998-174.967964-277.630135C527.303033 130.202667 521.636986 127.69045 515.917728 127.69045zM511.999488 462.486562c-63.685461 0-115.496477 51.811016-115.496477 115.496477s51.811016 115.496477 115.496477 115.496477c63.684438 0 115.496477-51.811016 115.496477-115.496477S575.683926 462.486562 511.999488 462.486562zM511.999488 654.594905c-42.243103 0-76.610842-34.367739-76.610842-76.610842s34.367739-76.610842 76.610842-76.610842 76.610842 34.367739 76.610842 76.610842S554.242592 654.594905 511.999488 654.594905z"  horiz-adv-x="1024" />

    
    <glyph glyph-name="ai207" unicode="&#59075;" d="M425.640718 532.754292l0 170.978945-299.323927-299.251272 299.323927-299.378162 0 175.361761c213.758218 0 363.447299-68.396695 470.302872-218.076566C853.226739 276.200428 724.955435 489.912597 425.640718 532.754292"  horiz-adv-x="1024" />

    
    <glyph glyph-name="iconsp2" unicode="&#58913;" d="M377.403 340.067h-225.84c-49.172 0-89.175-40.035-89.175-89.228v-225.786c0-49.192 40.003-89.228 89.175-89.228h225.84c49.183 0 89.199 40.036 89.199 89.228v225.786c0 49.193-40.014 89.228-89.199 89.228zM377.403 792.465h-225.84c-49.172 0-89.175-40.036-89.175-89.229v-225.786c0-49.215 40.003-89.251 89.175-89.251h225.84c49.183 0 89.199 40.037 89.199 89.251v225.786c0 49.193-40.014 89.229-89.199 89.229zM938.094 667.517l-141.841 141.873c-30.444 30.38-83.425 30.38-113.825 0l-141.884-141.873c-31.378-31.399-31.378-82.459 0-113.814l141.873-141.895c15.2-15.212 35.413-23.588 56.907-23.61 21.494 0 41.718 8.397 56.94 23.61l141.831 141.895c31.354 31.356 31.354 82.415 0 113.814zM922.382 569.414l-141.831-141.895c-22.046-22.047-60.41-22.047-82.414 0l-141.884 141.895c-22.717 22.698-22.707 59.652 0 82.394l141.884 141.873c11.002 11.002 25.627 17.055 41.186 17.055 15.57 0 30.206-6.055 41.228-17.055l141.82-141.873c22.709-22.719 22.709-59.697 0.011-82.394zM831.969 340.067h-225.797c-49.192 0-89.218-40.035-89.218-89.228v-225.786c0-49.192 40.025-89.228 89.218-89.228h225.797c49.182 0 89.198 40.036 89.198 89.228v225.786c0 49.193-40.014 89.228-89.198 89.228z"  horiz-adv-x="1024" />

    
    <glyph glyph-name="dianhua1" unicode="&#59034;" d="M337.076 658.458l45.274 28.811c8.232 8.232 24.696 4.116 28.811-4.116l82.316-119.36-4.116-16.463-45.275-37.042c-49.39-37.043 82.316-222.256 135.823-193.446l49.39 32.927h16.463l82.316-115.244c8.232-8.232 4.116-20.58-4.116-28.811-4.116-4.116 0-8.232 4.116-8.232 28.811-16.463 28.811-53.506 32.927-74.086 4.116-41.158-20.58-74.085-65.854-98.781-57.622-24.696-119.36-41.158-185.213-41.158-230.488 0-419.816 189.33-419.816 423.934 0 230.488 189.33 419.816 419.816 419.816v0c234.604 0 423.934-189.33 423.934-419.816 0-94.664-32.927-181.097-82.316-251.066-20.58-24.696-53.506-4.116-28.811 32.927 45.274 61.738 69.969 135.823 69.969 218.14 0 209.908-172.866 378.658-382.775 378.658-209.908 0-378.658-168.75-378.658-378.658 0-209.908 168.75-382.775 378.658-382.775 57.622 0 107.012 12.347 152.288 32.927 32.927 16.462 57.622 45.274 49.39 65.854-4.116 20.58-24.696 53.506-41.158 49.39-49.39-12.347-160.518-32.927-288.11 148.17-156.403 209.908-65.854 316.92-45.275 337.5z"  horiz-adv-x="1024" />

    
    <glyph glyph-name="department" unicode="&#58921;" d="M926.592-26.688l-157.312 0c-18.432 0-33.344 21.056-33.344 46.976L735.936 150.4c0 25.984 14.912 46.976 33.344 46.976l157.312 0c18.432 0 33.408-20.992 33.408-46.976l0-130.048C960-5.632 945.088-26.688 926.592-26.688zM773.312 382.848l-224 0L549.312 272 512 272 512 382.848 249.472 382.848C171.008 382.784 174.848 329.024 174.848 272L138.688 272 138.688 326.72c0 49.472 39.552 94.144 88.448 94.208L512 421.312 512 496l37.312 0 0-74.688 260.16 0c48.896-0.064 74.624-25.152 74.688-74.688L884.16 272 848 272C847.936 345.728 835.712 382.784 773.312 382.848zM653.504 570.688 406.528 570.688c-24.256 0-43.84 21.824-43.84 48.768L362.688 745.92c0 26.944 19.648 48.768 43.84 48.768l246.976 0c24.256 0 43.968-21.824 43.968-48.768l0-126.464C697.472 592.512 677.824 570.688 653.504 570.688zM288 150.4l0-130.048c0-25.92-14.976-46.976-33.344-46.976L97.344-26.624C78.912-26.688 64-5.632 64 20.288L64 150.4c0 25.984 14.912 46.976 33.344 46.976l157.312 0C273.024 197.312 288 176.32 288 150.4zM433.344 197.312l157.312 0c18.432 0 33.344-20.992 33.344-46.976l0-130.048c0-25.92-14.912-46.976-33.344-46.976L433.344-26.688c-18.432 0-33.344 21.056-33.344 46.976L400 150.4C400 176.32 414.912 197.312 433.344 197.312z"  horiz-adv-x="1024" />

    
    <glyph glyph-name="xitongxiaoxi" unicode="&#58907;" d="M566.078 790.169v0.017c-36.967 20.948-81.011 20.948-117.838 0.035-0.916-0.528-4.893-2.869-5.739-3.556l-172.162-141.866h-85.060c-65.239 0-118.295-52.406-118.295-116.835v-287.976c0-64.429 53.057-116.835 118.295-116.835h56.226c9.964 0 18.026 8.063 18.026 18.026v27.919c0 9.964-8.063 18.026-18.026 18.026h-56.226c-29.961 0-54.324 23.712-54.324 52.863l0 287.978c0 29.151 24.363 52.863 54.324 52.863h101.572c4.189 0 8.239 1.461 11.477 4.119l181.422 149.595c17.111 9.717 37.636 9.735 54.747-0.017 16.899-9.559 26.968-26.635 26.968-45.646v-609.804c0-19.012-10.069-36.087-26.968-45.681-16.899-9.576-39.432-8.379-53.163-1.197l-131.463 109.583c-3.697 3.028-8.485 4.453-13.203 4.031-4.753-0.457-9.153-2.781-12.181-6.479l-17.744-21.547c-6.337-7.675-5.245-19.047 2.429-25.367l133.329-111.131c0.809-0.669 4.753-3.011 5.668-3.521 18.096-10.245 38.481-15.667 58.936-15.667 20.525 0 40.911 5.421 58.972 15.684 37.179 21.089 59.359 58.972 59.359 101.291v609.805c0 42.319-22.18 80.202-59.359 101.291zM923.042 558.471c-23.343 57.616-57.634 109.23-101.854 153.432-7.041 7.041-18.448 7.041-25.49 0l-19.751-19.733c-3.38-3.38-5.281-7.957-5.281-12.745 0-4.771 1.901-9.365 5.281-12.745 38.164-38.164 67.703-82.666 87.842-132.255 19.399-47.847 29.257-98.474 29.257-150.439 0-51.983-9.858-102.611-29.257-150.475-20.139-49.589-49.677-94.074-87.842-132.238-7.041-7.041-7.041-18.448 0-25.49l19.751-19.751c3.52-3.52 8.133-5.281 12.745-5.281s9.224 1.76 12.745 5.281c44.22 44.22 78.512 95.834 101.854 153.432 22.532 55.592 33.975 114.299 33.975 174.522-0 60.203-11.443 118.893-33.976 174.485zM720.778 619.96c-7.041 7.041-18.448 7.041-25.49 0l-19.751-19.751c-3.38-3.38-5.281-7.957-5.281-12.745s1.901-9.365 5.281-12.745c50.98-50.963 79.040-118.7 79.040-190.734 0-72.051-28.060-139.79-79.040-190.751-3.38-3.38-5.281-7.957-5.281-12.745s1.901-9.365 5.281-12.745l19.751-19.751c3.521-3.52 8.133-5.281 12.745-5.281s9.224 1.76 12.745 5.281c63.020 63.020 97.735 146.831 97.735 235.993-0.002 89.144-34.716 172.955-97.736 235.975z"  horiz-adv-x="1024" />

    
    <glyph glyph-name="modify" unicode="&#58906;" d="M343.281402 337.95723C342.700554 337.208658 342.113446 336.431292 341.854314 335.48744L296.769718 170.20689C294.139728 160.583098 296.838622 150.216998 303.957516 142.906524 309.287702 137.70407 316.310244 134.843722 323.780968 134.843722 326.25072 134.843722 328.725552 135.136644 331.160296 135.787574L495.26789 180.544196C495.53074 180.544196 495.663468 180.318876 495.853758 180.318876 497.741422 180.318876 499.595316 180.9986 500.99359 182.431904L939.814804 621.194282C952.850992 634.24047 960 652.019692 960 671.363662 960 693.285066 950.705434 715.191454 934.422096 731.425964L892.980226 772.935437C876.726942 789.218768 854.786746 798.533361 832.88032 798.533361 813.545142 798.533361 795.760918 791.379358 782.695918 778.363209L343.932332 339.48191C343.47789 339.06632 343.609376 338.44543 343.281402 337.95723L343.281402 337.95723 343.281402 337.95723ZM896.878306 664.16209 853.294596 620.608438 782.632096 692.390036 825.603666 735.3616C832.395886 742.183874 845.559782 741.191201 853.358418 733.362487L894.829102 691.853014C899.156528 687.53057 901.626342 681.779836 901.626342 676.092936 901.59629 671.422492 899.933926 667.19769 896.878306 664.16209L896.878306 664.16209 896.878306 664.16209ZM421.32317 331.06736 737.96811 647.732302 808.665682 575.900638 492.607848 259.851572 421.32317 331.06736 421.32317 331.06736 421.32317 331.06736ZM363.628014 202.679664 386.513344 286.667494 447.552002 225.62754 363.628014 202.679664 363.628014 202.679664 363.628014 202.679664ZM924.671848 490.28422C908.060536 490.28422 894.442324 476.77862 894.37974 459.943254L894.37974 50.87592C894.37974 29.418918 876.95726 11.996438 855.471446 11.996438L163.478755 11.996438C142.026771 11.996438 124.53545 29.418918 124.53545 50.87592L124.53545 718.556273C124.53545 740.027038 142.021814 757.464518 163.478755 757.464518L609.161092 757.464518C625.864978 757.464518 639.42445 771.03396 639.42445 787.74165 639.42445 804.411784 625.864978 818 609.161092 818L158.862144 818C106.565955 818 64 775.469067 64 723.137838L64 46.25429C64-6.07065 106.565955-48.58784 158.862144-48.58784L860.053046-48.58784C912.383006-48.58784 954.930186-6.07567 954.930186 46.25429L954.930186 460.138532C954.866362 476.77862 941.28192 490.28422 924.671848 490.28422L924.671848 490.28422 924.671848 490.28422Z"  horiz-adv-x="1024" />

    
    <glyph glyph-name="youshuangjiantou" unicode="&#59081;" d="M838.4 422.4 505.6 761.6C499.2 768 480 761.6 480 748.8l0-256L217.6 761.6C211.2 768 192 761.6 192 748.8l0-729.6c0-12.8 12.8-19.2 25.6-12.8l262.4 262.4 0-256c0-12.8 12.8-19.2 25.6-12.8l339.2 339.2C864 364.8 864 403.2 838.4 422.4z"  horiz-adv-x="1024" />

    
    <glyph glyph-name="zuoshuangjiantou" unicode="&#59088;" d="M198.4 422.4l332.8 332.8c6.4 6.4 25.6 0 25.6-12.8l0-256 262.4 262.4c6.4 6.4 25.6 0 25.6-12.8l0-729.6c0-12.8-12.8-19.2-25.6-12.8L556.8 268.8l0-256c0-12.8-12.8-19.2-25.6-12.8L198.4 345.6C172.8 364.8 172.8 403.2 198.4 422.4z"  horiz-adv-x="1024" />

    
    <glyph glyph-name="bumen" unicode="&#59103;" d="M512 768 128 569.6 896 569.6ZM128 64l768 0 0-64-768 0 0 64ZM230.4 512l0-384c0-19.2 12.8-32 32-32s32 12.8 32 32L294.4 512c0 19.2-12.8 32-32 32S230.4 531.2 230.4 512zM390.4 512l0-384c0-19.2 12.8-32 32-32s32 12.8 32 32L454.4 512c0 19.2-12.8 32-32 32S390.4 531.2 390.4 512zM569.6 512l0-384c0-19.2 12.8-32 32-32s32 12.8 32 32L633.6 512c0 19.2-12.8 32-32 32S569.6 531.2 569.6 512zM736 512l0-384c0-19.2 12.8-32 32-32s32 12.8 32 32L800 512c0 19.2-12.8 32-32 32S736 531.2 736 512z"  horiz-adv-x="1024" />

    
    <glyph glyph-name="mima" unicode="&#58917;" d="M760.171097 480.505297 346.927843 480.505297l0 67.441135c0 91.90006 74.809514 166.709574 166.811913 166.709574 92.002399 0 166.811913-74.911853 166.811913-166.914251 0-12.485309 10.029182-22.514491 22.514491-22.514491s22.514491 10.029182 22.514491 22.514491c0 116.870678-95.072556 211.943234-211.840895 211.943234-56.593244 0-109.809314-22.002798-149.823706-62.01719-40.014391-40.014391-62.01719-93.128123-62.01719-149.721367L301.898861 480.505297l-47.485109 0c-27.631421 0-49.736558-22.105137-49.736558-49.634219l0-341.913252c0-27.631421 22.207476-50.452928 49.736558-50.452928l505.655007 0c27.631421 0 50.35059 22.821507 50.35059 50.452928L810.419348 430.871077C810.521687 458.40016 787.802518 480.505297 760.171097 480.505297zM765.492704 88.446132c0-2.763142-2.251449-5.014591-5.014591-5.014591L254.720768 83.431541c-2.763142 0-5.014591 2.251449-5.014591 5.014591L249.706176 430.461723c0 2.763142 2.251449 5.014591 5.014591 5.014591l505.655007 0c2.763142 0 5.014591-2.251449 5.014591-5.014591L765.390366 88.446132zM503.505896 363.839296c-25.482311 0-46.052369-20.570058-46.052369-46.052369 0-16.78353 9.005797-31.520288 22.514491-39.605037L479.968019 188.840296c0-12.38297 10.131521-22.514491 22.514491-22.514491s22.514491 10.131521 22.514491 22.514491l0 88.21587c14.634419 7.675395 24.561263 23.026184 24.561263 40.730762C549.558265 343.269238 528.988207 363.839296 503.505896 363.839296z"  horiz-adv-x="1024" />

    
    <glyph glyph-name="guanli2" unicode="&#59049;" d="M674.65237 293.951397c-6.270748 6.139837-14.728014 9.547527-22.909467 10.231063-16.906537 1.363076-33.948983 7.770731-46.9032 20.452133-12.951219 12.81731-19.908502 29.317922-20.725948 46.087153-0.406724 8.181453-4.090227 16.225999-10.359976 22.498146-13.910569 13.772063-36.68193 13.772063-50.591499 0l-22.225931-21.815209L270.635693 591.887596c0 0-11.178421 9.136805-12.81671 17.454166-1.907107 9.954251-3.545596 22.770961-14.316693 32.043674-19.635687 16.771029-52.494809 42.814772-72.947941 57.132064-8.591575 5.999332-14.589508 4.771765-20.591039-1.228167l-15.679369-15.406954c-6.001331-5.863425-7.364007-11.726449-1.227768-20.180318 14.451202-20.04441 41.043572-52.3603 58.085418-71.587264 9.409021-10.635189 22.498146-12.135172 32.590304-14.044478 8.453668-1.634892 17.724383-12.544495 17.724383-12.544495l224.575738-226.212028-22.225931-21.815209c-14.044478-13.772662-14.044478-35.997594 0-49.770256 6.408255-6.273746 14.589508-9.815345 22.90487-10.227066 17.044844-0.817446 33.956378-7.634824 46.907597-20.314227 12.954217-12.681402 19.362872-29.456029 20.724948-46.086553 0.683537-8.046544 4.091226-16.364905 10.364973-22.500744l143.17053-140.716194c27.955046-27.543326 73.358063-27.543326 101.309112 0l28.499477 28.090754c27.955046 27.543326 27.955046 71.99099 0 99.536314L674.65237 293.951397zM892.412129 618.885292l-134.175629-72.402711-61.082386 36.406716 1.496985 70.084882 138.945395 74.994953c-64.63198 56.722942-164.034385 54.541421-226.07612-6.408655-39.678098-38.99696-54.811638-92.857243-45.67903-143.17053 2.18352-11.862957-0.813448-24.270944-10.905606-34.225195l-93.405071-92.039797 39.136865-37.496577 0.268818 0.272415c12.682401 12.407987 29.593935 19.363272 47.590733 19.363272 17.996798 0 34.904135-6.818777 47.586536-19.363272 6.13584-6.13584 11.043512-13.227032 14.317293-20.997764l45.403017 44.587769c10.230064 10.090559 24.819173 13.497848 37.774389 10.226466 52.356302-13.090525 110.035196 3.40769 151.079168 43.768725C879.864636 527.255617 895.819818 573.616584 892.412129 618.885292zM421.580552 337.180088l0.272415 0.271816L383.809761 375.767725 159.510836 155.555629c-28.772492-28.226662-28.772492-73.903693 0-102.126558 28.768495-28.226662 75.26537-28.226662 104.037263 0l179.579245 176.302067c-7.774729 3.27378-15.138136 8.046544-21.274576 14.182384C395.398304 269.545944 395.398304 311.407562 421.580552 337.180088z"  horiz-adv-x="1024" />

    
    <glyph glyph-name="usergroup" unicode="&#59066;" d="M958.72 313.472c-38.784 55.936-91.136 97.92-151.936 122.112 26.88 18.816 49.408 44.032 65.792 73.472 18.944 34.048 28.928 72.832 28.928 112.256 0 123.136-95.36 223.232-212.48 223.232-16.64 0-30.208-13.568-30.208-30.208 0-16.64 13.568-30.208 30.208-30.208 83.84 0 152.064-73.088 152.064-162.816 0-89.856-68.224-162.944-152.064-162.944-16.64 0-30.208-13.568-30.208-30.208l0-0.128c0-16.64 13.568-30.208 30.208-30.208 150.784 0 273.536-130.816 273.536-291.584 0-16.64 13.568-30.208 30.208-30.208 16.64 0 30.208 13.568 30.208 30.208C1022.848 181.376 1000.704 252.928 958.72 313.472L958.72 313.472zM646.784 364.8c-31.616 22.4-66.176 40.192-102.528 52.736 76.928 46.72 124.16 130.048 124.16 220.544C668.416 780.288 552.704 896 410.496 896 268.16 896 152.448 780.288 152.448 637.952c0-48.384 13.568-95.616 39.168-136.576 21.76-34.688 51.2-63.616 86.016-84.48-37.12-12.672-72.064-30.592-104.192-53.376-35.072-24.832-65.792-54.784-91.648-89.088C28.288 203.008 0 118.144 0 28.8c0-16.64 13.568-30.208 30.208-30.208 16.64 0 30.208 13.568 30.208 30.208 0 93.056 36.352 180.864 102.272 247.04 65.792 66.048 152.832 102.4 245.12 102.528 3.072-0.256 6.144 0 9.216 0.64l2.432 0.512c89.856-1.792 174.208-38.016 238.464-102.528 65.92-66.176 102.144-153.856 102.144-247.04 0-16.64 13.568-30.208 30.208-30.208 16.64 0 30.208 13.568 30.208 30.208 0 89.344-28.288 174.208-81.92 245.632C712.704 310.016 681.856 339.968 646.784 364.8L646.784 364.8zM410.496 835.584c108.928 0 197.632-88.704 197.632-197.632 0-108.928-88.704-197.632-197.632-197.632-108.928 0-197.632 88.704-197.632 197.632C212.864 747.008 301.568 835.584 410.496 835.584L410.496 835.584z"  horiz-adv-x="1024" />

    
    <glyph glyph-name="mail" unicode="&#58951;" d="M913.067 718.223l-796.444 0c-59.733 0-108.089-48.356-108.089-105.244l0-486.4c0-56.889 48.356-105.244 105.244-105.244l799.289 0c56.889 0 105.244 48.356 105.244 105.244l0 486.4c2.844 56.889-45.511 105.244-105.244 105.244zM978.489 612.9780000000001l0-486.4c0-8.533-2.844-17.067-5.689-25.6l-275.911 275.911 270.222 270.222c5.689-11.378 11.378-22.756 11.378-34.133zM913.067 675.556c8.533 0 14.222-2.844 22.756-2.844l-2.844 0-372.622-375.467c-22.756-22.756-65.422-22.756-91.022 0l-372.622 372.622-2.844 0c5.689 2.844 14.222 2.844 22.756 2.844l796.444 2.844zM56.889 100.97799999999995c-2.844 8.533-5.689 14.222-5.689 22.756l0 489.244c0 11.378 2.844 25.6 11.378 34.133l270.222-270.222-275.911-275.911zM116.622 61.15599999999995c-11.378 0-19.911 2.844-31.289 8.533l275.911 275.911 79.644-79.644c19.911-19.911 45.511-31.289 73.956-31.289s54.044 11.378 73.956 31.289l76.8 76.8 275.911-275.911c-8.533-5.689-19.911-8.533-31.289-8.533l-793.6 0 0 2.844z"  horiz-adv-x="1024" />

    
    <glyph glyph-name="users" unicode="&#58926;" d="M754.036365 402.618182C847.12727 439.854545 912.290912 532.945455 912.290912 635.345455 912.290912 784.290909 791.27273 896 651.636365 896 512 896 390.981818 784.290909 390.981818 635.345455 390.981818 532.945455 456.145455 439.854545 549.236364 402.618182 344.436364 356.072727 195.490909 179.2 195.490909-34.909088L195.490909-109.381818C195.490909-118.690912 204.8-128 214.109091-128L1098.47273-128C1107.781818-128 1117.090912-118.690912 1117.090912-109.381818L1117.090912-34.909088C1107.781818 179.2 958.836365 356.072727 754.036365 402.618182L754.036365 402.618182ZM456.145455 635.345455C456.145455 747.054545 549.236364 830.836364 651.636365 830.836364 754.036365 830.836364 847.12727 747.054545 847.12727 635.345455 847.12727 523.636364 763.345453 439.854545 651.636365 439.854545 539.927273 439.854545 456.145455 532.945455 456.145455 635.345455L456.145455 635.345455ZM1042.618182-62.836365 260.654545-62.836365 260.654545-34.909088C260.654545 179.2 437.527273 356.072727 651.636365 356.072727 865.745453 356.072727 1042.618182 179.2 1042.618182-34.909088L1042.618182-62.836365 1042.618182-62.836365ZM260.654545 356.072727C344.436364 365.381818 335.127273 430.545455 297.890909 449.163636 242.036364 477.090909 204.8 523.636364 204.8 588.8 204.8 663.272727 260.654545 728.436364 325.818182 728.436364 363.054545 747.054545 344.436364 793.6 325.818182 793.6 223.418182 793.6 148.945455 700.509091 148.945455 598.109091 148.945455 523.636364 186.181818 458.472727 242.036364 430.545455 102.4 393.309091 0 262.981818 0 104.72727 0 76.8 0 39.563635 9.309091 11.636365 27.927273-16.290912 65.163636 2.32727 74.472727 30.254547 65.163636 58.181818 65.163636 76.8 65.163636 104.72727 65.163636 244.363635 158.254545 356.072727 260.654545 356.072727L260.654545 356.072727ZM1070.545453 411.927273C1126.4 449.163636 1163.636365 514.327273 1163.636365 579.490909 1163.636365 691.2 1079.854547 774.981818 986.763635 774.981818 968.145453 774.981818 949.52727 728.436364 986.763635 709.818182 1051.92727 709.818182 1107.781818 644.654545 1107.781818 570.181818 1107.781818 505.018182 1070.545453 458.472727 1014.690912 430.545455 968.145453 411.927273 958.836365 346.763636 1042.618182 346.763636 1154.32727 346.763636 1247.418182 225.745453 1247.418182 95.418182 1247.418182 67.490912 1247.418182 39.563635 1238.109088 20.945453 1247.418182-6.981818 1284.654547-25.6 1303.27273 2.32727 1312.581818 30.254547 1312.581818 67.490912 1312.581818 95.418182 1303.27273 262.981818 1200.87273 393.309091 1070.545453 411.927273L1070.545453 411.927273Z"  horiz-adv-x="1344" />

    
    <glyph glyph-name="xiaoxi2" unicode="&#59002;" d="M511.702003 896C230.045029 896 0.303497 688.338231 0.303497 432.936974c0-115.168763 46.5455-224.967583 131.878583-310.299666V-98.749314c0-11.337878 6.562929-21.481769 16.707821-26.255718 4.176955-1.789981 8.35391-2.983968 12.530865-2.983968 6.563929 0 13.127859 2.386974 17.901808 6.563929L345.213792 12.839487c12.531865 10.143891 14.321846 28.045699 4.176955 40.577564-10.143891 12.530865-28.045699 14.321846-40.577564 4.176955L189.467465-38.479962V134.572179c0 7.757917-2.983968 15.514833-8.950904 20.885776-78.769154 75.784186-122.329686 174.245128-122.329686 277.479019 0 223.177603 203.484814 405.180647 453.515128 405.180648 250.029314 0 453.515128-182.003045 453.515128-405.180648s-203.485814-405.179647-453.515128-405.179647h-3.579961c-16.112827 0-28.643692-12.530865-28.643693-28.642692 0-16.111827 12.530865-29.239686 28.642693-29.239686h4.176955c282.253968 0 511.398506 207.661769 511.398506 463.062025C1023.696503 688.338231 793.954971 896 511.702003 896zM231.238016 480.079468c-12.530865-12.531865-19.691788-29.836679-19.691788-47.739487 0-17.304814 7.160923-35.206622 19.691788-47.737487 12.531865-12.531865 29.836679-19.692788 47.739487-19.692789 17.304814 0 35.206622 7.160923 47.737487 19.692789 12.531865 12.530865 19.692788 29.836679 19.692789 47.738487 0 17.304814-7.160923 35.206622-19.692789 47.738487-12.530865 12.530865-29.836679 19.691788-47.738487 19.691788-17.901808 0-35.206622-7.159923-47.738487-19.691788z m328.202474-95.476974c12.530865 12.530865 19.691788 29.836679 19.691789 47.738487 0 17.304814-7.160923 35.206622-19.691789 47.738487-12.531865 12.530865-29.836679 19.691788-47.739487 19.691788-17.304814 0-35.206622-7.159923-47.737487-19.691788-12.531865-12.531865-19.692788-29.836679-19.692788-47.739487 0-17.304814 7.160923-35.206622 19.692788-47.737487 12.530865-12.531865 29.836679-19.692788 47.738487-19.692789 17.901808 0 35.206622 7.757917 47.738487 19.692789z m233.321494 0c12.530865 12.530865 19.691788 29.836679 19.691788 47.738487 0 17.304814-7.160923 35.206622-19.691788 47.738487-12.531865 12.530865-29.836679 19.691788-47.739487 19.691788-17.304814 0-35.206622-7.159923-47.737487-19.691788-12.531865-12.531865-19.692788-29.836679-19.692789-47.739487 0-17.304814 7.160923-35.206622 19.692789-47.737487 12.530865-12.531865 29.836679-19.692788 47.738487-19.692789 17.901808 0 35.206622 7.757917 47.738487 19.692789z"  horiz-adv-x="1024" />

    
    <glyph glyph-name="down-xia" unicode="&#58901;" d="M225.408 527.616L496 255.35900000000004l270.592 272.257-48.64 49.024L496 353.408 274.176 576.64l-48.768-49.024z m0 0z"  horiz-adv-x="1024" />

    
    <glyph glyph-name="pifushezhi" unicode="&#58908;" d="M328.147627 731.293013h67.403093c4.973227-2.94912 12.22656-4.068693 16.75264-7.5776 6.161067-4.734293 10.58816-10.738347 15.407787-16.892586 6.509227-8.2944 18.7904-16.3328 29.125973-20.657494 12.079787-4.98688 24.90368-7.8336 39.717547-10.581333 4.672853-0.303787 9.345707-0.508587 14.015146-0.812373 6.263467-0.965973 15.213227 0.559787 20.3776 1.62816 27.886933 5.597867 41.857707 10.175147 60.197547 24.726186 7.15776 5.748053 10.98752 15.213227 18.438827 20.70528 4.17792 2.286933 8.400213 4.67968 12.62592 7.021227 3.628373 1.42336 6.212267 0.610987 9.19552 2.440533h19.831466c19.135147 0 47.571627 2.594133 60.197547-4.017493 8.895147-4.78208 15.70816-12.311893 22.667947-19.07712 9.693867-9.41056 19.38432-18.824533 29.026986-28.235093 31.26272-30.47424 62.580053-60.89728 93.794987-91.37152 9.844053-10.530133 21.22752-19.636907 31.020373-30.221654 8.04864-8.495787 16.59904-14.854827 21.02272-27.163306 0.150187-1.98656 0.201387-3.969707 0.249174-5.956267 2.235733-13.431467-3.877547-23.197013-10.042027-30.982827-26.19392-25.38496-52.391253-50.82112-78.63296-76.158293-9.54368-10.635947-21.47328-25.439573-38.324907-28.53888-22.96832-4.225707-35.986773 9.919147-46.721706 20.34688-3.4816 3.457707-6.413653 7.8848-10.93632 10.379947-0.197973-0.2048-0.546133-0.4096-0.846507-0.5632v-272.182614c-0.047787-25.53856-0.146773-51.17952-0.293547-76.71808-1.839787-8.8576-7.60832-18.01216-13.919573-22.84544-15.755947-11.905707-43.543893-9.25696-71.427413-9.25696H371.2c-19.43552 0-39.867733-1.47456-51.49696 6.048427-6.51264 4.072107-13.6704 11.70432-16.554667 19.28192-3.280213 8.751787-2.484907 20.964693-2.484906 32.6144v51.38432 271.981227h-1.143467c-11.58144-10.175147-20.48-22.79424-36.037973-29.15328-13.21984-5.440853-28.678827 0.252587-36.928854 5.952853-5.76512 4.068693-10.141013 9.311573-15.110826 14.144853a23320.081067 23320.081067 0 0 1-35.488427 33.98656 1789.088427 1789.088427 0 0 0-16.800427 16.940374c-6.908587 5.799253-12.92288 12.417707-19.285333 18.722133-7.703893 7.529813-16.104107 13.380267-20.72576 23.965013-1.989973 4.478293-5.915307 12.56448-4.47488 20.094294 3.382613 17.855147 14.465707 27.26912 25.746773 37.290666 6.710613 5.901653 12.62592 12.76928 19.285334 18.71872l111.09376 108.21632c6.710613 6.509227 13.421227 13.021867 20.13184 19.585707 9.741653 9.458347 18.438827 21.162667 37.229226 21.77024-0.006827 0.3584-0.006827 0.662187-0.006826 1.017173z"  horiz-adv-x="1024" />

    
    <glyph glyph-name="deleteX" unicode="&#58919;" d="M596.722 384.001L924.94 712.219c23.299 23.299 23.299 61.422 0 84.721s-61.422 23.299-84.721 0L512.001 468.722 183.781 796.94c-23.299 23.299-61.422 23.299-84.721 0s-23.299-61.422 0-84.721l328.22-328.218-328.22-328.22c-23.299-23.299-23.299-61.422 0-84.721s61.422-23.299 84.721 0L512 299.279 840.219-28.940000000000055c23.299-23.299 61.422-23.299 84.721 0s23.299 61.422 0 84.721l-328.218 328.22z"  horiz-adv-x="1024" />

    
    <glyph glyph-name="arrow-left" unicode="&#58892;" d="M798.72 834.56L737.28 896 220.16 378.88 737.28-128l61.44 61.44L348.16 384l450.56 450.56z"  horiz-adv-x="1024" />

    
    <glyph glyph-name="delete1" unicode="&#58903;" d="M512 896a512 512 0 1 1 512-512 512 512 0 0 1-512 512z m203.52-640A55.68 55.68 0 1 0 640 180.48l-128 128-128-128A55.68 55.68 0 1 0 308.48 256l128 128-128 128A55.68 55.68 0 1 0 384 587.52l128-128 128 128A55.68 55.68 0 1 0 715.52 512l-128-128z"  horiz-adv-x="1024" />

    
    <glyph glyph-name="tupian" unicode="&#58943;" d="M119.261 702.422v-639.021H905.75V702.422H119.261z m737.332-589.868H168.416V653.267h688.177v-540.713zM659.971 530.377c0-40.707 33.003-73.732 73.733-73.732 40.733 0 73.734 33.025 73.734 73.732 0 40.73-33.002 73.733-73.734 73.733-40.731 0-73.733-33.005-73.733-73.733zM807.44 161.711H217.571l147.468 393.245L561.66 309.177l98.311 73.733L807.44 161.711z"  horiz-adv-x="1024" />

    
    <glyph glyph-name="arrow-right" unicode="&#58946;" d="M793.61 380.28099999999995L291.36 882.55l-60.97-62.59 440.149-439.096-440.149-441.75 60.975-61.103z"  horiz-adv-x="1024" />

    
    <glyph glyph-name="yonghuguanli" unicode="&#58990;" d="M482.304 614.528m-186.304 0a186.304 186.304 0 1 1 372.608 0 186.304 186.304 0 1 1-372.608 0ZM531.84 160.96000000000004c0 81.472 30.976 155.008 80.576 210.624a423.424 423.424 0 0 1-130.88 21.12 425.472 425.472 0 0 1-425.472-425.472h542.848a315.072 315.072 0 0 0-67.072 193.728zM967.808 126.65599999999995l0.192 70.976s-46.848 9.28-47.616 12.416a215.296 215.296 0 0 1-2.88 10.24c5.504 10.176 31.872 32.512 31.872 32.512l-52.864 70.4s-34.24-28.224-42.752-32.256a130.944 130.944 0 0 1-12.544 4.16c-4.608 1.152-17.344 46.272-17.344 46.272l-71.104 0.576s-7.68-43.712-19.2-46.72c-3.84-1.152-7.68-2.56-11.52-4.352-8.512 4.16-42.752 32.768-42.752 32.768l-52.864-71.552s26.496-26.688 28.288-35.648a137.408 137.408 0 0 1-3.136-8.576 524.48 524.48 0 0 0-43.712-10.368l0.128-70.976s37.632-7.808 44.8-14.144c1.472-4.096 3.2-8.064 4.992-11.968-8.704-10.88-31.872-28.928-31.872-28.928l54.528-70.976s42.816 27.712 49.856 29.312c3.52-1.536 7.04-2.944 10.688-4.224 6.464-2.24 11.008-43.584 11.008-43.584l71.04-0.192s2.368 40.576 7.616 42.176a146.56 146.56 0 0 1 15.104 5.632c5.952-2.304 34.048-30.336 34.048-30.336l70.272 71.552s-26.048 17.984-33.28 27.712c1.984 4.032 3.776 8.192 5.376 12.416 2.24 6.656 45.632 15.68 45.632 15.68m-180.8-53.824a89.664 89.664 0 1 0 0 179.328 89.664 89.664 0 0 0 0-179.328M594.816 310.08000000000004z"  horiz-adv-x="1024" />

    
    <glyph glyph-name="add" unicode="&#59040;" d="M438.869333 457.130667H0v-146.261334h438.869333V-128h146.261334V310.869333H1024V457.130667H585.130667V896H438.869333v-438.869333z"  horiz-adv-x="1024" />

    
    <glyph glyph-name="date" unicode="&#59149;" d="M864 768h-96c-17.673 0-32-14.327-32-32s14.327-32 32-32h96c17.673 0 32-14.327 32-32v-96h-768v96c0 17.673 14.327 32 32 32h96c17.673 0 32 14.327 32 32s-14.327 32-32 32h-96c-52.994-0.063-95.937-43.006-96-95.994l-0-637.006c0.063-52.994 43.006-95.937 95.994-96l704.006-0c52.994 0.063 95.937 43.006 96 95.994l0 637.006c-0.063 52.994-43.006 95.937-95.994 96zM864 3h-704c-17.673 0-32 14.327-32 32v477h768v-477c0-17.673-14.327-32-32-32zM448 704h128c17.673 0 32 14.327 32 32s-14.327 32-32 32h-128c-17.673 0-32-14.327-32-32s14.327-32 32-32zM352 672c17.673 0 32 14.327 32 32v64c0 17.673-14.327 32-32 32s-32-14.327-32-32v-64c0-17.673 14.327-32 32-32zM672 672c17.673 0 32 14.327 32 32v64c0 17.673-14.327 32-32 32s-32-14.327-32-32v-64c0-17.673 14.327-32 32-32zM288 384h-64c-17.673 0-32-14.327-32-32s14.327-32 32-32h64c17.673 0 32 14.327 32 32s-14.327 32-32 32zM544 384h-64c-17.673 0-32-14.327-32-32s14.327-32 32-32h64c17.673 0 32 14.327 32 32s-14.327 32-32 32zM800 384h-64c-17.673 0-32-14.327-32-32s14.327-32 32-32h64c17.673 0 32 14.327 32 32s-14.327 32-32 32zM288 256h-64c-17.673 0-32-14.327-32-32s14.327-32 32-32h64c17.673 0 32 14.327 32 32s-14.327 32-32 32zM544 256h-64c-17.673 0-32-14.327-32-32s14.327-32 32-32h64c17.673 0 32 14.327 32 32s-14.327 32-32 32zM800 256h-64c-17.673 0-32-14.327-32-32s14.327-32 32-32h64c17.673 0 32 14.327 32 32s-14.327 32-32 32zM288 128h-64c-17.673 0-32-14.327-32-32s14.327-32 32-32h64c17.673 0 32 14.327 32 32s-14.327 32-32 32zM544 128h-64c-17.673 0-32-14.327-32-32s14.327-32 32-32h64c17.673 0 32 14.327 32 32s-14.327 32-32 32z"  horiz-adv-x="1024" />

    
    <glyph glyph-name="folder" unicode="&#58895;" d="M0-14.222v796.444h341.333l113.778-113.778h455.111v-113.778h-682.667zM1024 440.889l-227.556-455.111h-796.444l284.444 455.111h739.556z"  horiz-adv-x="1024" />

    
    <glyph glyph-name="Foldertemplates" unicode="&#58896;" d="M1019.167 446.123l-99.271-205.369c-8.952 11.038-15.669 24.272-19.237 38.745 4.634-15.175 0.528-0.038 0.528 16.058 0 12.888 2.633 25.162 7.389 36.312-31.105 30.63-71.352 52.54-116.405 60.56 19.791-31.754-5.136-46.616-33.533-46.616-28.656 0-53.777 15.134-67.807 37.845-43.727-14.884-79.819-42.214-105.481-77.602 27.878 15.741 30.772 2.89 30.772-10.638 0-16.083-4.092-31.21-11.292-44.398-12.784-23.933-37.108-40.83-65.561-43.263-0.108-13.809-1.723-30.012-1.723-46.593 0-19.521 2.239-38.52 6.474-56.753 27.669-2.411 50.795-20.065 62.45-44.281 5.651-10.047 9.798-25.279 9.798-41.48 0-11.302-2.018-22.133-5.714-32.151 0.733 0.079 1.395-0.353 2.141-0.599l-506.367 0.56c-0.476-0.035-1.031-0.054-1.591-0.054-12.913 0-23.381 10.468-23.381 23.381 0 5.249 1.73 10.094 4.65 13.996l204.131 422.225c10.499 21.218 31.392 35.88 55.842 37.365l652.823-0.103c0.485 0.036 1.051 0.056 1.622 0.056 12.882 0 23.324-10.443 23.324-23.324 0-5.227-1.719-10.053-4.624-13.942zM855.213 557.909h-608.711l-246.5-521.671v695.524c-0.001 0.136-0.002 0.296-0.002 0.457 0 27.069 21.832 49.040 48.848 49.264l317.632 0c27.038-0.224 48.87-22.195 48.87-49.264 0-0.161-0.001-0.321-0.002-0.481l0-49.64h439.865c27.038-0.225 48.869-22.195 48.869-49.264 0-0.141-0.001-0.281-0.002-0.421l0-24.839c0.001-0.119 0.002-0.259 0.002-0.4 0-27.069-21.832-49.040-48.848-49.264zM586.413 160.996c-0 0.031-0 0.068-0 0.105 0 12.902 1.263 25.508 3.673 37.703 21.98 1.476 40.436 15.216 49.704 34.253 4.551 8.203 7.738 19.984 7.738 32.509 0 10.516-2.247 20.507-6.286 29.52 24.319 23.459 55.632 40.17 90.605 46.161-15.26-24.669 4.266-36.392 26.53-36.392 22.052 0 41.418 11.501 52.427 28.831 34.204-12.087 62.35-33.883 82.213-61.955-21.702 13.441-23.752 3.891-23.752-6.138 0-12.494 3.181-24.245 8.778-34.487 9.779-18.227 28.135-31.21 49.685-33.55-0.517-10.626 0.74-23.259 0.74-36.185 0-15.279-1.756-30.147-5.076-44.415-20.898-2.478-38.197-16.197-46.883-34.754-4.073-7.204-7.259-18.974-7.259-31.489 0-8.36 1.422-16.387 4.037-23.854-24.388-23.267-55.829-39.772-90.9-45.435 13.682 20.916-4.055 30.356-23.997 30.356-20.142 0-38.036-9.63-49.326-24.538-34.12 10.815-62.503 31.315-82.949 58.182 19.835-11.855 21.433-3.369 21.433 5.491 0 12.526-3.195 24.305-8.815 34.568-9.795 18.365-28.316 31.413-50.042 33.614-0.534 12.455-2.275 27.114-2.279 42.179zM757.478 85.902c0.355-0.006 0.775-0.010 1.195-0.010 41.159 0 74.524 33.366 74.524 74.524 0 41.159-33.366 74.524-74.524 74.524-41.155 0-74.519-33.36-74.524-74.514-0.001-0.17-0.002-0.371-0.002-0.572 0-40.625 32.757-73.6 73.298-73.953z"  horiz-adv-x="1024" />

    
    <glyph glyph-name="xiaoxi" unicode="&#58942;" d="M768 384a255.2 255.2 0 0 0-75-181l45.25-45.25a320 320 0 0 1 0 452.55L693 565a255.2 255.2 0 0 0 75-181zM896 384a382.8 382.8 0 0 0-112.47-271.53l45.25-45.25a448 448 0 0 1 0 633.57l-45.25-45.25A382.8 382.8 0 0 0 896 384zM715.651707 180.349879m-22.627417-22.627417a32 32 0 1 1 45.254834 45.254834 32 32 0 1 1-45.254834-45.254834ZM806.162728 89.849414m-22.627417-22.627417a32 32 0 1 1 45.254834 45.254834 32 32 0 1 1-45.254834-45.254834ZM715.64795 587.65495m-22.627417-22.627417a32 32 0 1 1 45.254834 45.254834 32 32 0 1 1-45.254834-45.254834ZM806.15795 678.16495m-22.627417-22.627417a32 32 0 1 1 45.254834 45.254834 32 32 0 1 1-45.254834-45.254834ZM544 770.46h-19.33a63.77 63.77 0 0 1-43.82-17.36L292.35 576H128a32 32 0 0 1-32-32v-320a32 32 0 0 1 32-32h164.35l188.5-177.1a63.77 63.77 0 0 1 43.82-17.36H544a64.07 64.07 0 0 1 64 64V706.46a64.07 64.07 0 0 1-64 64zM256 240h-96V512h96z m288-178.46h-19.33L320 253.84V514.16l204.67 192.3H544v-644.92z"  horiz-adv-x="1024" />

    
    <glyph glyph-name="guanliyuan" unicode="&#59030;" d="M315.392 388.096c-81.92 40.96-137.216 122.88-137.216 221.184 0 135.168 110.592 245.76 245.76 245.76s245.76-110.592 245.76-245.76c0-133.12-104.448-241.664-237.568-245.76h-2.048c-202.752 0-368.64-165.888-368.64-368.64 0-12.288-8.192-20.48-20.48-20.48s-20.48 8.192-20.48 20.48c0 186.368 124.928 344.064 294.912 393.216z m108.544 16.384c112.64 0 204.8 92.16 204.8 204.8s-92.16 204.8-204.8 204.8-204.8-92.16-204.8-204.8 92.16-204.8 204.8-204.8z m561.152-135.168l4.096-10.24-49.152-59.392c-8.192-10.24-8.192-26.624 0-36.864l49.152-57.344-4.096-10.24c-10.24-28.672-24.576-57.344-45.056-79.872l-8.192-8.192-75.776 12.288c-12.288 2.048-26.624-6.144-30.72-18.432l-26.624-73.728-10.24-2.048c-38.912-8.192-77.824-8.192-116.736 0l-12.288 2.048-24.576 71.68c-4.096 12.288-18.432 20.48-30.72 18.432l-77.824-12.288-8.192 8.192c-10.24 10.24-18.432 22.528-24.576 34.816-8.192 14.336-16.384 30.72-20.48 47.104l-4.096 10.24 51.2 57.344c8.192 10.24 8.192 26.624 0 34.816l-49.152 59.392 4.096 10.24c10.24 30.72 26.624 57.344 47.104 81.92l8.192 8.192 73.728-12.288c12.288-2.048 26.624 6.144 32.768 18.432l26.624 71.68 10.24 2.048c36.864 8.192 75.776 8.192 114.688 0l12.288-2.048 24.576-69.632c4.096-12.288 18.432-22.528 32.768-20.48l75.776 10.24 8.192-8.192c10.24-12.288 18.432-22.528 24.576-36.864 6.144-10.24 12.288-26.624 18.432-40.96z m-57.344 24.576c-4.096 8.192-8.192 14.336-14.336 22.528l-53.248-6.144c-32.768-4.096-65.536 16.384-75.776 47.104l-16.384 47.104c-24.576 4.096-49.152 4.096-73.728 0l-18.432-49.152c-10.24-30.72-45.056-51.2-77.824-45.056l-51.2 8.192c-12.288-14.336-20.48-32.768-28.672-49.152l34.816-40.96c20.48-24.576 20.48-63.488 0-88.064l-34.816-40.96c4.096-10.24 8.192-18.432 14.336-28.672 4.096-8.192 8.192-14.336 14.336-20.48l55.296 8.192c32.768 4.096 65.536-16.384 75.776-47.104l16.384-49.152c24.576-4.096 51.2-4.096 75.776 0l18.432 51.2c10.24 30.72 45.056 51.2 75.776 45.056l51.2-8.192c10.24 14.336 20.48 30.72 26.624 49.152l-32.768 38.912c-20.48 24.576-22.528 63.488-2.048 88.064l34.816 40.96c-4.096 8.192-8.192 16.384-14.336 26.624z m-196.608-204.8c-51.2 0-92.16 40.96-92.16 92.16s40.96 92.16 92.16 92.16 92.16-40.96 92.16-92.16-43.008-92.16-92.16-92.16z m0 40.96c28.672 0 51.2 22.528 51.2 51.2s-22.528 51.2-51.2 51.2-51.2-22.528-51.2-51.2 22.528-51.2 51.2-51.2z"  horiz-adv-x="1024" />

    
    <glyph glyph-name="dingdanyichenggong" unicode="&#59545;" d="M336.213 376.533l112.384-131.115 239.723 259.712c3.919 4.318 9.553 7.019 15.818 7.019 11.782 0 21.333-9.551 21.333-21.333 0-5.66-2.204-10.805-5.801-14.624l-255.99-277.323c-3.91-4.229-9.487-6.868-15.68-6.868-6.464 0-12.257 2.875-16.169 7.416l-128.023 149.361c-3.287 3.734-5.292 8.665-5.292 14.064 0 11.782 9.551 21.333 21.333 21.333 6.546 0 12.403-2.948 16.317-7.589zM298.667 768.064c0 23.531 19.157 42.603 42.453 42.603h341.76c23.424 0 42.453-19.157 42.453-42.624v-42.752c-0.012-23.476-18.991-42.515-42.443-42.624l-341.77-0c-23.424 0-42.453 19.157-42.453 42.624v42.752zM341.333 725.333h341.333v42.667h-341.333v-42.667zM236.16 768v-42.667s-65.493-0.021-65.493-0.107v-725.227s682.667-0.043 682.667 0.107c0 0 0 725.227-0.128 725.227h-63.296v42.667h63.296c23.637 0 42.795-19.072 42.795-42.773v-725.12c0-23.616-18.987-42.773-42.667-42.773h-682.667c-0-0-0-0-0-0-23.564 0-42.667 19.103-42.667 42.667 0 0.038 0 0.075 0 0.112l-0 725.114c0 23.616 19.115 42.773 42.752 42.773h65.408z"  horiz-adv-x="1024" />

    
    <glyph glyph-name="jifen1" unicode="&#58922;" d="M493.795 123.677v59.165c-40.050 4.551-82.83 21.845-112.867 46.421l-3.641 2.731 29.127 37.319 3.641-2.731c33.678-26.397 67.357-39.139 101.945-39.139 48.242 0 74.638 20.935 74.638 60.075 0 46.421-42.781 65.536-87.381 85.561-50.973 22.755-102.855 46.421-102.855 110.137 0 51.883 39.139 91.933 97.394 101.035v60.075h46.421v-59.165c45.511-5.461 73.728-26.397 92.843-45.511l3.641-3.641-32.768-32.768-2.731 2.731c-24.576 21.845-44.601 32.768-81.010 32.768-39.139 0-65.536-21.845-65.536-55.523 0-38.229 37.319-54.613 80.099-72.818 51.883-22.755 111.047-47.331 111.047-121.97 0-57.344-40.050-97.394-104.675-106.496v-60.075h-47.331zM512-90.226c-261.234 0-474.226 212.992-474.226 474.226s212.992 474.226 474.226 474.226c261.234 0 474.226-212.992 474.226-474.226 0-261.234-212.992-474.226-474.226-474.226zM512 809.984c-234.837 0-425.984-191.147-425.984-425.984s191.147-425.984 425.984-425.984c234.837 0 425.984 191.147 425.984 425.984 0 234.837-191.147 425.984-425.984 425.984zM512-4.665c-13.653 0-24.576 10.923-24.576 24.576s10.923 24.576 24.576 24.576c186.595 0 338.603 152.007 338.603 338.603 0 51.883-11.833 101.945-34.589 148.366-2.731 6.371-3.641 12.743-0.91 19.115 1.821 6.371 6.371 10.923 12.743 14.563 3.641 1.821 7.282 2.731 10.923 2.731 10.013 0 18.205-5.461 21.845-13.653 26.397-53.703 39.139-110.137 39.139-170.211 0.91-213.902-173.853-388.665-387.755-388.665zM765.952 619.747c-6.371 0-12.743 2.731-17.294 7.282-63.715 61.895-147.456 96.483-236.658 96.483-13.653 0-24.576 10.923-24.576 24.576s10.923 24.576 24.576 24.576c101.945 0 198.429-39.139 271.246-110.137 4.551-4.551 7.282-10.923 7.282-17.294s-2.731-12.743-7.282-17.294c-4.551-5.461-10.923-8.192-17.294-8.192zM370.915 24.462c-3.641 0-6.371 0.91-10.013 1.821-143.815 60.985-237.568 201.159-237.568 357.717 0 151.097 89.202 290.361 226.645 353.166 3.641 1.821 6.371 1.821 10.013 1.821 10.013 0 18.205-5.461 22.755-14.563 5.461-12.743 0-27.307-11.833-32.768-120.149-54.613-197.518-175.673-197.518-307.655 0-136.533 81.010-259.413 207.531-312.206 6.371-2.731 10.923-7.282 13.653-13.653 2.731-6.371 2.731-12.743 0-19.115-5.461-9.102-13.653-14.563-23.666-14.563z"  horiz-adv-x="1024" />

    
    <glyph glyph-name="system-copy" unicode="&#58893;" d="M1020.586667 245.76c1.706667-8.533333 1.706667-18.773333-1.706667-32.426667-1.706667-11.946667-5.12-25.6-10.24-37.546666-5.12-11.946667-11.946667-23.893333-18.773333-34.133334-6.826667-10.24-15.36-17.066667-23.893334-22.186666-8.533333-5.12-17.066667-6.826667-22.186666-6.826667-6.826667 0-13.653333 1.706667-22.186667 5.12-6.826667 1.706667-17.066667 3.413333-27.306667 6.826667-10.24 1.706667-22.186667 1.706667-34.133333 1.706666-11.946667-1.706667-22.186667-3.413333-34.133333-6.826666s-20.48-10.24-29.013334-18.773334c-17.066667-18.773333-27.306667-39.253333-30.72-63.146666-3.413333-23.893333 0-46.08 10.24-66.56 6.826667-15.36 6.826667-29.013333-3.413333-44.373334-5.12-5.12-11.946667-11.946667-20.48-18.773333-10.24-6.826667-20.48-11.946667-30.72-17.066667-11.946667-5.12-23.893333-8.533333-35.84-11.946666-11.946667-3.413333-23.893333-5.12-32.426667-5.12-6.826667 0-11.946667 1.706667-18.773333 6.826666-5.12 5.12-10.24 10.24-11.946667 17.066667h-1.706666c-8.533333 22.186667-22.186667 42.666667-40.96 58.026667-18.773333 17.066667-42.666667 23.893333-68.266667 23.893333s-47.786667-8.533333-68.266667-23.893333c-20.48-17.066667-34.133333-35.84-42.666666-58.026667-3.413333-8.533333-8.533333-15.36-17.066667-18.773333-6.826667-3.413333-15.36-6.826667-23.893333-6.826667-10.24 0-22.186667 1.706667-34.133334 5.12-13.653333 3.413333-25.6 8.533333-39.253333 13.653333-11.946667 5.12-23.893333 11.946667-34.133333 18.773334-10.24 6.826667-17.066667 15.36-22.186667 22.186666-3.413333 5.12-5.12 11.946667-6.826667 18.773334 0 6.826667 1.706667 17.066667 8.533334 29.013333 8.533333 17.066667 11.946667 35.84 8.533333 58.026667-1.706667 22.186667-11.946667 40.96-27.306667 59.733333-10.24 10.24-22.186667 18.773333-37.546666 22.186667-15.36 3.413333-29.013333 5.12-40.96 3.413333-15.36 0-30.72-3.413333-47.786667-8.533333-10.24-3.413333-20.48-1.706667-30.72 1.706666-6.826667 5.12-15.36 11.946667-22.186667 22.186667-6.826667 10.24-13.653333 22.186667-18.773333 35.84-5.12 11.946667-10.24 25.6-11.946667 39.253333-3.413333 13.653333-3.413333 23.893333-1.706666 34.133334 1.706667 15.36 10.24 25.6 22.186666 30.72 22.186667 8.533333 40.96 23.893333 59.733334 42.666666 17.066667 20.48 25.6 42.666667 25.6 68.266667s-8.533333 47.786667-25.6 66.56-37.546667 32.426667-59.733334 40.96c-6.826667 1.706667-11.946667 6.826667-17.066666 15.36-5.12 8.533333-6.826667 17.066667-6.826667 25.6 0 10.24 1.706667 20.48 5.12 32.426667 3.413333 11.946667 6.826667 23.893333 11.946667 34.133333 5.12 10.24 10.24 20.48 17.066666 30.72 6.826667 8.533333 13.653333 15.36 20.48 20.48 5.12 3.413333 11.946667 5.12 17.066667 5.12 5.12 0 11.946667-1.706667 18.773333-5.12 22.186667-8.533333 44.373333-11.946667 68.266667-8.533333 23.893333 3.413333 44.373333 13.653333 63.146667 30.72 8.533333 8.533333 15.36 18.773333 18.773333 32.426666 3.413333 11.946667 6.826667 25.6 6.826667 37.546667 1.706667 11.946667 1.706667 23.893333 0 34.133333-1.706667 10.24-1.706667 17.066667-3.413334 22.186667-1.706667 5.12-3.413333 10.24-3.413333 15.36-1.706667 5.12 0 10.24 1.706667 15.36 3.413333 10.24 11.946667 18.773333 22.186666 27.306667 11.946667 6.826667 23.893333 13.653333 37.546667 18.773333 13.653333 5.12 25.6 8.533333 39.253333 11.946667 11.946667 1.706667 20.48 3.413333 29.013334 3.413333 10.24 0 17.066667-3.413333 22.186666-8.533333 5.12-6.826667 8.533333-11.946667 11.946667-18.773334 8.533333-20.48 20.48-37.546667 39.253333-52.906666 18.773333-15.36 39.253333-22.186667 64.853334-22.186667s47.786667 6.826667 68.266666 22.186667c20.48 13.653333 34.133333 32.426667 40.96 54.613333 3.413333 5.12 6.826667 11.946667 13.653334 18.773333 6.826667 3.413333 11.946667 6.826667 18.773333 6.826667 10.24 0 22.186667-1.706667 34.133333-5.12 11.946667-3.413333 23.893333-6.826667 35.84-11.946667 11.946667-5.12 22.186667-11.946667 32.426667-20.48 10.24-8.533333 17.066667-17.066667 23.893333-25.6 3.413333-5.12 5.12-11.946667 3.413334-18.773333-1.706667-6.826667-3.413333-11.946667-5.12-15.36-10.24-20.48-11.946667-44.373333-8.533334-66.56 3.413333-23.893333 13.653333-44.373333 32.426667-61.44 17.066667-17.066667 39.253333-27.306667 64.853333-29.013333 25.6-1.706667 49.493333 1.706667 71.68 11.946666 5.12 3.413333 13.653333 5.12 22.186667 5.12s15.36-3.413333 22.186667-10.24c10.24-10.24 20.48-25.6 29.013333-46.08 8.533333-20.48 13.653333-42.666667 17.066667-63.146666 1.706667-11.946667 0-22.186667-6.826667-29.013334-5.12-6.826667-11.946667-11.946667-17.066667-13.653333-22.186667-8.533333-42.666667-22.186667-58.026666-42.666667-15.36-20.48-23.893333-42.666667-23.893334-68.266666s6.826667-46.08 20.48-64.853334c13.653333-18.773333 30.72-32.426667 52.906667-39.253333 5.12-3.413333 10.24-5.12 13.653333-8.533333 5.12-8.533333 10.24-17.066667 13.653334-27.306667z m-510.293334-97.28c32.426667 0 63.146667 6.826667 93.866667 18.773333s54.613333 29.013333 76.8 51.2c22.186667 22.186667 39.253333 47.786667 51.2 76.8 11.946667 29.013333 18.773333 59.733333 18.773333 92.16 0 32.426667-6.826667 63.146667-18.773333 92.16-11.946667 29.013333-29.013333 54.613333-51.2 75.093334-22.186667 22.186667-47.786667 39.253333-76.8 51.2-29.013333 11.946667-59.733333 18.773333-93.866667 18.773333-32.426667 0-63.146667-6.826667-92.16-18.773333-29.013333-11.946667-54.613333-29.013333-75.093333-51.2-22.186667-22.186667-39.253333-46.08-51.2-75.093334-11.946667-29.013333-18.773333-59.733333-18.773333-92.16 0-32.426667 6.826667-63.146667 18.773333-92.16 11.946667-29.013333 29.013333-54.613333 51.2-76.8 22.186667-22.186667 46.08-39.253333 75.093333-51.2 29.013333-13.653333 59.733333-18.773333 92.16-18.773333zM512 385.706667m-66.56 0a66.56 66.56 0 1 1 133.12 0 66.56 66.56 0 1 1-133.12 0Z"  horiz-adv-x="1028" />

    
    <glyph glyph-name="wenzhang" unicode="&#59005;" d="M661.648 778H249.104c-39.088 0-70.304-31.752-70.304-70.304v-647.392c0-39.096 31.752-70.304 70.304-70.304h525.8c38.552 0 70.296 31.752 70.296 70.304V594.44L661.648 778z m12.664-74.704l96.176-96.184H684.584c-5.408 0-10.272 4.864-10.272 10.272V703.296z m126.928-642.992a26.24 26.24 0 0 0-26.344-26.352H249.104a26.24 26.24 0 0 0-26.344 26.352V707.696a26.24 26.24 0 0 0 26.344 26.344v0.464h381.328v-117.192c0-29.824 24.416-54.16 54.16-54.16h116.656v-502.848zM348.68 509.928h188.968a21.84 21.84 0 0 1 21.944 21.936 21.84 21.84 0 0 1-21.944 21.944H348.68a21.832 21.832 0 0 1-21.944-21.944 21.84 21.84 0 0 1 21.944-21.936zM674.848 251.2H348.68c-12.208 0-21.944-9.744-21.944-21.944s9.736-21.944 21.944-21.944h326.168c12.208 0 21.944 9.744 21.944 21.944S687.064 251.2 674.848 251.2zM348.68 400.144a21.824 21.824 0 0 1-21.944-21.944 21.832 21.832 0 0 1 21.944-21.936h326.168a21.832 21.832 0 0 1 21.944 21.936 21.832 21.832 0 0 1-21.944 21.944H348.68z"  horiz-adv-x="1024" />

    
    <glyph glyph-name="xiaoxi1" unicode="&#58939;" d="M841.5 705.2H181.1c-64.9 0-117.7-51.9-117.7-115.6v-409.7c0-63.7 52.8-115.6 117.7-115.6h660.4c64.9 0 117.7 51.9 117.7 115.6V589.6c0 63.7-52.8 115.6-117.7 115.6zM620 400.5l284.1 227.6c7.1-11.2 11.3-24.4 11.3-38.5v-409.7c0-13-3.5-25.2-9.6-35.8L620 400.5z m221.5 261.7c10.2 0 20-2.1 28.8-5.8L511.7 369.2 152.8 656.6c8.7 3.6 18.3 5.6 28.3 5.6h660.4zM117.1 143.7c-6.3 10.7-9.9 23-9.9 36.2V589.6c0 14.3 4.2 27.6 11.5 38.9l284.6-228-286.2-256.8z m64-36.4c-11.4 0-22.2 2.6-31.9 7.1L437.6 373l54.4-43.6 1.1-1.1 1.2-1.2c4.7-4.5 10.9-6.8 17.1-6.8 5.4 0 10.9 1.8 15.4 5.4l59 47.2 288.1-258.4c-9.8-4.7-20.7-7.3-32.3-7.3H181.1z"  horiz-adv-x="1024" />

    
    <glyph glyph-name="baobiao" unicode="&#59477;" d="M768 96H256a32 32 0 0 0-32 32V640a32 32 0 0 0 64 0v-480h480a32 32 0 0 0 0-64z m-384 128a32 32 0 0 0-32 32v160a32 32 0 0 0 64 0v-160a32 32 0 0 0-32-32z m128 0a32 32 0 0 0-32 32v64a32 32 0 0 0 64 0v-64a32 32 0 0 0-32-32z m128 0a32 32 0 0 0-32 32v160a32 32 0 0 0 64 0v-160a32 32 0 0 0-32-32z m128 0a32 32 0 0 0-32 32v128a32 32 0 0 0 64 0v-128a32 32 0 0 0-32-32z m-256 224a31.968 31.968 0 0 0-22.72 9.28l-128 128a32 32 0 1 0 45.088 45.088l105.28-105.28 137.28 137.28a32 32 0 0 0 45.12 0l96-96a32 32 0 0 0-45.12-45.12l-72.96 73.6-137.28-137.28a32 32 0 0 0-22.72-9.6L512 448z"  horiz-adv-x="1024" />

    
    <glyph glyph-name="bianji" unicode="&#59013;" d="M758.518519-44.562963H202.903704c-60.681481 0-111.881481 49.303704-111.881482 111.881482V624.82963c0 62.577778 51.2 115.674074 111.881482 115.674074h373.57037c11.377778 0 18.962963-7.585185 18.962963-18.962963s-7.585185-18.962963-18.962963-18.962963H202.903704c-39.822222 0-73.955556-36.02963-73.955556-77.748148v-555.614815c0-39.822222 32.237037-73.955556 73.955556-73.955556H758.518519c41.718519 0 77.748148 34.133333 77.748148 73.955556V440.888889c0 11.377778 7.585185 18.962963 18.962963 18.962963s18.962963-7.585185 18.962963-18.962963v-373.57037c0-60.681481-53.096296-111.881481-115.674074-111.881482zM314.785185 124.207407c-9.481481 0-20.859259 3.792593-28.444444 11.377778-13.274074 11.377778-17.066667 32.237037-11.377778 51.2 108.088889 223.762963 113.777778 231.348148 115.674074 233.244445l360.296296 360.296296c24.651852 24.651852 68.266667 24.651852 92.918519 0l81.540741-81.540741c24.651852-24.651852 24.651852-66.37037 0-92.918518l-360.296297-360.296297c-1.896296-1.896296-9.481481-9.481481-231.348148-115.674074-3.792593-3.792593-11.377778-5.688889-18.962963-5.688889z m106.192593 269.274074c-9.481481-15.17037-72.059259-144.118519-109.985185-223.762962-1.896296-3.792593 0-5.688889 1.896296-7.585186 1.896296-1.896296 3.792593 0 5.688889 0 77.748148 37.925926 206.696296 100.503704 221.866666 109.985186L898.844444 630.518519c11.377778 11.377778 11.377778 28.444444 0 37.925925l-81.54074 81.540741c-9.481481 9.481481-28.444444 9.481481-37.925926 0L420.977778 393.481481zM851.437037 539.496296c-5.688889 0-9.481481 1.896296-13.274074 5.688889l-144.118519 144.118519c-7.585185 7.585185-7.585185 18.962963 0 26.548148s18.962963 7.585185 26.548149 0l144.118518-144.118519c7.585185-7.585185 7.585185-18.962963 0-26.548148-3.792593-3.792593-7.585185-5.688889-13.274074-5.688889zM544.237037 236.088889c-5.688889 0-9.481481 1.896296-13.274074 5.688889l-138.42963 138.429629c-7.585185 7.585185-7.585185 18.962963 0 26.548149s18.962963 7.585185 26.548148 0l138.42963-138.42963c7.585185-7.585185 7.585185-18.962963 0-26.548148-3.792593-3.792593-9.481481-5.688889-13.274074-5.688889z"  horiz-adv-x="1024" />

    
    </font>
</defs>
</svg>
