<svg width="710px" height="710px" viewBox="0 0 710 710" version="1.1" xmlns="http://www.w3.org/2000/svg" xmlns:xlink="http://www.w3.org/1999/xlink">
	<defs></defs>
	<g id="Page-1" stroke="none" stroke-width="1" fill="none" fill-rule="evenodd" opacity="0.4">
		<g id="Mid" transform="translate(-2920.000000, -1322.000000)">
			<g id="areaMid" transform="translate(0.000000, -9059.000000)">
				<g id="chartCR2" transform="translate(2841.000000, 10214.000000)">
					<g id="Tickmarks-circle-Copy" transform="translate(79.000000, 167.000000)">
						<g id="Minor-tickmarks" transform="translate(7.135678, 7.135678)">
							<path d="M347.864322,0.189399299 C472.069414,0.189399299 586.837615,66.4604967 648.9579,174.02686 C711.078184,281.593224 711.078184,414.135419 648.9579,521.701783 C586.837615,629.268146 472.069414,695.539244 347.864322,695.539244 C223.659229,695.539244 108.891028,629.268146 46.7707435,521.701783 C-15.3495411,414.135419 -15.3495411,281.593224 46.7707435,174.02686 C108.891028,66.4604967 223.659229,0.189399299 347.864322,0.189399299 L347.864322,7.28480588 C226.178099,7.28480588 113.751382,72.2077761 52.9082702,177.574564 C-7.93484123,282.941351 -7.93484123,412.787292 52.9082702,518.154079 C113.751382,623.520867 226.178099,688.443837 347.864322,688.443837 C469.550544,688.443837 581.977262,623.520867 642.820373,518.154079 C703.663484,412.787292 703.663484,282.941351 642.820373,177.574564 C581.977262,72.2077761 469.550544,7.28480588 347.864322,7.28480588 L347.864322,0.189399299 Z" id="Base-plate" fill-opacity="0.002" fill="#455A64"></path>
							<path d="M344.51381,0.312506869 L344.582264,7.15789344 C346.770302,7.12496632 348.958341,7.12496632 351.14638,7.15789344 L351.214834,0.312506869 C348.991754,0.279553076 346.736889,0.279553076 344.51381,0.312506869 Z" id="Tick-minor-0" stroke="#FFFFFF" stroke-width="0.25" fill="#4FC0E9"></path>
							<path d="M362.706538,0.639329777 L362.398479,7.48507967 C364.014464,7.56086592 364.757262,7.59647684 365.680132,7.64334131 C366.880334,7.70428907 367.945826,7.76336861 368.962936,7.82636974 L369.407914,0.980558663 C368.379889,0.917889151 367.295026,0.859007126 366.057845,0.797620282 C365.134449,0.751802923 364.632562,0.728238584 362.706538,0.639329874 Z" id="Tick-minor-1" stroke="#FFFFFF" stroke-width="0.25" fill="#4FC0E9"></path>
							<path d="M380.864119,1.88634646 L380.213799,8.69758929 C381.221696,8.7926939 382.271552,8.89916217 383.478737,9.02748502 C383.991589,9.08200083 384.526537,9.13975827 385.169776,9.20989537 C385.472227,9.24287382 386.402717,9.34473732 386.743678,9.38207308 L387.530915,2.57072334 C385.889089,2.39394785 385.134748,2.31350264 384.19763,2.21618659 C382.97868,2.08960331 381.896773,1.9822268 380.864119,1.88634648 Z" id="Tick-minor-2" stroke="#FFFFFF" stroke-width="0.25" fill="#4FC0E9"></path>
							<path d="M398.914778,4.09263386 L397.922362,10.8684445 C400.165485,11.190021 402.339545,11.5323929 404.418546,11.893966 L405.548131,5.11645821 C404.331757,4.90855122 403.2559,4.74231009 401.095616,4.42048694 C399.937089,4.24789815 399.483824,4.1799639 398.914778,4.09263386 Z" id="Tick-minor-3" stroke="#FFFFFF" stroke-width="0.25" fill="#4FC0E9"></path>
							<path d="M416.858215,7.21934028 L415.489054,13.9282308 C418.68261,14.5873903 420.159764,14.8992657 421.9163,15.2949528 L423.387806,8.62184311 C422.918582,8.51910382 421.868712,8.28891528 421.812731,8.27665218 C421.138721,8.12900557 420.623784,8.01667201 420.122322,7.90808768 C418.898696,7.64312923 417.857664,7.42300846 416.858215,7.21934031 Z" id="Tick-minor-4" stroke="#FFFFFF" stroke-width="0.25" fill="#4FC0E9"></path>
							<path d="M434.589185,11.3036494 L432.877614,17.9445461 C435.310299,18.5727229 437.28119,19.0934878 439.20192,19.6193553 L441.050351,13.0471545 C438.896623,12.4330247 436.7429,11.8518564 434.589185,11.3036494 Z" id="Tick-minor-5" stroke="#FFFFFF" stroke-width="0.25" fill="#4FC0E9"></path>
							<path d="M452.070925,16.3116744 L450.017591,22.8481198 C451.745226,23.3870046 453.181012,23.8518953 456.273649,24.8657323 L458.430389,18.3612794 C457.26265,17.9667565 456.278947,17.6498026 454.151194,16.9748703 C453.123963,16.649028 452.629634,16.4916517 452.070925,16.3116744 Z" id="Tick-minor-6" stroke="#FFFFFF" stroke-width="0.25" fill="#4FC0E9"></path>
							<path d="M469.269111,22.2045189 L466.873359,28.6388261 C469.915454,29.7545497 471.327847,30.2841585 473.028051,30.9627161 L475.525868,24.6326326 C472.431766,23.4154209 470.996584,22.8566167 469.269111,22.204519 Z" id="Tick-minor-7" stroke="#FFFFFF" stroke-width="0.25" fill="#4FC0E9"></path>
							<path d="M486.147982,29.0193343 L483.444778,35.2811864 C485.379293,36.1026083 487.348819,36.9817097 489.427403,37.9479978 L492.267458,31.7546255 C490.020988,30.7272198 488.038841,29.8398166 486.147981,29.0193344 Z" id="Tick-minor-8" stroke="#FFFFFF" stroke-width="0.25" fill="#4FC0E9"></path>
							<path d="M502.671645,36.6849989 L499.625516,42.8114835 C501.574113,43.7699586 503.522699,44.7613531 505.471275,45.7856669 L508.619482,39.7287907 C508.073372,39.44599 506.752971,38.7607056 506.680838,38.7233189 C504.990557,37.8472391 503.842749,37.2618869 502.671645,36.684999 Z" id="Tick-minor-9" stroke="#FFFFFF" stroke-width="0.25" fill="#4FC0E9"></path>
							<path d="M518.734143,45.20265 L515.379901,51.1923678 C517.199882,52.2017026 519.060317,53.2792396 521.054956,54.4746769 L524.546143,48.5533495 C522.488089,47.3413541 520.570858,46.2349356 518.734143,45.20265 Z" id="Tick-minor-10" stroke="#FFFFFF" stroke-width="0.25" fill="#4FC0E9"></path>
							<path d="M534.334705,54.5710518 L530.672717,60.3549396 C532.432053,61.463863 534.259196,62.6451319 536.176618,63.9104703 L539.941298,58.2292257 C537.990089,56.9292914 536.128235,55.7135597 534.334705,54.5710518 Z" id="Tick-minor-11" stroke="#FFFFFF" stroke-width="0.25" fill="#4FC0E9"></path>
							<path d="M549.438439,64.7194401 L545.468319,70.2981433 C547.183613,71.5198496 548.951702,72.8096125 550.7673,74.1614301 L554.840105,68.6853897 C552.990461,67.2991181 551.187908,65.9749654 549.438439,64.7194401 Z" id="Tick-minor-12" stroke="#FFFFFF" stroke-width="0.25" fill="#4FC0E9"></path>
							<path d="M563.974587,75.6832951 L559.731164,81.0217941 C562.265748,83.0497176 563.436903,83.9971885 564.825493,85.1576504 L569.172149,79.8869021 C568.197851,79.0701766 567.258861,78.3092523 565.684909,77.0514649 C565.233429,76.6908068 564.968439,76.4791395 564.781375,76.3295902 C564.475653,76.0851794 564.21839,75.8791298 563.974587,75.6832951 Z" id="Tick-minor-13" stroke="#FFFFFF" stroke-width="0.25" fill="#4FC0E9"></path>
							<path d="M577.90876,87.3553915 L573.391068,92.4891332 C575.010648,93.9075097 576.650132,95.3753223 578.279959,96.8652738 L582.900339,91.8341932 C581.236287,90.3099593 579.562531,88.807873 577.90876,87.3553915 Z" id="Tick-minor-14" stroke="#FFFFFF" stroke-width="0.25" fill="#4FC0E9"></path>
							<path d="M591.238638,99.7373386 L586.446766,104.631893 C588.018523,106.170703 589.55794,107.71012 591.09675,109.281877 L595.991305,104.490005 C594.418268,102.883995 592.844649,101.310375 591.238638,99.7373386 Z" id="Tick-minor-15" stroke="#FFFFFF" stroke-width="0.25" fill="#4FC0E9"></path>
							<path d="M603.89445,112.828304 L598.863369,117.448685 C600.353321,119.078511 601.821134,120.717995 603.23951,122.337575 L608.373252,117.819883 C606.92077,116.166112 605.418684,114.492356 603.89445,112.828304 Z" id="Tick-minor-16" stroke="#FFFFFF" stroke-width="0.25" fill="#4FC0E9"></path>
							<path d="M615.841741,126.556495 L610.570993,130.903151 C611.731455,132.29174 612.678926,133.462896 614.706849,135.997479 L620.045348,131.754056 C619.849513,131.510254 619.643464,131.25299 619.399053,130.947269 C619.249504,130.760205 619.037836,130.495214 618.677178,130.043734 C617.419391,128.469782 616.658467,127.530792 615.841741,126.556495 Z" id="Tick-minor-17" stroke="#FFFFFF" stroke-width="0.25" fill="#4FC0E9"></path>
							<path d="M627.043254,140.888539 L621.567213,144.961344 C622.919031,146.776942 624.208794,148.54503 625.4305,150.260324 L631.009203,146.290204 C629.753678,144.540735 628.429525,142.738182 627.043254,140.888539 Z" id="Tick-minor-18" stroke="#FFFFFF" stroke-width="0.25" fill="#4FC0E9"></path>
							<path d="M637.499417,155.787346 L631.818173,159.552026 C633.083511,161.469448 634.26478,163.29659 635.373704,165.055926 L641.157591,161.393938 C640.015083,159.600408 638.799352,157.738554 637.499417,155.787346 Z" id="Tick-minor-19" stroke="#FFFFFF" stroke-width="0.25" fill="#4FC0E9"></path>
							<path d="M647.175294,171.1825 L641.253966,174.673687 C642.449404,176.668326 643.526941,178.528761 644.536275,180.348742 L650.525993,176.9945 C649.493708,175.157786 648.387289,173.240554 647.175294,171.1825 Z" id="Tick-minor-20" stroke="#FFFFFF" stroke-width="0.25" fill="#4FC0E9"></path>
							<path d="M655.999852,187.109161 L649.942976,190.257368 C650.96729,192.205944 651.958685,194.154531 652.91716,196.103127 L659.043644,193.056998 C658.466756,191.885894 657.881404,190.738086 657.005324,189.047805 C656.967938,188.975673 656.282653,187.655271 655.999852,187.109161 Z" id="Tick-minor-21" stroke="#FFFFFF" stroke-width="0.25" fill="#4FC0E9"></path>
							<path d="M663.974018,203.461186 L657.780645,206.30124 C658.746934,208.379824 659.626035,210.34935 660.447457,212.283866 L666.709309,209.580662 C665.888827,207.689802 665.001423,205.707656 663.974018,203.461186 Z" id="Tick-minor-22" stroke="#FFFFFF" stroke-width="0.25" fill="#4FC0E9"></path>
							<path d="M671.096011,220.202775 L664.765926,222.700592 C665.444485,224.400796 665.974094,225.81319 667.089817,228.855285 L673.524124,226.459532 C672.872027,224.732059 672.313222,223.296878 671.096011,220.202777 Z" id="Tick-minor-23" stroke="#FFFFFF" stroke-width="0.25" fill="#4FC0E9"></path>
							<path d="M677.367364,237.298254 L670.862911,239.454994 C671.876748,242.547631 672.341639,243.983417 672.880523,245.711052 L679.416969,243.657719 C679.236991,243.099009 679.079615,242.60468 678.753773,241.577449 C678.078841,239.449696 677.761887,238.465993 677.367364,237.298254 Z" id="Tick-minor-24" stroke="#FFFFFF" stroke-width="0.25" fill="#4FC0E9"></path>
							<path d="M682.681489,254.678292 L676.109288,256.526723 C676.635155,258.447453 677.15592,260.418344 677.784097,262.85103 L684.424994,261.139458 C683.876787,258.985743 683.295619,256.832021 682.681489,254.678292 Z" id="Tick-minor-25" stroke="#FFFFFF" stroke-width="0.25" fill="#4FC0E9"></path>
							<path d="M687.1068,272.340837 L680.43369,273.812344 C680.829303,275.56855 681.141144,277.045519 681.800398,280.239592 L688.509303,278.870428 C688.305635,277.870979 688.085514,276.829947 687.820556,275.606321 C687.711971,275.104859 687.599638,274.589923 687.451991,273.915913 C687.439728,273.859931 687.209539,272.810061 687.1068,272.340837 Z M681.825605,280.361732 C681.825734,280.36236 681.825864,280.362988 681.825993,280.363616 L681.825622,280.361744 L681.825605,280.361732 Z" id="Tick-minor-26" stroke="#FFFFFF" stroke-width="0.25" fill="#4FC0E9"></path>
							<path d="M690.612185,290.180513 L683.834677,291.310097 C684.19625,293.389098 684.538622,295.563158 684.860199,297.806281 L691.636009,296.813865 C691.548679,296.24482 691.480745,295.791555 691.308156,294.633028 C690.986333,292.472743 690.820092,291.396887 690.612185,290.180513 Z" id="Tick-minor-27" stroke="#FFFFFF" stroke-width="0.25" fill="#4FC0E9"></path>
							<path d="M693.15792,308.197728 L686.346571,308.98497 C686.383907,309.325933 686.48577,310.256418 686.518748,310.558867 C686.588885,311.202107 686.646642,311.737054 686.701158,312.249906 C686.829481,313.457091 686.935949,314.506947 687.031054,315.514844 L693.842297,314.864525 C693.746416,313.83187 693.63904,312.749963 693.512457,311.531013 C693.415141,310.593895 693.334695,309.839554 693.15792,308.197728 Z" id="Tick-minor-28" stroke="#FFFFFF" stroke-width="0.25" fill="#4FC0E9"></path>
							<path d="M694.748085,326.32073 L687.902282,326.765707 C688.014834,328.578737 688.091305,330.085059 688.243562,333.330164 L695.089313,333.022105 C695.000404,331.096073 694.97684,330.594187 694.931023,329.670798 C694.869636,328.433617 694.810754,327.348754 694.748085,326.320729 Z" id="Tick-minor-29" stroke="#FFFFFF" stroke-width="0.25" fill="#4FC0E9"></path>
							<path d="M695.416136,344.51381 L688.57075,344.582264 C688.603677,346.770302 688.603677,348.958341 688.57075,351.14638 L695.416136,351.214834 C695.44909,348.991754 695.44909,346.736889 695.416136,344.51381 Z" id="Tick-minor-30" stroke="#FFFFFF" stroke-width="0.25" fill="#4FC0E9"></path>
							<path d="M695.089313,362.706538 L688.243562,362.398479 C688.091305,365.643584 688.014834,367.149907 687.902282,368.962937 L694.748085,369.407914 C694.810754,368.379889 694.869636,367.295026 694.931023,366.057845 C694.97684,365.134456 695.000404,364.63257 695.089313,362.706538 Z" id="Tick-minor-31" stroke="#FFFFFF" stroke-width="0.25" fill="#4FC0E9"></path>
							<path d="M693.842305,380.864119 L687.031054,380.213799 C686.935949,381.221696 686.829481,382.271552 686.701158,383.478737 C686.646642,383.991589 686.588885,384.526537 686.518748,385.169776 C686.485769,385.472227 686.383906,386.402717 686.34657,386.743678 L693.157919,387.530915 C693.512814,384.234145 693.671622,382.705072 693.842305,380.864119 Z" id="Tick-minor-32" stroke="#FFFFFF" stroke-width="0.25" fill="#4FC0E9"></path>
							<path d="M691.636009,398.914778 L684.860199,397.922362 C684.538622,400.165485 684.19625,402.339545 683.834677,404.418546 L690.612185,405.548131 C690.820092,404.331757 690.986333,403.2559 691.308156,401.095616 C691.480745,399.937089 691.548679,399.483824 691.636009,398.914778 Z" id="Tick-minor-33" stroke="#FFFFFF" stroke-width="0.25" fill="#4FC0E9"></path>
							<path d="M688.509303,416.858215 L681.800412,415.489054 C681.141253,418.68261 680.829378,420.159764 680.43369,421.9163 L687.1068,423.387806 C687.209539,422.918582 687.439728,421.868712 687.451991,421.812731 C687.599638,421.138721 687.711971,420.623784 687.820556,420.122322 C688.085514,418.898696 688.305635,417.857664 688.509303,416.858215 Z" id="Tick-minor-34" stroke="#FFFFFF" stroke-width="0.25" fill="#4FC0E9"></path>
							<path d="M684.424994,434.589185 L677.784097,432.877614 C677.15592,435.310299 676.635155,437.28119 676.109288,439.20192 L682.681489,441.050351 C683.295619,438.896623 683.876787,436.7429 684.424994,434.589185 Z" id="Tick-minor-35" stroke="#FFFFFF" stroke-width="0.25" fill="#4FC0E9"></path>
							<path d="M679.416969,452.070925 L672.880515,450.017588 C672.578089,450.986698 672.254359,452.001917 671.884119,453.145443 C671.599306,454.02512 671.36796,454.733142 670.862912,456.27365 L677.367352,458.430385 C677.682967,457.4956 677.996411,456.53183 678.404469,455.250837 C678.501764,454.945405 678.57936,454.70104 678.753773,454.151194 C679.079615,453.123963 679.236991,452.629634 679.416969,452.070925 Z" id="Tick-minor-36" stroke="#FFFFFF" stroke-width="0.25" fill="#4FC0E9"></path>
							<path d="M673.524124,469.269111 L667.089817,466.873359 C665.974094,469.915454 665.444485,471.327847 664.765927,473.028051 L671.096011,475.525868 C672.313222,472.431766 672.872027,470.996584 673.524124,469.269111 Z" id="Tick-minor-37" stroke="#FFFFFF" stroke-width="0.25" fill="#4FC0E9"></path>
							<path d="M666.709309,486.147982 L660.447457,483.444778 C659.626035,485.379293 658.746934,487.348819 657.780645,489.427403 L663.974018,492.267458 C665.001423,490.020988 665.888827,488.038841 666.709309,486.147981 Z" id="Tick-minor-38" stroke="#FFFFFF" stroke-width="0.25" fill="#4FC0E9"></path>
							<path d="M659.043644,502.671645 L652.91716,499.625516 C651.958685,501.574113 650.96729,503.522699 649.942976,505.471275 L655.999852,508.619482 C656.282653,508.073372 656.967938,506.752971 657.005324,506.680838 C657.881404,504.990557 658.466756,503.842749 659.043644,502.671645 Z" id="Tick-minor-39" stroke="#FFFFFF" stroke-width="0.25" fill="#4FC0E9"></path>
							<path d="M650.525993,518.734143 L644.536275,515.379901 C643.526941,517.199882 642.449404,519.060317 641.253966,521.054956 L647.175294,524.546143 C648.387289,522.488089 649.493708,520.570858 650.525993,518.734143 Z" id="Tick-minor-40" stroke="#FFFFFF" stroke-width="0.25" fill="#4FC0E9"></path>
							<path d="M641.157591,534.334705 L635.373704,530.672717 C634.26478,532.432053 633.083511,534.259196 631.818173,536.176618 L637.499417,539.941298 C638.799352,537.990089 640.015083,536.128235 641.157591,534.334705 Z" id="Tick-minor-41" stroke="#FFFFFF" stroke-width="0.25" fill="#4FC0E9"></path>
							<path d="M631.009203,549.438439 L625.4305,545.468319 C624.208794,547.183613 622.919031,548.951702 621.567213,550.7673 L627.043254,554.840105 C628.429525,552.990461 629.753678,551.187908 631.009203,549.438439 Z" id="Tick-minor-42" stroke="#FFFFFF" stroke-width="0.25" fill="#4FC0E9"></path>
							<path d="M620.045348,563.974587 L614.706849,559.731164 C612.678927,562.265746 611.731456,563.436902 610.570995,564.825489 L615.841741,569.172149 C616.658467,568.197851 617.419391,567.258861 618.677178,565.684909 C619.037836,565.233429 619.249504,564.968439 619.399053,564.781375 C619.643464,564.475653 619.849513,564.21839 620.045348,563.974587 Z" id="Tick-minor-43" stroke="#FFFFFF" stroke-width="0.25" fill="#4FC0E9"></path>
							<path d="M608.373252,577.90876 L603.23951,573.391068 C601.821134,575.010648 600.353321,576.650132 598.863369,578.279959 L603.89445,582.900339 C605.418684,581.236287 606.92077,579.562531 608.373252,577.90876 Z" id="Tick-minor-44" stroke="#FFFFFF" stroke-width="0.25" fill="#4FC0E9"></path>
							<path d="M595.991305,591.238638 L591.09675,586.446766 C589.55794,588.018523 588.018523,589.55794 586.446766,591.09675 L591.238638,595.991305 C592.844649,594.418268 594.418268,592.844649 595.991305,591.238638 Z" id="Tick-minor-45" stroke="#FFFFFF" stroke-width="0.25" fill="#4FC0E9"></path>
							<path d="M582.900339,603.89445 L578.279959,598.863369 C576.650132,600.353321 575.010648,601.821134 573.391068,603.23951 L577.90876,608.373252 C579.562531,606.92077 581.236287,605.418684 582.900339,603.89445 Z" id="Tick-minor-46" stroke="#FFFFFF" stroke-width="0.25" fill="#4FC0E9"></path>
							<path d="M569.172149,615.841741 L564.825492,610.570992 C563.436903,611.731455 562.265748,612.678926 559.731164,614.706849 L563.974587,620.045348 C564.21839,619.849513 564.475653,619.643464 564.781375,619.399053 C564.968439,619.249504 565.233429,619.037836 565.684909,618.677178 C567.258861,617.419391 568.197851,616.658467 569.172149,615.841741 Z" id="Tick-minor-47" stroke="#FFFFFF" stroke-width="0.25" fill="#4FC0E9"></path>
							<path d="M554.840105,627.043254 L550.7673,621.567213 C548.951702,622.919031 547.183613,624.208794 545.468319,625.4305 L549.438439,631.009203 C551.187908,629.753678 552.990461,628.429525 554.840105,627.043254 Z" id="Tick-minor-48" stroke="#FFFFFF" stroke-width="0.25" fill="#4FC0E9"></path>
							<path d="M539.941298,637.499417 L536.176618,631.818173 C534.259196,633.083511 532.432053,634.26478 530.672717,635.373704 L534.334705,641.157591 C536.128235,640.015083 537.990089,638.799352 539.941298,637.499417 Z" id="Tick-minor-49" stroke="#FFFFFF" stroke-width="0.25" fill="#4FC0E9"></path>
							<path d="M524.546143,647.175294 L521.054956,641.253966 C519.060317,642.449404 517.199882,643.526941 515.379901,644.536275 L518.734143,650.525993 C520.570858,649.493708 522.488089,648.387289 524.546143,647.175294 Z" id="Tick-minor-50" stroke="#FFFFFF" stroke-width="0.25" fill="#4FC0E9"></path>
							<path d="M508.619482,655.999852 L505.471275,649.942976 C503.522699,650.96729 501.574113,651.958685 499.625516,652.91716 L502.671645,659.043644 C503.842749,658.466756 504.990557,657.881404 506.680838,657.005324 C506.752971,656.967938 508.073372,656.282653 508.619482,655.999852 Z" id="Tick-minor-51" stroke="#FFFFFF" stroke-width="0.25" fill="#4FC0E9"></path>
							<path d="M492.267458,663.974018 L489.427403,657.780645 C487.348819,658.746934 485.379293,659.626035 483.444778,660.447457 L486.147982,666.709309 C488.038841,665.888827 490.020988,665.001423 492.267457,663.974018 Z" id="Tick-minor-52" stroke="#FFFFFF" stroke-width="0.25" fill="#4FC0E9"></path>
							<path d="M475.525868,671.096011 L473.028051,664.765926 C471.327847,665.444485 469.915454,665.974094 466.873359,667.089817 L469.269111,673.524124 C470.996584,672.872027 472.431766,672.313222 475.525867,671.096011 Z" id="Tick-minor-53" stroke="#FFFFFF" stroke-width="0.25" fill="#4FC0E9"></path>
							<path d="M458.430389,677.367364 L456.273649,670.862911 C453.181012,671.876748 451.745226,672.341639 450.017591,672.880523 L452.070925,679.416969 C452.629634,679.236991 453.123963,679.079615 454.151194,678.753773 C456.278947,678.078841 457.26265,677.761887 458.430389,677.367364 Z" id="Tick-minor-54" stroke="#FFFFFF" stroke-width="0.25" fill="#4FC0E9"></path>
							<path d="M441.050351,682.681489 L439.20192,676.109288 C437.28119,676.635155 435.310299,677.15592 432.877614,677.784097 L434.589185,684.424994 C436.7429,683.876787 438.896623,683.295619 441.050351,682.681489 Z" id="Tick-minor-55" stroke="#FFFFFF" stroke-width="0.25" fill="#4FC0E9"></path>
							<path d="M423.387806,687.1068 L421.916299,680.43369 C420.159764,680.829378 418.68261,681.141253 415.489054,681.800412 L416.858215,688.509303 C417.857664,688.305635 418.898696,688.085514 420.122322,687.820556 C420.623784,687.711971 421.138721,687.599638 421.812731,687.451991 C421.868712,687.439728 422.918582,687.209539 423.387806,687.1068 Z" id="Tick-minor-56" stroke="#FFFFFF" stroke-width="0.25" fill="#4FC0E9"></path>
							<path d="M405.548131,690.612185 L404.418546,683.834677 C402.339545,684.19625 400.165485,684.538622 397.922362,684.860199 L398.914778,691.636009 C399.483824,691.548679 399.937089,691.480745 401.095616,691.308156 C403.2559,690.986333 404.331757,690.820092 405.548131,690.612185 Z" id="Tick-minor-57" stroke="#FFFFFF" stroke-width="0.25" fill="#4FC0E9"></path>
							<path d="M387.530915,693.15792 L386.743674,686.346571 C386.40271,686.383907 385.472226,686.48577 385.169776,686.518748 C384.526537,686.588885 383.991589,686.646642 383.478737,686.701158 C382.271552,686.829481 381.221696,686.935949 380.213799,687.031054 L380.864119,693.842297 C381.896773,693.746416 382.97868,693.63904 384.19763,693.512457 C385.134748,693.415141 385.889089,693.334695 387.530915,693.15792 Z" id="Tick-minor-58" stroke="#FFFFFF" stroke-width="0.25" fill="#4FC0E9"></path>
							<path d="M369.407914,694.748085 L368.962936,687.902274 C367.945826,687.965275 366.880334,688.024354 365.680132,688.085302 C364.757262,688.132166 364.014464,688.167777 362.398479,688.243564 L362.706538,695.089313 C364.63257,695.000404 365.134456,694.97684 366.057845,694.931023 C367.295026,694.869636 368.379889,694.810754 369.407914,694.748085 Z" id="Tick-minor-59" stroke="#FFFFFF" stroke-width="0.25" fill="#4FC0E9"></path>
							<path d="M351.214834,695.416136 L351.14638,688.57075 C348.958341,688.603677 346.770302,688.603677 344.582264,688.57075 L344.51381,695.416136 C346.736889,695.44909 348.991754,695.44909 351.214834,695.416136 Z" id="Tick-minor-60" stroke="#FFFFFF" stroke-width="0.25" fill="#4FC0E9"></path>
							<path d="M333.022105,695.089313 L333.330164,688.243564 C331.71418,688.167777 330.971381,688.132166 330.048512,688.085302 C328.84831,688.024354 327.782818,687.965275 326.765707,687.902273 L326.32073,694.748085 C327.348754,694.810754 328.433617,694.869636 329.670798,694.931023 C330.594187,694.97684 331.096073,695.000404 333.022105,695.089313 Z" id="Tick-minor-61" stroke="#FFFFFF" stroke-width="0.25" fill="#4FC0E9"></path>
							<path d="M314.864525,693.842297 L315.514844,687.031054 C314.506947,686.935949 313.457091,686.829481 312.249906,686.701158 C311.737054,686.646642 311.202107,686.588885 310.558867,686.518748 C310.256416,686.485769 309.325926,686.383906 308.984965,686.34657 L308.197728,693.15792 C309.839554,693.334695 310.593895,693.415141 311.531013,693.512457 C312.749963,693.63904 313.83187,693.746416 314.864525,693.842297 Z" id="Tick-minor-62" stroke="#FFFFFF" stroke-width="0.25" fill="#4FC0E9"></path>
							<path d="M296.813865,691.636009 L297.806281,684.860199 C295.563158,684.538622 293.389098,684.19625 291.310097,683.834677 L290.180513,690.612185 C291.396887,690.820092 292.472743,690.986333 294.633028,691.308156 C295.791555,691.480745 296.24482,691.548679 296.813865,691.636009 Z" id="Tick-minor-63" stroke="#FFFFFF" stroke-width="0.25" fill="#4FC0E9"></path>
							<path d="M278.870428,688.509303 L280.239589,681.800412 C277.046033,681.141253 275.568879,680.829378 273.812344,680.43369 L272.340837,687.1068 C272.810061,687.209539 273.859931,687.439728 273.915913,687.451991 C274.589923,687.599638 275.104859,687.711971 275.606321,687.820556 C276.829947,688.085514 277.870979,688.305635 278.870428,688.509303 Z" id="Tick-minor-64" stroke="#FFFFFF" stroke-width="0.25" fill="#4FC0E9"></path>
							<path d="M261.139458,684.424994 L262.85103,677.784097 C260.418344,677.15592 258.447453,676.635155 256.526723,676.109288 L254.678292,682.681489 C256.832021,683.295619 258.985743,683.876787 261.139458,684.424994 Z" id="Tick-minor-65" stroke="#FFFFFF" stroke-width="0.25" fill="#4FC0E9"></path>
							<path d="M243.657719,679.416969 L245.711052,672.880523 C243.983417,672.341639 242.547631,671.876748 239.454994,670.862911 L237.298258,677.367352 C238.233043,677.682967 239.196813,677.996411 240.477806,678.404469 C240.783238,678.501764 241.027603,678.57936 241.577449,678.753773 C242.60468,679.079615 243.099009,679.236991 243.657719,679.416969 Z" id="Tick-minor-66" stroke="#FFFFFF" stroke-width="0.25" fill="#4FC0E9"></path>
							<path d="M226.459532,673.524124 L228.855284,667.089817 C225.813189,665.974094 224.400796,665.444485 222.700592,664.765927 L220.202775,671.096011 C223.296878,672.313222 224.732059,672.872027 226.459532,673.524124 Z" id="Tick-minor-67" stroke="#FFFFFF" stroke-width="0.25" fill="#4FC0E9"></path>
							<path d="M209.580662,666.709309 L212.283866,660.447457 C210.34935,659.626035 208.379824,658.746934 206.30124,657.780645 L203.461186,663.974018 C205.707656,665.001423 207.689802,665.888827 209.580662,666.709309 Z" id="Tick-minor-68" stroke="#FFFFFF" stroke-width="0.25" fill="#4FC0E9"></path>
							<path d="M193.056998,659.043644 L196.103127,652.91716 C194.154531,651.958685 192.205944,650.96729 190.257368,649.942976 L187.109161,655.999852 C187.655271,656.282653 188.975673,656.967938 189.047805,657.005324 C190.738086,657.881404 191.885894,658.466756 193.056998,659.043644 Z" id="Tick-minor-69" stroke="#FFFFFF" stroke-width="0.25" fill="#4FC0E9"></path>
							<path d="M176.9945,650.525993 L180.348742,644.536275 C178.528761,643.526941 176.668326,642.449404 174.673687,641.253966 L171.1825,647.175294 C173.240554,648.387289 175.157786,649.493708 176.9945,650.525993 Z" id="Tick-minor-70" stroke="#FFFFFF" stroke-width="0.25" fill="#4FC0E9"></path>
							<path d="M161.393938,641.157591 L165.055926,635.373704 C163.29659,634.26478 161.469448,633.083511 159.552026,631.818173 L155.787346,637.499417 C157.738554,638.799352 159.600408,640.015083 161.393938,641.157591 Z" id="Tick-minor-71" stroke="#FFFFFF" stroke-width="0.25" fill="#4FC0E9"></path>
							<path d="M146.290204,631.009203 L150.260324,625.4305 C148.54503,624.208794 146.776942,622.919031 144.961344,621.567213 L140.888539,627.043254 C142.738182,628.429525 144.540735,629.753678 146.290204,631.009203 Z" id="Tick-minor-72" stroke="#FFFFFF" stroke-width="0.25" fill="#4FC0E9"></path>
							<path d="M131.754053,620.045353 L135.997479,614.706849 C133.462896,612.678926 132.29174,611.731455 130.903151,610.570993 L126.556495,615.841741 C127.530792,616.658467 128.469782,617.419391 130.043734,618.677178 C130.495214,619.037836 130.760205,619.249504 130.947269,619.399053 C131.253327,619.643733 131.51082,619.849967 131.754053,620.045353 Z" id="Tick-minor-73" stroke="#FFFFFF" stroke-width="0.25" fill="#4FC0E9"></path>
							<path d="M117.819883,608.373252 L122.337575,603.23951 C120.717995,601.821134 119.078511,600.353321 117.448685,598.863369 L112.828304,603.89445 C114.492356,605.418684 116.166112,606.92077 117.819883,608.373252 Z" id="Tick-minor-74" stroke="#FFFFFF" stroke-width="0.25" fill="#4FC0E9"></path>
							<path d="M104.490005,595.991305 L109.281877,591.09675 C107.71012,589.55794 106.170703,588.018523 104.631893,586.446766 L99.7373386,591.238638 C101.310375,592.844649 102.883995,594.418268 104.490005,595.991305 Z" id="Tick-minor-75" stroke="#FFFFFF" stroke-width="0.25" fill="#4FC0E9"></path>
							<path d="M91.8341932,582.900339 L96.8652738,578.279959 C95.3753223,576.650132 93.9075097,575.010648 92.4891332,573.391068 L87.3553915,577.90876 C88.807873,579.562531 90.3099593,581.236287 91.8341932,582.900339 Z" id="Tick-minor-76" stroke="#FFFFFF" stroke-width="0.25" fill="#4FC0E9"></path>
							<path d="M79.8869021,569.172149 L85.1576504,564.825493 C83.9971885,563.436903 83.0497176,562.265748 81.0217941,559.731164 L75.6832951,563.974587 C75.8791298,564.21839 76.0851794,564.475653 76.3295902,564.781375 C76.4791395,564.968439 76.6908068,565.233429 77.0514649,565.684909 C78.3092523,567.258861 79.0701766,568.197851 79.8869021,569.172149 Z" id="Tick-minor-77" stroke="#FFFFFF" stroke-width="0.25" fill="#4FC0E9"></path>
							<path d="M68.6853897,554.840105 L74.1614301,550.7673 C72.8096125,548.951702 71.5198496,547.183613 70.2981434,545.468319 L64.7194401,549.438439 C65.9749654,551.187908 67.2991181,552.990461 68.6853897,554.840105 Z" id="Tick-minor-78" stroke="#FFFFFF" stroke-width="0.25" fill="#4FC0E9"></path>
							<path d="M58.2292257,539.941298 L63.9104703,536.176618 C62.6451319,534.259196 61.463863,532.432053 60.3549396,530.672717 L54.5710518,534.334705 C55.7135597,536.128235 56.9292914,537.990089 58.2292257,539.941298 Z" id="Tick-minor-79" stroke="#FFFFFF" stroke-width="0.25" fill="#4FC0E9"></path>
							<path d="M48.5533495,524.546143 L54.4746769,521.054956 C53.2792396,519.060317 52.2017026,517.199882 51.1923678,515.379901 L45.20265,518.734143 C46.2349356,520.570858 47.3413541,522.488089 48.5533495,524.546143 Z" id="Tick-minor-80" stroke="#FFFFFF" stroke-width="0.25" fill="#4FC0E9"></path>
							<path d="M39.7287907,508.619482 L45.7856669,505.471275 C44.7613531,503.522699 43.7699586,501.574113 42.8114835,499.625516 L36.6849989,502.671645 C37.2618869,503.842749 37.8472391,504.990557 38.7233189,506.680838 C38.7607056,506.752971 39.44599,508.073372 39.7287907,508.619482 Z" id="Tick-minor-81" stroke="#FFFFFF" stroke-width="0.25" fill="#4FC0E9"></path>
							<path d="M31.7546255,492.267458 L37.9479978,489.427403 C36.9817097,487.348819 36.1026083,485.379293 35.2811864,483.444778 L29.0193343,486.147982 C29.8398166,488.038841 30.7272198,490.020988 31.7546256,492.267457 Z" id="Tick-minor-82" stroke="#FFFFFF" stroke-width="0.25" fill="#4FC0E9"></path>
							<path d="M24.6326325,475.525868 L30.9627161,473.028051 C30.2841584,471.327847 29.7545496,469.915454 28.6388262,466.873359 L22.204519,469.269111 C22.8566255,470.996608 23.415435,472.431802 24.6326321,475.525867 Z" id="Tick-minor-83" stroke="#FFFFFF" stroke-width="0.25" fill="#4FC0E9"></path>
							<path d="M18.3612913,458.430385 L24.8657323,456.273649 C23.8518953,453.181012 23.3870046,451.745226 22.8481198,450.017591 L16.3116744,452.070925 C16.4916517,452.629634 16.649028,453.123963 16.9748703,454.151194 C17.1492837,454.70104 17.2268794,454.945405 17.3241743,455.250837 C17.7322325,456.53183 18.0456764,457.4956 18.3612915,458.430385 Z" id="Tick-minor-84" stroke="#FFFFFF" stroke-width="0.25" fill="#4FC0E9"></path>
							<path d="M13.0471545,441.050351 L19.6193553,439.20192 C19.0934878,437.28119 18.5727229,435.310299 17.9445462,432.877614 L11.3036494,434.589185 C11.8518564,436.7429 12.4330247,438.896623 13.0471545,441.050351 Z" id="Tick-minor-85" stroke="#FFFFFF" stroke-width="0.25" fill="#4FC0E9"></path>
							<path d="M8.62184311,423.387806 L15.2949528,421.9163 C14.8992656,420.159764 14.5873902,418.68261 13.9282309,415.489054 L7.21934028,416.858215 C7.42300846,417.857664 7.64312923,418.898696 7.90808768,420.122322 C8.01667201,420.623784 8.12900557,421.138721 8.27665218,421.812731 C8.28891528,421.868712 8.51910383,422.918582 8.62184312,423.387806 Z" id="Tick-minor-86" stroke="#FFFFFF" stroke-width="0.25" fill="#4FC0E9"></path>
							<path d="M5.11645861,405.548131 L11.893966,404.418546 C11.5323929,402.339545 11.190021,400.165485 10.8684445,397.922362 L4.09263386,398.914778 C4.1799639,399.483824 4.24789815,399.937089 4.42048694,401.095616 C4.74231009,403.2559 4.90855122,404.331757 5.11645861,405.548131 Z" id="Tick-minor-87" stroke="#FFFFFF" stroke-width="0.25" fill="#4FC0E9"></path>
							<path d="M2.57072334,387.530915 L9.38207263,386.743674 C9.34473651,386.40271 9.24287368,385.472226 9.20989537,385.169776 C9.13975827,384.526537 9.08200083,383.991589 9.02748502,383.478737 C8.89916217,382.271552 8.7926939,381.221696 8.69758932,380.213799 L1.88634646,380.864119 C1.9822268,381.896773 2.08960331,382.97868 2.21618659,384.19763 C2.31350218,385.134744 2.3939471,385.889082 2.57072334,387.530915 Z" id="Tick-minor-88" stroke="#FFFFFF" stroke-width="0.25" fill="#4FC0E9"></path>
							<path d="M0.980558663,369.407914 L7.8263609,368.962937 C7.71380901,367.149907 7.63733812,365.643584 7.48508099,362.398479 L0.639329883,362.706538 C0.728238957,364.63257 0.751803285,365.134456 0.797620282,366.057845 C0.859007126,367.295026 0.917889151,368.379889 0.980558697,369.407914 Z" id="Tick-minor-89" stroke="#FFFFFF" stroke-width="0.25" fill="#4FC0E9"></path>
							<path d="M0.312506869,351.214834 L7.15789344,351.14638 C7.12496632,348.958341 7.12496632,346.770302 7.15789344,344.582264 L0.312506869,344.51381 C0.279553076,346.736889 0.279553076,348.991754 0.312506869,351.214834 Z" id="Tick-minor-90" stroke="#FFFFFF" stroke-width="0.25" fill="#4FC0E9"></path>
							<path d="M0.639329874,333.022105 L7.48508099,333.330164 C7.63733812,330.085059 7.71380901,328.578737 7.8263609,326.765707 L0.980558663,326.32073 C0.917889151,327.348754 0.859007126,328.433617 0.797620282,329.670798 C0.751802923,330.594194 0.728238584,331.096081 0.639329874,333.022105 Z" id="Tick-minor-91" stroke="#FFFFFF" stroke-width="0.25" fill="#4FC0E9"></path>
							<path d="M1.88634646,314.864525 L8.69758929,315.514844 C8.7926939,314.506947 8.89916217,313.457091 9.02748502,312.249906 C9.08200083,311.737054 9.13975827,311.202107 9.20989537,310.558867 C9.24287382,310.256416 9.34473732,309.325926 9.38207308,308.984965 L2.57072334,308.197728 C2.39394785,309.839554 2.31350264,310.593895 2.21618659,311.531013 C2.08960331,312.749963 1.9822268,313.83187 1.88634648,314.864525 Z" id="Tick-minor-92" stroke="#FFFFFF" stroke-width="0.25" fill="#4FC0E9"></path>
							<path d="M4.09263386,296.813865 L10.8684445,297.806281 C11.190021,295.563158 11.5323929,293.389098 11.893966,291.310097 L5.11645821,290.180513 C4.90855122,291.396887 4.74231009,292.472743 4.42048694,294.633028 C4.24789815,295.791555 4.1799639,296.24482 4.09263386,296.813865 Z" id="Tick-minor-93" stroke="#FFFFFF" stroke-width="0.25" fill="#4FC0E9"></path>
							<path d="M7.21934028,278.870428 L13.9282308,280.239589 C14.5873903,277.046033 14.8992657,275.568879 15.2949528,273.812344 L8.62184311,272.340837 C8.51910382,272.810061 8.28891528,273.859931 8.27665218,273.915913 C8.12900557,274.589923 8.01667201,275.104859 7.90808768,275.606321 C7.64312923,276.829947 7.42300846,277.870979 7.21934031,278.870428 Z" id="Tick-minor-94" stroke="#FFFFFF" stroke-width="0.25" fill="#4FC0E9"></path>
							<path d="M11.3036494,261.139458 L17.9445461,262.85103 C18.5727229,260.418344 19.0934878,258.447453 19.6193553,256.526723 L13.0471545,254.678292 C12.4330247,256.832021 11.8518564,258.985743 11.3036494,261.139458 Z" id="Tick-minor-95" stroke="#FFFFFF" stroke-width="0.25" fill="#4FC0E9"></path>
							<path d="M16.3116744,243.657719 L22.8481198,245.711052 C23.3870046,243.983417 23.8518953,242.547631 24.8657323,239.454994 L18.3612791,237.298254 C17.9667565,238.465993 17.6498026,239.449696 16.9748703,241.577449 C16.649028,242.60468 16.4916517,243.099009 16.3116744,243.657719 Z" id="Tick-minor-96" stroke="#FFFFFF" stroke-width="0.25" fill="#4FC0E9"></path>
							<path d="M22.2045189,226.459532 L28.6388261,228.855284 C29.7545497,225.813189 30.2841585,224.400796 30.9627161,222.700592 L24.6326326,220.202775 C23.4154209,223.296878 22.8566167,224.732059 22.204519,226.459532 Z" id="Tick-minor-97" stroke="#FFFFFF" stroke-width="0.25" fill="#4FC0E9"></path>
							<path d="M29.0193343,209.580662 L35.2811864,212.283866 C36.1026083,210.34935 36.9817097,208.379824 37.9479978,206.30124 L31.7546255,203.461186 C30.7272198,205.707656 29.8398166,207.689802 29.0193344,209.580662 Z" id="Tick-minor-98" stroke="#FFFFFF" stroke-width="0.25" fill="#4FC0E9"></path>
							<path d="M36.6849989,193.056998 L42.8114835,196.103127 C43.7699586,194.154531 44.7613531,192.205944 45.7856669,190.257368 L39.7287907,187.109161 C39.44599,187.655271 38.7607056,188.975673 38.7233189,189.047805 C37.8472391,190.738086 37.2618869,191.885894 36.684999,193.056998 Z" id="Tick-minor-99" stroke="#FFFFFF" stroke-width="0.25" fill="#4FC0E9"></path>
							<path d="M45.20265,176.9945 L51.1923678,180.348742 C52.2017026,178.528761 53.2792396,176.668326 54.4746769,174.673687 L48.5533495,171.1825 C47.3413541,173.240554 46.2349356,175.157786 45.20265,176.9945 Z" id="Tick-minor-100" stroke="#FFFFFF" stroke-width="0.25" fill="#4FC0E9"></path>
							<path d="M54.5710518,161.393938 L60.3549396,165.055926 C61.463863,163.29659 62.6451319,161.469448 63.9104703,159.552026 L58.2292257,155.787346 C56.9292914,157.738554 55.7135597,159.600408 54.5710518,161.393938 Z" id="Tick-minor-101" stroke="#FFFFFF" stroke-width="0.25" fill="#4FC0E9"></path>
							<path d="M64.7194401,146.290204 L70.2981433,150.260324 C71.5198496,148.54503 72.8096125,146.776942 74.1614301,144.961344 L68.6853897,140.888539 C67.2991181,142.738182 65.9749654,144.540735 64.7194401,146.290204 Z" id="Tick-minor-102" stroke="#FFFFFF" stroke-width="0.25" fill="#4FC0E9"></path>
							<path d="M75.6832951,131.754056 L81.0217941,135.997479 C83.0497176,133.462896 83.9971885,132.29174 85.1576504,130.903151 L79.8869021,126.556495 C79.0701766,127.530792 78.3092523,128.469782 77.0514649,130.043734 C76.6908068,130.495214 76.4791395,130.760205 76.3295902,130.947269 C76.0851794,131.25299 75.8791298,131.510254 75.6832951,131.754056 Z" id="Tick-minor-103" stroke="#FFFFFF" stroke-width="0.25" fill="#4FC0E9"></path>
							<path d="M87.3553915,117.819883 L92.4891332,122.337575 C93.9075097,120.717995 95.3753223,119.078511 96.8652738,117.448685 L91.8341932,112.828304 C90.3099593,114.492356 88.807873,116.166112 87.3553915,117.819883 Z" id="Tick-minor-104" stroke="#FFFFFF" stroke-width="0.25" fill="#4FC0E9"></path>
							<path d="M99.7373386,104.490005 L104.631893,109.281877 C106.170703,107.71012 107.71012,106.170703 109.281877,104.631893 L104.490005,99.7373386 C102.883995,101.310375 101.310375,102.883995 99.7373386,104.490005 Z" id="Tick-minor-105" stroke="#FFFFFF" stroke-width="0.25" fill="#4FC0E9"></path>
							<path d="M112.828304,91.8341932 L117.448685,96.8652738 C119.078511,95.3753223 120.717995,93.9075097 122.337575,92.4891332 L117.819883,87.3553915 C116.166112,88.807873 114.492356,90.3099593 112.828304,91.8341932 Z" id="Tick-minor-106" stroke="#FFFFFF" stroke-width="0.25" fill="#4FC0E9"></path>
							<path d="M126.556495,79.8869021 L130.903151,85.1576509 C132.29174,83.9971885 133.462896,83.0497176 135.997479,81.0217941 L131.754056,75.6832951 C131.510254,75.8791298 131.25299,76.0851794 130.947269,76.3295902 C130.760205,76.4791395 130.495214,76.6908068 130.043734,77.0514649 C128.469782,78.3092523 127.530792,79.0701766 126.556495,79.8869021 Z" id="Tick-minor-107" stroke="#FFFFFF" stroke-width="0.25" fill="#4FC0E9"></path>
							<path d="M140.888539,68.6853897 L144.961344,74.1614301 C146.776942,72.8096125 148.54503,71.5198496 150.260324,70.2981434 L146.290204,64.7194401 C144.540735,65.9749654 142.738182,67.2991181 140.888539,68.6853897 Z" id="Tick-minor-108" stroke="#FFFFFF" stroke-width="0.25" fill="#4FC0E9"></path>
							<path d="M155.787346,58.2292257 L159.552026,63.9104703 C161.469448,62.6451319 163.29659,61.463863 165.055926,60.3549396 L161.393938,54.5710518 C159.600408,55.7135597 157.738554,56.9292914 155.787346,58.2292257 Z" id="Tick-minor-109" stroke="#FFFFFF" stroke-width="0.25" fill="#4FC0E9"></path>
							<path d="M171.1825,48.5533495 L174.673687,54.4746769 C176.668326,53.2792396 178.528761,52.2017026 180.348742,51.1923678 L176.9945,45.20265 C175.157786,46.2349356 173.240554,47.3413541 171.1825,48.5533495 Z" id="Tick-minor-110" stroke="#FFFFFF" stroke-width="0.25" fill="#4FC0E9"></path>
							<path d="M187.109157,39.7287819 L190.257368,45.7856669 C192.205944,44.7613531 194.154531,43.7699586 196.103127,42.8114835 L193.056998,36.6849989 C191.885894,37.2618869 190.738086,37.8472391 189.047805,38.7233189 C188.975726,38.7606779 187.657227,39.444975 187.109157,39.7287819 Z M186.997933,39.7863484 C186.997422,39.7866131 186.996911,39.786877 186.996402,39.7871403 L186.997928,39.7863641 L186.997933,39.7863484 Z M186.883836,39.5639216 L186.884599,39.5635335 L186.883836,39.5639216 Z" id="Tick-minor-111" stroke="#FFFFFF" stroke-width="0.25" fill="#4FC0E9"></path>
							<path d="M203.461186,31.7546255 L206.30124,37.9479978 C208.379824,36.9817097 210.34935,36.1026083 212.283866,35.2811864 L209.580662,29.0193343 C207.689802,29.8398166 205.707656,30.7272198 203.461186,31.7546256 Z" id="Tick-minor-112" stroke="#FFFFFF" stroke-width="0.25" fill="#4FC0E9"></path>
							<path d="M220.202775,24.6326325 L222.700592,30.9627169 C224.400796,30.2841584 225.81319,29.7545496 228.855285,28.6388262 L226.459532,22.204519 C224.732036,22.8566255 223.296842,23.415435 220.202777,24.6326321 Z M219.994741,24.4458258 L219.994676,24.4458515 L219.994741,24.4458258 Z" id="Tick-minor-113" stroke="#FFFFFF" stroke-width="0.25" fill="#4FC0E9"></path>
							<path d="M237.298258,18.3612913 L239.454994,24.8657323 C242.547631,23.8518953 243.983417,23.3870046 245.711052,22.8481198 L243.657719,16.3116744 C243.099009,16.4916517 242.60468,16.649028 241.577449,16.9748703 C241.027603,17.1492837 240.783238,17.2268794 240.477806,17.3241743 C239.196813,17.7322325 238.233043,18.0456764 237.298258,18.3612915 Z" id="Tick-minor-114" stroke="#FFFFFF" stroke-width="0.25" fill="#4FC0E9"></path>
							<path d="M254.678292,13.0471545 L256.526723,19.6193553 C258.447453,19.0934878 260.418344,18.5727229 262.85103,17.9445462 L261.139458,11.3036494 C258.985743,11.8518564 256.832021,12.4330247 254.678292,13.0471545 Z" id="Tick-minor-115" stroke="#FFFFFF" stroke-width="0.25" fill="#4FC0E9"></path>
							<path d="M254.678292,13.0471545 L256.526723,19.6193553 C258.447453,19.0934878 260.418344,18.5727229 262.85103,17.9445462 L261.139458,11.3036494 C258.985743,11.8518564 256.832021,12.4330247 254.678292,13.0471545 Z" id="Tick-minor-115" stroke="#FFFFFF" stroke-width="0.25" fill="#4FC0E9"></path>
							<path d="M272.340837,8.62184311 L273.812344,15.2949528 C275.568879,14.8992656 277.046033,14.5873902 280.23959,13.9282309 L278.870428,7.21934028 C277.870979,7.42300846 276.829947,7.64312923 275.606321,7.90808768 C275.104859,8.01667201 274.589923,8.12900557 273.915913,8.27665218 C273.859931,8.28891528 272.810061,8.51910383 272.340837,8.62184312 Z" id="Tick-minor-116" stroke="#FFFFFF" stroke-width="0.25" fill="#4FC0E9"></path>
							<path d="M290.180513,5.11645861 L291.310097,11.893966 C293.389098,11.5323929 295.563158,11.190021 297.806281,10.8684445 L296.813865,4.09263386 C296.24482,4.1799639 295.791555,4.24789815 294.633028,4.42048694 C292.472743,4.74231009 291.396887,4.90855122 290.180513,5.11645861 Z" id="Tick-minor-117" stroke="#FFFFFF" stroke-width="0.25" fill="#4FC0E9"></path>
							<path d="M308.197728,2.57072331 L308.98497,9.38207263 C309.325933,9.34473651 310.256418,9.24287368 310.558867,9.20989537 C311.202107,9.13975827 311.737054,9.08200083 312.249906,9.02748502 C313.457091,8.89916217 314.506947,8.7926939 315.514844,8.69758932 L314.864525,1.88634646 C313.83187,1.9822268 312.749963,2.08960331 311.531013,2.21618659 C310.59388,2.31350427 309.839529,2.39395055 308.197728,2.57072331 Z" id="Tick-minor-118" stroke="#FFFFFF" stroke-width="0.25" fill="#4FC0E9"></path>
							<path d="M326.32073,0.980558663 L326.765707,7.82636971 C327.782818,7.76336861 328.84831,7.70428907 330.048512,7.64334131 C330.971381,7.59647684 331.71418,7.56086592 333.330164,7.48507967 L333.022105,0.639329883 C331.096073,0.728238957 330.594187,0.751803285 329.670798,0.797620282 C328.433617,0.859007126 327.348754,0.917889151 326.320729,0.980558697 Z" id="Tick-minor-119" stroke="#FFFFFF" stroke-width="0.25" fill="#4FC0E9"></path>
						</g>
						<g id="Major-tickmarks">
							<path d="M355,0 C481.8415,0 599.027,67.663 662.43,177.5 C725.833,287.337 725.833,422.663 662.43,532.5 C599.027,642.337 481.8415,710 355,710 C228.1585,710 110.973,642.337 47.57,532.5 C-15.833,422.663 -15.833,287.337 47.57,177.5 C110.973,67.663 228.1585,0 355,0 L355,21.3 C235.791,21.3 125.599,84.916 65.9945,188.15 C6.39,291.384 6.39,418.616 65.9945,521.85 C125.599,625.084 235.791,688.7 355,688.7 C474.209,688.7 584.401,625.084 644.0055,521.85 C703.61,418.616 703.61,291.384 644.0055,188.15 C584.401,84.916 474.209,21.3 355,21.3 L355,0 Z" id="Base-plate" fill-opacity="0.002" fill="#455A64"></path>
							<path d="M351.57624,0.158661656 L351.786735,21.173057 C353.939464,21.1401477 356.060536,21.1401477 358.213265,21.173057 L358.42376,0.158661656 C356.130616,0.125612781 353.869384,0.125612781 351.57624,0.158661656 Z" id="Tick-major-0" stroke="#FFFFFF" stroke-width="0.25" fill="#4FC0E9"></path>
							<path d="M443.520381,11.3352146 L438.292963,31.7186342 C441.384586,32.5297343 442.815481,32.9124474 444.515266,33.3930404 L450.163619,13.1151016 C448.347522,12.6052676 446.823016,12.1991539 443.520381,11.3352148 Z" id="Tick-major-5" stroke="#FFFFFF" stroke-width="0.25" fill="#4FC0E9"></path>
							<path d="M529.458733,45.9656942 L519.109296,64.3140179 C521.128553,65.4529216 522.941379,66.4971719 524.681461,67.5271403 L535.382115,49.3886556 C533.764771,48.425099 532.405216,47.6423577 529.458734,45.9656949 Z" id="Tick-major-10" stroke="#FFFFFF" stroke-width="0.25" fill="#4FC0E9"></path>
							<path d="M603.501748,101.671187 L588.766909,116.68669 C590.304109,118.19098 591.80902,119.695891 593.31331,121.233091 L608.328813,106.498252 C606.720362,104.856751 605.143249,103.279638 603.501748,101.671187 Z" id="Tick-major-15" stroke="#FFFFFF" stroke-width="0.25" fill="#4FC0E9"></path>
							<path d="M660.611345,174.617885 L642.47286,185.318539 C643.502828,187.058621 644.547078,188.871447 645.685982,190.890704 L664.034306,180.541267 C662.357642,177.594784 661.574901,176.235229 660.611344,174.617885 Z" id="Tick-major-20" stroke="#FFFFFF" stroke-width="0.25" fill="#4FC0E9"></path>
							<path d="M696.884898,259.836381 L676.60696,265.484734 C677.087553,267.184519 677.470266,268.615414 678.281366,271.707037 L698.664785,266.479619 C697.800843,263.176971 697.39473,261.652469 696.884898,259.836381 Z" id="Tick-major-25" stroke="#FFFFFF" stroke-width="0.25" fill="#4FC0E9"></path>
							<path d="M709.841338,351.57624 L688.826943,351.786735 C688.859852,353.939464 688.859852,356.060536 688.826943,358.213265 L709.841338,358.42376 C709.874387,356.130616 709.874387,353.869384 709.841338,351.57624 Z" id="Tick-major-30" stroke="#FFFFFF" stroke-width="0.25" fill="#4FC0E9"></path>
							<path d="M698.664785,443.520381 L678.281366,438.292963 C677.470266,441.384586 677.087553,442.815481 676.60696,444.515266 L696.884899,450.163619 C697.39473,448.347531 697.800843,446.823029 698.664785,443.520382 Z" id="Tick-major-35" stroke="#FFFFFF" stroke-width="0.25" fill="#4FC0E9"></path>
							<path d="M664.034306,529.458733 L645.685982,519.109296 C644.547078,521.128553 643.502828,522.941379 642.47286,524.681461 L660.611345,535.382115 C661.574901,533.764771 662.357642,532.405216 664.034305,529.458734 Z" id="Tick-major-40" stroke="#FFFFFF" stroke-width="0.25" fill="#4FC0E9"></path>
							<path d="M608.328813,603.501748 L593.31331,588.766909 C591.80902,590.304109 590.304109,591.80902 588.766909,593.31331 L603.501748,608.328813 C605.143249,606.720362 606.720362,605.143249 608.328813,603.501748 Z" id="Tick-major-45" stroke="#FFFFFF" stroke-width="0.25" fill="#4FC0E9"></path>
							<path d="M535.382115,660.611345 L524.681461,642.47286 C522.941379,643.502828 521.128553,644.547078 519.109296,645.685982 L529.458733,664.034306 C532.405216,662.357642 533.764771,661.574901 535.382115,660.611344 Z" id="Tick-major-50" stroke="#FFFFFF" stroke-width="0.25" fill="#4FC0E9"></path>
							<path d="M450.163619,696.884899 L444.515266,676.60696 C442.815481,677.087553 441.384586,677.470266 438.292963,678.281366 L443.520381,698.664785 C446.823029,697.800843 448.347531,697.39473 450.163619,696.884898 Z" id="Tick-major-55" stroke="#FFFFFF" stroke-width="0.25" fill="#4FC0E9"></path>
							<path d="M358.42376,709.841338 L358.213265,688.826943 C356.060536,688.859852 353.939464,688.859852 351.786735,688.826943 L351.57624,709.841338 C353.869384,709.874387 356.130616,709.874387 358.42376,709.841338 Z" id="Tick-major-60" stroke="#FFFFFF" stroke-width="0.25" fill="#4FC0E9"></path>
							<path d="M266.479619,698.664785 L271.707037,678.281366 C268.615414,677.470266 267.184519,677.087553 265.484734,676.60696 L259.836381,696.884898 C261.652469,697.39473 263.176971,697.800843 266.479618,698.664785 Z" id="Tick-major-65" stroke="#FFFFFF" stroke-width="0.25" fill="#4FC0E9"></path>
							<path d="M180.541262,664.034315 L190.890704,645.685982 C188.871447,644.547078 187.058621,643.502828 185.318539,642.47286 L174.617885,660.611344 C176.23548,661.575051 177.595178,662.357869 180.541261,664.034314 Z" id="Tick-major-70" stroke="#FFFFFF" stroke-width="0.25" fill="#4FC0E9"></path>
							<path d="M106.498252,608.328813 L121.233091,593.31331 C119.695891,591.80902 118.19098,590.304109 116.68669,588.766909 L101.671187,603.501748 C103.279638,605.143249 104.856751,606.720362 106.498252,608.328813 Z" id="Tick-major-75" stroke="#FFFFFF" stroke-width="0.25" fill="#4FC0E9"></path>
							<path d="M49.3886556,535.382115 L67.5271403,524.681461 C66.4971719,522.941379 65.4529216,521.128553 64.3140179,519.109296 L45.9656942,529.458733 C47.6423577,532.405216 48.425099,533.764771 49.3886556,535.382115 Z" id="Tick-major-80" stroke="#FFFFFF" stroke-width="0.25" fill="#4FC0E9"></path>
							<path d="M13.1151016,450.163619 L33.3930404,444.515266 C32.9124473,442.815481 32.5297342,441.384586 31.7186343,438.292963 L11.3352147,443.520381 C12.1991574,446.823029 12.60527,448.347531 13.1151016,450.163619 Z" id="Tick-major-85" stroke="#FFFFFF" stroke-width="0.25" fill="#4FC0E9"></path>
							<path d="M0.158661656,358.42376 L21.173057,358.213265 C21.1401477,356.060536 21.1401477,353.939464 21.173057,351.786735 L0.158661656,351.57624 C0.125612781,353.869384 0.125612781,356.130616 0.158661656,358.42376 Z" id="Tick-major-90" stroke="#FFFFFF" stroke-width="0.25" fill="#4FC0E9"></path>
							<path d="M11.3352147,266.479619 L31.7186342,271.707037 C32.5297343,268.615414 32.9124474,267.184519 33.3930404,265.484734 L13.1151016,259.836381 C12.6052668,261.652481 12.1991526,263.176989 11.3352152,266.479618 Z" id="Tick-major-95" stroke="#FFFFFF" stroke-width="0.25" fill="#4FC0E9"></path>
							<path d="M45.9656942,180.541267 L64.3140179,190.890704 C65.4529216,188.871447 66.4971719,187.058621 67.5271403,185.318539 L49.3886556,174.617885 C48.425099,176.235229 47.6423577,177.594784 45.9656949,180.541266 Z" id="Tick-major-100" stroke="#FFFFFF" stroke-width="0.25" fill="#4FC0E9"></path>
							<path d="M101.671187,106.498252 L116.68669,121.233091 C118.19098,119.695891 119.695891,118.19098 121.233091,116.68669 L106.498252,101.671187 C104.856751,103.279638 103.279638,104.856751 101.671187,106.498252 Z" id="Tick-major-105" stroke="#FFFFFF" stroke-width="0.25" fill="#4FC0E9"></path>
							<path d="M174.617885,49.3886556 L185.318539,67.5271403 C187.058621,66.4971719 188.871447,65.4529216 190.890704,64.3140179 L180.541267,45.9656942 C177.594784,47.6423577 176.235229,48.425099 174.617885,49.3886556 Z" id="Tick-major-110" stroke="#FFFFFF" stroke-width="0.25" fill="#4FC0E9"></path>
							<path d="M259.836381,13.1151014 L265.484735,33.393041 C267.184519,32.9124473 268.615414,32.5297342 271.707037,31.7186343 L266.479619,11.3352147 C263.176971,12.1991574 261.652469,12.60527 259.836381,13.1151016 Z" id="Tick-major-115" stroke="#FFFFFF" stroke-width="0.25" fill="#4FC0E9"></path>
						</g>
					</g>
				</g>
			</g>
		</g>
	</g>
</svg>