
<svg width="1922px" height="1922px" viewBox="0 0 1922 1922" version="1.1" xmlns="http://www.w3.org/2000/svg" xmlns:xlink="http://www.w3.org/1999/xlink">
    <defs></defs>
    <g id="Page-1" stroke="none" stroke-width="1" fill="none" fill-rule="evenodd" opacity="0.4">
        <g id="Mid" transform="translate(-942.000000, -119.000000)">
            <g id="areaMid" transform="translate(0.000000, -9059.000000)">
                <g id="bgMid" transform="translate(942.000000, 9178.000000)">
                    <g id="circleinBgMid">
                        <g id="Minor-tickmarks" transform="translate(18.000000, 18.000000)">
                            <path d="M942,0.512884273 C1278.34147,0.512884273 1589.12829,179.971857 1757.34706,471.256442 C1925.56583,762.541027 1925.56583,1121.45897 1757.34706,1412.74356 C1589.12829,1704.02814 1278.34147,1883.48712 942,1883.48712 C605.658531,1883.48712 294.871713,1704.02814 126.652944,1412.74356 C-41.5658256,1121.45897 -41.5658256,762.541027 126.652944,471.256442 C294.871713,179.971857 605.658531,0.512884273 942,0.512884273 L942,19.726907 C612.479509,19.726907 308.033319,195.535215 143.273073,480.863454 C-21.4871718,766.191692 -21.4871718,1117.80831 143.273073,1403.13655 C308.033319,1688.46478 612.479509,1864.27309 942,1864.27309 C1271.52049,1864.27309 1575.96668,1688.46478 1740.72693,1403.13655 C1905.48717,1117.80831 1905.48717,766.191692 1740.72693,480.863454 C1575.96668,195.535215 1271.52049,19.726907 942,19.726907 L942,0.512884273 Z" id="Base-plate" fill-opacity="0.002" fill="#455A64"></path>
                            <path d="M932.711366,0.635969841 L932.901006,19.5999718 C938.967002,19.506482 945.032998,19.506482 951.098994,19.5999718 L951.288634,0.635969841 C945.126976,0.542452303 938.873024,0.542452303 932.711366,0.635969842 Z" id="Tick-minor-0" stroke="#FFFFFF" stroke-width="0.25" fill="#4FC1E9"></path>
                            <path d="M981.988345,1.50815226 L981.134949,20.4725181 C990.196334,20.8974144 994.289378,21.1052427 999.333278,21.4197142 L1000.56597,2.45528947 C997.717741,2.28062406 994.71469,2.11722 991.277774,1.94668598 C988.743154,1.82092241 987.381229,1.75706929 981.988347,1.50815235 Z" id="Tick-minor-1" stroke="#FFFFFF" stroke-width="0.25" fill="#4FC1E9"></path>
                            <path d="M1031.16959,4.87590282 L1029.368,23.7451692 C1032.16156,24.007697 1035.0663,24.3018466 1038.41957,24.6582971 C1039.80814,24.8059003 1041.25657,24.9622851 1042.99825,25.1521937 C1043.89221,25.249669 1046.81256,25.5694037 1047.47115,25.6415326 L1049.65203,6.77216506 C1040.44806,5.78111033 1036.2919,5.34948981 1031.16959,4.87590286 Z" id="Tick-minor-2" stroke="#FFFFFF" stroke-width="0.25" fill="#4FC1E9"></path>
                            <path d="M1080.06212,10.8389996 L1077.31251,29.6122067 C1083.53606,30.5024425 1089.56424,31.451762 1095.32138,32.455514 L1098.45054,13.680567 C1095.06706,13.1002002 1092.1544,12.6494363 1086.17926,11.7593042 C1082.89962,11.270727 1081.70739,11.091904 1080.06212,10.8389998 Z" id="Tick-minor-3" stroke="#FFFFFF" stroke-width="0.25" fill="#4FC1E9"></path>
                            <path d="M1128.66566,19.2978587 L1124.87277,37.8830155 C1133.79172,39.7236057 1137.8051,40.5710194 1142.69152,41.6734428 L1146.76852,23.1847097 C1145.63631,22.9369174 1142.45509,22.2394205 1142.29445,22.2042306 C1140.46911,21.8043771 1139.07453,21.5001498 1137.7164,21.2060661 C1134.31666,20.4699021 1131.43717,19.8614943 1128.66566,19.2978587 Z" id="Tick-minor-4" stroke="#FFFFFF" stroke-width="0.25" fill="#4FC1E9"></path>
                            <path d="M1176.69317,30.350376 L1171.95194,48.7463452 C1178.72056,50.4934785 1184.16686,51.9325431 1189.48597,53.3902067 L1194.60643,35.1841288 C1188.63534,33.479352 1182.66425,31.8681012 1176.69317,30.350376 Z" id="Tick-minor-5" stroke="#FFFFFF" stroke-width="0.25" fill="#4FC1E9"></path>
                            <path d="M1224.04729,43.9020612 L1218.35838,62.0117545 C1223.16542,63.5098089 1227.06669,64.7729491 1235.70297,67.6043724 L1241.67708,49.5872071 C1238.4233,48.486128 1235.76915,47.6303271 1229.88434,45.7636382 C1226.97823,44.8418073 1225.64741,44.4179733 1224.04729,43.9020612 Z" id="Tick-minor-6" stroke="#FFFFFF" stroke-width="0.25" fill="#4FC1E9"></path>
                            <path d="M1270.63313,59.8533277 L1263.99586,77.6791452 C1272.4907,80.7942114 1276.32816,82.2332191 1281.05732,84.1233393 L1287.97842,66.5835628 C1279.34063,63.1852295 1275.44002,61.6665252 1270.63313,59.8533281 Z" id="Tick-minor-7" stroke="#FFFFFF" stroke-width="0.25" fill="#4FC1E9"></path>
                            <path d="M1316.35431,78.3020108 L1308.86426,95.6523873 C1314.22436,97.9253711 1319.68139,100.361128 1325.45067,103.045467 L1333.31994,85.884758 C1327.07735,83.0286301 1321.58961,80.5717756 1316.35431,78.3020108 Z" id="Tick-minor-8" stroke="#FFFFFF" stroke-width="0.25" fill="#4FC1E9"></path>
                            <path d="M1361.11436,99.0557684 L1352.67544,116.028426 C1358.07784,118.683539 1363.48023,121.432133 1368.88261,124.274209 L1377.60537,107.492392 C1376.27228,106.802473 1372.37021,104.777304 1372.1658,104.671355 C1367.49566,102.250799 1364.35404,100.649437 1361.11436,99.0557684 Z" id="Tick-minor-9" stroke="#FFFFFF" stroke-width="0.25" fill="#4FC1E9"></path>
                            <path d="M1404.62552,122.115773 L1395.33316,138.709269 C1400.37512,141.502246 1405.52877,144.487165 1411.06666,147.808524 L1420.73834,131.404601 C1415.02449,128.038314 1409.71193,124.972479 1404.62552,122.115773 Z" id="Tick-minor-10" stroke="#FFFFFF" stroke-width="0.25" fill="#4FC1E9"></path>
                            <path d="M1446.88703,147.480749 L1436.74159,163.504867 C1441.61442,166.57417 1446.67911,169.848551 1452.00097,173.362084 L1462.43089,157.622388 C1457.01585,154.013254 1451.85494,150.643342 1446.88703,147.480749 Z" id="Tick-minor-11" stroke="#FFFFFF" stroke-width="0.25" fill="#4FC1E9"></path>
                            <path d="M1487.80342,174.95876 L1476.8045,190.414134 C1481.55641,193.796537 1486.45851,197.372463 1491.49541,201.124443 L1502.77879,185.95351 C1497.64784,182.10628 1492.65026,178.435066 1487.80342,174.95876 Z" id="Tick-minor-12" stroke="#FFFFFF" stroke-width="0.25" fill="#4FC1E9"></path>
                            <path d="M1527.18271,204.645904 L1515.42576,219.436909 C1522.5043,225.100002 1525.68625,227.674295 1529.54847,230.904511 L1541.59046,216.302416 C1538.89168,214.037151 1536.33174,211.961667 1531.98105,208.484912 C1531.76347,208.311042 1530.04087,206.935075 1529.53435,206.530136 C1528.63636,205.812231 1527.89281,205.216585 1527.18271,204.645904 Z" id="Tick-minor-13" stroke="#FFFFFF" stroke-width="0.25" fill="#4FC1E9"></path>
                            <path d="M1564.92999,236.253099 L1552.41401,250.475802 C1556.90298,254.40493 1561.44955,258.475416 1565.96771,262.607858 L1578.76815,248.669595 C1574.15523,244.442256 1569.51377,240.276844 1564.92999,236.253099 Z" id="Tick-minor-14" stroke="#FFFFFF" stroke-width="0.25" fill="#4FC1E9"></path>
                            <path d="M1601.04286,269.782033 L1587.76796,283.341397 C1592.12697,287.606896 1596.3931,291.873032 1600.6586,296.232041 L1614.21797,282.957138 C1609.85765,278.50328 1605.49672,274.142351 1601.04286,269.782033 Z" id="Tick-minor-15" stroke="#FFFFFF" stroke-width="0.25" fill="#4FC1E9"></path>
                            <path d="M1635.3304,305.231846 L1621.39214,318.032292 C1625.52458,322.550454 1629.59507,327.097017 1633.5242,331.585992 L1647.7469,319.070013 C1643.72316,314.486231 1639.55774,309.84477 1635.3304,305.231846 Z" id="Tick-minor-16" stroke="#FFFFFF" stroke-width="0.25" fill="#4FC1E9"></path>
                            <path d="M1667.69758,342.409543 L1653.09549,354.451531 C1656.32571,358.313752 1658.9,361.495699 1664.56309,368.574242 L1679.3541,356.817289 C1678.78341,356.107195 1678.18777,355.363641 1677.46986,354.465648 C1677.06492,353.959129 1675.68896,352.236528 1675.51509,352.018954 C1672.03833,347.668261 1669.96285,345.108323 1667.69758,342.409544 Z" id="Tick-minor-17" stroke="#FFFFFF" stroke-width="0.25" fill="#4FC1E9"></path>
                            <path d="M1698.04649,381.221209 L1682.87556,392.504591 C1686.62754,397.54149 1690.20346,402.44359 1693.58587,407.195496 L1709.04124,396.196579 C1705.56493,391.349745 1701.89372,386.352161 1698.04649,381.221209 Z" id="Tick-minor-18" stroke="#FFFFFF" stroke-width="0.25" fill="#4FC1E9"></path>
                            <path d="M1726.37761,421.569111 L1710.63792,431.99903 C1714.15145,437.320891 1717.42583,442.385581 1720.49513,447.258414 L1736.51925,437.112966 C1733.35666,432.145062 1729.98675,426.984149 1726.37761,421.569111 Z" id="Tick-minor-19" stroke="#FFFFFF" stroke-width="0.25" fill="#4FC1E9"></path>
                            <path d="M1752.5954,463.261664 L1736.19148,472.933342 C1739.51284,478.471233 1742.49775,483.624882 1745.29073,488.666843 L1761.88423,479.374485 C1759.02752,474.288071 1755.96169,468.975515 1752.5954,463.261664 Z" id="Tick-minor-20" stroke="#FFFFFF" stroke-width="0.25" fill="#4FC1E9"></path>
                            <path d="M1776.50761,506.394633 L1759.72579,515.117386 C1762.56787,520.519767 1765.31646,525.922159 1767.97157,531.324561 L1784.94423,522.885642 C1783.35056,519.645959 1781.7492,516.504345 1779.32865,511.834202 C1779.2227,511.629786 1777.19753,507.727717 1776.50761,506.394633 Z" id="Tick-minor-21" stroke="#FFFFFF" stroke-width="0.25" fill="#4FC1E9"></path>
                            <path d="M1798.11524,550.680055 L1780.95453,558.549331 C1783.63887,564.318609 1786.07463,569.775641 1788.34761,575.135742 L1805.69799,567.645689 C1803.42822,562.410394 1800.97137,556.92265 1798.11524,550.680055 Z" id="Tick-minor-22" stroke="#FFFFFF" stroke-width="0.25" fill="#4FC1E9"></path>
                            <path d="M1817.41644,596.021582 L1799.87666,602.942683 C1801.76678,607.671843 1803.20579,611.509298 1806.32085,620.004141 L1824.14667,613.366869 C1823.13376,610.681993 1822.0537,607.871565 1820.81698,604.695147 C1819.87479,602.275217 1819.11345,600.334923 1817.41644,596.021583 Z" id="Tick-minor-23" stroke="#FFFFFF" stroke-width="0.25" fill="#4FC1E9"></path>
                            <path d="M1834.41279,642.322917 L1816.39563,648.29703 C1819.22705,656.933308 1820.49019,660.834575 1821.98825,665.641617 L1840.09794,659.952709 C1839.58203,658.352589 1839.15819,657.021774 1838.23636,654.115663 C1836.36967,648.230848 1835.51387,645.576699 1834.41279,642.322917 Z" id="Tick-minor-24" stroke="#FFFFFF" stroke-width="0.25" fill="#4FC1E9"></path>
                            <path d="M1848.81587,689.393569 L1830.60979,694.514028 C1832.06746,699.833141 1833.50652,705.279443 1835.25365,712.048057 L1853.64962,707.306828 C1852.1319,701.335748 1850.52065,695.364662 1848.81587,689.393569 Z" id="Tick-minor-25" stroke="#FFFFFF" stroke-width="0.25" fill="#4FC1E9"></path>
                            <path d="M1860.81529,737.231476 L1842.32656,741.308478 C1843.42898,746.1949 1844.27639,750.208281 1846.11698,759.127228 L1864.70214,755.334338 C1864.13851,752.56283 1863.5301,749.683336 1862.79393,746.283597 C1862.49985,744.925465 1862.19562,743.53089 1861.79577,741.70555 C1861.76058,741.544907 1861.06308,738.363692 1860.81529,737.231476 Z" id="Tick-minor-26" stroke="#FFFFFF" stroke-width="0.25" fill="#4FC1E9"></path>
                            <path d="M1870.31943,785.549463 L1851.54449,788.678621 C1852.54824,794.435762 1853.49756,800.463938 1854.38779,806.687492 L1873.161,803.937881 C1872.9081,802.292606 1872.72927,801.10038 1872.2407,797.820736 C1871.35056,791.845596 1870.8998,788.932939 1870.31943,785.549464 Z" id="Tick-minor-27" stroke="#FFFFFF" stroke-width="0.25" fill="#4FC1E9"></path>
                            <path d="M1877.22784,834.34797 L1858.35847,836.528851 C1858.4306,837.187439 1858.75033,840.107788 1858.84781,841.00175 C1859.03771,842.743435 1859.1941,844.191864 1859.3417,845.580428 C1859.69815,848.933702 1859.9923,851.83844 1860.25483,854.632003 L1879.12409,852.830415 C1878.85941,849.969191 1878.56255,846.974179 1878.21102,843.58908 C1877.94327,841.010701 1877.72268,838.943315 1877.22784,834.34797 Z" id="Tick-minor-28" stroke="#FFFFFF" stroke-width="0.25" fill="#4FC1E9"></path>
                            <path d="M1881.54471,883.434034 L1862.58029,884.666722 C1862.89476,889.710622 1863.10259,893.803666 1863.52748,902.865051 L1882.49185,902.011655 C1882.24293,896.618771 1882.17908,895.256846 1882.05331,892.722226 C1881.88278,889.28531 1881.71938,886.282259 1881.54471,883.434034 Z" id="Tick-minor-29" stroke="#FFFFFF" stroke-width="0.25" fill="#4FC1E9"></path>
                            <path d="M1883.36403,932.711366 L1864.40003,932.901006 C1864.49352,938.967002 1864.49352,945.032998 1864.40003,951.098994 L1883.36403,951.288634 C1883.45755,945.126976 1883.45755,938.873024 1883.36403,932.711366 Z" id="Tick-minor-30" stroke="#FFFFFF" stroke-width="0.25" fill="#4FC1E9"></path>
                            <path d="M1882.49185,981.988345 L1863.52748,981.134949 C1863.10259,990.196334 1862.89476,994.289378 1862.58029,999.333278 L1881.54471,1000.56597 C1881.71938,997.717741 1881.88278,994.71469 1882.05331,991.277774 C1882.17908,988.743154 1882.24293,987.381229 1882.49185,981.988347 Z" id="Tick-minor-31" stroke="#FFFFFF" stroke-width="0.25" fill="#4FC1E9"></path>
                            <path d="M1879.1241,1031.16959 L1860.25483,1029.368 C1859.9923,1032.16156 1859.69815,1035.0663 1859.3417,1038.41957 C1859.1941,1039.80814 1859.03771,1041.25657 1858.84781,1042.99825 C1858.75033,1043.89221 1858.4306,1046.81256 1858.35847,1047.47115 L1877.22783,1049.65203 C1878.21889,1040.44806 1878.65051,1036.2919 1879.1241,1031.16959 Z" id="Tick-minor-32" stroke="#FFFFFF" stroke-width="0.25" fill="#4FC1E9"></path>
                            <path d="M1873.161,1080.06212 L1854.38779,1077.31251 C1853.49756,1083.53606 1852.54824,1089.56424 1851.54449,1095.32138 L1870.31943,1098.45054 C1870.8998,1095.06706 1871.35056,1092.1544 1872.2407,1086.17926 C1872.72927,1082.89962 1872.9081,1081.70739 1873.161,1080.06212 Z" id="Tick-minor-33" stroke="#FFFFFF" stroke-width="0.25" fill="#4FC1E9"></path>
                            <path d="M1864.70214,1128.66566 L1846.11698,1124.87277 C1844.27639,1133.79172 1843.42898,1137.8051 1842.32656,1142.69152 L1860.81529,1146.76852 C1861.06308,1145.63631 1861.76058,1142.45509 1861.79577,1142.29445 C1862.19562,1140.46911 1862.49985,1139.07453 1862.79393,1137.7164 C1863.5301,1134.31666 1864.13851,1131.43717 1864.70214,1128.66566 Z" id="Tick-minor-34" stroke="#FFFFFF" stroke-width="0.25" fill="#4FC1E9"></path>
                            <path d="M1853.64962,1176.69317 L1835.25365,1171.95194 C1833.50652,1178.72056 1832.06746,1184.16686 1830.60979,1189.48597 L1848.81587,1194.60643 C1850.52065,1188.63534 1852.1319,1182.66425 1853.64962,1176.69317 Z" id="Tick-minor-35" stroke="#FFFFFF" stroke-width="0.25" fill="#4FC1E9"></path>
                            <path d="M1840.09794,1224.04729 L1821.98825,1218.35838 C1820.49019,1223.16542 1819.22705,1227.06669 1816.39563,1235.70297 L1834.41279,1241.67708 C1835.51387,1238.4233 1836.36967,1235.76915 1838.23636,1229.88434 C1839.15819,1226.97823 1839.58203,1225.64741 1840.09794,1224.04729 Z" id="Tick-minor-36" stroke="#FFFFFF" stroke-width="0.25" fill="#4FC1E9"></path>
                            <path d="M1824.14667,1270.63313 L1806.32085,1263.99586 C1803.20579,1272.4907 1801.76678,1276.32816 1799.87666,1281.05732 L1817.41644,1287.97842 C1820.81477,1279.34063 1822.33347,1275.44002 1824.14667,1270.63313 Z" id="Tick-minor-37" stroke="#FFFFFF" stroke-width="0.25" fill="#4FC1E9"></path>
                            <path d="M1805.69799,1316.35431 L1788.34761,1308.86426 C1786.07463,1314.22436 1783.63887,1319.68139 1780.95453,1325.45067 L1798.11524,1333.31994 C1800.97137,1327.07735 1803.42822,1321.58961 1805.69799,1316.35431 Z" id="Tick-minor-38" stroke="#FFFFFF" stroke-width="0.25" fill="#4FC1E9"></path>
                            <path d="M1784.94423,1361.11436 L1767.97157,1352.67544 C1765.31646,1358.07784 1762.56787,1363.48023 1759.72579,1368.88261 L1776.50761,1377.60537 C1777.19753,1376.27228 1779.2227,1372.37021 1779.32865,1372.1658 C1781.7492,1367.49566 1783.35056,1364.35404 1784.94423,1361.11436 Z" id="Tick-minor-39" stroke="#FFFFFF" stroke-width="0.25" fill="#4FC1E9"></path>
                            <path d="M1761.88423,1404.62552 L1745.29073,1395.33316 C1742.49775,1400.37512 1739.51284,1405.52877 1736.19148,1411.06666 L1752.5954,1420.73834 C1755.96169,1415.02449 1759.02752,1409.71193 1761.88423,1404.62552 Z" id="Tick-minor-40" stroke="#FFFFFF" stroke-width="0.25" fill="#4FC1E9"></path>
                            <path d="M1736.51925,1446.88703 L1720.49513,1436.74159 C1717.42583,1441.61442 1714.15145,1446.67911 1710.63792,1452.00097 L1726.37761,1462.43089 C1729.98675,1457.01585 1733.35666,1451.85494 1736.51925,1446.88703 Z" id="Tick-minor-41" stroke="#FFFFFF" stroke-width="0.25" fill="#4FC1E9"></path>
                            <path d="M1709.04124,1487.80342 L1693.58587,1476.8045 C1690.20346,1481.55641 1686.62754,1486.45851 1682.87556,1491.49541 L1698.04649,1502.77879 C1701.89372,1497.64784 1705.56493,1492.65026 1709.04124,1487.80342 Z" id="Tick-minor-42" stroke="#FFFFFF" stroke-width="0.25" fill="#4FC1E9"></path>
                            <path d="M1679.3541,1527.18271 L1664.56309,1515.42576 C1658.9,1522.5043 1656.32571,1525.68625 1653.09549,1529.54847 L1667.69758,1541.59046 C1669.96285,1538.89168 1672.03833,1536.33174 1675.51509,1531.98105 C1675.68896,1531.76347 1677.06492,1530.04087 1677.46986,1529.53435 C1678.18777,1528.63636 1678.78341,1527.89281 1679.3541,1527.18271 Z" id="Tick-minor-43" stroke="#FFFFFF" stroke-width="0.25" fill="#4FC1E9"></path>
                            <path d="M1647.7469,1564.92999 L1633.5242,1552.41401 C1629.59507,1556.90298 1625.52458,1561.44955 1621.39214,1565.96771 L1635.3304,1578.76815 C1639.55774,1574.15523 1643.72316,1569.51377 1647.7469,1564.92999 Z" id="Tick-minor-44" stroke="#FFFFFF" stroke-width="0.25" fill="#4FC1E9"></path>
                            <path d="M1614.21797,1601.04286 L1600.6586,1587.76796 C1596.3931,1592.12697 1592.12697,1596.3931 1587.76796,1600.6586 L1601.04286,1614.21797 C1605.49672,1609.85765 1609.85765,1605.49672 1614.21797,1601.04286 Z" id="Tick-minor-45" stroke="#FFFFFF" stroke-width="0.25" fill="#4FC1E9"></path>
                            <path d="M1578.76815,1635.3304 L1565.96771,1621.39214 C1561.44955,1625.52458 1556.90298,1629.59507 1552.41401,1633.5242 L1564.92999,1647.7469 C1569.51377,1643.72316 1574.15523,1639.55774 1578.76815,1635.3304 Z" id="Tick-minor-46" stroke="#FFFFFF" stroke-width="0.25" fill="#4FC1E9"></path>
                            <path d="M1541.59046,1667.69758 L1529.54847,1653.09549 C1525.68625,1656.32571 1522.5043,1658.9 1515.42576,1664.56309 L1527.18271,1679.3541 C1527.89281,1678.78341 1528.63636,1678.18777 1529.53435,1677.46986 C1530.04087,1677.06492 1531.76347,1675.68896 1531.98105,1675.51509 C1536.33174,1672.03833 1538.89168,1669.96285 1541.59046,1667.69758 Z" id="Tick-minor-47" stroke="#FFFFFF" stroke-width="0.25" fill="#4FC1E9"></path>
                            <path d="M1502.77879,1698.04649 L1491.49541,1682.87556 C1486.45851,1686.62754 1481.55641,1690.20346 1476.8045,1693.58587 L1487.80342,1709.04124 C1492.65026,1705.56493 1497.64784,1701.89372 1502.77879,1698.04649 Z" id="Tick-minor-48" stroke="#FFFFFF" stroke-width="0.25" fill="#4FC1E9"></path>
                            <path d="M1462.43089,1726.37761 L1452.00097,1710.63792 C1446.67911,1714.15145 1441.61442,1717.42583 1436.74159,1720.49513 L1446.88703,1736.51925 C1451.85494,1733.35666 1457.01585,1729.98675 1462.43089,1726.37761 Z" id="Tick-minor-49" stroke="#FFFFFF" stroke-width="0.25" fill="#4FC1E9"></path>
                            <path d="M1420.73834,1752.5954 L1411.06666,1736.19148 C1405.52877,1739.51284 1400.37512,1742.49775 1395.33316,1745.29073 L1404.62552,1761.88423 C1409.71193,1759.02752 1415.02449,1755.96169 1420.73834,1752.5954 Z" id="Tick-minor-50" stroke="#FFFFFF" stroke-width="0.25" fill="#4FC1E9"></path>
                            <path d="M1377.60537,1776.50761 L1368.88261,1759.72579 C1363.48023,1762.56787 1358.07784,1765.31646 1352.67544,1767.97157 L1361.11436,1784.94423 C1364.35404,1783.35056 1367.49566,1781.7492 1372.1658,1779.32865 C1372.37021,1779.2227 1376.27228,1777.19753 1377.60537,1776.50761 Z" id="Tick-minor-51" stroke="#FFFFFF" stroke-width="0.25" fill="#4FC1E9"></path>
                            <path d="M1333.31994,1798.11524 L1325.45067,1780.95453 C1319.68139,1783.63887 1314.22436,1786.07463 1308.86426,1788.34761 L1316.35431,1805.69799 C1321.58961,1803.42822 1327.07735,1800.97137 1333.31994,1798.11524 Z" id="Tick-minor-52" stroke="#FFFFFF" stroke-width="0.25" fill="#4FC1E9"></path>
                            <path d="M1287.97842,1817.41644 L1281.05732,1799.87666 C1276.32816,1801.76678 1272.4907,1803.20579 1263.99586,1806.32085 L1270.63313,1824.14667 C1275.44002,1822.33347 1279.34063,1820.81477 1287.97842,1817.41644 Z" id="Tick-minor-53" stroke="#FFFFFF" stroke-width="0.25" fill="#4FC1E9"></path>
                            <path d="M1241.67708,1834.41279 L1235.70297,1816.39563 C1227.06669,1819.22705 1223.16542,1820.49019 1218.35838,1821.98825 L1224.04729,1840.09794 C1225.64741,1839.58203 1226.97823,1839.15819 1229.88434,1838.23636 C1235.76915,1836.36967 1238.4233,1835.51387 1241.67708,1834.41279 Z" id="Tick-minor-54" stroke="#FFFFFF" stroke-width="0.25" fill="#4FC1E9"></path>
                            <path d="M1194.60643,1848.81587 L1189.48597,1830.60979 C1184.16686,1832.06746 1178.72056,1833.50652 1171.95194,1835.25365 L1176.69317,1853.64962 C1182.66425,1852.1319 1188.63534,1850.52065 1194.60643,1848.81587 Z" id="Tick-minor-55" stroke="#FFFFFF" stroke-width="0.25" fill="#4FC1E9"></path>
                            <path d="M1146.76852,1860.81529 L1142.69152,1842.32656 C1137.8051,1843.42898 1133.79172,1844.27639 1124.87277,1846.11698 L1128.66566,1864.70214 C1131.43717,1864.13851 1134.31666,1863.5301 1137.7164,1862.79393 C1139.07453,1862.49985 1140.46911,1862.19562 1142.29445,1861.79577 C1142.45509,1861.76058 1145.63631,1861.06308 1146.76852,1860.81529 Z" id="Tick-minor-56" stroke="#FFFFFF" stroke-width="0.25" fill="#4FC1E9"></path>
                            <path d="M1098.45054,1870.31943 L1095.32138,1851.54449 C1089.56424,1852.54824 1083.53606,1853.49756 1077.31251,1854.38779 L1080.06212,1873.161 C1081.70739,1872.9081 1082.89962,1872.72927 1086.17926,1872.2407 C1092.1544,1871.35056 1095.06706,1870.8998 1098.45054,1870.31943 Z" id="Tick-minor-57" stroke="#FFFFFF" stroke-width="0.25" fill="#4FC1E9"></path>
                            <path d="M1049.65203,1877.22783 L1047.47115,1858.35847 C1046.81256,1858.4306 1043.89221,1858.75033 1042.99825,1858.84781 C1041.25657,1859.03771 1039.80814,1859.1941 1038.41957,1859.3417 C1035.0663,1859.69815 1032.16156,1859.9923 1029.368,1860.25483 L1031.16959,1879.1241 C1036.2919,1878.65051 1040.44806,1878.21889 1049.65203,1877.22783 Z" id="Tick-minor-58" stroke="#FFFFFF" stroke-width="0.25" fill="#4FC1E9"></path>
                            <path d="M1000.56597,1881.54471 L999.333278,1862.58029 C994.289378,1862.89476 990.196334,1863.10259 981.134949,1863.52748 L981.988345,1882.49185 C987.381229,1882.24293 988.743154,1882.17908 991.277774,1882.05331 C994.71469,1881.88278 997.717741,1881.71938 1000.56597,1881.54471 Z" id="Tick-minor-59" stroke="#FFFFFF" stroke-width="0.25" fill="#4FC1E9"></path>
                            <path d="M951.288634,1883.36403 L951.098994,1864.40003 C945.032998,1864.49352 938.967002,1864.49352 932.901006,1864.40003 L932.711366,1883.36403 C938.873024,1883.45755 945.126976,1883.45755 951.288634,1883.36403 Z" id="Tick-minor-60" stroke="#FFFFFF" stroke-width="0.25" fill="#4FC1E9"></path>
                            <path d="M902.011655,1882.49185 L902.865051,1863.52748 C893.803666,1863.10259 889.710622,1862.89476 884.666723,1862.58029 L883.434034,1881.54471 C886.282259,1881.71938 889.28531,1881.88278 892.722226,1882.05331 C895.256846,1882.17908 896.618771,1882.24293 902.011653,1882.49185 Z" id="Tick-minor-61" stroke="#FFFFFF" stroke-width="0.25" fill="#4FC1E9"></path>
                            <path d="M852.830415,1879.12409 L854.632003,1860.25483 C851.83844,1859.9923 848.933702,1859.69815 845.580428,1859.3417 C844.191864,1859.1941 842.743435,1859.03771 841.00175,1858.84781 C840.107788,1858.75033 837.187439,1858.4306 836.528851,1858.35847 L834.34797,1877.22784 C838.943315,1877.72268 841.010701,1877.94327 843.58908,1878.21102 C846.974179,1878.56255 849.969191,1878.85941 852.830415,1879.12409 Z" id="Tick-minor-62" stroke="#FFFFFF" stroke-width="0.25" fill="#4FC1E9"></path>
                            <path d="M803.937881,1873.161 L806.687492,1854.38779 C800.463938,1853.49756 794.435762,1852.54824 788.678621,1851.54449 L785.549463,1870.31943 C788.932939,1870.8998 791.845596,1871.35056 797.820736,1872.2407 C801.10038,1872.72927 802.292606,1872.9081 803.937881,1873.161 Z" id="Tick-minor-63" stroke="#FFFFFF" stroke-width="0.25" fill="#4FC1E9"></path>
                            <path d="M755.334338,1864.70214 L759.127227,1846.11698 C750.208281,1844.27639 746.1949,1843.42898 741.308478,1842.32656 L737.231476,1860.81529 C738.363692,1861.06308 741.544907,1861.76058 741.70555,1861.79577 C743.53089,1862.19562 744.925465,1862.49985 746.283597,1862.79393 C749.683336,1863.5301 752.56283,1864.13851 755.334338,1864.70214 Z" id="Tick-minor-64" stroke="#FFFFFF" stroke-width="0.25" fill="#4FC1E9"></path>
                            <path d="M707.306828,1853.64962 L712.048057,1835.25365 C705.279443,1833.50652 699.833141,1832.06746 694.514028,1830.60979 L689.393569,1848.81587 C695.364662,1850.52065 701.335748,1852.1319 707.306828,1853.64962 Z" id="Tick-minor-65" stroke="#FFFFFF" stroke-width="0.25" fill="#4FC1E9"></path>
                            <path d="M659.952709,1840.09794 L665.641618,1821.98825 C660.834576,1820.49019 656.933308,1819.22705 648.29703,1816.39563 L642.322917,1834.41279 C645.576699,1835.51387 648.230848,1836.36967 654.115663,1838.23636 C657.021774,1839.15819 658.352589,1839.58203 659.952709,1840.09794 Z" id="Tick-minor-66" stroke="#FFFFFF" stroke-width="0.25" fill="#4FC1E9"></path>
                            <path d="M613.366869,1824.14667 L620.004141,1806.32085 C611.509298,1803.20579 607.671844,1801.76678 602.942685,1799.87666 L596.021582,1817.41644 C600.334923,1819.11345 602.275217,1819.87479 604.695147,1820.81698 C607.871565,1822.0537 610.681993,1823.13376 613.366869,1824.14667 Z" id="Tick-minor-67" stroke="#FFFFFF" stroke-width="0.25" fill="#4FC1E9"></path>
                            <path d="M567.645689,1805.69799 L575.135742,1788.34761 C569.775641,1786.07463 564.318609,1783.63887 558.549331,1780.95453 L550.680055,1798.11524 C556.92265,1800.97137 562.410394,1803.42822 567.645689,1805.69799 Z" id="Tick-minor-68" stroke="#FFFFFF" stroke-width="0.25" fill="#4FC1E9"></path>
                            <path d="M522.885642,1784.94423 L531.324561,1767.97157 C525.922159,1765.31646 520.519767,1762.56787 515.117386,1759.72579 L506.394633,1776.50761 C507.727717,1777.19753 511.629786,1779.2227 511.834202,1779.32865 C516.504345,1781.7492 519.645959,1783.35056 522.885642,1784.94423 Z" id="Tick-minor-69" stroke="#FFFFFF" stroke-width="0.25" fill="#4FC1E9"></path>
                            <path d="M479.374485,1761.88423 L488.666843,1745.29073 C483.624882,1742.49775 478.471233,1739.51284 472.933342,1736.19148 L463.261664,1752.5954 C468.975515,1755.96169 474.288071,1759.02752 479.374485,1761.88423 Z" id="Tick-minor-70" stroke="#FFFFFF" stroke-width="0.25" fill="#4FC1E9"></path>
                            <path d="M437.112966,1736.51925 L447.258414,1720.49513 C442.385581,1717.42583 437.320891,1714.15145 431.99903,1710.63792 L421.569111,1726.37761 C426.984149,1729.98675 432.145062,1733.35666 437.112966,1736.51925 Z" id="Tick-minor-71" stroke="#FFFFFF" stroke-width="0.25" fill="#4FC1E9"></path>
                            <path d="M396.196579,1709.04124 L407.195496,1693.58587 C402.44359,1690.20346 397.54149,1686.62754 392.504591,1682.87556 L381.221209,1698.04649 C386.352161,1701.89372 391.349745,1705.56493 396.196579,1709.04124 Z" id="Tick-minor-72" stroke="#FFFFFF" stroke-width="0.25" fill="#4FC1E9"></path>
                            <path d="M356.817289,1679.3541 L368.574242,1664.56309 C361.495698,1658.9 358.313751,1656.32571 354.451531,1653.09549 L342.409543,1667.69758 C345.108323,1669.96285 347.668261,1672.03833 352.018954,1675.51509 C352.236528,1675.68896 353.959129,1677.06492 354.465648,1677.46986 C355.363641,1678.18777 356.107195,1678.78341 356.817289,1679.3541 Z" id="Tick-minor-73" stroke="#FFFFFF" stroke-width="0.25" fill="#4FC1E9"></path>
                            <path d="M319.070013,1647.7469 L331.585992,1633.5242 C327.097017,1629.59507 322.550454,1625.52458 318.032292,1621.39214 L305.231846,1635.3304 C309.84477,1639.55774 314.486231,1643.72316 319.070013,1647.7469 Z" id="Tick-minor-74" stroke="#FFFFFF" stroke-width="0.25" fill="#4FC1E9"></path>
                            <path d="M282.957138,1614.21797 L296.232041,1600.6586 C291.873032,1596.3931 287.606896,1592.12697 283.341397,1587.76796 L269.782033,1601.04286 C274.142351,1605.49672 278.50328,1609.85765 282.957138,1614.21797 Z" id="Tick-minor-75" stroke="#FFFFFF" stroke-width="0.25" fill="#4FC1E9"></path>
                            <path d="M248.669595,1578.76815 L262.607858,1565.96771 C258.475416,1561.44955 254.40493,1556.90298 250.475802,1552.41401 L236.253099,1564.92999 C240.276844,1569.51377 244.442256,1574.15523 248.669595,1578.76815 Z" id="Tick-minor-76" stroke="#FFFFFF" stroke-width="0.25" fill="#4FC1E9"></path>
                            <path d="M216.302416,1541.59046 L230.904511,1529.54847 C227.674294,1525.68625 225.100002,1522.5043 219.436909,1515.42576 L204.645904,1527.18271 C205.216585,1527.89281 205.812231,1528.63636 206.530136,1529.53435 C206.935075,1530.04087 208.311042,1531.76347 208.484912,1531.98105 C211.961667,1536.33174 214.037151,1538.89168 216.302416,1541.59046 Z" id="Tick-minor-77" stroke="#FFFFFF" stroke-width="0.25" fill="#4FC1E9"></path>
                            <path d="M185.95351,1502.77879 L201.124443,1491.49541 C197.372463,1486.45851 193.796537,1481.55641 190.414134,1476.8045 L174.95876,1487.80342 C178.435066,1492.65026 182.10628,1497.64784 185.95351,1502.77879 Z" id="Tick-minor-78" stroke="#FFFFFF" stroke-width="0.25" fill="#4FC1E9"></path>
                            <path d="M157.622388,1462.43089 L173.362084,1452.00097 C169.848551,1446.67911 166.57417,1441.61442 163.504867,1436.74159 L147.480749,1446.88703 C150.643342,1451.85494 154.013254,1457.01585 157.622388,1462.43089 Z" id="Tick-minor-79" stroke="#FFFFFF" stroke-width="0.25" fill="#4FC1E9"></path>
                            <path d="M131.404601,1420.73834 L147.808524,1411.06666 C144.487165,1405.52877 141.502246,1400.37512 138.709269,1395.33316 L122.115773,1404.62552 C124.972479,1409.71193 128.038314,1415.02449 131.404601,1420.73834 Z" id="Tick-minor-80" stroke="#FFFFFF" stroke-width="0.25" fill="#4FC1E9"></path>
                            <path d="M107.492314,1377.60541 L124.274209,1368.88261 C121.432133,1363.48023 118.683539,1358.07784 116.028426,1352.67544 L99.0557684,1361.11436 C100.649437,1364.35404 102.250799,1367.49566 104.671355,1372.1658 C104.7772,1372.37001 106.798476,1376.26458 107.492314,1377.60541 Z" id="Tick-minor-81" stroke="#FFFFFF" stroke-width="0.25" fill="#4FC1E9"></path>
                            <path d="M85.884758,1333.31994 L103.045467,1325.45067 C100.361128,1319.68139 97.9253711,1314.22436 95.6523873,1308.86426 L78.3020108,1316.35431 C80.5717756,1321.58961 83.0286301,1327.07735 85.884758,1333.31994 Z" id="Tick-minor-82" stroke="#FFFFFF" stroke-width="0.25" fill="#4FC1E9"></path>
                            <path d="M66.5835623,1287.97842 L84.1233394,1281.05732 C82.2332189,1276.32816 80.7942112,1272.4907 77.6791452,1263.99586 L59.8533277,1270.63313 C61.6665503,1275.44009 63.1852705,1279.34073 66.5835622,1287.97842 Z M66.3968036,1288.18657 L66.3968754,1288.18675 L66.3968036,1288.18657 Z" id="Tick-minor-83" stroke="#FFFFFF" stroke-width="0.25" fill="#4FC1E9"></path>
                            <path d="M49.587207,1241.67708 L67.6043724,1235.70297 C64.7729489,1227.06669 63.5098087,1223.16542 62.0117545,1218.35838 L43.9020612,1224.04729 C44.4179733,1225.64741 44.8418073,1226.97823 45.7636382,1229.88434 C47.6303271,1235.76915 48.486128,1238.4233 49.5872071,1241.67708 Z" id="Tick-minor-84" stroke="#FFFFFF" stroke-width="0.25" fill="#4FC1E9"></path>
                            <path d="M35.1841288,1194.60643 L53.3902067,1189.48597 C51.9325431,1184.16686 50.4934785,1178.72056 48.7463452,1171.95194 L30.350376,1176.69317 C31.8681012,1182.66425 33.479352,1188.63534 35.1841288,1194.60643 Z" id="Tick-minor-85" stroke="#FFFFFF" stroke-width="0.25" fill="#4FC1E9"></path>
                            <path d="M23.1847097,1146.76852 L41.673443,1142.69152 C40.5710194,1137.8051 39.7236057,1133.79172 37.8830155,1124.87277 L19.2978587,1128.66566 C19.8614943,1131.43717 20.4699021,1134.31666 21.2060661,1137.7164 C21.5001498,1139.07453 21.8043771,1140.46911 22.2042306,1142.29445 C22.2394205,1142.45509 22.9369174,1145.63631 23.1847097,1146.76852 Z" id="Tick-minor-86" stroke="#FFFFFF" stroke-width="0.25" fill="#4FC1E9"></path>
                            <path d="M13.680567,1098.45054 L32.455514,1095.32138 C31.451762,1089.56424 30.5024425,1083.53606 29.6122067,1077.31251 L10.8389998,1080.06212 C11.091904,1081.70739 11.270727,1082.89962 11.7593042,1086.17926 C12.6494363,1092.1544 13.1002002,1095.06706 13.6805668,1098.45054 Z" id="Tick-minor-87" stroke="#FFFFFF" stroke-width="0.25" fill="#4FC1E9"></path>
                            <path d="M6.77216505,1049.65203 L25.6415326,1047.47115 C25.5694037,1046.81256 25.249669,1043.89221 25.1521937,1042.99825 C24.9622851,1041.25657 24.8059003,1039.80814 24.6582971,1038.41957 C24.3018466,1035.0663 24.007697,1032.16156 23.7451692,1029.368 L4.87590282,1031.16959 C5.34948894,1036.29189 5.78110878,1040.44804 6.77216507,1049.65203 Z" id="Tick-minor-88" stroke="#FFFFFF" stroke-width="0.25" fill="#4FC1E9"></path>
                            <path d="M2.45528947,1000.56597 L21.4197143,999.333278 C21.1052427,994.289378 20.8974143,990.196334 20.4725182,981.134949 L1.50815226,981.988345 C1.75706929,987.381229 1.82092241,988.743154 1.94668598,991.277774 C2.11722,994.71469 2.28062406,997.717741 2.45528948,1000.56597 Z" id="Tick-minor-89" stroke="#FFFFFF" stroke-width="0.25" fill="#4FC1E9"></path>
                            <path d="M0.635969841,951.288634 L19.5999718,951.098994 C19.506482,945.032998 19.506482,938.967002 19.5999718,932.901006 L0.635969841,932.711366 C0.542452303,938.873024 0.542452303,945.126976 0.635969842,951.288634 Z" id="Tick-minor-90" stroke="#FFFFFF" stroke-width="0.25" fill="#4FC1E9"></path>
                            <path d="M1.50815226,902.011655 L20.4725181,902.865051 C20.8974144,893.803666 21.1052427,889.710622 21.4197142,884.666722 L2.45528947,883.434034 C2.28062406,886.282259 2.11722,889.28531 1.94668598,892.722226 C1.82092241,895.256846 1.75706929,896.618771 1.50815235,902.011653 Z" id="Tick-minor-91" stroke="#FFFFFF" stroke-width="0.25" fill="#4FC1E9"></path>
                            <path d="M4.87590602,852.830415 L23.7451692,854.632003 C24.007697,851.83844 24.3018466,848.933702 24.6582971,845.580428 C24.8059003,844.191864 24.9622851,842.743435 25.1521937,841.00175 C25.249669,840.107788 25.5694037,837.187439 25.6415326,836.528851 L6.77216461,834.34797 C6.27731727,838.943315 6.05673027,841.010701 5.78897553,843.58908 C5.43744599,846.974179 5.14059255,849.969191 4.87590603,852.830415 Z" id="Tick-minor-92" stroke="#FFFFFF" stroke-width="0.25" fill="#4FC1E9"></path>
                            <path d="M10.8389998,803.937881 L29.6122067,806.687492 C30.5024425,800.463938 31.451762,794.435762 32.455514,788.678621 L13.680567,785.549463 C13.1002002,788.932939 12.6494363,791.845596 11.7593042,797.820736 C11.270727,801.10038 11.091904,802.292606 10.8389998,803.937881 Z" id="Tick-minor-93" stroke="#FFFFFF" stroke-width="0.25" fill="#4FC1E9"></path>
                            <path d="M19.2978587,755.334338 L37.8830155,759.127227 C39.7236057,750.208281 40.5710194,746.1949 41.6734428,741.308478 L23.1847097,737.231476 C22.9369174,738.363692 22.2394205,741.544907 22.2042306,741.70555 C21.8043771,743.53089 21.5001498,744.925465 21.2060661,746.283597 C20.4699021,749.683336 19.8614943,752.56283 19.2978587,755.334338 Z" id="Tick-minor-94" stroke="#FFFFFF" stroke-width="0.25" fill="#4FC1E9"></path>
                            <path d="M30.350376,707.306828 L48.7463452,712.048057 C50.4934785,705.279443 51.9325431,699.833141 53.3902067,694.514028 L35.1841288,689.393569 C33.479352,695.364662 31.8681012,701.335748 30.350376,707.306828 Z" id="Tick-minor-95" stroke="#FFFFFF" stroke-width="0.25" fill="#4FC1E9"></path>
                            <path d="M43.9020612,659.952709 L62.0117545,665.641618 C63.5098089,660.834576 64.7729491,656.933308 67.6043724,648.29703 L49.5872071,642.322917 C48.486128,645.576699 47.6303271,648.230848 45.7636382,654.115663 C44.8418073,657.021774 44.4179733,658.352589 43.9020612,659.952709 Z" id="Tick-minor-96" stroke="#FFFFFF" stroke-width="0.25" fill="#4FC1E9"></path>
                            <path d="M59.8533306,613.366869 L77.6791452,620.004141 C80.7942111,611.509298 82.2332188,607.671844 84.1233387,602.942685 L66.5835624,596.021582 C64.8865459,600.334923 64.1252057,602.275217 63.1830198,604.695147 C61.9462995,607.871565 60.8662393,610.681993 59.8533306,613.366869 Z" id="Tick-minor-97" stroke="#FFFFFF" stroke-width="0.25" fill="#4FC1E9"></path>
                            <path d="M78.3020108,567.645689 L95.6523873,575.135742 C97.9253711,569.775641 100.361128,564.318609 103.045467,558.549331 L85.884758,550.680055 C83.0286301,556.92265 80.5717756,562.410394 78.3020108,567.645689 Z" id="Tick-minor-98" stroke="#FFFFFF" stroke-width="0.25" fill="#4FC1E9"></path>
                            <path d="M99.0557684,522.885642 L116.028426,531.324561 C118.683539,525.922159 121.432133,520.519767 124.274209,515.117386 L107.492392,506.394633 C106.802473,507.727717 104.777304,511.629786 104.671355,511.834202 C102.250799,516.504345 100.649437,519.645959 99.0557684,522.885642 Z" id="Tick-minor-99" stroke="#FFFFFF" stroke-width="0.25" fill="#4FC1E9"></path>
                            <path d="M122.115773,479.374485 L138.709269,488.666843 C141.502246,483.624882 144.487165,478.471233 147.808524,472.933342 L131.404601,463.261664 C128.038314,468.975515 124.972479,474.288071 122.115773,479.374485 Z" id="Tick-minor-100" stroke="#FFFFFF" stroke-width="0.25" fill="#4FC1E9"></path>
                            <path d="M147.480749,437.112966 L163.504867,447.258414 C166.57417,442.385581 169.848551,437.320891 173.362084,431.99903 L157.622388,421.569111 C154.013254,426.984149 150.643342,432.145062 147.480749,437.112966 Z" id="Tick-minor-101" stroke="#FFFFFF" stroke-width="0.25" fill="#4FC1E9"></path>
                            <path d="M174.95876,396.196579 L190.414134,407.195496 C193.796537,402.44359 197.372463,397.54149 201.124443,392.504591 L185.95351,381.221209 C182.10628,386.352161 178.435066,391.349745 174.95876,396.196579 Z" id="Tick-minor-102" stroke="#FFFFFF" stroke-width="0.25" fill="#4FC1E9"></path>
                            <path d="M204.645904,356.817289 L219.436909,368.574242 C225.100001,361.495699 227.674294,358.313752 230.90451,354.451532 L216.302416,342.409543 C214.037151,345.108323 211.961667,347.668261 208.484912,352.018954 C208.311042,352.236528 206.935075,353.959129 206.530136,354.465648 C205.812231,355.363641 205.216585,356.107195 204.645904,356.817289 Z" id="Tick-minor-103" stroke="#FFFFFF" stroke-width="0.25" fill="#4FC1E9"></path>
                            <path d="M236.253099,319.070013 L250.475802,331.585992 C254.40493,327.097017 258.475416,322.550454 262.607858,318.032292 L248.669595,305.231846 C244.442256,309.84477 240.276844,314.486231 236.253099,319.070013 Z" id="Tick-minor-104" stroke="#FFFFFF" stroke-width="0.25" fill="#4FC1E9"></path>
                            <path d="M269.782033,282.957138 L283.341397,296.232041 C287.606896,291.873032 291.873032,287.606896 296.232041,283.341397 L282.957138,269.782033 C278.50328,274.142351 274.142351,278.50328 269.782033,282.957138 Z" id="Tick-minor-105" stroke="#FFFFFF" stroke-width="0.25" fill="#4FC1E9"></path>
                            <path d="M305.231846,248.669595 L318.032292,262.607858 C322.550454,258.475416 327.097017,254.40493 331.585992,250.475802 L319.070013,236.253099 C314.486231,240.276844 309.84477,244.442256 305.231846,248.669595 Z" id="Tick-minor-106" stroke="#FFFFFF" stroke-width="0.25" fill="#4FC1E9"></path>
                            <path d="M342.409543,216.302416 L354.451531,230.904511 C358.313752,227.674294 361.495699,225.100002 368.574242,219.436909 L356.817289,204.645904 C356.107195,205.216585 355.363641,205.812231 354.465648,206.530136 C353.959129,206.935075 352.236528,208.311042 352.018954,208.484912 C347.668261,211.961667 345.108323,214.037151 342.409544,216.302416 Z" id="Tick-minor-107" stroke="#FFFFFF" stroke-width="0.25" fill="#4FC1E9"></path>
                            <path d="M381.221209,185.95351 L392.504591,201.124443 C397.54149,197.372463 402.44359,193.796537 407.195496,190.414134 L396.196579,174.95876 C391.349745,178.435066 386.352161,182.10628 381.221209,185.95351 Z" id="Tick-minor-108" stroke="#FFFFFF" stroke-width="0.25" fill="#4FC1E9"></path>
                            <path d="M421.569111,157.622388 L431.99903,173.362084 C437.320891,169.848551 442.385581,166.57417 447.258414,163.504867 L437.112966,147.480749 C432.145062,150.643342 426.984149,154.013254 421.569111,157.622388 Z" id="Tick-minor-109" stroke="#FFFFFF" stroke-width="0.25" fill="#4FC1E9"></path>
                            <path d="M463.261664,131.404601 L472.933342,147.808524 C478.471233,144.487165 483.624882,141.502246 488.666843,138.709269 L479.374485,122.115773 C474.288071,124.972479 468.975515,128.038314 463.261664,131.404601 Z" id="Tick-minor-110" stroke="#FFFFFF" stroke-width="0.25" fill="#4FC1E9"></path>
                            <path d="M506.394628,107.492382 L515.117386,124.274209 C520.519767,121.432133 525.922159,118.683539 531.324561,116.028426 L522.885642,99.0557684 C519.645959,100.649437 516.504345,102.250799 511.834202,104.671355 C511.629857,104.777268 507.730431,106.801064 506.394628,107.492382 Z M506.283396,107.549932 C506.282886,107.550197 506.282375,107.550461 506.281865,107.550724 L506.283391,107.549948 L506.283396,107.549932 Z M506.169299,107.327506 L506.170062,107.327118 L506.169299,107.327506 Z" id="Tick-minor-111" stroke="#FFFFFF" stroke-width="0.25" fill="#4FC1E9"></path>
                            <path d="M550.680055,85.884758 L558.549331,103.045467 C564.318609,100.361128 569.775641,97.9253711 575.135742,95.6523873 L567.645689,78.3020108 C562.410394,80.5717756 556.92265,83.0286301 550.680055,85.884758 Z" id="Tick-minor-112" stroke="#FFFFFF" stroke-width="0.25" fill="#4FC1E9"></path>
                            <path d="M596.021582,66.5835624 L602.942683,84.1233394 C607.671843,82.2332189 611.509298,80.7942112 620.004141,77.6791452 L613.366869,59.8533306 C610.681993,60.8662393 607.871565,61.9462995 604.695147,63.1830198 C602.275211,64.1252079 600.334914,64.8865494 596.021583,66.5835622 Z" id="Tick-minor-113" stroke="#FFFFFF" stroke-width="0.25" fill="#4FC1E9"></path>
                            <path d="M642.322917,49.5872071 L648.29703,67.6043724 C656.933308,64.7729492 660.834575,63.509809 665.641617,62.0117549 L659.952709,43.9020612 C658.352589,44.4179733 657.021774,44.8418073 654.115663,45.7636382 C648.230848,47.6303271 645.576699,48.486128 642.322917,49.5872071 Z" id="Tick-minor-114" stroke="#FFFFFF" stroke-width="0.25" fill="#4FC1E9"></path>
                            <path d="M689.393569,35.1841288 L694.514028,53.3902067 C699.833141,51.9325431 705.279443,50.4934785 712.048057,48.7463452 L707.306828,30.350376 C701.335748,31.8681012 695.364662,33.479352 689.393569,35.1841288 Z" id="Tick-minor-115" stroke="#FFFFFF" stroke-width="0.25" fill="#4FC1E9"></path>
                            <path d="M689.393569,35.1841288 L694.514028,53.3902067 C699.833141,51.9325431 705.279443,50.4934785 712.048057,48.7463452 L707.306828,30.350376 C701.335748,31.8681012 695.364662,33.479352 689.393569,35.1841288 Z" id="Tick-minor-115" stroke="#FFFFFF" stroke-width="0.25" fill="#4FC1E9"></path>
                            <path d="M737.231476,23.1847097 L741.308478,41.6734428 C746.1949,40.5710194 750.208281,39.7236057 759.127228,37.8830155 L755.334338,19.2978587 C752.56283,19.8614943 749.683336,20.4699021 746.283597,21.2060661 C744.925465,21.5001498 743.53089,21.8043771 741.70555,22.2042306 C741.544907,22.2394205 738.363692,22.9369174 737.231476,23.1847097 Z" id="Tick-minor-116" stroke="#FFFFFF" stroke-width="0.25" fill="#4FC1E9"></path>
                            <path d="M785.549463,13.680567 L788.678621,32.455514 C794.435762,31.451762 800.463938,30.5024425 806.687492,29.6122067 L803.937881,10.8389998 C802.292606,11.091904 801.10038,11.270727 797.820736,11.7593042 C791.845596,12.6494363 788.932939,13.1002002 785.549464,13.6805668 Z" id="Tick-minor-117" stroke="#FFFFFF" stroke-width="0.25" fill="#4FC1E9"></path>
                            <path d="M834.34797,6.7721646 L836.528851,25.6415326 C837.187439,25.5694037 840.107788,25.249669 841.00175,25.1521937 C842.743435,24.9622851 844.191864,24.8059003 845.580428,24.6582971 C848.933702,24.3018466 851.83844,24.007697 854.632003,23.7451692 L852.830415,4.87590602 C849.969191,5.14059255 846.974179,5.43744599 843.58908,5.78897553 C841.01071,6.0567293 838.94333,6.27731566 834.34797,6.77216454 Z M834.195974,6.53708739 L834.196,6.53708461 L834.195974,6.53708739 Z" id="Tick-minor-118" stroke="#FFFFFF" stroke-width="0.25" fill="#4FC1E9"></path>
                            <path d="M883.434034,2.45528947 L884.666722,21.4197143 C889.710622,21.1052427 893.803666,20.8974143 902.865051,20.4725182 L902.011655,1.50815226 C896.618771,1.75706929 895.256846,1.82092241 892.722226,1.94668598 C889.28531,2.11722 886.282259,2.28062406 883.434034,2.45528948 Z" id="Tick-minor-119" stroke="#FFFFFF" stroke-width="0.25" fill="#4FC1E9"></path>
                        </g>
                        <g id="Major-tickmarks">
                            <path d="M961,0 C1304.3653,0 1621.5914,183.1666 1793.226,480.5 C1964.8606,777.8334 1964.8606,1144.1666 1793.226,1441.5 C1621.5914,1738.8334 1304.3653,1922 961,1922 C617.6347,1922 300.4086,1738.8334 128.774,1441.5 C-42.8606,1144.1666 -42.8606,777.8334 128.774,480.5 C300.4086,183.1666 617.6347,0 961,0 L961,57.66 C638.2962,57.66 340.0018,229.8712 178.6499,509.33 C17.298,788.7888 17.298,1133.2112 178.6499,1412.67 C340.0018,1692.1288 638.2962,1864.34 961,1864.34 C1283.7038,1864.34 1581.9982,1692.1288 1743.3501,1412.67 C1904.702,1133.2112 1904.702,788.7888 1743.3501,509.33 C1581.9982,229.8712 1283.7038,57.66 961,57.66 L961,0 Z" id="Base-plate" fill-opacity="0.002" fill="#455A64"></path>
                            <path d="M951.51624,0.219241526 L952.090334,57.5330338 C958.060833,57.4395554 963.939167,57.4395554 969.909666,57.5330338 L970.48376,0.219241526 C964.130442,0.125619491 957.869558,0.125619491 951.51624,0.219241526 Z" id="Tick-major-0" stroke="#FFFFFF" stroke-width="0.25" fill="#4FC1E9"></path>
                            <path d="M1200.47498,30.4242129 L1186.21816,86.0162322 C1194.85403,88.2815608 1198.74064,89.321154 1203.46967,90.660019 L1218.87462,35.3552835 C1213.82726,33.9366677 1209.68554,32.833302 1200.47498,30.424213 Z" id="Tick-major-5" stroke="#FFFFFF" stroke-width="0.25" fill="#4FC1E9"></path>
                            <path d="M1433.18653,124.139692 L1404.9601,174.181808 C1410.57116,177.345197 1415.59151,180.237102 1420.41007,183.091323 L1449.59373,133.622638 C1445.09853,130.94248 1441.40469,128.815757 1433.18653,124.139692 Z" id="Tick-major-10" stroke="#FFFFFF" stroke-width="0.25" fill="#4FC1E9"></path>
                            <path d="M1633.70176,274.926577 L1593.51492,315.878878 C1597.77909,320.049568 1601.95043,324.22091 1606.12112,328.48508 L1647.07342,288.298243 C1642.6168,283.747994 1638.25201,279.383202 1633.70176,274.926577 Z" id="Tick-major-15" stroke="#FFFFFF" stroke-width="0.25" fill="#4FC1E9"></path>
                            <path d="M1788.37736,472.406275 L1738.90868,501.589929 C1741.7629,506.408488 1744.6548,511.428843 1747.81819,517.039898 L1797.86031,488.813466 C1793.18424,480.595311 1791.05752,476.901473 1788.37736,472.406275 Z" id="Tick-major-20" stroke="#FFFFFF" stroke-width="0.25" fill="#4FC1E9"></path>
                            <path d="M1886.64472,703.125376 L1831.33998,718.530329 C1832.67885,723.259357 1833.71844,727.145971 1835.98377,735.781836 L1891.57579,721.525019 C1889.1667,712.314462 1888.06333,708.172738 1886.64472,703.125377 Z" id="Tick-major-25" stroke="#FFFFFF" stroke-width="0.25" fill="#4FC1E9"></path>
                            <path d="M1921.78076,951.51624 L1864.46697,952.090334 C1864.56044,958.060833 1864.56044,963.939167 1864.46697,969.909666 L1921.78076,970.48376 C1921.87438,964.130442 1921.87438,957.869558 1921.78076,951.51624 Z" id="Tick-major-30" stroke="#FFFFFF" stroke-width="0.25" fill="#4FC1E9"></path>
                            <path d="M1891.57579,1200.47498 L1835.98377,1186.21816 C1833.71844,1194.85403 1832.67885,1198.74064 1831.33998,1203.46967 L1886.64472,1218.87462 C1888.06333,1213.82726 1889.1667,1209.68554 1891.57579,1200.47498 Z" id="Tick-major-35" stroke="#FFFFFF" stroke-width="0.25" fill="#4FC1E9"></path>
                            <path d="M1797.86031,1433.18653 L1747.81819,1404.9601 C1744.6548,1410.57116 1741.7629,1415.59151 1738.90868,1420.41007 L1788.37736,1449.59373 C1791.05752,1445.09853 1793.18424,1441.40469 1797.86031,1433.18653 Z" id="Tick-major-40" stroke="#FFFFFF" stroke-width="0.25" fill="#4FC1E9"></path>
                            <path d="M1647.07342,1633.70176 L1606.12112,1593.51492 C1601.95043,1597.77909 1597.77909,1601.95043 1593.51492,1606.12112 L1633.70176,1647.07342 C1638.25201,1642.6168 1642.6168,1638.25201 1647.07342,1633.70176 Z" id="Tick-major-45" stroke="#FFFFFF" stroke-width="0.25" fill="#4FC1E9"></path>
                            <path d="M1449.59373,1788.37736 L1420.41007,1738.90868 C1415.59151,1741.7629 1410.57116,1744.6548 1404.9601,1747.81819 L1433.18653,1797.86031 C1441.40469,1793.18424 1445.09853,1791.05752 1449.59373,1788.37736 Z" id="Tick-major-50" stroke="#FFFFFF" stroke-width="0.25" fill="#4FC1E9"></path>
                            <path d="M1218.87462,1886.64472 L1203.46967,1831.33998 C1198.74064,1832.67885 1194.85403,1833.71844 1186.21816,1835.98377 L1200.47498,1891.57579 C1209.68554,1889.1667 1213.82726,1888.06333 1218.87462,1886.64472 Z" id="Tick-major-55" stroke="#FFFFFF" stroke-width="0.25" fill="#4FC1E9"></path>
                            <path d="M970.48376,1921.78076 L969.909666,1864.46697 C963.939167,1864.56044 958.060833,1864.56044 952.090334,1864.46697 L951.51624,1921.78076 C957.869558,1921.87438 964.130442,1921.87438 970.48376,1921.78076 Z" id="Tick-major-60" stroke="#FFFFFF" stroke-width="0.25" fill="#4FC1E9"></path>
                            <path d="M721.525019,1891.57579 L735.781836,1835.98377 C727.14597,1833.71844 723.259356,1832.67885 718.530329,1831.33998 L703.125376,1886.64472 C708.172738,1888.06333 712.314462,1889.1667 721.525019,1891.57579 Z" id="Tick-major-65" stroke="#FFFFFF" stroke-width="0.25" fill="#4FC1E9"></path>
                            <path d="M488.813466,1797.86031 L517.039898,1747.81819 C511.428843,1744.6548 506.408488,1741.7629 501.589929,1738.90868 L472.406275,1788.37736 C476.901473,1791.05752 480.595311,1793.18424 488.813466,1797.86031 Z" id="Tick-major-70" stroke="#FFFFFF" stroke-width="0.25" fill="#4FC1E9"></path>
                            <path d="M288.298243,1647.07342 L328.48508,1606.12112 C324.22091,1601.95043 320.049568,1597.77909 315.878878,1593.51492 L274.926577,1633.70176 C279.383202,1638.25201 283.747994,1642.6168 288.298243,1647.07342 Z" id="Tick-major-75" stroke="#FFFFFF" stroke-width="0.25" fill="#4FC1E9"></path>
                            <path d="M133.622637,1449.59373 L183.091323,1420.41007 C180.237102,1415.59151 177.345197,1410.57116 174.181808,1404.9601 L124.139692,1433.18653 C128.815757,1441.40469 130.94248,1445.09853 133.622638,1449.59373 Z" id="Tick-major-80" stroke="#FFFFFF" stroke-width="0.25" fill="#4FC1E9"></path>
                            <path d="M35.3552835,1218.87462 L90.6600195,1203.46967 C89.3211541,1198.74064 88.2815608,1194.85403 86.0162322,1186.21816 L30.4242129,1200.47498 C32.833302,1209.68554 33.9366677,1213.82726 35.3552831,1218.87462 Z" id="Tick-major-85" stroke="#FFFFFF" stroke-width="0.25" fill="#4FC1E9"></path>
                            <path d="M0.219241526,970.48376 L57.5330338,969.909666 C57.4395554,963.939167 57.4395554,958.060833 57.5330338,952.090334 L0.219241526,951.51624 C0.125619491,957.869558 0.125619491,964.130442 0.219241526,970.48376 Z" id="Tick-major-90" stroke="#FFFFFF" stroke-width="0.25" fill="#4FC1E9"></path>
                            <path d="M30.4242129,721.525019 L86.0162322,735.781836 C88.2815608,727.145971 89.321154,723.259357 90.660019,718.53033 L35.3552835,703.125376 C33.9366713,708.172725 32.8333075,712.314441 30.424213,721.525019 Z M30.1505771,721.583235 L30.1505865,721.583199 L30.1505771,721.583235 Z" id="Tick-major-95" stroke="#FFFFFF" stroke-width="0.25" fill="#4FC1E9"></path>
                            <path d="M124.139692,488.813466 L174.181808,517.039898 C177.345197,511.428843 180.237102,506.408488 183.091323,501.589929 L133.622637,472.406275 C130.94248,476.901473 128.815757,480.595311 124.139692,488.813466 Z" id="Tick-major-100" stroke="#FFFFFF" stroke-width="0.25" fill="#4FC1E9"></path>
                            <path d="M274.926577,288.298243 L315.878878,328.48508 C320.049568,324.22091 324.22091,320.049568 328.48508,315.878878 L288.298243,274.926577 C283.747994,279.383202 279.383202,283.747994 274.926577,288.298243 Z" id="Tick-major-105" stroke="#FFFFFF" stroke-width="0.25" fill="#4FC1E9"></path>
                            <path d="M472.406275,133.622638 L501.589929,183.091323 C506.408488,180.237102 511.428843,177.345197 517.039898,174.181808 L488.813466,124.139692 C480.595311,128.815757 476.901473,130.94248 472.406275,133.622638 Z" id="Tick-major-110" stroke="#FFFFFF" stroke-width="0.25" fill="#4FC1E9"></path>
                            <path d="M703.125376,35.3552835 L718.530329,90.6600195 C723.259357,89.3211541 727.145971,88.2815608 735.781836,86.0162322 L721.525019,30.4242129 C712.314462,32.833302 708.172738,33.9366677 703.125377,35.3552831 Z" id="Tick-major-115" stroke="#FFFFFF" stroke-width="0.25" fill="#4FC1E9"></path>
                        </g>
                    </g>
                </g>
            </g>
        </g>
    </g>
</svg>