<svg width="3007px" height="2160px" viewBox="0 0 3007 2160" version="1.1" xmlns="http://www.w3.org/2000/svg" xmlns:xlink="http://www.w3.org/1999/xlink">
	<defs>
		<rect id="path-1" x="0" y="0" width="3008" height="2160"></rect>
	</defs>
	<g id="Page-1" stroke="none" stroke-width="1" fill="none" fill-rule="evenodd">
		<g id="Mid" transform="translate(-416.000000, 0.000000)">
			<g id="areaMid" transform="translate(0.000000, -9059.000000)">
				<g id="circle_bg" transform="translate(416.000000, 9059.000000)">
					<mask id="mask-2" fill="white">
						<use xlink:href="#path-1"></use>
					</mask>
					<g id="Mask"></g>
					<g opacity="0.2" mask="url(#mask-2)">
						<g transform="translate(-1.000000, -298.000000)">
							<circle id="Oval" stroke="#4FC1E9" stroke-width="13" fill="none" cx="1505" cy="1378" r="1378"></circle>
							<path d="M2812.46328,1055.40578 C2839.53545,1164.53361 2853.07153,1272.06502 2853.07153,1378 C2853.07153,1483.93498 2839.53545,1597.62458 2812.46328,1719.06879" id="Path-25" stroke="#4FC1E9" stroke-width="18" fill="none"></path>
							<path d="M201.835304,1074.56885 C193.590957,1100.51261 186.290641,1129.15325 179.934355,1160.49078 C164.383837,1237.15737 162.727964,1377.63254 162.727964,1426.53133 C162.727964,1505.41124 183.235309,1622.73206 224.25,1778.4938" id="Path-26" stroke="#4FC1E9" stroke-width="18" fill="none"></path>
							<path d="M0,591.349349 C537.279593,328.884496 1320.44011,226.329939 2054.46698,322.442366 C2415.20577,369.615384 2744.0396,462.40284 3008,591.349349 L2978.00933,606 C2451.36473,348.730413 1683.944,248.357868 964.59341,342.496093 C611.086409,388.733964 288.633574,479.651124 29.9906661,606 L0,591.349349 Z" id="Segment-1" stroke="none" fill="#99E7FE" fill-rule="evenodd" transform="translate(1504.000000, 446.500000) rotate(-180.000000) translate(-1504.000000, -446.500000) "></path>
							<path d="M0,2461.34935 C537.279593,2198.8845 1320.44011,2096.32994 2054.46698,2192.44237 C2415.20577,2239.61538 2744.0396,2332.40284 3008,2461.34935 L2978.00933,2476 C2451.36473,2218.73041 1683.944,2118.35787 964.59341,2212.49609 C611.086409,2258.73396 288.633574,2349.65112 29.9906661,2476 L0,2461.34935 Z" id="Segment-1-Copy-11" stroke="none" fill="#99E7FE" fill-rule="evenodd"></path>
						</g>
					</g>
				</g>
			</g>
		</g>
	</g>
</svg>