<svg width="815px" height="228px" viewBox="0 0 815 228" version="1.1" xmlns="http://www.w3.org/2000/svg" xmlns:xlink="http://www.w3.org/1999/xlink">
	<defs>
		<filter x="-4.3%" y="-19.3%" width="108.7%" height="138.5%" filterUnits="objectBoundingBox" id="filter-1">
			<feGaussianBlur stdDeviation="10" in="SourceGraphic"></feGaussianBlur>
		</filter>
		<filter x="-4.3%" y="-19.3%" width="108.7%" height="138.5%" filterUnits="objectBoundingBox" id="filter-2">
			<feGaussianBlur stdDeviation="10" in="SourceGraphic"></feGaussianBlur>
		</filter>
	</defs>
	<g id="Page-1" stroke="none" stroke-width="1" fill="none" fill-rule="evenodd">
		<g id="Mid" transform="translate(-2901.000000, -288.000000)">
			<g id="areaMid" transform="translate(0.000000, -298.000000)">
				<g id="chartCL1" transform="translate(2920.000000, 440.000000)">
					<g id="frame_chart_nec" transform="translate(6.000000, 171.000000)">
						<g id="frame1_nec">
							<polygon id="Path-46" stroke="#4FC1E9" stroke-width="6" filter="url(#filter-1)" points="3.12769828 21.8179537 3.12769828 153.206884 319.286877 153.206884 352.767293 174.797881 713.676645 174.797881 762.014666 121.525809 762.014666 3.50660252 25.0242821 3.50660252"></polygon>
							<polygon id="Path-46-Copy-4" stroke="#4FC1E9" stroke-width="6" filter="url(#filter-2)" points="3.12769828 21.8179537 3.12769828 153.206884 319.286877 153.206884 352.767293 174.797881 713.676645 174.797881 762.014666 121.525809 762.014666 3.50660252 25.0242821 3.50660252"></polygon>
							<polygon id="Path-46-Copy" stroke="#4FC1E9" stroke-width="6" fill-opacity="0.1" fill="#4FC1E9" points="3.12769828 21.8179537 3.12769828 153.206884 319.286877 153.206884 352.767293 174.797881 713.676645 174.797881 762.014666 121.525809 762.014666 3.50660252 25.0242821 3.50660252"></polygon>
							<polyline id="Path-47" stroke="#4FC1E9" stroke-width="14" points="0.931920428 125.687914 0.931920428 158.109812 50.9860018 158.109812"></polyline>
							<polyline id="Path-48" stroke="#4FC1E9" stroke-width="14" points="715.862377 0.940129092 763.938064 0.940129092 763.938064 29.9796962"></polyline>
							<polygon id="Path-49" fill="#4FC1E9" points="762.400834 137.544812 726.504721 175.912565 744.452778 175.912565 762.400834 156.728689"></polygon>
						</g>
					</g>
				</g>
			</g>
		</g>
	</g>
</svg>