<svg width="3806px" height="1862px" viewBox="0 0 3806 1862" version="1.1" xmlns="http://www.w3.org/2000/svg" xmlns:xlink="http://www.w3.org/1999/xlink">

	<defs>
		<filter x="-44.8%" y="-1.7%" width="189.6%" height="103.3%" filterUnits="objectBoundingBox" id="filter-1">
			<feGaussianBlur stdDeviation="10" in="SourceGraphic"></feGaussianBlur>
		</filter>
		<filter x="-44.8%" y="-1.7%" width="189.6%" height="103.3%" filterUnits="objectBoundingBox" id="filter-2">
			<feGaussianBlur stdDeviation="10" in="SourceGraphic"></feGaussianBlur>
		</filter>
	</defs>
	<g id="Page-1" stroke="none" stroke-width="1" fill="none" fill-rule="evenodd">
		<g id="Mid" transform="translate(-17.000000, -206.000000)">
			<g id="areaMid" transform="translate(0.000000, -298.000000)">
				<g id="frameMid" transform="translate(42.000000, 529.000000)">
					<path d="M3723.8018,0 L3756,0 L3756,22.4823683 L3723.8018,50.8429789 L3723.8018,1754.29907 L3756,1788.84329 L3756,1812 L3723.8018,1812 L3689,1754.29907 L3689,1511.20449 L3707.82776,1441.5435 L3707.82776,1148.87828 L3689,1112.26014 L3689,650.258289 L3707.82776,604.873678 L3707.82776,311.432331 L3689,260.831098 L3689,22.4823683 L3723.8018,0 Z M3698.88767,51.203301 C3698.88767,61.7264568 3698.88767,66.9880347 3698.88767,66.9880347 C3698.88767,66.9880347 3703.6801,62.7177111 3713.26495,54.1770639 L3713.26495,38.7283655 L3698.88767,51.203301 Z M3698.88767,81.632731 C3698.88767,92.1558868 3698.88767,97.4174647 3698.88767,97.4174647 C3698.88767,97.4174647 3703.6801,93.1471411 3713.26495,84.6064939 L3713.26495,69.1577955 L3698.88767,81.632731 Z M3698.88767,109.295849 C3698.88767,119.819005 3698.88767,125.080583 3698.88767,125.080583 C3698.88767,125.080583 3703.6801,120.810259 3713.26495,112.269612 L3713.26495,96.8209136 L3698.88767,109.295849 Z M3698.88767,1678.33814 L3713.26495,1690.81307 L3713.26495,1675.36437 C3703.6801,1666.82373 3698.88767,1662.5534 3698.88767,1662.5534 C3698.88767,1662.5534 3698.88767,1667.81498 3698.88767,1678.33814 Z M3698.88767,1708.76757 L3713.26495,1721.2425 L3713.26495,1705.7938 C3703.6801,1697.25316 3698.88767,1692.98283 3698.88767,1692.98283 C3698.88767,1692.98283 3698.88767,1698.24441 3698.88767,1708.76757 Z M3698.88767,1739.197 L3713.26495,1751.67193 L3713.26495,1736.22323 C3703.6801,1727.68259 3698.88767,1723.41226 3698.88767,1723.41226 C3698.88767,1723.41226 3698.88767,1728.67384 3698.88767,1739.197 Z" id="shadowR" fill="#4FC0E9" filter="url(#filter-1)" transform="translate(3722.500000, 906.000000) scale(-1, 1) translate(-3722.500000, -906.000000) "></path>
					<path d="M3723.8018,0 L3756,0 L3756,22.4823683 L3723.8018,50.8429789 L3723.8018,1754.29907 L3756,1788.84329 L3756,1812 L3723.8018,1812 L3689,1754.29907 L3689,1511.20449 L3707.82776,1441.5435 L3707.82776,1148.87828 L3689,1112.26014 L3689,650.258289 L3707.82776,604.873678 L3707.82776,311.432331 L3689,260.831098 L3689,22.4823683 L3723.8018,0 Z M3698.88767,51.203301 C3698.88767,61.7264568 3698.88767,66.9880347 3698.88767,66.9880347 C3698.88767,66.9880347 3703.6801,62.7177111 3713.26495,54.1770639 L3713.26495,38.7283655 L3698.88767,51.203301 Z M3698.88767,81.632731 C3698.88767,92.1558868 3698.88767,97.4174647 3698.88767,97.4174647 C3698.88767,97.4174647 3703.6801,93.1471411 3713.26495,84.6064939 L3713.26495,69.1577955 L3698.88767,81.632731 Z M3698.88767,109.295849 C3698.88767,119.819005 3698.88767,125.080583 3698.88767,125.080583 C3698.88767,125.080583 3703.6801,120.810259 3713.26495,112.269612 L3713.26495,96.8209136 L3698.88767,109.295849 Z M3698.88767,1678.33814 L3713.26495,1690.81307 L3713.26495,1675.36437 C3703.6801,1666.82373 3698.88767,1662.5534 3698.88767,1662.5534 C3698.88767,1662.5534 3698.88767,1667.81498 3698.88767,1678.33814 Z M3698.88767,1708.76757 L3713.26495,1721.2425 L3713.26495,1705.7938 C3703.6801,1697.25316 3698.88767,1692.98283 3698.88767,1692.98283 C3698.88767,1692.98283 3698.88767,1698.24441 3698.88767,1708.76757 Z M3698.88767,1739.197 L3713.26495,1751.67193 L3713.26495,1736.22323 C3703.6801,1727.68259 3698.88767,1723.41226 3698.88767,1723.41226 C3698.88767,1723.41226 3698.88767,1728.67384 3698.88767,1739.197 Z" id="right" fill="#4FC0E9" transform="translate(3722.500000, 906.000000) scale(-1, 1) translate(-3722.500000, -906.000000) "></path>
					<path d="M34.8017987,0 L67,0 L67,22.4823683 L34.8017987,50.8429789 L34.8017987,1754.29907 L67,1788.84329 L67,1812 L34.8017987,1812 L0,1754.29907 L0,1511.20449 L18.8277618,1441.5435 L18.8277618,1148.87828 L0,1112.26014 L0,650.258289 L18.8277618,604.873678 L18.8277618,311.432331 L0,260.831098 L0,22.4823683 L34.8017987,0 Z M10,51.3603073 C10,61.7867691 10,67 10,67 C10,67 14.6666667,62.7689151 24,54.3067452 L24,39 L10,51.3603073 Z M10,81.3603073 C10,91.7867691 10,97 10,97 C10,97 14.6666667,92.7689151 24,84.3067452 L24,69 L10,81.3603073 Z M10,109.360307 C10,119.786769 10,125 10,125 C10,125 14.6666667,120.768915 24,112.306745 L24,97 L10,109.360307 Z M10,1678.63969 L24,1691 L24,1675.69325 C14.6666667,1667.23108 10,1663 10,1663 C10,1663 10,1668.21323 10,1678.63969 Z M10,1708.63969 L24,1721 L24,1705.69325 C14.6666667,1697.23108 10,1693 10,1693 C10,1693 10,1698.21323 10,1708.63969 Z M10,1738.63969 L24,1751 L24,1735.69325 C14.6666667,1727.23108 10,1723 10,1723 C10,1723 10,1728.21323 10,1738.63969 Z" id="shadowL" fill="#4FC0E9" filter="url(#filter-2)"></path>
					<path d="M34.8017987,0 L67,0 L67,22.4823683 L34.8017987,50.8429789 L34.8017987,1754.29907 L67,1788.84329 L67,1812 L34.8017987,1812 L0,1754.29907 L0,1511.20449 L18.8277618,1441.5435 L18.8277618,1148.87828 L0,1112.26014 L0,650.258289 L18.8277618,604.873678 L18.8277618,311.432331 L0,260.831098 L0,22.4823683 L34.8017987,0 Z M10,51.3603073 C10,61.7867691 10,67 10,67 C10,67 14.6666667,62.7689151 24,54.3067452 L24,39 L10,51.3603073 Z M10,81.3603073 C10,91.7867691 10,97 10,97 C10,97 14.6666667,92.7689151 24,84.3067452 L24,69 L10,81.3603073 Z M10,109.360307 C10,119.786769 10,125 10,125 C10,125 14.6666667,120.768915 24,112.306745 L24,97 L10,109.360307 Z M10,1678.63969 L24,1691 L24,1675.69325 C14.6666667,1667.23108 10,1663 10,1663 C10,1663 10,1668.21323 10,1678.63969 Z M10,1708.63969 L24,1721 L24,1705.69325 C14.6666667,1697.23108 10,1693 10,1693 C10,1693 10,1698.21323 10,1708.63969 Z M10,1738.63969 L24,1751 L24,1735.69325 C14.6666667,1727.23108 10,1723 10,1723 C10,1723 10,1728.21323 10,1738.63969 Z" id="left" fill="#4FC1E9"></path>
					<rect id="Rectangle-5" fill-opacity="0.1" fill="#4FC1E9" x="17" y="19" width="3714" height="1773"></rect>
				</g>
			</g>
		</g>
	</g>
</svg>