
<svg width="495px" height="565px" viewBox="0 0 495 565" version="1.1" xmlns="http://www.w3.org/2000/svg" xmlns:xlink="http://www.w3.org/1999/xlink">
    <defs></defs>
    <g id="Page-1" stroke="none" stroke-width="1" fill="none" fill-rule="evenodd">
        <g id="Mid" transform="translate(-201.000000, -363.000000)">
            <g id="areaMid" transform="translate(0.000000, -298.000000)">
                <g id="chartCR1" transform="translate(105.000000, 439.000000)">
                    <g id="Group-2" transform="translate(4.000000, 137.000000)">
                        <g id="pchart_in">
                            <g id="cirlcle_ot" opacity="0.2" transform="translate(369.071428, 372.754356) rotate(23.000000) translate(-369.071428, -372.754356) translate(90.071428, 86.254356)" stroke="#51C1E9" stroke-width="6">
                                <path d="M164.228398,27.7445986 L196.955642,107.504425 C248.34591,86.8719985 305.654873,86.8719985 357.045142,107.504425 L389.772385,27.7445986 C317.4277,-1.66630289 236.573083,-1.66630289 164.228398,27.7445986 Z" id="Segment-1" transform="translate(277.000392, 57.051717) rotate(1.000000) translate(-277.000392, -57.051717) "></path>
                                <path d="M323.99469,411.736305 L356.721933,491.496132 C408.112201,470.863705 465.421165,470.863705 516.811433,491.496132 L549.538677,411.736305 C477.193992,382.325404 396.339374,382.325404 323.99469,411.736305 Z" id="Segment-1-Copy" transform="translate(436.766683, 441.043424) rotate(135.000000) translate(-436.766683, -441.043424) "></path>
                                <path d="M24.3129471,426.054465 L57.0401908,505.814292 C108.430459,485.181865 165.739423,485.181865 217.129691,505.814292 L249.856934,426.054465 C177.51225,396.643564 96.6576319,396.643564 24.3129471,426.054465 Z" id="Segment-1-Copy-2" transform="translate(137.084941, 455.361584) rotate(221.000000) translate(-137.084941, -455.361584) "></path>
                                <path d="M-58.3187653,246.14785 L-25.5915215,325.907676 C25.7987466,305.275249 83.1077102,305.275249 134.497978,325.907676 L167.225222,246.14785 C94.8805372,216.736948 14.0259196,216.736948 -58.3187653,246.14785 Z" id="Segment-1-Copy-3" transform="translate(54.453228, 275.454968) rotate(270.000000) translate(-54.453228, -275.454968) "></path>
                            </g>
                            <g id="circle_md" opacity="0.4" transform="translate(65.011885, 53.541710)">
                                <g id="circle_mid_u">
                                    <g id="Segments-circle" transform="translate(304.936250, 304.568368) rotate(-315.000000) translate(-304.936250, -304.568368) translate(89.436250, 89.568368)">
                                        <path d="M215.259208,0 C292.175169,0 363.235786,40.9625699 401.683003,107.456899 C440.13022,173.951228 440.13022,255.876368 401.683003,322.370697 C363.235786,388.865026 292.175169,429.827596 215.259208,429.827596 C138.343247,429.827596 67.2826295,388.865026 28.8354127,322.370697 C-9.61180422,255.876368 -9.61180422,173.951228 28.8354127,107.456899 C67.2826295,40.9625699 138.343247,0 215.259208,0 L215.259208,4.29827596 C139.893191,4.29827596 70.2533552,44.4441734 32.5595832,109.606037 C-5.13418882,174.767901 -5.13418882,255.059696 32.5595832,320.221559 C70.2533552,385.383423 139.893191,425.52932 215.259208,425.52932 C290.625225,425.52932 360.265061,385.383423 397.958833,320.221559 C435.652605,255.059696 435.652605,174.767901 397.958833,109.606037 C360.265061,44.4441734 290.625225,4.29827596 215.259208,4.29827596 L215.259208,0 Z" id="Base-plate" fill="#51C1E9"></path>
                                        <path d="M0,214.913798 C0,138.121258 41.028405,67.1746663 107.629604,28.7891427 C174.230803,-9.5963809 256.287613,-9.5963809 322.888812,28.7891427 C389.490011,67.1746663 430.518416,138.121258 430.518416,214.913798 L426.213232,214.913798 C426.213232,139.668715 386.002812,70.140625 320.73622,32.5073373 C255.469628,-5.12595038 175.048788,-5.12595038 109.782196,32.5073373 C44.5156042,70.140625 4.30518416,139.668715 4.30518416,214.913798 L0,214.913798 Z" id="Segment-1" fill="#57B9E3"></path>
                                    </g>
                                    <ellipse id="Oval-7" fill="#4FBFE7" cx="241.898703" cy="100.472428" rx="14.1263855" ry="14.103718"></ellipse>
                                    <ellipse id="Oval-7-Copy-3" fill="#4FBFE7" cx="454.467171" cy="460.45304" rx="14.1263855" ry="14.103718"></ellipse>
                                    <ellipse id="Oval-7-Copy-2" fill="#4FBFE7" cx="158.48576" cy="148.828032" rx="14.1263855" ry="14.103718"></ellipse>
                                    <ellipse id="Oval-7-Copy" fill="#4FBFE7" cx="270.151474" cy="95.0995829" rx="14.1263855" ry="14.103718"></ellipse>
                                    <ellipse id="Oval-7-Copy-5" fill="#4FBFE7" cx="493.482902" cy="207.929327" rx="14.1263855" ry="14.103718"></ellipse>
                                    <ellipse id="Oval-7-Copy-4" fill="#4FBFE7" cx="506.936603" cy="234.793552" rx="14.1263855" ry="14.103718"></ellipse>
                                    <ellipse id="Oval-7-Copy-8" fill="#4FBFE7" cx="403.343109" cy="113.90454" rx="14.1263855" ry="14.103718"></ellipse>
                                    <ellipse id="Oval-7-Copy-7" fill="#4FBFE7" cx="426.2144" cy="128.679864" rx="14.1263855" ry="14.103718"></ellipse>
                                </g>
                                <path d="M136.228985,200.024416 C136.944299,199.211803 137.86615,198.607865 138.896825,198.276618 C142.051607,197.262705 145.431003,198.998223 146.444915,202.153006 L157.371638,236.151446 C157.980954,238.047328 157.609921,240.121995 156.381275,241.689178 C150.722743,248.90682 146.404979,254.973672 143.427983,259.889732 C141.038801,263.835105 138.048207,269.458464 134.456199,276.759809 C134.006772,277.673343 133.332277,278.457492 132.496202,279.038447 C129.774953,280.929335 126.036078,280.256194 124.14519,277.534945 L108.223372,254.621253 C107.22482,253.184198 106.903402,251.382819 107.343331,249.689097 C109.246966,242.360156 113.693078,233.004999 120.681666,221.623626 C126.010625,212.945068 131.193065,205.745332 136.228985,200.024416 Z M199.040742,145.761994 C199.99976,145.2597 201.076814,145.026237 202.15774,145.086352 C205.466337,145.270356 207.99932,148.101669 207.815316,151.410266 L205.83234,187.066331 C205.721761,189.054649 204.631879,190.858551 202.923211,191.881335 C195.053944,196.591748 188.848799,200.708294 184.307775,204.230971 C180.663387,207.058088 175.856195,211.236212 169.886198,216.765345 C169.139241,217.457142 168.228532,217.947491 167.239793,218.190237 C164.021655,218.980325 160.772346,217.012 159.982259,213.793862 L153.329494,186.696218 C152.91226,184.996763 153.257746,183.199845 154.275431,181.776275 C158.679085,175.616321 166.182476,168.475874 176.785605,160.354933 C184.870734,154.162529 192.289113,149.298216 199.040742,145.761994 Z M306.762816,566.718022 C305.683346,566.635789 304.646237,566.263025 303.761415,565.639241 C301.053073,563.729907 300.405349,559.986542 302.314682,557.2782 L322.891178,528.090958 C324.038601,526.463367 325.918797,525.511121 327.909822,525.549208 C337.079477,525.724626 344.523176,525.521823 350.240917,524.9408 C354.829677,524.4745 361.120476,523.478673 369.113314,521.953319 C370.113367,521.762469 371.145537,521.829232 372.112671,522.147323 C375.260489,523.182645 376.973007,526.57375 375.937685,529.721568 L367.219986,556.227102 C366.673247,557.889422 365.428036,559.230215 363.810613,559.89818 C356.811825,562.788536 346.664728,564.867787 333.369321,566.135933 C323.231269,567.102924 314.362434,567.296953 306.762816,566.718022 Z M225.547074,549.350918 C224.568773,548.8873 223.734134,548.167628 223.131626,547.268184 C221.287415,544.515085 222.024215,540.788228 224.777314,538.944017 L254.446899,519.069336 C256.101388,517.961048 258.197956,517.745852 260.04309,518.494929 C268.540836,521.944807 275.562805,524.423057 281.108996,525.92968 C285.56008,527.138816 291.789919,528.463552 299.798514,529.903889 C300.800538,530.084101 301.740227,530.516327 302.52913,531.15988 C305.096846,533.254513 305.480355,537.034094 303.385722,539.60181 L285.748315,561.222713 C284.642168,562.578689 282.999166,563.384183 281.249795,563.42815 C273.680052,563.618388 263.461784,561.923142 250.594989,558.342411 C240.783764,555.612022 232.434459,552.614857 225.547074,549.350918 Z M156.047286,503.862174 C155.300109,503.078757 154.778814,502.107778 154.538656,501.052155 C153.80356,497.821009 155.827007,494.605734 159.058153,493.870637 L193.879546,485.948653 C195.821319,485.506893 197.855753,486.057332 199.309889,487.417892 C206.006892,493.683951 211.67434,498.514045 216.312231,501.908176 C220.034359,504.632128 225.375672,508.101451 232.336169,512.316144 C233.207057,512.843481 233.929436,513.583752 234.435312,514.467279 C236.081832,517.342974 235.085388,521.008954 232.209692,522.655474 L207.995516,536.519644 C206.4769,537.389149 204.654362,537.552344 203.005427,536.966471 C195.870288,534.431321 186.938235,529.186773 176.209266,521.232825 C168.028183,515.167759 161.307523,509.377542 156.047286,503.862174 Z M107.649704,436.363368 C107.232905,435.364221 107.094202,434.270919 107.248297,433.199345 C107.719964,429.919375 110.761267,427.642796 114.041236,428.114463 L149.388792,433.197525 C151.359906,433.480975 153.061954,434.723931 153.931926,436.515239 C157.938563,444.7651 161.49863,451.305413 164.612126,456.136178 C167.110855,460.013098 170.854107,465.166145 175.841879,471.59532 C176.465943,472.399729 176.875052,473.349709 177.0307,474.355842 C177.537302,477.630595 175.293272,480.695989 172.018519,481.20259 L144.444163,485.468324 C142.71481,485.735853 140.954841,485.235069 139.625386,484.097185 C133.872676,479.173413 127.413364,471.076243 120.247449,459.805676 C114.783275,451.21161 110.584026,443.397507 107.649704,436.363368 Z M87.4519397,355.524242 C87.4397778,354.441713 87.7207331,353.376062 88.265026,352.440241 C89.9310464,349.575796 93.6037147,348.60428 96.46816,350.270301 L127.337695,368.224661 C129.059097,369.225864 130.171589,371.015911 130.307177,373.002679 C130.931614,382.15273 131.782406,389.550427 132.859553,395.195771 C133.724015,399.726429 135.264332,405.906498 137.480503,413.735977 C137.757787,414.715591 137.781238,415.749652 137.548648,416.740829 C136.791617,419.966903 133.562672,421.968458 130.336598,421.211427 L103.172128,414.837011 C101.468482,414.437233 100.024264,413.313618 99.2178733,411.760567 C95.7285315,405.040323 92.7728147,395.113057 90.3507228,381.978769 C88.5038224,371.963575 87.5375613,363.145399 87.4519397,355.524242 Z M97.2903581,273.240281 C97.6669475,272.225295 98.3111371,271.331109 99.1546466,270.652502 C101.736536,268.57536 105.513427,268.984539 107.590569,271.566429 L129.975495,299.39092 C131.223764,300.942519 131.620869,303.012353 131.035457,304.915752 C128.339334,313.681838 126.48252,320.89308 125.465013,326.549478 C124.648415,331.089007 123.871686,337.410598 123.134825,345.514251 C123.04263,346.528169 122.693949,347.501953 122.121602,348.343943 C120.258731,351.084448 116.526958,351.79591 113.786454,349.933038 L90.7106232,334.247133 C89.2634,333.263376 88.3177737,331.69683 88.1215068,329.957947 C87.2722458,322.43359 88.0704604,312.106455 90.5161505,298.976541 C92.3810452,288.964681 94.6391144,280.385928 97.2903581,273.240281 Z" id="circle_md_d" fill="#51C1E9" transform="translate(231.845619, 356.060160) rotate(-21.000000) translate(-231.845619, -356.060160) "></path>
                            </g>
                            <g id="circle_in" transform="translate(132.685167, 163.685032)" fill="#BAEEFD" fill-opacity="0.2">
                                <path d="M350.993499,82.669021 C414.829561,146.505083 414.912599,249.92075 351.17897,313.654379 C287.445341,377.388008 184.029674,377.30497 120.193612,313.468908 C56.3575503,249.632846 56.2745122,146.217179 120.008141,82.48355 C183.74177,18.749921 287.157438,18.8329592 350.993499,82.669021 Z M330.7884,103.234701 C278.216172,50.6624733 193.048135,50.5940871 140.560266,103.081957 C88.0723964,155.569826 88.1407825,240.737863 140.713011,293.310091 C193.285239,345.882319 278.453275,345.950705 330.941145,293.462835 C383.429014,240.974966 383.360628,155.806929 330.7884,103.234701 Z" id="Combined-Shape"></path>
                            </g>
                        </g>
                    </g>
                </g>
            </g>
        </g>
    </g>
</svg>