<svg width="939px" height="799px" viewBox="0 0 939 799" version="1.1" xmlns="http://www.w3.org/2000/svg" xmlns:xlink="http://www.w3.org/1999/xlink">
	<!-- Generator: Sketch 51.2 (57519) - http://www.bohemiancoding.com/sketch -->
	<desc>Created with Sketch.</desc>
	<defs>
		<filter x="-38.3%" y="-83.3%" width="176.7%" height="266.7%" filterUnits="objectBoundingBox" id="filter-1">
			<feGaussianBlur stdDeviation="10" in="SourceGraphic"></feGaussianBlur>
		</filter>
		<filter x="-38.3%" y="-83.3%" width="176.7%" height="266.7%" filterUnits="objectBoundingBox" id="filter-2">
			<feGaussianBlur stdDeviation="10" in="SourceGraphic"></feGaussianBlur>
		</filter>
		<filter x="-38.3%" y="-83.3%" width="176.7%" height="266.7%" filterUnits="objectBoundingBox" id="filter-3">
			<feGaussianBlur stdDeviation="10" in="SourceGraphic"></feGaussianBlur>
		</filter>
		<filter x="-38.3%" y="-83.3%" width="176.7%" height="266.7%" filterUnits="objectBoundingBox" id="filter-4">
			<feGaussianBlur stdDeviation="10" in="SourceGraphic"></feGaussianBlur>
		</filter>
		<filter x="-38.3%" y="-83.3%" width="176.7%" height="266.7%" filterUnits="objectBoundingBox" id="filter-5">
			<feGaussianBlur stdDeviation="10" in="SourceGraphic"></feGaussianBlur>
		</filter>
		<filter x="-38.3%" y="-83.3%" width="176.7%" height="266.7%" filterUnits="objectBoundingBox" id="filter-6">
			<feGaussianBlur stdDeviation="10" in="SourceGraphic"></feGaussianBlur>
		</filter>
		<filter x="-38.3%" y="-83.3%" width="176.7%" height="266.7%" filterUnits="objectBoundingBox" id="filter-7">
			<feGaussianBlur stdDeviation="10" in="SourceGraphic"></feGaussianBlur>
		</filter>
		<filter x="-38.3%" y="-83.3%" width="176.7%" height="266.7%" filterUnits="objectBoundingBox" id="filter-8">
			<feGaussianBlur stdDeviation="10" in="SourceGraphic"></feGaussianBlur>
		</filter>
		<filter x="-38.3%" y="-83.3%" width="176.7%" height="266.7%" filterUnits="objectBoundingBox" id="filter-9">
			<feGaussianBlur stdDeviation="10" in="SourceGraphic"></feGaussianBlur>
		</filter>
		<filter x="-38.3%" y="-83.3%" width="176.7%" height="266.7%" filterUnits="objectBoundingBox" id="filter-10">
			<feGaussianBlur stdDeviation="10" in="SourceGraphic"></feGaussianBlur>
		</filter>
		<filter x="-5.5%" y="-5.9%" width="111.0%" height="111.7%" filterUnits="objectBoundingBox" id="filter-11">
			<feGaussianBlur stdDeviation="10" in="SourceGraphic"></feGaussianBlur>
		</filter>
		<filter x="-6.9%" y="-7.8%" width="113.8%" height="115.6%" filterUnits="objectBoundingBox" id="filter-12">
			<feGaussianBlur stdDeviation="10" in="SourceGraphic"></feGaussianBlur>
		</filter>
		<filter x="-168.3%" y="-168.4%" width="436.7%" height="436.9%" filterUnits="objectBoundingBox" id="filter-13">
			<feGaussianBlur stdDeviation="10" in="SourceGraphic"></feGaussianBlur>
		</filter>
		<filter x="-168.3%" y="-168.4%" width="436.7%" height="436.9%" filterUnits="objectBoundingBox" id="filter-14">
			<feGaussianBlur stdDeviation="10" in="SourceGraphic"></feGaussianBlur>
		</filter>
		<filter x="-168.3%" y="-168.4%" width="436.7%" height="436.9%" filterUnits="objectBoundingBox" id="filter-15">
			<feGaussianBlur stdDeviation="10" in="SourceGraphic"></feGaussianBlur>
		</filter>
		<filter x="-168.3%" y="-168.4%" width="436.7%" height="436.9%" filterUnits="objectBoundingBox" id="filter-16">
			<feGaussianBlur stdDeviation="10" in="SourceGraphic"></feGaussianBlur>
		</filter>
		<filter x="-168.3%" y="-168.4%" width="436.7%" height="436.9%" filterUnits="objectBoundingBox" id="filter-17">
			<feGaussianBlur stdDeviation="10" in="SourceGraphic"></feGaussianBlur>
		</filter>
		<filter x="-168.3%" y="-168.4%" width="436.7%" height="436.9%" filterUnits="objectBoundingBox" id="filter-18">
			<feGaussianBlur stdDeviation="10" in="SourceGraphic"></feGaussianBlur>
		</filter>
		<filter x="-168.3%" y="-168.4%" width="436.7%" height="436.9%" filterUnits="objectBoundingBox" id="filter-19">
			<feGaussianBlur stdDeviation="10" in="SourceGraphic"></feGaussianBlur>
		</filter>
		<filter x="-168.3%" y="-168.4%" width="436.7%" height="436.9%" filterUnits="objectBoundingBox" id="filter-20">
			<feGaussianBlur stdDeviation="10" in="SourceGraphic"></feGaussianBlur>
		</filter>
		<filter x="-168.3%" y="-168.4%" width="436.7%" height="436.9%" filterUnits="objectBoundingBox" id="filter-21">
			<feGaussianBlur stdDeviation="10" in="SourceGraphic"></feGaussianBlur>
		</filter>
		<filter x="-168.3%" y="-168.4%" width="436.7%" height="436.9%" filterUnits="objectBoundingBox" id="filter-22">
			<feGaussianBlur stdDeviation="10" in="SourceGraphic"></feGaussianBlur>
		</filter>
	</defs>
	<g id="Page-1" stroke="none" stroke-width="1" fill="none" fill-rule="evenodd">
		<g id="Mid" transform="translate(-113.000000, -1216.000000)">
			<g id="areaMid" transform="translate(0.000000, -298.000000)">
				<g id="chartCL2" transform="translate(129.000000, 1535.000000)">
					<g id="polychart_bg" transform="translate(91.000000, 47.000000)">
						<polygon id="Polygon" stroke="#8CE1FD" stroke-width="4" opacity="0.2" points="358.480556 28.7010309 685.272222 265.346695 560.448913 648.247423 156.512198 648.247423 31.6888889 265.346695"></polygon>
						<polygon id="Polygon-Copy" stroke="#8CE1FD" stroke-width="4" opacity="0.2" points="357.490278 106.886598 610.011111 289.749157 513.556736 585.626992 201.42382 585.626992 104.969444 289.749157"></polygon>
						<polygon id="Polygon-Copy-2" stroke="#8CE1FD" stroke-width="4" opacity="0.2" points="358.480556 179.134021 536.730556 308.213474 468.645114 517.068416 248.315997 517.068416 180.230556 308.213474"></polygon>
						<polygon id="Polygon-Copy-3" stroke="#8CE1FD" stroke-width="4" opacity="0.2" points="357.490278 255.340206 461.469444 330.636554 421.752937 452.468604 293.227619 452.468604 253.511111 330.636554"></polygon>
						<path d="M358.987493,0.339406366 L358.987493,360.216639" id="Path-57" stroke="#8CE2FD" stroke-width="2" opacity="0.4"></path>
						<path d="M712.67067,256.533352 L359.126212,360.065905" id="Path-58" stroke="#8CE2FD" stroke-width="2" opacity="0.4"></path>
						<path d="M358.896857,360.454729 L575.343019,671.552571" id="Path-59" stroke="#8CE2FD" stroke-width="2" opacity="0.4"></path>
						<path d="M358.77307,359.76306 L139.310082,670.77639" id="Path-60" stroke="#8CE2FD" stroke-width="2" opacity="0.4"></path>
						<path d="M0.637239738,256.3508 L358.873447,360.380207" id="Path-61" stroke="#8CE2FD" stroke-width="2" opacity="0.4"></path>
					</g>
					<g id="word_shadow" fill="#4FC0E9" font-family="RTWSYueGoTrial-Regular, RTWS YueGothic Trial" font-size="36" font-weight="normal">
						<text id="速度" filter="url(#filter-2)">
							<tspan x="415.117742" y="32">速度</tspan>
						</text>
						<text id="安全" filter="url(#filter-4)">
							<tspan x="831.117742" y="306">安全</tspan>
						</text>
						<text id="能效" filter="url(#filter-6)">
							<tspan x="667.117742" y="750">能效</tspan>
						</text>
						<text id="稳定" filter="url(#filter-8)">
							<tspan x="196.117742" y="750">稳定</tspan>
						</text>
						<text id="价格" filter="url(#filter-10)">
							<tspan x="3.11774194" y="305.929293">价格</tspan>
						</text>
					</g>
					<g id="word" fill="#4FC0E9" font-family="RTWSYueGoTrial-Regular, RTWS YueGothic Trial" font-size="36" font-weight="normal" stroke="#4FC0E9" stroke-width="2">
						<text id="速度">
							<tspan x="415.117742" y="32">速度</tspan>
						</text>
						<text id="安全">
							<tspan x="831.117742" y="306">安全</tspan>
						</text>
						<text id="能效">
							<tspan x="667.117742" y="750">能效</tspan>
						</text>
						<text id="稳定">
							<tspan x="196.117742" y="750">稳定</tspan>
						</text>
						<text id="价格">
							<tspan x="3.11774194" y="305.929293">价格</tspan>
						</text>
					</g>
					<g id="content" transform="translate(176.000000, 116.000000)" stroke-width="4">
						<polygon id="Path-62-Copy-2" stroke="#4FC1E9" filter="url(#filter-11)" points="1.08820144 217.30387 94.5952313 547.058766 438.751083 532.598534 581.481546 200.462736 274.870121 1.05804963"></polygon>
						<polygon id="Path-62" stroke="#4FC1E9" fill-opacity="0.1" fill="#4FC1E9" points="0.210686621 213.043829 93.9415488 546.047634 440.066534 532.307068 582.738799 201.084818 273.758897 0.919343693"></polygon>
						<polygon id="Path-63" stroke="#4FC1E9" filter="url(#filter-12)" points="272.439017 71.9475231 43.6544206 224.29968 153.269453 460.297384 405.384609 482.44325 507.263388 224.29968"></polygon>
						<polygon id="Path-63-Copy" stroke="#BDE8FF" fill-opacity="0.1" fill="#BDE8FF" points="272.439017 71.9475231 43.6544206 224.29968 153.269453 460.297384 405.384609 482.44325 507.263388 224.29968"></polygon>
					</g>
					<g id="data_out" transform="translate(109.000000, 87.000000)" fill="#4FC1E9" font-family="RTWSYueGoTrial-Regular, RTWS YueGothic Trial" font-size="30" font-weight="normal">
						<text id="87%">
							<tspan x="123.974808" y="622.142631">87%</tspan>
						</text>
						<text id="85%">
							<tspan x="359.686346" y="26.8573693">85%</tspan>
						</text>
						<text id="83%">
							<tspan x="0.176730769" y="267.546751">83%</tspan>
						</text>
						<text id="94%">
							<tspan x="660.763269" y="258.63233">94%</tspan>
						</text>
						<text id="79%">
							<tspan x="520.128654" y="594.408875">79%</tspan>
						</text>
					</g>
					<g id="data_in" transform="translate(239.000000, 219.000000)" fill="#BDE8FF" font-family="RTWSYueGoTrial-Regular, RTWS YueGothic Trial" font-size="30" font-weight="normal">
						<text id="52%">
							<tspan x="97.1561063" y="338">52%</tspan>
						</text>
						<text id="64%">
							<tspan x="283.156106" y="356">64%</tspan>
						</text>
						<text id="73%">
							<tspan x="368.156106" y="144">73%</tspan>
						</text>
						<text id="61%">
							<tspan x="183.156106" y="26">61%</tspan>
						</text>
						<text id="70%">
							<tspan x="0.156106346" y="144">70%</tspan>
						</text>
					</g>
					<g id="anchor" transform="translate(169.000000, 109.000000)">
						<g id="in" transform="translate(45.000000, 73.000000)" fill="#BDE8FF">
							<g id="point1-copy-5" transform="translate(226.264559, 0.216931)">
								<ellipse id="Oval-10" filter="url(#filter-13)" cx="8.91014975" cy="8.9047619" rx="8.91014975" ry="8.9047619"></ellipse>
								<ellipse id="Oval-10-Copy" cx="8.91014975" cy="8.9047619" rx="8.91014975" ry="8.9047619"></ellipse>
							</g>
							<g id="point1-copy-6" transform="translate(456.938436, 149.619048)">
								<ellipse id="Oval-10" filter="url(#filter-14)" cx="8.91014975" cy="8.9047619" rx="8.91014975" ry="8.9047619"></ellipse>
								<ellipse id="Oval-10-Copy" cx="8.91014975" cy="8.9047619" rx="8.91014975" ry="8.9047619"></ellipse>
							</g>
							<g id="point1-copy-7" transform="translate(356.946755, 406.867725)">
								<ellipse id="Oval-10" filter="url(#filter-15)" cx="8.91014975" cy="8.9047619" rx="8.91014975" ry="8.9047619"></ellipse>
								<ellipse id="Oval-10-Copy" cx="8.91014975" cy="8.9047619" rx="8.91014975" ry="8.9047619"></ellipse>
							</g>
							<g id="point1-copy-8" transform="translate(106.472546, 385.100529)">
								<ellipse id="Oval-10" filter="url(#filter-16)" cx="8.91014975" cy="8.9047619" rx="8.91014975" ry="8.9047619"></ellipse>
								<ellipse id="Oval-10-Copy" cx="8.91014975" cy="8.9047619" rx="8.91014975" ry="8.9047619"></ellipse>
							</g>
							<g id="point1-copy-9" transform="translate(0.540765, 149.619048)">
								<ellipse id="Oval-10" filter="url(#filter-17)" cx="8.91014975" cy="8.9047619" rx="8.91014975" ry="8.9047619"></ellipse>
								<ellipse id="Oval-10-Copy" cx="8.91014975" cy="8.9047619" rx="8.91014975" ry="8.9047619"></ellipse>
							</g>
						</g>
						<g id="out" fill="#4FC1E9">
							<g id="point1" transform="translate(272.254576, 0.000000)">
								<ellipse id="Oval-10" filter="url(#filter-18)" cx="8.91014975" cy="8.9047619" rx="8.91014975" ry="8.9047619"></ellipse>
								<ellipse id="Oval-10-Copy" cx="8.91014975" cy="8.9047619" rx="8.91014975" ry="8.9047619"></ellipse>
							</g>
							<g id="point1-copy" transform="translate(0.000000, 210.746032)">
								<ellipse id="Oval-10" filter="url(#filter-19)" cx="8.91014975" cy="8.9047619" rx="8.91014975" ry="8.9047619"></ellipse>
								<ellipse id="Oval-10-Copy" cx="8.91014975" cy="8.9047619" rx="8.91014975" ry="8.9047619"></ellipse>
							</g>
							<g id="point1-copy-2" transform="translate(93.061564, 543.190476)">
								<ellipse id="Oval-10" filter="url(#filter-20)" cx="8.91014975" cy="8.9047619" rx="8.91014975" ry="8.9047619"></ellipse>
								<ellipse id="Oval-10-Copy" cx="8.91014975" cy="8.9047619" rx="8.91014975" ry="8.9047619"></ellipse>
							</g>
							<g id="point1-copy-3" transform="translate(437.587354, 528.349206)">
								<ellipse id="Oval-10" filter="url(#filter-21)" cx="8.91014975" cy="8.9047619" rx="8.91014975" ry="8.9047619"></ellipse>
								<ellipse id="Oval-10-Copy" cx="8.91014975" cy="8.9047619" rx="8.91014975" ry="8.9047619"></ellipse>
							</g>
							<g id="point1-copy-4" transform="translate(577.179700, 200.851852)">
								<ellipse id="Oval-10" filter="url(#filter-22)" cx="8.91014975" cy="8.9047619" rx="8.91014975" ry="8.9047619"></ellipse>
								<ellipse id="Oval-10-Copy" cx="8.91014975" cy="8.9047619" rx="8.91014975" ry="8.9047619"></ellipse>
							</g>
						</g>
					</g>
				</g>
			</g>
		</g>
	</g>
</svg>