<?xml version="1.0" encoding="utf-8"?>
<!-- Generator: Adobe Illustrator 21.1.0, SVG Export Plug-In . SVG Version: 6.00 Build 0)  -->
<svg version="1.1" id="Shape_138_1_" xmlns="http://www.w3.org/2000/svg" xmlns:xlink="http://www.w3.org/1999/xlink" x="0px"
	 y="0px" viewBox="0 0 40 40" style="enable-background:new 0 0 40 40;" xml:space="preserve">
<style type="text/css">
	.st0{fill-rule:evenodd;clip-rule:evenodd;}
</style>
<g id="Shape_138">
	<g>
		<path class="st0" d="M23,9c-4.4,0-8,3.6-8,8c0,4.4,3.6,8,8,8c4.4,0,8-3.6,8-8C31,12.6,27.4,9,23,9z M27,18h-3v3h-2v-3h-3v-2h3v-3
			h2v3h3V18z M36-0.1H4c-2.2,0-4,1.8-4,4v32c0,2.2,1.8,4,4,4h32c2.2,0,4-1.8,4-4v-32C40,1.7,38.2-0.1,36-0.1z M23,27
			c-2.4,0-4.6-0.9-6.3-2.3l-8,8l-1.4-1.4l8-8C13.8,21.6,13,19.4,13,17c0-5.5,4.5-10,10-10s10,4.5,10,10S28.5,27,23,27z"/>
	</g>
</g>
</svg>
