<?xml version="1.0" encoding="utf-8"?>
<!-- Generator: Adobe Illustrator 21.1.0, SVG Export Plug-In . SVG Version: 6.00 Build 0)  -->
<svg version="1.1" id="Shape_140_1_" xmlns="http://www.w3.org/2000/svg" xmlns:xlink="http://www.w3.org/1999/xlink" x="0px"
	 y="0px" viewBox="0 0 40 40" style="enable-background:new 0 0 40 40;" xml:space="preserve">
<style type="text/css">
	.st0{fill-rule:evenodd;clip-rule:evenodd;}
</style>
<g id="Shape_140">
	<g>
		<path class="st0" d="M13,29c0,0.6,0.4,1,1,1h12c0.6,0,1-0.4,1-1V13H13V29z M23,16h2v11h-2V16z M19,16h2v11h-2V16z M15,16h2v11h-2
			V16z M22,10h-4v1h4V10z M36,0H4C1.8,0,0,1.8,0,4v32c0,2.2,1.8,4,4,4h32c2.2,0,4-1.8,4-4V4C40,1.8,38.2,0,36,0z M30,13h-1v16
			c0,1.6-1.4,3-3,3H14c-1.6,0-3-1.4-3-3V13h-1v-2h6v-1c0-0.5,0.2-1.1,0.6-1.4S17.5,8,18,8h4c0.5,0,1.1,0.2,1.4,0.6S24,9.5,24,10v1h6
			V13z"/>
	</g>
</g>
</svg>
