<?xml version="1.0" encoding="utf-8"?>
<!-- Generator: Adobe Illustrator 21.1.0, SVG Export Plug-In . SVG Version: 6.00 Build 0)  -->
<svg version="1.1" id="Shape_139_1_" xmlns="http://www.w3.org/2000/svg" xmlns:xlink="http://www.w3.org/1999/xlink" x="0px"
	 y="0px" viewBox="0 0 40 40" style="enable-background:new 0 0 40 40;" xml:space="preserve">
<style type="text/css">
	.st0{fill-rule:evenodd;clip-rule:evenodd;}
</style>
<g id="Shape_139">
	<g>
		<path class="st0" d="M20,17c-1.7,0-3,1.3-3,3c0,1.7,1.3,3,3,3c1.7,0,3-1.3,3-3C23,18.3,21.7,17,20,17z M26.4,14.3l-0.6,0.2
			l-0.4-0.4c-0.9-0.8-1.9-1.4-3-1.8l-0.6-0.2l-0.1-0.6L21.2,9h-2.4l-0.5,2.6l-0.1,0.6l-0.6,0.2c-1.1,0.4-2.2,1-3,1.8l-0.4,0.4
			l-0.6-0.2l-2.5-0.9l-1.2,2l2,1.8l0.5,0.4l-0.2,0.6C12.1,18.8,12,19.4,12,20s0.1,1.2,0.2,1.8l0.2,0.6l-0.5,0.4l-2,1.8l1.2,2
			l2.5-0.9l0.6-0.2l0.4,0.4c0.9,0.8,1.9,1.4,3,1.8l0.6,0.2l0.1,0.6l0.5,2.6h2.4l0.5-2.6l0.1-0.6l0.6-0.2c1.1-0.4,2.2-1,3-1.8
			l0.4-0.4l0.6,0.2l2.5,0.9l1.2-2l-2-1.8l-0.4-0.4l0.1-0.6c0.1-0.6,0.2-1.2,0.2-1.8s-0.1-1.2-0.2-1.8l-0.2-0.6l0.5-0.4l2-1.8l-1.2-2
			L26.4,14.3z M20,25c-2.8,0-5-2.3-5-5s2.3-5,5-5s5,2.3,5,5S22.8,25,20,25z M36,0H4C1.8,0,0,1.8,0,4v32c0,2.2,1.8,4,4,4h32
			c2.2,0,4-1.8,4-4V4C40,1.8,38.2,0,36,0z M30,20c0,0.5-0.1,1.1-0.2,1.6l2.3,2l0.6,0.5l-0.4,0.7l-2,3.4l-0.4,0.7l-0.8-0.3l-2.9-1
			c-0.8,0.6-1.6,1.2-2.6,1.5l-0.6,3L22.8,33h-5.6L17,32.2l-0.6-3c-1-0.4-1.8-0.9-2.6-1.5l-2.9,1l-0.8,0.3l-0.4-0.7l-2-3.4l-0.4-0.7
			l0.6-0.5l2.3-2c-0.1-0.5-0.2-1-0.2-1.6s0.1-1.1,0.2-1.6l-2.3-2l-0.6-0.5l0.4-0.7l2-3.4l0.4-0.7l0.8,0.3l2.9,1
			c0.8-0.6,1.6-1.2,2.6-1.5l0.6-3L17.2,7h5.6L23,7.8l0.6,3c1,0.4,1.8,0.9,2.6,1.5l2.9-1l0.8-0.3l0.4,0.7l2,3.4l0.4,0.7l-0.6,0.5
			l-2.3,2C29.9,18.9,30,19.5,30,20z"/>
	</g>
</g>
</svg>
