<?xml version="1.0" encoding="utf-8"?>
<!-- Generator: Adobe Illustrator 21.1.0, SVG Export Plug-In . SVG Version: 6.00 Build 0)  -->
<svg version="1.1" id="Shape_1_1_" xmlns="http://www.w3.org/2000/svg" xmlns:xlink="http://www.w3.org/1999/xlink" x="0px" y="0px"
	 viewBox="0 0 16 16" style="enable-background:new 0 0 16 16;" xml:space="preserve">
<style type="text/css">
	.st0{fill-rule:evenodd;clip-rule:evenodd;}
</style>
<g id="Shape_1">
	<g>
		<path class="st0" d="M14.4,0H4.6C3.7,0,3,0.7,3,1.6v9.7C3,12.3,3.7,13,4.6,13h9.7c0.9,0,1.6-0.7,1.6-1.6V1.6C16,0.7,15.3,0,14.4,0
			z M14,7h-4v4H9V7H5V6h4V2h1v4h4V7z M2,3H0v11.4C0,15.3,0.7,16,1.6,16H13v-2H2V3z"/>
	</g>
</g>
</svg>
