<svg xmlns="http://www.w3.org/2000/svg" width="15" height="17" viewBox="0 0 15 17"><path fill="#269af1" d="M11.46 10.75c-.6 0-1.15.21-1.59.56L5.3 8.52c.02-.14.04-.28.04-.43 0-.15-.02-.3-.04-.44l4.57-2.78c.44.34.99.55 1.59.55a2.65 2.65 0 0 0 2.63-2.67A2.65 2.65 0 0 0 11.46.09a2.64 2.64 0 0 0-2.58 3.1L4.31 5.97c-.44-.34-1-.55-1.6-.55A2.65 2.65 0 0 0 .09 8.09a2.64 2.64 0 0 0 2.62 2.66c.6 0 1.16-.2 1.6-.55l4.57 2.78a2.65 2.65 0 0 0 2.58 3.11c1.45 0 2.63-1.2 2.63-2.67a2.65 2.65 0 0 0-2.63-2.67z"/></svg>