<?xml version="1.0" encoding="utf-8"?>
<!-- Generator: Adobe Illustrator 21.1.0, SVG Export Plug-In . SVG Version: 6.00 Build 0)  -->
<svg version="1.1" id="Shape_1_1_" xmlns="http://www.w3.org/2000/svg" xmlns:xlink="http://www.w3.org/1999/xlink" x="0px" y="0px"
	 viewBox="0 0 16 12" style="enable-background:new 0 0 16 12;" xml:space="preserve">
<style type="text/css">
	.st0{fill-rule:evenodd;clip-rule:evenodd;}
</style>
<g id="Shape_1">
	<g>
		<path class="st0" d="M15.4,5L10,0.5C9.7,0.3,9.5,0,9,0C8.4,0,8,0.5,8,1v3H1C0.4,4,0,4.4,0,5v2c0,0.5,0.5,1,1,1h7v3
			c0,0.5,0.4,1,1,1c0.5,0,0.7-0.3,1-0.5L15.4,7C15.8,6.7,16,6.4,16,6C16,5.6,15.8,5.3,15.4,5z"/>
	</g>
</g>
</svg>
