<svg xmlns="http://www.w3.org/2000/svg" width="17" height="17" viewBox="0 0 17 17"><path fill="#fff" d="M2.16 8.97l-.18.01A1 1 0 0 1 1.81 7c2.45-.44 5.08-1.69 7.82-3.69l-1.15-1.4 5.5-.93-1.95 5.23-1.13-1.36C7.85 7.1 4.98 8.46 2.16 8.97zm2.82 4.01v3c0 .56-.44 1-1 1h-1a1 1 0 0 1-1-1v-3a1 1 0 0 1 1-1h1a1 1 0 0 1 1 1zm8-4v7c0 .56-.44 1-1 1h-1a1 1 0 0 1-1-1v-7a1 1 0 0 1 1-1h1a1 1 0 0 1 1 1zm4-2v9c0 .56-.44 1-1 1h-1a1 1 0 0 1-1-1v-9a1 1 0 0 1 1-1h1a1 1 0 0 1 1 1zm-9 3h-1a1 1 0 0 0-1 1v5a1 1 0 0 0 1 1h1c.56 0 1-.44 1-1v-5a1 1 0 0 0-1-1z"/></svg>