<svg xmlns="http://www.w3.org/2000/svg" width="17" height="17" viewBox="0 0 17 17"><path fill="#bfc8cf" d="M.99 8.01c0 1.08.22 2.12.64 3.1a7.98 7.98 0 0 0 13.52 2.01.37.37 0 0 0 .07-.23.26.26 0 0 0-.09-.21l-1.43-1.44a.37.37 0 0 0-.26-.09c-.11.01-.19.05-.24.12a5.19 5.19 0 0 1-4.21 2.07 5.34 5.34 0 0 1-4.91-7.4A5.4 5.4 0 0 1 6.93 3.1a5.16 5.16 0 0 1 4.02-.05c.63.24 1.18.59 1.67 1.05l-1.43 1.44c-.21.21-.26.45-.14.72.11.28.32.42.61.42h4.67a.67.67 0 0 0 .66-.67V1.34c0-.29-.13-.49-.41-.61-.27-.12-.51-.07-.72.14l-1.35 1.35A8.16 8.16 0 0 0 8.99.01c-1.08 0-2.11.21-3.1.64a7.97 7.97 0 0 0-4.9 7.36z"/></svg>