<?xml version="1.0" encoding="utf-8"?>
<!-- Generator: Adobe Illustrator 21.1.0, SVG Export Plug-In . SVG Version: 6.00 Build 0)  -->
<svg version="1.1" id="Shape_1_1_" xmlns="http://www.w3.org/2000/svg" xmlns:xlink="http://www.w3.org/1999/xlink" x="0px" y="0px"
	 viewBox="0 0 26 26" style="enable-background:new 0 0 26 26;" xml:space="preserve">
<style type="text/css">
	.st0{fill-rule:evenodd;clip-rule:evenodd;}
</style>
<g id="Shape_1">
	<g>
		<path class="st0" d="M24,13C24,19.1,19.1,24,13,24c-3.3,0-6.2-1.5-8.2-3.7L7.1,18H0v7.1l3.4-3.4C5.8,24.3,9.2,26,13,26
			c7.2,0,13-5.9,13-13.1v-1h-2V13z M22.6,4.3C20.2,1.6,16.8,0,13,0C5.8,0,0,5.8,0,13v1h2v-1C2,6.9,6.9,2,13,2c3.3,0,6.2,1.4,8.2,3.7
			l-2.3,2.3H26V0.9L22.6,4.3z"/>
	</g>
</g>
</svg>
