<?xml version="1.0" encoding="utf-8"?>
<!-- Generator: Adobe Illustrator 21.1.0, SVG Export Plug-In . SVG Version: 6.00 Build 0)  -->
<svg version="1.1" id="Shape_1_1_" xmlns="http://www.w3.org/2000/svg" xmlns:xlink="http://www.w3.org/1999/xlink" x="0px" y="0px"
	 viewBox="0 0 22 26" style="enable-background:new 0 0 22 26;" xml:space="preserve">
<style type="text/css">
	.st0{fill-rule:evenodd;clip-rule:evenodd;}
</style>
<g id="Shape_1">
	<g>
		<path class="st0" d="M16,4V3c0-1.6-1.4-3-3-3H9C7.4,0,6,1.4,6,3v1H0v2h2v17c0,1.6,1.4,3,3,3h12c1.6,0,3-1.4,3-3V6h2V4H16z M18,23
			c0,0.6-0.4,1-1,1H5c-0.6,0-1-0.4-1-1V6h4V3c0-0.6,0.4-1,1-1h4c0.6,0,1,0.4,1,1v3h4V23z"/>
	</g>
</g>
</svg>
