<?xml version="1.0" encoding="utf-8"?>
<!-- Generator: Adobe Illustrator 21.1.0, SVG Export Plug-In . SVG Version: 6.00 Build 0)  -->
<svg version="1.1" id="Shape_1_1_" xmlns="http://www.w3.org/2000/svg" xmlns:xlink="http://www.w3.org/1999/xlink" x="0px" y="0px"
	 viewBox="0 0 16 16" style="enable-background:new 0 0 16 16;" xml:space="preserve">
<style type="text/css">
	.st0{fill-rule:evenodd;clip-rule:evenodd;}
</style>
<g id="Shape_1">
	<g>
		<path class="st0" d="M15.7,14.3l-3.1-3.1C13.5,10,14,8.6,14,7c0-3.9-3.1-7-7-7C3.1,0,0,3.1,0,7c0,3.9,3.1,7,7,7
			c1.6,0,3-0.5,4.2-1.4l3.1,3.1c0.2,0.2,0.4,0.3,0.7,0.3c0.6,0,1-0.4,1-1C16,14.8,15.9,14.5,15.7,14.3z M7,12c-2.8,0-5-2.2-5-5
			s2.2-5,5-5c2.8,0,5,2.2,5,5S9.8,12,7,12z"/>
	</g>
</g>
</svg>
