<svg xmlns="http://www.w3.org/2000/svg" width="16" height="16" viewBox="0 0 16 16"><path fill="#939daa" d="M15.99 9.23V6.77l-2-.2a5.9 5.9 0 0 0-.74-1.8l1.27-1.55-1.74-1.74-1.56 1.27A6.03 6.03 0 0 0 9.44 2l-.21-2H6.77l-.21 2c-.64.15-1.24.4-1.78.73L3.22 1.48 1.48 3.22l1.27 1.56a5.9 5.9 0 0 0-.74 1.78l-2 .21v2.46l2 .2c.15.65.4 1.25.74 1.79l-1.27 1.56 1.74 1.74 1.56-1.27c.54.34 1.14.59 1.78.74l.21 2h2.46l.21-2c.64-.15 1.24-.4 1.78-.74l1.56 1.27 1.74-1.74-1.27-1.56c.34-.54.59-1.14.74-1.78zM8 11.43a3.44 3.44 0 1 1 0-6.87 3.44 3.44 0 0 1 0 6.88z"/></svg>