<?xml version="1.0" encoding="utf-8"?>
<!-- Generator: Adobe Illustrator 21.1.0, SVG Export Plug-In . SVG Version: 6.00 Build 0)  -->
<svg version="1.1" id="Shape_1_1_" xmlns="http://www.w3.org/2000/svg" xmlns:xlink="http://www.w3.org/1999/xlink" x="0px" y="0px"
	 viewBox="0 0 48 48" style="enable-background:new 0 0 48 48;" xml:space="preserve">
<style type="text/css">
	.st0{fill-rule:evenodd;clip-rule:evenodd;}
</style>
<g id="Shape_1">
	<g>
		<path class="st0" d="M24,0C10.8,0,0,10.8,0,24c0,13.2,10.7,24,24,24c13.2,0,24-10.7,24-24C48,10.8,37.2,0,24,0z M30.3,23.9h-4.2
			c0,6.6,0,14.8,0,14.8H20c0,0,0-8.1,0-14.8h-2.9v-5.2H20v-3.4c0-2.4,1.2-6.2,6.2-6.2l4.6,0v5.1c0,0-2.8,0-3.3,0
			c-0.5,0-1.3,0.3-1.3,1.4v3.1h4.7L30.3,23.9z"/>
	</g>
</g>
</svg>
