<?xml version="1.0" encoding="utf-8"?>
<!-- Generator: Adobe Illustrator 21.1.0, SVG Export Plug-In . SVG Version: 6.00 Build 0)  -->
<svg version="1.1" id="Shape_1_1_" xmlns="http://www.w3.org/2000/svg" xmlns:xlink="http://www.w3.org/1999/xlink" x="0px" y="0px"
	 viewBox="0 0 48 48" style="enable-background:new 0 0 48 48;" xml:space="preserve">
<style type="text/css">
	.st0{fill-rule:evenodd;clip-rule:evenodd;}
</style>
<g id="Shape_1">
	<g>
		<path class="st0" d="M24,0C10.7,0,0,10.7,0,24s10.7,24,24,24c13.3,0,24-10.7,24-24S37.3,0,24,0z M26.3,30.3
			c-2.5,3.5-7.5,4.5-11.4,3c-3.9-1.5-6.7-5.6-6.4-9.9c0.1-5.2,4.8-9.7,10-9.5c2.5-0.1,4.8,1,6.7,2.5c-0.8,0.9-1.7,1.8-2.5,2.6
			c-2.3-1.6-5.5-2-7.8-0.2c-3.3,2.3-3.4,7.6-0.3,10c3.1,2.8,8.8,1.4,9.7-2.9c-1.9,0-3.8,0-5.7-0.1c0-1.1,0-2.3,0-3.4
			c3.2,0,6.4,0,9.6,0C28.3,25.3,27.9,28.1,26.3,30.3z M37.2,25.4c0,1,0,1.9,0,2.9h-2.9c0-1,0-1.9,0-2.9c-1,0-1.9,0-2.9,0v-2.9
			c1,0,1.9,0,2.9,0c0-1,0-1.9,0-2.9h2.9c0,1,0,1.9,0,2.9c1,0,1.9,0,2.9,0c0,0.9,0,1.9,0,2.9C39.1,25.4,38.2,25.4,37.2,25.4z"/>
	</g>
</g>
</svg>
