<?xml version="1.0" encoding="utf-8"?>
<!-- Generator: Adobe Illustrator 21.1.0, SVG Export Plug-In . SVG Version: 6.00 Build 0)  -->
<svg version="1.1" id="Shape_172_1_" xmlns="http://www.w3.org/2000/svg" xmlns:xlink="http://www.w3.org/1999/xlink" x="0px"
	 y="0px" viewBox="0 0 24 24" style="enable-background:new 0 0 24 24;" xml:space="preserve">
<style type="text/css">
	.st0{fill-rule:evenodd;clip-rule:evenodd;}
</style>
<g id="Shape_172">
	<g>
		<path class="st0" d="M12,0C5.4,0,0,5.4,0,12s5.4,12,12,12s12-5.4,12-12S18.6,0,12,0z M15.4,12.2c0,3.7-2.5,6.2-6.1,6.2
			c-3.6,0-6.5-2.8-6.5-6.4c0-3.5,2.9-6.4,6.5-6.4c1.6,0,3.1,0.6,4.2,1.6l-1.6,1.9c-0.7-0.6-1.6-1-2.6-1c-2.2,0-4,1.7-4,3.9
			c0,2.1,1.8,3.9,4,3.9c1.8,0,3.1-0.9,3.5-2.5H9.3V11h6.1V12.2z M20.2,12.5v1.9h-1.5v-1.9h-1.9V11h1.9V9.1h1.5V11h1.9v1.5H20.2z"/>
	</g>
</g>
</svg>
