<?xml version="1.0" encoding="utf-8"?>
<!-- Generator: Adobe Illustrator 21.1.0, SVG Export Plug-In . SVG Version: 6.00 Build 0)  -->
<svg version="1.1" id="Shape_1_1_" xmlns="http://www.w3.org/2000/svg" xmlns:xlink="http://www.w3.org/1999/xlink" x="0px" y="0px"
	 viewBox="0 0 48 48" style="enable-background:new 0 0 48 48;" xml:space="preserve">
<style type="text/css">
	.st0{fill-rule:evenodd;clip-rule:evenodd;}
</style>
<g id="Shape_1">
	<g>
		<path class="st0" d="M23.7,19.8c-2.4,0-4.3,1.9-4.3,4.3c0,2.4,1.9,4.3,4.3,4.3c2.4,0,4.3-1.9,4.3-4.3C28,21.7,26.1,19.8,23.7,19.8
			z M29.1,13.6H18.4c-1.6,0-2.9,0.5-3.8,1.4c-0.9,0.9-1.4,2.2-1.4,3.8v10.7c0,1.6,0.5,2.9,1.5,3.9c1,0.9,2.2,1.4,3.8,1.4h10.6
			c1.6,0,2.9-0.5,3.8-1.4c1-0.9,1.5-2.2,1.5-3.8V18.8c0-1.6-0.5-2.8-1.4-3.8C32.1,14.1,30.8,13.6,29.1,13.6z M23.7,30.7
			c-3.7,0-6.6-3-6.6-6.6c0-3.7,3-6.6,6.6-6.6c3.6,0,6.7,2.9,6.7,6.6C30.5,27.8,27.5,30.7,23.7,30.7z M30.7,18.7
			c-0.9,0-1.6-0.7-1.6-1.6c0-0.9,0.7-1.6,1.6-1.6s1.6,0.7,1.6,1.6C32.2,18.1,31.6,18.7,30.7,18.7z M23.9-0.1c-13.3,0-24,10.7-24,24
			c0,13.3,10.7,24,24,24c13.3,0,24-10.7,24-24C48.1,10.6,37.2-0.1,23.9-0.1z M36.7,29.6c0,2.2-0.8,4.2-2.1,5.6c-1.4,1.4-3.3,2-5.5,2
			H18.5c-2.1,0-4.1-0.7-5.5-2c-1.5-1.4-2.1-3.3-2.1-5.6V18.8c0-4.5,3-7.6,7.6-7.6h10.7c2.2,0,4.1,0.8,5.5,2.1
			c1.4,1.4,2.1,3.2,2.1,5.5V29.6z"/>
	</g>
</g>
</svg>
