<?xml version="1.0" encoding="utf-8"?>
<!-- Generator: Adobe Illustrator 21.1.0, SVG Export Plug-In . SVG Version: 6.00 Build 0)  -->
<svg version="1.1" id="Shape_153_1_" xmlns="http://www.w3.org/2000/svg" xmlns:xlink="http://www.w3.org/1999/xlink" x="0px"
	 y="0px" viewBox="0 0 18 18" style="enable-background:new 0 0 18 18;" xml:space="preserve">
<style type="text/css">
	.st0{fill-rule:evenodd;clip-rule:evenodd;}
</style>
<g id="Shape_153">
	<g>
		<path class="st0" d="M9,0C4,0,0,4,0,9c0,5,4,9,9,9c5,0,9-4,9-9C18,4,14,0,9,0z M6.7,13.2h-2V7.1h2V13.2z M5.7,6.3L5.7,6.3
			C5,6.3,4.5,5.8,4.5,5.2c0-0.6,0.5-1.1,1.2-1.1s1.1,0.5,1.1,1.1C6.8,5.8,6.4,6.3,5.7,6.3z M14.1,13.2h-2V10c0-0.8-0.3-1.4-1-1.4
			c-0.6,0-0.9,0.4-1,0.7C9.9,9.5,9.9,9.6,9.9,9.8v3.4h-2c0,0,0-5.6,0-6.1h2V8c0.3-0.4,0.8-1,1.8-1c1.3,0,2.3,0.9,2.3,2.8V13.2z"/>
	</g>
</g>
</svg>
