<?xml version="1.0" encoding="utf-8"?>
<!-- Generator: Adobe Illustrator 21.1.0, SVG Export Plug-In . SVG Version: 6.00 Build 0)  -->
<svg version="1.1" id="Shape_156_1_" xmlns="http://www.w3.org/2000/svg" xmlns:xlink="http://www.w3.org/1999/xlink" x="0px"
	 y="0px" viewBox="0 0 18 18" style="enable-background:new 0 0 18 18;" xml:space="preserve">
<style type="text/css">
	.st0{fill-rule:evenodd;clip-rule:evenodd;}
</style>
<g id="Shape_156">
	<g>
		<path class="st0" d="M9,0C4,0,0,4,0,9c0,5,4,9,9,9c5,0,9-4,9-9C18,4,14,0,9,0z M7,12.7c-0.6,0-1.1-0.5-1.1-1.1
			c0-0.6,0.5-1.1,1.1-1.1C7.6,10.6,8,11,8,11.6C8,12.2,7.6,12.7,7,12.7z M9.6,12.7c0-1-0.4-1.9-1.1-2.6C7.8,9.3,6.9,8.9,5.9,8.9V7.4
			c2.9,0,5.3,2.4,5.3,5.3H9.6z M12.3,12.7c0-3.5-2.9-6.4-6.4-6.4V4.7c4.4,0,8,3.6,8,8H12.3z"/>
	</g>
</g>
</svg>
