<?xml version="1.0" encoding="utf-8"?>
<!-- Generator: Adobe Illustrator 21.1.0, SVG Export Plug-In . SVG Version: 6.00 Build 0)  -->
<svg version="1.1" id="Shape_1_1_" xmlns="http://www.w3.org/2000/svg" xmlns:xlink="http://www.w3.org/1999/xlink" x="0px" y="0px"
	 viewBox="0 0 48 48" style="enable-background:new 0 0 48 48;" xml:space="preserve">
<style type="text/css">
	.st0{fill-rule:evenodd;clip-rule:evenodd;}
</style>
<g id="Shape_1">
	<g>
		<path class="st0" d="M24,0C10.8,0,0,10.7,0,23.9c0,13.2,10.7,24,24,24c13.2,0,24-10.7,24-24C48,10.7,37.2,0,24,0z M36.1,19.1
			c0,0.3,0,0.5,0,0.8c0,8-6.1,17.2-17.2,17.2c-3.4,0-6.6-1-9.3-2.7c0.5,0.1,1,0.1,1.4,0.1c2.8,0,5.4-1,7.5-2.6
			c-2.6,0-4.9-1.8-5.6-4.2c0.4,0.1,0.7,0.1,1.1,0.1c0.6,0,1.1-0.1,1.6-0.2c-2.8-0.6-4.8-3-4.8-5.9c0,0,0-0.1,0-0.1
			c0.8,0.5,1.7,0.7,2.7,0.8c-1.6-1.1-2.7-2.9-2.7-5c0-1.1,0.3-2.1,0.8-3c3,3.7,7.4,6.1,12.5,6.3C24,20.1,24,19.7,24,19.2
			c0-3.3,2.7-6,6-6c1.7,0,3.3,0.7,4.4,1.9c1.4-0.3,2.7-0.8,3.8-1.5c-0.5,1.4-1.4,2.6-2.7,3.3c1.2-0.1,2.4-0.5,3.5-1
			C38.3,17.2,37.3,18.3,36.1,19.1z"/>
	</g>
</g>
</svg>
