<?xml version="1.0" encoding="utf-8"?>
<!-- Generator: Adobe Illustrator 21.1.0, SVG Export Plug-In . SVG Version: 6.00 Build 0)  -->
<svg version="1.1" id="Shape_1_1_" xmlns="http://www.w3.org/2000/svg" xmlns:xlink="http://www.w3.org/1999/xlink" x="0px" y="0px"
	 viewBox="0 0 24 24" style="enable-background:new 0 0 24 24;" xml:space="preserve">
<style type="text/css">
	.st0{fill-rule:evenodd;clip-rule:evenodd;}
</style>
<g id="Shape_1">
	<g>
		<path class="st0" d="M12,0C5.4,0,0,5.4,0,12c0,6.6,5.4,12,12,12c6.6,0,12-5.4,12-12C24,5.4,18.6,0,12,0z M18,8.5
			c-0.1,0.1-0.3,0.4-0.6,0.7c-0.5,0.5-0.5,0.5-0.5,0.9c0,0.6-0.3,1.9-0.6,2.5c-0.5,1.3-1.7,2.6-2.8,3.3c-1.6,0.9-3.7,1.2-5.5,0.6
			c-0.6-0.2-1.6-0.7-1.6-0.7c0,0,0.3-0.1,0.7-0.1c0.8,0,1.6-0.2,2.2-0.6l0.5-0.3l-0.5-0.2c-0.7-0.3-1.4-0.8-1.6-1.4
			c-0.1-0.2,0-0.2,0.4-0.2l0.5,0l-0.4-0.2c-0.5-0.2-0.9-0.7-1.1-1.1c-0.2-0.3-0.4-1.1-0.3-1.1c0,0,0.2,0,0.4,0.1
			c0.6,0.2,0.7,0.2,0.3-0.2C6.9,9.9,6.7,8.9,7,8l0.1-0.4l0.6,0.6c1.1,1.1,2.5,1.8,4,2l0.4,0.1l0-0.4c-0.1-1.1,0.6-2.1,1.6-2.4
			c0.4-0.1,1-0.2,1.5,0c0.2,0.1,0.5,0.2,0.7,0.4l0.4,0.3l0.5-0.1c0.3-0.1,0.6-0.2,0.7-0.3c0.1-0.1,0.3-0.1,0.3-0.1
			c0,0.1-0.3,0.6-0.6,0.9c-0.4,0.4-0.3,0.4,0.5,0.2C18,8.3,18.1,8.3,18,8.5z"/>
	</g>
</g>
</svg>
