<?xml version="1.0" encoding="utf-8"?>
<!-- Generator: Adobe Illustrator 21.1.0, SVG Export Plug-In . SVG Version: 6.00 Build 0)  -->
<svg version="1.1" id="Shape_1_1_" xmlns="http://www.w3.org/2000/svg" xmlns:xlink="http://www.w3.org/1999/xlink" x="0px" y="0px"
	 viewBox="0 0 48 48" style="enable-background:new 0 0 48 48;" xml:space="preserve">
<style type="text/css">
	.st0{fill-rule:evenodd;clip-rule:evenodd;}
</style>
<g id="Shape_1">
	<g>
		<path class="st0" d="M23.9,0c-13.3,0-24,10.7-24,23.9c0,13.2,10.8,23.9,24,23.9s24-10.7,24-23.9C47.9,10.7,37.2,0,23.9,0z
			 M37.8,18c-1.6,9-10.6,16.6-13.3,18.4c-2.7,1.7-5.2-0.7-6-2.5c-1-2.1-4.1-13.5-4.9-14.4c-0.8-0.9-3.2,0.9-3.2,0.9l-1.2-1.5
			c0,0,4.9-5.8,8.6-6.5c3.9-0.8,3.9,6,4.9,9.8c0.9,3.7,1.5,5.7,2.3,5.7c0.8,0,2.3-2,4-5.2c1.7-3.1-0.1-5.9-3.4-3.9
			C27.1,10.9,39.5,9.1,37.8,18z"/>
	</g>
</g>
</svg>
