<svg xmlns="http://www.w3.org/2000/svg" width="17" height="17" viewBox="0 0 17 17"><path fill="#fff" d="M4.59.02c.24.51.49 1.04.72 1.58.24.54.48 1.1.72 1.7l.74 1.93.79 2.21h-1.8a9.62 9.62 0 0 0-.26-.79l-.28-.81H2.31l-.29.81-.26.8H.02A149.54 149.54 0 0 1 1.55 3.3l.71-1.71c.23-.54.48-1.07.73-1.58zm-1 2.12l-.25.64a194.62 194.62 0 0 1-.64 1.73h2.12l-.34-.92c-.1-.3-.21-.56-.3-.8l-.26-.65-.17-.44-.16.44zm9.6.67c.07 0 .14.03.19.1.05.07.08.16.08.25v6.65l.98-.98c.06-.06.15-.1.24-.1s.18.04.25.1l.98.98c.07.07.11.16.11.25s-.04.18-.11.24l-3.28 3.28a.38.38 0 0 1-.25.1.38.38 0 0 1-.25-.1L8.85 10.3a.34.34 0 0 1-.11-.24c0-.1.04-.18.11-.25l.98-.98a.36.36 0 0 1 .5 0l.97.98V3.16c0-.1.03-.18.08-.25s.12-.1.19-.1zM1.03 8.59v1.4h3.35a29.25 29.25 0 0 0-1.88 2.46c-.31.46-.62.9-.91 1.35-.29.45-.53.85-.73 1.22v1h5.86v-1.4h-3.8A39.1 39.1 0 0 1 6.6 9.75V8.58z"/></svg>