<svg xmlns="http://www.w3.org/2000/svg" width="52" height="45" viewBox="0 0 52 45"><path fill="#e62265" d="M21 1c-1.64 0-3 1.35-3 3v3H4c-1.64 0-3 1.35-3 3v32c0 1.65 1.36 3 3 3h44c1.65 0 3-1.35 3-3V10c0-1.64-1.35-3-3-3H34V4c0-1.65-1.35-3-3-3zm0 2h10c.56 0 1 .44 1 1v3H20V4c0-.56.44-1 1-1zM4 9h44c.56 0 1 .44 1 1v15c0 .56-.44 1-1 1H4c-.56 0-1-.44-1-1V10c0-.56.44-1 1-1zm22 11a2 2 0 1 0 0 4 2 2 0 0 0 0-4zM3 27.81c.32.12.65.19 1 .19h44c.35 0 .69-.07 1-.19V42c0 .56-.44 1-1 1H4c-.56 0-1-.44-1-1z"/></svg>