<?xml version="1.0" encoding="utf-8"?>
<!-- Generator: Adobe Illustrator 21.1.0, SVG Export Plug-In . SVG Version: 6.00 Build 0)  -->
<svg version="1.1" id="Shape_1_1_" xmlns="http://www.w3.org/2000/svg" xmlns:xlink="http://www.w3.org/1999/xlink" x="0px" y="0px"
	 viewBox="0 0 16 15" style="enable-background:new 0 0 16 15;" xml:space="preserve">
<style type="text/css">
	.st0{fill-rule:evenodd;clip-rule:evenodd;}
</style>
<g id="Shape_1">
	<g>
		<path class="st0" d="M16,5.6C16,5.3,15.7,5,15.4,5h-5.2L8.6,0.2C8.5,0,8.3-0.2,8-0.2C7.7-0.2,7.5,0,7.4,0.2L5.8,5H0.6
			C0.3,5,0,5.3,0,5.6C0,5.9,0.1,6,0.3,6.2c0.1,0.1,4.2,3,4.2,3s-1.6,4.7-1.6,4.8c0,0.1,0,0.1,0,0.2c0,0.4,0.3,0.6,0.6,0.6
			c0.1,0,0.3,0,0.4-0.1l4.2-3c0,0,4.1,2.9,4.2,3c0.1,0.1,0.2,0.1,0.4,0.1c0.4,0,0.6-0.3,0.6-0.6c0-0.1,0-0.2,0-0.2
			c0-0.1-1.6-4.8-1.6-4.8s4.1-2.9,4.2-3C15.9,6,16,5.9,16,5.6z"/>
	</g>
</g>
</svg>
