<?xml version="1.0" encoding="utf-8"?>
<!-- Generator: Adobe Illustrator 21.1.0, SVG Export Plug-In . SVG Version: 6.00 Build 0)  -->
<svg version="1.1" id="Shape_1_1_" xmlns="http://www.w3.org/2000/svg" xmlns:xlink="http://www.w3.org/1999/xlink" x="0px" y="0px"
	 viewBox="0 0 29 27" style="enable-background:new 0 0 29 27;" xml:space="preserve">
<style type="text/css">
	.st0{fill-rule:evenodd;clip-rule:evenodd;}
</style>
<g id="Shape_1">
	<g>
		<path class="st0" d="M28.8,10.1l-2.3-0.3L18.6,9l-3.3-7.3l-0.9-2.1l-0.9,2.1L10.3,9L2.4,9.9l-2.2,0.3l1.7,1.5L7.7,17l-1.7,7.8
			L5.6,27l2-1.1l6.9-4l6.9,4l2,1.1l-0.5-2.2L21.2,17l5.9-5.3L28.8,10.1z M19.4,15.9L19,16.3l0.1,0.6l1.3,6.2L15,19.9l-0.5-0.3
			L14,19.9L8.5,23l1.3-6.2l0.1-0.6l-0.4-0.4l-4.7-4.2l6.3-0.7l0.6-0.1l0.3-0.5l2.6-5.8l2.6,5.8l0.3,0.5l0.6,0.1l6.3,0.7L19.4,15.9z"
			/>
	</g>
</g>
</svg>
