<?xml version="1.0" encoding="utf-8"?>
<!-- Generator: Adobe Illustrator 21.1.0, SVG Export Plug-In . SVG Version: 6.00 Build 0)  -->
<svg version="1.1" id="Shape_1_copy_4_1_" xmlns="http://www.w3.org/2000/svg" xmlns:xlink="http://www.w3.org/1999/xlink" x="0px"
	 y="0px" viewBox="0 0 16 15" style="enable-background:new 0 0 16 15;" xml:space="preserve">
<style type="text/css">
	.st0{fill-rule:evenodd;clip-rule:evenodd;}
</style>
<g id="Shape_1_copy_4">
	<g>
		<path class="st0" d="M16.1,12c-1.3-1.4-2-3.4-2.7-6.8c-0.6-3-2.4-5.5-5.3-5.5c-2.9,0-4.8,2.5-5.3,5.5C2.1,8.6,1.4,10.6,0.1,12h6.1
			c-0.1,0.2-0.1,0.4-0.1,0.7c0,1.1,0.9,2,2,2s2-0.9,2-2c0-0.2,0-0.5-0.1-0.7H16.1z M8.1,13.3c-0.4,0-0.7-0.3-0.7-0.7
			c0-0.4,0.3-0.7,0.7-0.7c0.4,0,0.7,0.3,0.7,0.7C8.7,13,8.5,13.3,8.1,13.3z M2.6,10.6c0.6-1.4,1.1-3.1,1.5-5.2c0.2-1,1.1-4.4,4-4.4
			s3.8,3.3,4,4.4c0.4,2.1,0.8,3.8,1.5,5.2H2.6z"/>
	</g>
</g>
</svg>
