<?xml version="1.0" encoding="utf-8"?>
  <!DOCTYPE svg PUBLIC "-//W3C//DTD SVG 1.1//EN" "http://www.w3.org/Graphics/SVG/1.1/DTD/svg11.dtd">
  <svg version="1.1" xmlns="http://www.w3.org/2000/svg" xmlns:xlink="http://www.w3.org/1999/xlink" x="0px" y="0px" width="16px" height="16px" viewBox="0 0 16 16" enable-background="new 0 0 16 16" xml:space="preserve"><g transform="translate(0, 0)"><path fill="#444444" d="M14,0H2C0.9,0,0,0.9,0,2v12c0,1.1,0.9,2,2,2h12c1.1,0,2-0.9,2-2V2C16,0.9,15.1,0,14,0z M6,12H2v-2h4V12z
	 M6,7C5.3,7,4.6,6.6,4.3,6H2V4h2.3c0.3-0.6,1-1,1.7-1c1.1,0,2,0.9,2,2C8,6.1,7.1,7,6,7z M14,12h-2.3c-0.3,0.6-1,1-1.7,1
	c-1.1,0-2-0.9-2-2c0-1.1,0.9-2,2-2c0.7,0,1.4,0.4,1.7,1H14V12z M14,6h-4V4h4V6z"></path></g></svg>