<svg xmlns="http://www.w3.org/2000/svg" width="20" height="16" viewBox="0 0 20 16"><path fill="#fff" d="M19 2.52a.49.49 0 0 0-.49-.48h-1.53V.53a.49.49 0 0 0-.5-.48h-1.05a.49.49 0 0 0-.5.48v1.51H13.4a.49.49 0 0 0-.49.48v1.04c0 .27.22.47.5.47h1.54v1.52c0 .26.22.48.49.48h1.06c.26 0 .49-.22.49-.48V4.03h1.53c.27 0 .5-.2.5-.47zm-3.92 10.31c.59.81.7 1.5.67 2.43-.02.56-.34.74-.83.74H1.83c-.27 0-.48-.05-.62-.18-.13-.12-.2-.3-.2-.56-.04-.94.06-1.62.66-2.43.88-1.24 2.89-1.86 3.7-2.22 1.02-.44 1.25-.85 1.24-1.63 0-.33.05-.7-.3-1.03-.65-.62-.7-1.36-.95-1.54-.3-.23-.63-.6-.62-1.13 0-.32.07-.54.46-.79.14-.07.16-.16.16-.24.05-.74-.44-1.72-.25-2.36.6-2.07 4.5-2.55 5.7-.65 1.56-.12.52 2.2.57 3 0 .1.03.18.16.25.4.25.46.47.47.79 0 .52-.32.9-.61 1.13-.26.18-.31.92-.97 1.54-.34.32-.3.7-.3 1.03 0 .78.23 1.19 1.25 1.63.81.36 2.81.98 3.7 2.22z"/></svg>