<svg xmlns="http://www.w3.org/2000/svg" width="40" height="44" viewBox="0 0 40 44"><path fill="#229e8f" d="M20 1c-5.53 0-10 4.47-10 10v6c0 3.24 1.59 6.15 4 7.97v4.53c0 .1-.02.2-.28.44a6 6 0 0 1-1.35.87c-1.23.62-3 1.25-4.8 2.13-1.81.87-3.68 1.98-5.13 3.6A9.43 9.43 0 0 0 0 43v1h40v-1c0-2.73-.99-4.9-2.44-6.5a16.15 16.15 0 0 0-5.12-3.56c-1.8-.87-3.59-1.52-4.81-2.13a6 6 0 0 1-1.35-.84c-.26-.25-.28-.34-.28-.47v-4.53c2.41-1.82 4-4.73 4-7.97v-6c0-5.53-4.47-10-10-10zm0 2c4.47 0 8 3.53 8 8v6a8.05 8.05 0 0 1-3.56 6.66l-.44.3v5.54c0 .77.4 1.46.9 1.94.51.48 1.15.84 1.85 1.18 1.4.7 3.12 1.32 4.81 2.13 1.7.81 3.33 1.8 4.5 3.1A7.3 7.3 0 0 1 37.81 42H2.2a7.3 7.3 0 0 1 1.75-4.13c1.17-1.3 2.8-2.3 4.5-3.12 1.7-.82 3.42-1.46 4.81-2.16.7-.35 1.34-.71 1.84-1.18.5-.48.91-1.14.91-1.91v-5.53l-.44-.31A8.05 8.05 0 0 1 12 17v-6c0-4.47 3.53-8 8-8z"/></svg>