<?xml version="1.0" encoding="utf-8"?>
<!-- Generator: Adobe Illustrator 21.1.0, SVG Export Plug-In . SVG Version: 6.00 Build 0)  -->
<svg version="1.1" id="Shape_167_1_" xmlns="http://www.w3.org/2000/svg" xmlns:xlink="http://www.w3.org/1999/xlink" x="0px"
	 y="0px" viewBox="0 0 30 18" style="enable-background:new 0 0 30 18;" xml:space="preserve">
<style type="text/css">
	.st0{fill-rule:evenodd;clip-rule:evenodd;}
</style>
<g id="Shape_167">
	<g>
		<path class="st0" d="M25.5,10.8C27,9.7,28,8,28,6c0-3.3-2.7-6-6-6c-3.3,0-6,2.7-6,6c0,2,1,3.8,2.5,4.8c-1.5,0.7-2.7,1.9-3.5,3.3
			c-0.8-1.4-2-2.6-3.5-3.3C13,9.7,14,8,14,6c0-3.3-2.7-6-6-6C4.7,0,2,2.7,2,6c0,2,1,3.8,2.5,4.8C1.8,12.2,0,14.9,0,18h2
			c0-3.3,2.7-6,6-6c3.3,0,6,2.7,6,6h2c0-3.3,2.7-6,6-6c3.3,0,6,2.7,6,6h2C30,14.9,28.2,12.2,25.5,10.8z M8,10c-2.2,0-4-1.8-4-4
			c0-2.2,1.8-4,4-4c2.2,0,4,1.8,4,4C12,8.2,10.2,10,8,10z M22,10c-2.2,0-4-1.8-4-4c0-2.2,1.8-4,4-4c2.2,0,4,1.8,4,4
			C26,8.2,24.2,10,22,10z"/>
	</g>
</g>
</svg>
