<svg xmlns="http://www.w3.org/2000/svg" width="17" height="14" viewBox="0 0 17 14"><path fill="#fff" d="M2.84 9.8c.17-1.31 1.18-2.91 2.43-3.36-1.31-.89-1.68-3.27-.3-4.55-1.35-1.36-3.9-.51-3.93 1.45 0 .77.42 1.45 1.06 1.84C.16 5.94-.15 7.97.06 9.78c.95.11 1.85.12 2.78.02zm8.24-5.83A3.01 3.01 0 0 0 8.04.99a3.02 3.02 0 0 0-3.12 2.92 2.9 2.9 0 0 0 1.46 2.53c-2.65 1.04-3.1 3.81-2.83 6.29 2.24.37 6.56.37 8.89 0 .3-2.48-.13-5.25-2.8-6.29a2.93 2.93 0 0 0 1.44-2.47zm2.1 5.83c-.21-1.41-1.1-2.84-2.44-3.36 1.2-.9 1.63-3.34.3-4.55 1.34-1.36 3.9-.51 3.92 1.45 0 .77-.41 1.45-1.05 1.84 1.93.76 2.24 2.79 2.04 4.6-.94.1-1.84.11-2.77.02z"/></svg>