<svg xmlns="http://www.w3.org/2000/svg" width="16" height="16" viewBox="0 0 16 16"><path fill="#fff" d="M10.85 10.6c.78.36 2.68.99 3.52 2.23.56.81.66 1.5.63 2.42-.01.57-.32.75-.78.75H1.79c-.26 0-.46-.05-.6-.18-.11-.12-.18-.3-.19-.57-.03-.93.07-1.6.63-2.42.84-1.24 2.75-1.87 3.52-2.22.97-.45 1.19-.85 1.18-1.64 0-.33.05-.7-.28-1.02-.62-.63-.67-1.36-.91-1.55-.29-.23-.6-.6-.59-1.13 0-.32.07-.54.44-.79.13-.07.16-.16.16-.24.04-.74-.42-1.72-.25-2.36.57-2.07 4.28-2.56 5.42-.65 1.48-.12.49 2.2.53 3 .01.1.04.18.16.25.37.25.44.47.45.79 0 .52-.3.9-.59 1.13-.24.19-.29.92-.91 1.55-.33.32-.28.7-.28 1.02-.01.79.2 1.2 1.17 1.64z"/></svg>