<?xml version="1.0" encoding="utf-8"?>
<!-- Generator: Adobe Illustrator 21.1.0, SVG Export Plug-In . SVG Version: 6.00 Build 0)  -->
<svg version="1.1" id="Shape_128_1_" xmlns="http://www.w3.org/2000/svg" xmlns:xlink="http://www.w3.org/1999/xlink" x="0px"
	 y="0px" viewBox="0 0 34 46" style="enable-background:new 0 0 34 46;" xml:space="preserve">
<style type="text/css">
	.st0{fill-rule:evenodd;clip-rule:evenodd;}
</style>
<g id="Shape_128">
	<g>
		<path class="st0" d="M9,32h16v-2H9V32z M9,36h9v-2H9V36z M33.7,11.8L22.2,0.3C22,0.1,21.8,0,21.5,0h-0.3c-0.1,0-0.2,0-0.3,0
			c0,0-0.1,0-0.1,0H3.5C1.6,0,0,1.6,0,3.5v38.4C0,44.2,1.9,46,4.1,46h25.8c2.3,0,4.1-1.8,4.1-4.1V13.2c0-0.1,0-0.3,0-0.4v-0.3
			C34,12.3,33.9,12,33.7,11.8z M22,3l9.1,9.1h-7.4c-0.9,0-1.7-0.7-1.7-1.7V3z M32,41.9c0,1.2-0.9,2.1-2.1,2.1H4.1
			C2.9,44,2,43.1,2,41.9V3.5C2,2.7,2.6,2,3.5,2H20v8.3c0,2,1.6,3.7,3.7,3.7H32V41.9z M9,28h16v-2H9V28z M9,24h16v-2H9V24z"/>
	</g>
</g>
</svg>
