<?xml version="1.0" encoding="utf-8"?>
<!-- Generator: Adobe Illustrator 21.1.0, SVG Export Plug-In . SVG Version: 6.00 Build 0)  -->
<svg version="1.1" id="Shape_1_1_" xmlns="http://www.w3.org/2000/svg" xmlns:xlink="http://www.w3.org/1999/xlink" x="0px" y="0px"
	 viewBox="0 0 16 16" style="enable-background:new 0 0 16 16;" xml:space="preserve">
<style type="text/css">
	.st0{fill-rule:evenodd;clip-rule:evenodd;}
</style>
<g id="Shape_1">
	<g>
		<path class="st0" d="M12.4,7.4H8.7V3.7c0-0.3-0.3-0.6-0.6-0.6c-0.3,0-0.6,0.3-0.6,0.6v4.3c0,0.3,0.3,0.6,0.6,0.6h4.3
			c0.3,0,0.6-0.3,0.6-0.6C13,7.7,12.7,7.4,12.4,7.4z M8.1,0c-4.4,0-8,3.6-8,8s3.6,8,8,8c4.4,0,8-3.6,8-8S12.5,0,8.1,0z M8.1,14.8
			c-3.7,0-6.8-3-6.8-6.8s3-6.8,6.8-6.8c3.7,0,6.8,3,6.8,6.8S11.8,14.8,8.1,14.8z"/>
	</g>
</g>
</svg>
