<?xml version="1.0" encoding="utf-8"?>
<!-- Generator: Adobe Illustrator 21.1.0, SVG Export Plug-In . SVG Version: 6.00 Build 0)  -->
<svg version="1.1" id="Shape_114_1_" xmlns="http://www.w3.org/2000/svg" xmlns:xlink="http://www.w3.org/1999/xlink" x="0px"
	 y="0px" viewBox="0 0 20 26" style="enable-background:new 0 0 20 26;" xml:space="preserve">
<style type="text/css">
	.st0{fill-rule:evenodd;clip-rule:evenodd;}
</style>
<g id="Shape_114">
	<g>
		<path class="st0" d="M18,24H2v-5H0v7h20v-7h-2V24z M4,17l1-2l1,2h2l-2-4l2-4H6l-1,2L4,9H2l2,4l-2,4H4z M0,0v7h2V2h16v5h2V0H0z
			 M9,9v8h4v-2h-2V9H9z M16.5,15c-0.4,0-0.4-0.1-0.4-0.1c0,0-0.1-0.1-0.1-0.3h-2c0,0.6,0.2,1.2,0.6,1.7c0.5,0.5,1.1,0.7,1.9,0.7
			c1.4,0,2.5-1.2,2.5-2.5c0-1.4-1.1-2.5-2.5-2.5c-0.2,0-0.5-0.3-0.5-0.5c0-0.2,0.3-0.5,0.5-0.5c0.3,0,0.3,0.1,0.4,0.1
			c0.1,0.1,0.1,0.2,0.1,0.3h2c0-0.6-0.2-1.2-0.7-1.7C17.9,9.3,17.2,9,16.5,9c-1.4,0-2.5,1.1-2.5,2.5s1.1,2.5,2.5,2.5
			c0.2,0,0.5,0.3,0.5,0.5C17,14.8,16.9,15,16.5,15z"/>
	</g>
</g>
</svg>
