<?xml version="1.0" encoding="utf-8"?>
<!-- Generator: Adobe Illustrator 21.1.0, SVG Export Plug-In . SVG Version: 6.00 Build 0)  -->
<svg version="1.1" id="Shape_115_1_" xmlns="http://www.w3.org/2000/svg" xmlns:xlink="http://www.w3.org/1999/xlink" x="0px"
	 y="0px" viewBox="0 0 20 26" style="enable-background:new 0 0 20 26;" xml:space="preserve">
<style type="text/css">
	.st0{fill-rule:evenodd;clip-rule:evenodd;}
</style>
<g id="Shape_115">
	<g>
		<path class="st0" d="M0,0v26h20V0H0z M18,24H2V2h16V24z M5.4,20.7c0.3,0.1,0.7,0.1,1,0c0.6-0.2,1-0.7,1.4-1.2c0.4-0.5,0.6-1.3,1-2
			c0.5-0.2,0.9-0.4,1.4-0.5c0.6-0.1,0.9-0.1,1.5-0.1c0.2,0.3,0.4,0.7,0.7,0.9c0.5,0.4,1,0.7,1.6,0.8c0.6,0,1.3-0.4,1.6-0.9h0v0
			c0.2-0.3,0.3-0.6,0.3-0.9s-0.2-0.7-0.4-0.9c-0.4-0.4-0.9-0.6-1.5-0.6c-0.4-0.1-1,0.1-1.6,0.1c-0.5-0.6-0.9-1-1.3-1.8
			c-0.2-0.4-0.3-0.8-0.5-1.2c0.1-0.7,0.4-1.4,0.5-2c0-0.7,0-1.3-0.2-1.9c-0.1-0.3-0.3-0.6-0.5-0.8c-0.3-0.2-0.6-0.3-0.9-0.3h0
			c-0.3,0-0.7,0.1-0.9,0.3C8.2,7.9,8.1,8.1,8.1,8.4c-0.1,0.5-0.1,1.1,0,1.7c0.2,0.7,0.6,1.6,0.9,2.4c-0.2,0.8-0.2,1.4-0.5,2.2
			c-0.2,0.7-0.5,1.1-0.8,1.7c-0.6,0.2-1.4,0.4-1.9,0.7c-0.5,0.3-1,0.7-1.3,1.2c-0.3,0.5-0.2,1.3,0.1,1.8C4.9,20.4,5.1,20.6,5.4,20.7
			z M13.7,16.8c0.3,0,0.5,0.1,0.5,0.1c0,0,0,0,0,0c-0.1,0.2-0.1,0.2-0.2,0.2c-0.1,0-0.3-0.1-0.6-0.3C13.5,16.8,13.7,16.8,13.7,16.8z
			 M9.9,15.3c0.1-0.2,0.1-0.3,0.1-0.5c0.2,0.3,0.4,0.5,0.6,0.8c-0.3,0.1-0.5,0-0.8,0.1c0,0-0.1,0.1-0.1,0.1
			C9.8,15.5,9.9,15.4,9.9,15.3z M5.9,19.1c0.1-0.1,0.3-0.4,0.7-0.7c0,0,0.1,0,0.1-0.1c-0.1,0.1-0.1,0.3-0.2,0.3
			c-0.3,0.4-0.6,0.6-0.7,0.6c0,0,0,0,0,0h0C5.8,19.1,5.8,19.2,5.9,19.1z"/>
	</g>
</g>
</svg>
