<?xml version="1.0" encoding="utf-8"?>
<!-- Generator: Adobe Illustrator 21.1.0, SVG Export Plug-In . SVG Version: 6.00 Build 0)  -->
<svg version="1.1" id="Shape_113_1_" xmlns="http://www.w3.org/2000/svg" xmlns:xlink="http://www.w3.org/1999/xlink" x="0px"
	 y="0px" viewBox="0 0 20 26" style="enable-background:new 0 0 20 26;" xml:space="preserve">
<style type="text/css">
	.st0{fill-rule:evenodd;clip-rule:evenodd;}
</style>
<g id="Shape_113">
	<g>
		<path class="st0" d="M0,0v26h20V0H0z M18,24H2V2h16V24z M6,16.5C6,17.9,7.1,19,8.5,19c1,0,1.7-0.6,2.1-1.5
			c0.3,0.2,0.5,0.5,0.9,0.5c1.4,0,2.5-1.1,2.5-2.5V11h2V9h-4v6.5c0,0.2-0.3,0.5-0.5,0.5c0,0,0,0-0.1-0.1c-0.1-0.1-0.2-0.4-0.3-0.7
			C11,14.7,11,14,11,14v-2H9v4.5C9,16.7,8.7,17,8.5,17C8.3,17,8,16.7,8,16.5V10H4v2h2V16.5z"/>
	</g>
</g>
</svg>
