<?xml version="1.0" encoding="utf-8"?>
<!-- Generator: Adobe Illustrator 21.1.0, SVG Export Plug-In . SVG Version: 6.00 Build 0)  -->
<svg version="1.1" id="Shape_144_1_" xmlns="http://www.w3.org/2000/svg" xmlns:xlink="http://www.w3.org/1999/xlink" x="0px"
	 y="0px" viewBox="0 0 28 24" style="enable-background:new 0 0 28 24;" xml:space="preserve">
<style type="text/css">
	.st0{fill-rule:evenodd;clip-rule:evenodd;}
</style>
<g id="Shape_144">
	<g>
		<path class="st0" d="M20.5,0c-3.4,0-5.6,2.1-6.5,2.9C13.1,2.1,10.9,0,7.5,0C3.4,0,0,3.4,0,7.5c0,1.4,0.6,2.7,1.3,3.6
			c0.6,0.9,1.2,1.5,1.2,1.5l10.8,10.8l0.7,0.7l0.7-0.7l10.8-10.8c0,0,2.5-2.2,2.5-5C28,3.4,24.6,0,20.5,0z M24.1,11.1L14,21.2
			L3.9,11.1c0,0-0.5-0.5-1-1.2C2.4,9.2,2,8.3,2,7.5C2,4.5,4.5,2,7.5,2c3,0,5.8,2.9,5.8,2.9L14,5.7l0.8-0.8c0,0,2.8-2.9,5.8-2.9
			c3,0,5.5,2.5,5.5,5.5C26,9,24.1,11.1,24.1,11.1z"/>
	</g>
</g>
</svg>
