<?xml version="1.0" encoding="utf-8"?>
<!-- Generator: Adobe Illustrator 21.1.0, SVG Export Plug-In . SVG Version: 6.00 Build 0)  -->
<svg version="1.1" id="Shape_148_1_" xmlns="http://www.w3.org/2000/svg" xmlns:xlink="http://www.w3.org/1999/xlink" x="0px"
	 y="0px" viewBox="0 0 22 24" style="enable-background:new 0 0 22 24;" xml:space="preserve">
<style type="text/css">
	.st0{fill-rule:evenodd;clip-rule:evenodd;}
</style>
<g id="Shape_148">
	<g>
		<path class="st0" d="M6.4,11.6c-0.8-1.3-1.6-2.4-1.6-2.4L4,8L3.2,9.2c0,0-0.8,1.1-1.6,2.4c-0.4,0.7-0.8,1.4-1.1,2.1
			C0.3,14.4,0,15,0,15.7c0,2.2,1.8,4,4,4c2.2,0,4-1.8,4-4c0-0.7-0.3-1.3-0.6-2C7.1,13,6.8,12.3,6.4,11.6z M4,17.8c-1.1,0-2-0.9-2-2
			c0-0.1,0.1-0.6,0.4-1.2c0.3-0.6,0.6-1.3,1-1.9c0.3-0.5,0.4-0.6,0.6-1c0.3,0.4,0.3,0.5,0.6,1c0.4,0.6,0.7,1.3,1,1.9
			C5.9,15.1,6,15.6,6,15.7C6,16.9,5.1,17.8,4,17.8z M17,7.8c0-0.7-0.3-1.3-0.6-2c-0.3-0.7-0.7-1.4-1.1-2.1c-0.8-1.3-1.6-2.4-1.6-2.4
			L13,0l-0.8,1.2c0,0-0.8,1.1-1.6,2.4C10.2,4.3,9.9,5,9.6,5.7C9.3,6.4,9,7,9,7.8c0,2.2,1.8,4,4,4C15.2,11.8,17,9.9,17,7.8z M13,9.8
			c-1.1,0-2-0.9-2-2c0-0.1,0.1-0.6,0.4-1.2c0.3-0.6,0.6-1.3,1-1.9c0.3-0.5,0.4-0.6,0.6-1c0.3,0.4,0.3,0.5,0.6,1
			c0.4,0.6,0.7,1.3,1,1.9C14.9,7.1,15,7.6,15,7.8C15,8.9,14.1,9.8,13,9.8z M21.4,17.7c-0.3-0.7-0.7-1.4-1.1-2.1
			c-0.8-1.3-1.6-2.4-1.6-2.4L18,12l-0.8,1.2c0,0-0.8,1.1-1.6,2.4c-0.4,0.7-0.8,1.4-1.1,2.1c-0.3,0.7-0.6,1.3-0.6,2c0,2.2,1.8,4,4,4
			s4-1.8,4-4C22,19,21.7,18.4,21.4,17.7z M18,21.8c-1.1,0-2-0.9-2-2c0-0.1,0.1-0.6,0.4-1.2c0.3-0.6,0.6-1.3,1-1.9
			c0.3-0.5,0.4-0.6,0.6-1c0.3,0.4,0.3,0.5,0.6,1c0.4,0.6,0.7,1.3,1,1.9c0.3,0.6,0.4,1.1,0.4,1.2C20,20.9,19.1,21.8,18,21.8z"/>
	</g>
</g>
</svg>
