<?xml version="1.0" encoding="utf-8"?>
<!-- Generator: Adobe Illustrator 21.1.0, SVG Export Plug-In . SVG Version: 6.00 Build 0)  -->
<svg version="1.1" id="Shape_60_copy_3_1_" xmlns="http://www.w3.org/2000/svg" xmlns:xlink="http://www.w3.org/1999/xlink" x="0px"
	 y="0px" viewBox="0 0 20 20" style="enable-background:new 0 0 20 20;" xml:space="preserve">
<style type="text/css">
	.st0{fill-rule:evenodd;clip-rule:evenodd;}
</style>
<g id="Shape_60_copy_3">
	<g>
		<path class="st0" d="M3,8H1C0.4,8,0,8.4,0,9v2c0,0.6,0.4,1,1,1h2c0.6,0,1-0.4,1-1V9C4,8.4,3.6,8,3,8z M19,8h-2c-0.6,0-1,0.4-1,1v2
			c0,0.6,0.4,1,1,1h2c0.6,0,1-0.4,1-1V9C20,8.4,19.6,8,19,8z M11,8H9C8.4,8,8,8.4,8,9v2c0,0.6,0.4,1,1,1h2c0.6,0,1-0.4,1-1V9
			C12,8.4,11.6,8,11,8z M11,0H9C8.4,0,8,0.4,8,1v2c0,0.6,0.4,1,1,1h2c0.6,0,1-0.4,1-1V1C12,0.4,11.6,0,11,0z M19,0h-2
			c-0.6,0-1,0.4-1,1v2c0,0.6,0.4,1,1,1h2c0.6,0,1-0.4,1-1V1C20,0.4,19.6,0,19,0z M3,0H1C0.4,0,0,0.4,0,1v2c0,0.6,0.4,1,1,1h2
			c0.6,0,1-0.4,1-1V1C4,0.4,3.6,0,3,0z M3,16H1c-0.6,0-1,0.4-1,1v2c0,0.6,0.4,1,1,1h2c0.6,0,1-0.4,1-1v-2C4,16.4,3.6,16,3,16z
			 M11,16H9c-0.6,0-1,0.4-1,1v2c0,0.6,0.4,1,1,1h2c0.6,0,1-0.4,1-1v-2C12,16.4,11.6,16,11,16z M19,16h-2c-0.6,0-1,0.4-1,1v2
			c0,0.6,0.4,1,1,1h2c0.6,0,1-0.4,1-1v-2C20,16.4,19.6,16,19,16z"/>
	</g>
</g>
</svg>
