<?xml version="1.0" encoding="utf-8"?>
<!-- Generator: Adobe Illustrator 21.1.0, SVG Export Plug-In . SVG Version: 6.00 Build 0)  -->
<svg version="1.1" id="Shape_60_copy_7_1_" xmlns="http://www.w3.org/2000/svg" xmlns:xlink="http://www.w3.org/1999/xlink" x="0px"
	 y="0px" viewBox="0 0 20 20" style="enable-background:new 0 0 20 20;" xml:space="preserve">
<style type="text/css">
	.st0{fill-rule:evenodd;clip-rule:evenodd;}
</style>
<g id="Shape_60_copy_7">
	<g>
		<path class="st0" d="M12,9c0-0.6-0.4-1-1-1H9C8.4,8,8,8.4,8,9v2c0,0.6,0.4,1,1,1h2c0.6,0,1-0.4,1-1V9z M19,0h-2c-0.6,0-1,0.4-1,1
			v2c0,0.6,0.4,1,1,1h2c0.6,0,1-0.4,1-1V1C20,0.4,19.6,0,19,0z M1,4h2c0.6,0,1-0.4,1-1V1c0-0.6-0.4-1-1-1H1C0.4,0,0,0.4,0,1v2
			C0,3.6,0.4,4,1,4z M3,16H1c-0.6,0-1,0.4-1,1v2c0,0.6,0.4,1,1,1h2c0.6,0,1-0.4,1-1v-2C4,16.4,3.6,16,3,16z M19,16h-2
			c-0.6,0-1,0.4-1,1v2c0,0.6,0.4,1,1,1h2c0.6,0,1-0.4,1-1v-2C20,16.4,19.6,16,19,16z M4,7c0,0.6,0.4,1,1,1h2c0.6,0,1-0.4,1-1V5
			c0-0.6-0.4-1-1-1H5C4.4,4,4,4.4,4,5V7z M16,13c0-0.6-0.4-1-1-1h-2c-0.6,0-1,0.4-1,1v2c0,0.6,0.4,1,1,1h2c0.6,0,1-0.4,1-1V13z
			 M13,8h2c0.6,0,1-0.4,1-1V5c0-0.6-0.4-1-1-1h-2c-0.6,0-1,0.4-1,1v2C12,7.6,12.4,8,13,8z M7,12H5c-0.6,0-1,0.4-1,1v2
			c0,0.6,0.4,1,1,1h2c0.6,0,1-0.4,1-1v-2C8,12.4,7.6,12,7,12z"/>
	</g>
</g>
</svg>
