<?xml version="1.0" encoding="utf-8"?>
<!-- Generator: Adobe Illustrator 21.1.0, SVG Export Plug-In . SVG Version: 6.00 Build 0)  -->
<svg version="1.1" id="Shape_146_1_" xmlns="http://www.w3.org/2000/svg" xmlns:xlink="http://www.w3.org/1999/xlink" x="0px"
	 y="0px" viewBox="0 0 8 13" style="enable-background:new 0 0 8 13;" xml:space="preserve">
<style type="text/css">
	.st0{fill-rule:evenodd;clip-rule:evenodd;}
</style>
<g id="Shape_146">
	<g>
		<path class="st0" d="M4.7,0.1C4.7,0.1,4.7,0.1,4.7,0.1C4.4,0,4.1,0,3.8,0C2.9,0,2.1,0.4,1.4,0.9C0.5,1.7,0,2.8,0,4
			c0,0.3,0.2,0.5,0.5,0.5h2C2.8,4.5,3,4.3,3,4c0-0.3,0.1-0.6,0.4-0.8c0,0,0,0,0,0C3.6,3,3.9,3,4.2,3C4.6,3.1,5,3.6,5,4
			c0,0.2-0.1,0.4-0.2,0.5C4.7,4.7,4.5,4.8,4.4,4.8C3.6,5.1,3,5.5,2.6,6.1C2.2,6.6,2,7.3,2,8v0.5C2,8.8,2.2,9,2.5,9h2
			C4.8,9,5,8.8,5,8.5V8c0-0.1,0-0.1,0-0.2c0,0,0.1-0.1,0.5-0.3c0,0,0,0,0,0C7,7,7.9,5.7,8,4.1C8.1,2.2,6.6,0.4,4.7,0.1z M5.1,6.7
			C4.7,6.8,4.4,7,4.2,7.2C4.1,7.3,4,7.5,4,7.7C4,7.8,4,7.9,4,8H3c0-0.6,0.1-1,0.4-1.3C3.6,6.3,4.1,6,4.8,5.7C5,5.6,5.3,5.5,5.5,5.2
			C5.8,5,6,4.6,6,4.1c0-1-0.7-1.9-1.6-2C3.8,1.9,3.2,2.1,2.7,2.5c-0.3,0.3-0.4,0.7-0.5,1H1.1c0.1-0.7,0.4-1.3,1-1.8
			C2.6,1.3,3.2,1,3.9,1c0.2,0,0.4,0,0.7,0C5.9,1.3,7,2.6,7,4.1C7,5.2,6.3,6.2,5.1,6.7z M4.5,10h-2C2.2,10,2,10.2,2,10.5v2
			C2,12.8,2.2,13,2.5,13h2C4.8,13,5,12.8,5,12.5v-2C5,10.2,4.8,10,4.5,10z M4,12H3v-1h1V12z"/>
	</g>
</g>
</svg>
