<?xml version="1.0" encoding="utf-8"?>
<!-- Generator: Adobe Illustrator 21.1.0, SVG Export Plug-In . SVG Version: 6.00 Build 0)  -->
<svg version="1.1" id="Shape_177_1_" xmlns="http://www.w3.org/2000/svg" xmlns:xlink="http://www.w3.org/1999/xlink" x="0px"
	 y="0px" viewBox="0 0 16 15" style="enable-background:new 0 0 16 15;" xml:space="preserve">
<style type="text/css">
	.st0{fill-rule:evenodd;clip-rule:evenodd;}
</style>
<g id="Shape_177">
	<g>
		<path class="st0" d="M1.5,0C0.7,0,0,0.7,0,1.5S0.7,3,1.5,3S3,2.3,3,1.5S2.3,0,1.5,0z M6.5,3h8C15.3,3,16,2.3,16,1.5S15.3,0,14.5,0
			h-8C5.7,0,5,0.7,5,1.5S5.7,3,6.5,3z M1.5,6C0.7,6,0,6.7,0,7.5S0.7,9,1.5,9S3,8.3,3,7.5S2.3,6,1.5,6z M14.5,6h-8C5.7,6,5,6.7,5,7.5
			S5.7,9,6.5,9h8C15.3,9,16,8.3,16,7.5S15.3,6,14.5,6z M1.5,12C0.7,12,0,12.7,0,13.5S0.7,15,1.5,15S3,14.3,3,13.5S2.3,12,1.5,12z
			 M14.5,12h-8C5.7,12,5,12.7,5,13.5S5.7,15,6.5,15h8c0.8,0,1.5-0.7,1.5-1.5S15.3,12,14.5,12z"/>
	</g>
</g>
</svg>
