<?xml version="1.0" encoding="utf-8"?>
<!-- Generator: Adobe Illustrator 21.1.0, SVG Export Plug-In . SVG Version: 6.00 Build 0)  -->
<svg version="1.1" id="Shape_141_1_" xmlns="http://www.w3.org/2000/svg" xmlns:xlink="http://www.w3.org/1999/xlink" x="0px"
	 y="0px" viewBox="0 0 16 13" style="enable-background:new 0 0 16 13;" xml:space="preserve">
<style type="text/css">
	.st0{fill-rule:evenodd;clip-rule:evenodd;}
</style>
<g id="Shape_141">
	<g>
		<path class="st0" d="M3,9h8V8H3V9z M3,7h10V6H3V7z M3,5h10V4H3V5z M14.5,0h-13C0.7,0,0,0.7,0,1.5v10C0,12.3,0.7,13,1.5,13h13
			c0.8,0,1.5-0.7,1.5-1.5v-10C16,0.7,15.3,0,14.5,0z M15,11.5c0,0.3-0.2,0.5-0.5,0.5h-13C1.2,12,1,11.8,1,11.5v-10
			C1,1.2,1.2,1,1.5,1h13C14.8,1,15,1.2,15,1.5V11.5z"/>
	</g>
</g>
</svg>
