<?xml version="1.0" encoding="utf-8"?>
<!-- Generator: Adobe Illustrator 21.1.0, SVG Export Plug-In . SVG Version: 6.00 Build 0)  -->
<svg version="1.1" id="Shape_142_1_" xmlns="http://www.w3.org/2000/svg" xmlns:xlink="http://www.w3.org/1999/xlink" x="0px"
	 y="0px" viewBox="0 0 13 13" style="enable-background:new 0 0 13 13;" xml:space="preserve">
<style type="text/css">
	.st0{fill-rule:evenodd;clip-rule:evenodd;}
</style>
<g id="Shape_142">
	<g>
		<path class="st0" d="M3.9,12c0,0.6,0.4,1,1,1c0.6,0,1-0.4,1-1s-0.4-1-1-1C4.4,11,3.9,11.5,3.9,12z M8.9,12c0,0.6,0.4,1,1,1
			c0.6,0,1-0.4,1-1s-0.4-1-1-1C9.4,11,8.9,11.5,8.9,12z M3.6,3L3.4,1.1l0,0C3.2,0.4,2.6,0,1.9,0h-2v1h2c0.2,0,0.4,0.1,0.5,0.3
			l0.9,8.3C3.4,10.4,4.1,11,4.8,11h0.1h5h1v-1H4.8c-0.3,0-0.5-0.2-0.5-0.4L4.3,9h6.3c0.7,0,1.3-0.5,1.5-1.2l1-4.8H3.6z M11.1,7.6
			C11.1,7.8,10.9,8,10.6,8H4.2L3.7,4h8.1L11.1,7.6z"/>
	</g>
</g>
</svg>
