<?xml version="1.0" encoding="utf-8"?>
<!-- Generator: Adobe Illustrator 21.1.0, SVG Export Plug-In . SVG Version: 6.00 Build 0)  -->
<svg version="1.1" id="Shape_144_1_" xmlns="http://www.w3.org/2000/svg" xmlns:xlink="http://www.w3.org/1999/xlink" x="0px"
	 y="0px" viewBox="0 0 12 13" style="enable-background:new 0 0 12 13;" xml:space="preserve">
<style type="text/css">
	.st0{fill-rule:evenodd;clip-rule:evenodd;}
</style>
<g id="Shape_144">
	<g>
		<path class="st0" d="M2,3h2V2H2V3z M5,7h2V6H5V7z M5,9h2V8H5V9z M2,7h2V6H2V7z M2,11h2v-1H2V11z M2,5h2V4H2V5z M2,9h2V8H2V9z
			 M8,11h2v-1H8V11z M8,3h2V2H8V3z M5,5h2V4H5V5z M8,5h2V4H8V5z M10.5,0h-9C0.7,0,0,0.7,0,1.5V13h12V1.5C12,0.7,11.3,0,10.5,0z
			 M11,12H7v-2H5v2H1V1.5C1,1.2,1.2,1,1.5,1h9C10.8,1,11,1.2,11,1.5V12z M5,3h2V2H5V3z M8,7h2V6H8V7z M8,9h2V8H8V9z"/>
	</g>
</g>
</svg>
