<?xml version="1.0" encoding="utf-8"?>
<!-- Generator: Adobe Illustrator 21.1.0, SVG Export Plug-In . SVG Version: 6.00 Build 0)  -->
<svg version="1.1" id="Shape_143_1_" xmlns="http://www.w3.org/2000/svg" xmlns:xlink="http://www.w3.org/1999/xlink" x="0px"
	 y="0px" viewBox="0 0 14 13" style="enable-background:new 0 0 14 13;" xml:space="preserve">
<style type="text/css">
	.st0{fill-rule:evenodd;clip-rule:evenodd;}
</style>
<g id="Shape_143">
	<g>
		<path class="st0" d="M6,6.9h2v-1H6V6.9z M12.5,1.9H10V1.4c0-0.8-0.7-1.5-1.5-1.5h-3C4.7-0.1,4,0.6,4,1.4v0.5H1.5
			C0.7,1.9,0,2.6,0,3.4v8c0,0.8,0.7,1.5,1.5,1.5h11c0.8,0,1.5-0.7,1.5-1.5v-8C14,2.6,13.3,1.9,12.5,1.9z M5,1.4
			c0-0.3,0.2-0.5,0.5-0.5h3C8.8,0.9,9,1.1,9,1.4v0.5H5V1.4z M13,11.4c0,0.3-0.2,0.5-0.5,0.5h-11c-0.3,0-0.5-0.2-0.5-0.5V8.9h12V11.4
			z M13,7.9H1V3.4c0-0.3,0.2-0.5,0.5-0.5h11c0.3,0,0.5,0.2,0.5,0.5V7.9z"/>
	</g>
</g>
</svg>
