<?xml version="1.0" encoding="utf-8"?>
<!-- Generator: Adobe Illustrator 21.1.0, SVG Export Plug-In . SVG Version: 6.00 Build 0)  -->
<svg version="1.1" id="Shape_145_1_" xmlns="http://www.w3.org/2000/svg" xmlns:xlink="http://www.w3.org/1999/xlink" x="0px"
	 y="0px" viewBox="0 0 14 13" style="enable-background:new 0 0 14 13;" xml:space="preserve">
<style type="text/css">
	.st0{fill-rule:evenodd;clip-rule:evenodd;}
</style>
<g id="Shape_145">
	<g>
		<path class="st0" d="M12.5,3H11v1h1.5C12.8,4,13,4.2,13,4.5v5c0,0.3-0.2,0.5-0.5,0.5H10v1l-1.3-1H5.5C5.3,10,5.1,9.9,5,9.7
			l-0.8,0.6C4.5,10.7,5,11,5.5,11h2.8l2.7,2v-2h1.5c0.8,0,1.5-0.7,1.5-1.5v-5C14,3.7,13.3,3,12.5,3z M5.7,8h2.8C9.3,8,10,7.3,10,6.5
			v-5C10,0.7,9.3,0,8.5,0h-7C0.7,0,0,0.7,0,1.5v5C0,7.3,0.7,8,1.5,8H3v2L5.7,8z M1.5,7C1.2,7,1,6.8,1,6.5v-5C1,1.2,1.2,1,1.5,1h7
			C8.8,1,9,1.2,9,1.5v5C9,6.8,8.8,7,8.5,7H5.3L4,8V7H1.5z"/>
	</g>
</g>
</svg>
