<?xml version="1.0" encoding="utf-8"?>
<!-- Generator: Adobe Illustrator 21.1.0, SVG Export Plug-In . SVG Version: 6.00 Build 0)  -->
<svg version="1.1" id="Shape_1_1_" xmlns="http://www.w3.org/2000/svg" xmlns:xlink="http://www.w3.org/1999/xlink" x="0px" y="0px"
	 viewBox="0 0 16 16" style="enable-background:new 0 0 16 16;" xml:space="preserve">
<style type="text/css">
	.st0{fill-rule:evenodd;clip-rule:evenodd;}
</style>
<g id="Shape_1">
	<g>
		<path class="st0" d="M15.6,0.7c-0.3-0.1-0.5-0.1-0.7,0.1l-1.4,1.3C12.8,1.5,11.9,1,11,0.6C10,0.2,9,0,8,0C6.9,0,5.9,0.2,4.9,0.6
			s-1.8,1-2.6,1.7C1.6,3.1,1.1,3.9,0.6,4.9S0,6.9,0,8s0.2,2.1,0.6,3.1c0.4,1,1,1.8,1.7,2.6c0.7,0.7,1.6,1.3,2.6,1.7
			c1,0.4,2,0.6,3.1,0.6c1.2,0,2.3-0.3,3.4-0.8c1.1-0.5,2-1.2,2.8-2.1c0.1-0.1,0.1-0.1,0.1-0.2c0-0.1,0-0.2-0.1-0.2l-1.4-1.4
			c-0.1-0.1-0.2-0.1-0.3-0.1c-0.1,0-0.2,0.1-0.2,0.1c-0.5,0.7-1.1,1.2-1.9,1.5S8.8,13.3,8,13.3c-0.7,0-1.4-0.1-2.1-0.4
			c-0.7-0.3-1.2-0.7-1.7-1.1c-0.5-0.5-0.9-1-1.1-1.7C2.8,9.4,2.7,8.7,2.7,8s0.1-1.4,0.4-2.1c0.3-0.7,0.7-1.2,1.1-1.7
			c0.5-0.5,1-0.9,1.7-1.1C6.6,2.8,7.3,2.7,8,2.7c1.4,0,2.6,0.5,3.6,1.4l-1.4,1.4C10,5.7,9.9,6,10.1,6.3c0.1,0.3,0.3,0.4,0.6,0.4h4.7
			c0.2,0,0.3-0.1,0.5-0.2C15.9,6.3,16,6.2,16,6V1.3C16,1.1,15.9,0.8,15.6,0.7z"/>
	</g>
</g>
</svg>
