<?xml version="1.0" encoding="utf-8"?>
<!-- Generator: Adobe Illustrator 21.1.0, SVG Export Plug-In . SVG Version: 6.00 Build 0)  -->
<svg version="1.1" id="Shape_113_1_" xmlns="http://www.w3.org/2000/svg" xmlns:xlink="http://www.w3.org/1999/xlink" x="0px"
	 y="0px" viewBox="0 0 40 40" style="enable-background:new 0 0 40 40;" xml:space="preserve">
<style type="text/css">
	.st0{fill-rule:evenodd;clip-rule:evenodd;}
</style>
<g id="Shape_113">
	<g>
		<path class="st0" d="M36,19v-2.4C36.6,5,28.8,0,20,0C11.4,0,3.4,5,4,16.4V19c-1.2,1-2,2.4-2,4c0,2.4,1.8,4.4,4,5
			c2.4,5.8,7.2,12,14,12c6.6,0,11.4-6.2,14-12c2.4-0.4,4-2.4,4-5C38,21.4,37.2,20,36,19z M22,30h-4v-4h4V30z M26,20
			c0,0.8-0.4,1.4-1.2,1.8L22,23.2V24h-4v-2c0-0.8,0.4-1.4,1.2-1.8l2.8-1.4V16h-4v2.2h-4V14c0-1.2,0.8-2,2-2h8c1.2,0,2,0.8,2,2V20z"
			/>
	</g>
</g>
</svg>
