<?xml version="1.0" encoding="utf-8"?>
<!-- Generator: Adobe Illustrator 21.1.0, SVG Export Plug-In . SVG Version: 6.00 Build 0)  -->
<svg version="1.1" id="Shape_211_copy_1_" xmlns="http://www.w3.org/2000/svg" xmlns:xlink="http://www.w3.org/1999/xlink" x="0px"
	 y="0px" viewBox="0 0 26 24" style="enable-background:new 0 0 26 24;" xml:space="preserve">
<style type="text/css">
	.st0{fill-rule:evenodd;clip-rule:evenodd;}
</style>
<g id="Shape_211_copy">
	<g>
		<path class="st0" d="M23,9h-7.3l-4-9H7l1,9H6.2l-2-3H0l1.2,6L0,18h4.2l2-3H8l-1,9h4.7l4-9H23c1.6,0,3-1.4,3-3S24.6,9,23,9z M23,13
			h-8.6l-4,9H9.2l1-9H5.1l-2,3H2.4l0.8-4L2.4,8h0.7l2,3h5.1l-1-9h1.2l4,9H23c0.6,0,1,0.4,1,1S23.6,13,23,13z"/>
	</g>
</g>
</svg>
