<?xml version="1.0" encoding="utf-8"?>
<!-- Generator: Adobe Illustrator 21.1.0, SVG Export Plug-In . SVG Version: 6.00 Build 0)  -->
<svg version="1.1" id="Shape_206_1_" xmlns="http://www.w3.org/2000/svg" xmlns:xlink="http://www.w3.org/1999/xlink" x="0px"
	 y="0px" viewBox="0 0 22 23" style="enable-background:new 0 0 22 23;" xml:space="preserve">
<style type="text/css">
	.st0{fill-rule:evenodd;clip-rule:evenodd;}
</style>
<g id="Shape_206">
	<g>
		<path class="st0" d="M10,9H8v2h2V9z M14,13h-2v2h2V13z M14,17h-2v2h2V17z M14,9h-2v2h2V9z M18,9h-2v2h2V9z M18,13h-2v2h2V13z
			 M10,13H8v2h2V13z M18,1V0h-2v1H6V0H4v1H0v22h22V1H18z M20,21H2V7h18V21z M20,5H2V3h2v1h2V3h10v1h2V3h2V5z M6,17H4v2h2V17z M10,17
			H8v2h2V17z M6,13H4v2h2V13z"/>
	</g>
</g>
</svg>
