<?xml version="1.0" encoding="utf-8"?>
<!-- Generator: Adobe Illustrator 21.1.0, SVG Export Plug-In . SVG Version: 6.00 Build 0)  -->
<svg version="1.1" id="Shape_213_1_" xmlns="http://www.w3.org/2000/svg" xmlns:xlink="http://www.w3.org/1999/xlink" x="0px"
	 y="0px" viewBox="0 0 24 23" style="enable-background:new 0 0 24 23;" xml:space="preserve">
<style type="text/css">
	.st0{fill-rule:evenodd;clip-rule:evenodd;}
</style>
<g id="Shape_213">
	<g>
		<path class="st0" d="M8,5.9C8.2,5.5,8,5,7.6,4.8c-0.1,0-0.2-0.1-0.3-0.1C7,4.8,6.7,4.9,6.5,5.3c-0.2,0.4,0,0.9,0.4,1.1
			C7.3,6.5,7.8,6.3,8,5.9z M12.4,8.5l4.8,1.2L19.5,0h-2.1l-1.8,7.2l-2.5-0.6L16,0h-2.9c0.2,0.4,0.3,0.9,0.1,1.3
			c-0.4,0.9-1.8,1.2-3.1,0.6C9.2,1.5,8.5,0.7,8.4,0h-2c0.2,1.5,1.2,2.9,3,3.7C10,4,10.8,4.2,11.5,4.2c0.2,0,0.4,0,0.6,0l-1.6,3.7
			C9.7,7.6,9,8,8.6,8.6L4.2,6.7c0.2-0.7-0.1-1.5-0.7-1.8L5.5,0H3.3L0.3,7.2L11,11.8L12.4,8.5z M10.3,15.7c0.1-0.1,0.3-0.2,0.5-0.4
			c0.4-0.3,1-0.7,1.7-1c1.3-0.7,3-1.3,4-1.3c2.4,0,6.7,1.6,6.7,1.6l0.7-1.9c0,0-4.2-1.8-7.4-1.8c-1.6,0-3.4,0.7-4.9,1.5
			c-0.7,0.4-1.4,0.8-1.9,1.1c-0.1,0.1-0.2,0.1-0.2,0.2v0L9.2,14v0c0,0-0.1,0-0.1,0.1h0l-5.5-0.9c-1.5-0.2-3,0.6-3.4,2.1
			c-0.5,1.5,0.2,3.2,1.7,3.8c1.5,0.7,3.9,1.6,6,2.4c1.1,0.4,2.1,0.8,2.9,1c0.4,0.1,0.8,0.2,1.1,0.3c0.3,0.1,0.5,0.2,0.8,0.2
			c0.7,0,1.2-0.3,1.8-0.6c0.6-0.3,1.2-0.7,1.7-1.1c0.6-0.4,1.2-0.7,1.7-1c0.5-0.3,0.9-0.3,0.9-0.3c1.1,0,2.3,0.5,2.3,0.5l0.8-1.8
			c0,0-1.5-0.6-3.1-0.6c-0.7,0-1.2,0.3-1.8,0.6c-0.6,0.3-1.2,0.7-1.8,1.1c-0.6,0.4-1.2,0.7-1.7,1c-0.4,0.2-0.8,0.3-0.8,0.3
			c0,0-0.2,0-0.4-0.1c-0.2-0.1-0.6-0.2-1-0.3c-0.8-0.3-1.8-0.6-2.8-1c-2.1-0.8-4.5-1.8-5.9-2.4c-0.5-0.2-0.8-0.8-0.6-1.3
			c0.2-0.5,0.7-0.8,1.2-0.8L8.1,16c-0.1,0.6,0,1.3,0.4,1.9c0.7,1,2,1.4,3.1,1l0.1,0h0l4.4-2.1l-0.8-1.8L11,17c0,0,0,0,0,0
			c-0.3,0.1-0.7,0-0.8-0.3C10,16.5,9.9,16.2,10,16l0.2-0.2C10.2,15.8,10.2,15.8,10.3,15.7C10.2,15.7,10.3,15.7,10.3,15.7z"/>
	</g>
</g>
</svg>
