<?xml version="1.0" encoding="utf-8"?>
<!-- Generator: Adobe Illustrator 21.1.0, SVG Export Plug-In . SVG Version: 6.00 Build 0)  -->
<svg version="1.1" id="Shape_208_1_" xmlns="http://www.w3.org/2000/svg" xmlns:xlink="http://www.w3.org/1999/xlink" x="0px"
	 y="0px" viewBox="0 0 20 26" style="enable-background:new 0 0 20 26;" xml:space="preserve">
<style type="text/css">
	.st0{fill-rule:evenodd;clip-rule:evenodd;}
</style>
<g id="Shape_208">
	<g>
		<path class="st0" d="M20,20h-1c-0.6,0-1-0.4-1-1v-8.7c0-3.8-2.5-7.1-6-8c0-0.1,0-0.2,0-0.3c0-1.1-0.9-2-2-2S8,0.9,8,2
			c0,0.1,0,0.2,0,0.3c-3.5,0.9-6,4-6,7.8v9c0,0.6-0.4,1-1,1H0v2h7.2C7.1,22.3,7,22.6,7,23c0,1.6,1.4,3,3,3s3-1.4,3-3
			c0-0.4-0.1-0.7-0.2-1H20V20z M10,24c-0.6,0-1-0.4-1-1s0.4-1,1-1s1,0.4,1,1S10.6,24,10,24z M3.8,20C3.9,19.7,4,19.4,4,19v-9
			c0-3.2,2.4-5.8,5.6-6C9.7,4,9.9,4,10,4h0.2c3.3,0.1,5.8,3,5.8,6.3V19c0,0.4,0.1,0.7,0.2,1H3.8z"/>
	</g>
</g>
</svg>
