<?xml version="1.0" encoding="utf-8"?>
<!-- Generator: Adobe Illustrator 21.1.0, SVG Export Plug-In . SVG Version: 6.00 Build 0)  -->
<svg version="1.1" id="Shape_215_1_" xmlns="http://www.w3.org/2000/svg" xmlns:xlink="http://www.w3.org/1999/xlink" x="0px"
	 y="0px" viewBox="0 0 24 24" style="enable-background:new 0 0 24 24;" xml:space="preserve">
<style type="text/css">
	.st0{fill-rule:evenodd;clip-rule:evenodd;}
</style>
<g id="Shape_215">
	<g>
		<path class="st0" d="M7.5,11C8.3,11,9,10.3,9,9.5S8.3,8,7.5,8S6,8.7,6,9.5S6.7,11,7.5,11z M16.5,11c0.8,0,1.5-0.7,1.5-1.5
			S17.3,8,16.5,8S15,8.7,15,9.5S15.7,11,16.5,11z M12,18c-2.2,0-4.1-1.2-5.2-3l-1.7,1c1.4,2.4,4,4,6.9,4s5.5-1.6,6.9-4l-1.7-1
			C16.1,16.8,14.2,18,12,18z M12,0C5.4,0,0,5.4,0,12s5.4,12,12,12s12-5.4,12-12S18.6,0,12,0z M12,22C6.5,22,2,17.5,2,12S6.5,2,12,2
			s10,4.5,10,10S17.5,22,12,22z"/>
	</g>
</g>
</svg>
