<?xml version="1.0" encoding="utf-8"?>
<!-- Generator: Adobe Illustrator 21.1.0, SVG Export Plug-In . SVG Version: 6.00 Build 0)  -->
<svg version="1.1" id="Shape_1_1_" xmlns="http://www.w3.org/2000/svg" xmlns:xlink="http://www.w3.org/1999/xlink" x="0px" y="0px"
	 viewBox="0 0 16 12" style="enable-background:new 0 0 16 12;" xml:space="preserve">
<style type="text/css">
	.st0{fill-rule:evenodd;clip-rule:evenodd;}
</style>
<g id="Shape_1">
	<g>
		<path class="st0" d="M16,7.4c0-1.4-0.8-2.7-2-3.6c0.1,0.4,0.1,0.8,0.1,1.2c0,3.2-2.7,5.9-6.3,6.5c0.8,0.3,1.6,0.5,2.5,0.5
			c0.9,0,1.7-0.2,2.4-0.4c0.9,0.3,1.9,0.4,2.8,0.4c-0.4-0.5-0.7-1-1-1.5C15.4,9.7,16,8.6,16,7.4z M12.6,5.1C12.6,2.3,9.8,0,6.3,0
			C2.8,0,0,2.3,0,5.1c0,1.5,0.8,2.8,2,3.7C1.8,9.4,1.4,10.2,0.7,11c1.3,0,2.9-0.2,4.1-0.9c0.5,0.1,1,0.1,1.5,0.1
			C9.8,10.2,12.6,7.9,12.6,5.1z"/>
	</g>
</g>
</svg>
