<?xml version="1.0" encoding="utf-8"?>
<!-- Generator: Adobe Illustrator 21.1.0, SVG Export Plug-In . SVG Version: 6.00 Build 0)  -->
<svg version="1.1" id="Shape_1_1_" xmlns="http://www.w3.org/2000/svg" xmlns:xlink="http://www.w3.org/1999/xlink" x="0px" y="0px"
	 viewBox="0 0 12 16" style="enable-background:new 0 0 12 16;" xml:space="preserve">
<style type="text/css">
	.st0{fill-rule:evenodd;clip-rule:evenodd;}
</style>
<g id="Shape_1">
	<g>
		<path class="st0" d="M10.8,6.7H1.4c-0.8,0-1.3,0.5-1.3,1.4c0,0.8,0.5,1.4,1.3,1.4h9.3c0.8,0,1.3-0.5,1.3-1.4
			C12.1,7.3,11.6,6.7,10.8,6.7z M1.4,5.9c0.2,0,0.3,0,0.5-0.1l8.7-3.2c0.3-0.1,0.6-0.4,0.8-0.7c0.1-0.3,0.1-0.7,0-1
			c-0.3-0.6-1-1-1.7-0.7L1,3.4C0.6,3.5,0.4,3.8,0.2,4.1c-0.1,0.3-0.1,0.7,0,1C0.4,5.6,0.9,5.9,1.4,5.9z M10.6,13.6l-8.7-3.2
			c-0.7-0.2-1.5,0.1-1.7,0.7c-0.1,0.3-0.1,0.7,0,1c0.1,0.3,0.4,0.6,0.8,0.7L9.7,16c0.2,0.1,0.3,0.1,0.5,0.1c0.6,0,1-0.3,1.2-0.8
			c0.1-0.3,0.1-0.7,0-1C11.2,13.9,11,13.7,10.6,13.6z"/>
	</g>
</g>
</svg>
