<?xml version="1.0" encoding="utf-8"?>
<!-- Generator: Adobe Illustrator 21.1.0, SVG Export Plug-In . SVG Version: 6.00 Build 0)  -->
<svg version="1.1" id="Shape_122_1_" xmlns="http://www.w3.org/2000/svg" xmlns:xlink="http://www.w3.org/1999/xlink" x="0px"
	 y="0px" viewBox="0 0 16 8" style="enable-background:new 0 0 16 8;" xml:space="preserve">
<style type="text/css">
	.st0{fill-rule:evenodd;clip-rule:evenodd;}
</style>
<g id="Shape_122">
	<g>
		<path class="st0" d="M15,3h-3.1c-0.4-1.7-2-3-3.9-3C6.1,0,4.6,1.3,4.1,3H1C0.4,3,0,3.4,0,4c0,0.6,0.4,1,1,1h3.1c0.4,1.7,2,3,3.9,3
			c1.9,0,3.4-1.3,3.9-3H15c0.6,0,1-0.4,1-1C16,3.4,15.6,3,15,3z M8,6C6.9,6,6,5.1,6,4c0-1.1,0.9-2,2-2c1.1,0,2,0.9,2,2
			C10,5.1,9.1,6,8,6z"/>
	</g>
</g>
</svg>
