<?xml version="1.0" encoding="utf-8"?>
<!-- Generator: Adobe Illustrator 21.1.0, SVG Export Plug-In . SVG Version: 6.00 Build 0)  -->
<svg version="1.1" id="Shape_1_copy_6_1_" xmlns="http://www.w3.org/2000/svg" xmlns:xlink="http://www.w3.org/1999/xlink" x="0px"
	 y="0px" viewBox="0 0 16 14" style="enable-background:new 0 0 16 14;" xml:space="preserve">
<style type="text/css">
	.st0{fill-rule:evenodd;clip-rule:evenodd;}
</style>
<g id="Shape_1_copy_6">
	<g>
		<path class="st0" d="M16,5.6c0-0.4-0.3-0.7-0.7-0.7c0,0,0,0-0.1,0l-4.9-0.1L8.7,0.5C8.6,0.3,8.3,0,8,0C7.7,0,7.4,0.3,7.3,0.5
			L5.7,4.8L0.8,4.9c0,0,0,0-0.1,0C0.3,4.9,0,5.2,0,5.6C0,5.8,0.1,6,0.3,6.2l3.9,2.7l-1.4,4.2c-0.1,0.1-0.1,0.2-0.1,0.3
			c0,0.4,0.3,0.7,0.7,0.7c0.2,0,0.3-0.1,0.4-0.1L8,11.4l4.1,2.6c0.1,0.1,0.3,0.1,0.4,0.1c0.4,0,0.7-0.3,0.7-0.7c0-0.1,0-0.2-0.1-0.3
			l-1.4-4.2l3.9-2.7C15.9,6,16,5.8,16,5.6z"/>
	</g>
</g>
</svg>
