<?xml version="1.0" encoding="utf-8"?>
<!-- Generator: Adobe Illustrator 21.1.0, SVG Export Plug-In . SVG Version: 6.00 Build 0)  -->
<svg version="1.1" id="Shape_121_1_" xmlns="http://www.w3.org/2000/svg" xmlns:xlink="http://www.w3.org/1999/xlink" x="0px"
	 y="0px" viewBox="0 0 12 14" style="enable-background:new 0 0 12 14;" xml:space="preserve">
<style type="text/css">
	.st0{fill-rule:evenodd;clip-rule:evenodd;}
</style>
<g id="Shape_121">
	<g>
		<path class="st0" d="M11,4h-1v4L8,6L6,8V4H3C2.4,4,2,3.6,2,3c0-0.6,0.4-1,1-1h8c0.5,0,1-0.4,1-1c0-0.5-0.5-1-1-1H3
			C1.3,0,0,1.3,0,3v8c0,1.7,1.3,3,3,3h8c0.5,0,1-0.4,1-1V5C12,4.4,11.5,4,11,4z"/>
	</g>
</g>
</svg>
