<?xml version="1.0" encoding="utf-8"?>
<!-- Generator: Adobe Illustrator 21.1.0, SVG Export Plug-In . SVG Version: 6.00 Build 0)  -->
<svg version="1.1" id="Shape_200_1_" xmlns="http://www.w3.org/2000/svg" xmlns:xlink="http://www.w3.org/1999/xlink" x="0px"
	 y="0px" viewBox="0 0 13 16" style="enable-background:new 0 0 13 16;" xml:space="preserve">
<style type="text/css">
	.st0{fill-rule:evenodd;clip-rule:evenodd;}
</style>
<g id="Shape_200">
	<g>
		<path class="st0" d="M8.4,3L8.4,3C8.2,2.9,8,2.7,8,2.4C8,2,8.3,1.7,8.6,1.7h0.2c0.5,0,0.8-0.4,0.8-0.8S9.3,0,8.8,0H4.1
			C3.7,0,3.3,0.4,3.3,0.8s0.4,0.8,0.8,0.8h0.2C4.7,1.7,5,2,5,2.4C5,2.7,4.8,2.9,4.5,3C3.9,3.2,3.3,3.5,2.8,3.9L2.2,3.2
			C2,3,1.6,3,1.3,3.2L0.4,4.1C0.2,4.4,0.2,4.8,0.4,5l0.6,0.6C0.4,6.7-0.1,8-0.1,9.3c0,3.7,2.9,6.6,6.5,6.6c3.6,0,6.5-3,6.5-6.6
			C13,6.4,11.1,3.9,8.4,3z M9.8,6.9L7.1,9.7c-0.3,0.3-0.7,0.3-0.9,0C5.9,9.4,5.9,9,6.2,8.7L8.9,6c0.3-0.3,0.7-0.3,0.9,0
			C10,6.2,10,6.6,9.8,6.9z"/>
	</g>
</g>
</svg>
