<?xml version="1.0" encoding="utf-8"?>
<!-- Generator: Adobe Illustrator 21.1.0, SVG Export Plug-In . SVG Version: 6.00 Build 0)  -->
<svg version="1.1" id="Shape_199_1_" xmlns="http://www.w3.org/2000/svg" xmlns:xlink="http://www.w3.org/1999/xlink" x="0px"
	 y="0px" viewBox="0 0 20 20" style="enable-background:new 0 0 20 20;" xml:space="preserve">
<style type="text/css">
	.st0{fill-rule:evenodd;clip-rule:evenodd;}
</style>
<g id="Shape_199">
	<g>
		<path class="st0" d="M18,11c-1.1,0-2,0.9-2,2c0,0.3,0.1,0.6,0.2,0.9l-1.7,2.2C14.3,16,14.2,16,14,16c-0.3,0-0.7,0.1-0.9,0.3
			l-2.1-1.7c0-0.2,0.1-0.3,0.1-0.5c0-1.1-0.9-2-2-2c-1,0-1.8,0.7-2,1.7l-3.5,1C3.2,14.3,2.6,14,2,14c-1.1,0-2,0.9-2,2
			c0,1.1,0.9,2,2,2c1,0,1.8-0.7,2-1.7l3.5-1C7.9,15.7,8.4,16,9,16c0.3,0,0.6-0.1,0.9-0.2l2.2,1.7c0,0.2-0.1,0.3-0.1,0.5
			c0,1.1,0.9,2,2,2s2-0.9,2-2c0-0.3-0.1-0.7-0.3-0.9l1.7-2.2C17.6,15,17.8,15,18,15c1.1,0,2-0.9,2-2C20,11.9,19.1,11,18,11z M2,9
			c1.1,0,2-0.9,2-2c0,0,0-0.1,0-0.1l2.7-1.3C7.1,5.8,7.5,6,8,6c0.5,0,0.9-0.2,1.3-0.5L12,6.9c0,0,0,0.1,0,0.1c0,1.1,0.9,2,2,2
			s2-0.9,2-2c0-0.3-0.1-0.7-0.3-0.9l1.7-2.1C17.6,4,17.8,4,18,4c1.1,0,2-0.9,2-2s-0.9-2-2-2c-1.1,0-2,0.9-2,2c0,0.3,0.1,0.7,0.3,0.9
			l-1.7,2.1C14.4,5,14.2,5,14,5c-0.5,0-0.9,0.2-1.3,0.5L10,4.1V4c0-1.1-0.9-2-2-2C6.9,2,6,2.9,6,4v0.1L3.3,5.5C2.9,5.2,2.5,5,2,5
			C0.9,5,0,5.9,0,7S0.9,9,2,9z"/>
	</g>
</g>
</svg>
