<?xml version="1.0" encoding="utf-8"?>
<!-- Generator: Adobe Illustrator 21.1.0, SVG Export Plug-In . SVG Version: 6.00 Build 0)  -->
<svg version="1.1" id="Shape_197_1_" xmlns="http://www.w3.org/2000/svg" xmlns:xlink="http://www.w3.org/1999/xlink" x="0px"
	 y="0px" viewBox="0 0 22 15" style="enable-background:new 0 0 22 15;" xml:space="preserve">
<style type="text/css">
	.st0{fill-rule:evenodd;clip-rule:evenodd;}
</style>
<g id="Shape_197">
	<g>
		<path class="st0" d="M6.5,7C8.4,7,10,5.4,10,3.5C10,1.6,8.4,0,6.5,0C4.6,0,3,1.6,3,3.5C3,5.4,4.6,7,6.5,7z M15.4,7
			c1.9,0,3.5-1.6,3.5-3.5c0-1.9-1.6-3.5-3.5-3.5C13.5,0,12,1.5,12,3.5C12,5.4,13.5,7,15.4,7z M15.4,9c-1.5,0-2.7,0.4-3.6,0.9
			c1.4,1.2,2,2.6,2.1,2.7l0.1,0.2V15h8v-2C21.9,13,20.3,9,15.4,9z M6.5,9C1.6,9,0,13,0,13v2H13v-2C13,13,11.4,9,6.5,9z"/>
	</g>
</g>
</svg>
