<?xml version="1.0" encoding="utf-8"?>
<!-- Generator: Adobe Illustrator 21.1.0, SVG Export Plug-In . SVG Version: 6.00 Build 0)  -->
<svg version="1.1" id="Shape_198_1_" xmlns="http://www.w3.org/2000/svg" xmlns:xlink="http://www.w3.org/1999/xlink" x="0px"
	 y="0px" viewBox="0 0 15 9" style="enable-background:new 0 0 15 9;" xml:space="preserve">
<style type="text/css">
	.st0{fill-rule:evenodd;clip-rule:evenodd;}
</style>
<g id="Shape_198">
	<g>
		<path class="st0" d="M7.5,3C6.7,3,6,3.7,6,4.5S6.7,6,7.5,6S9,5.3,9,4.5S8.3,3,7.5,3z M15,4.3c0,0-2.1-4.3-7.5-4.3
			C2.1,0,0,4.3,0,4.3l-0.1,0.2L0,4.7C0,4.7,2.1,9,7.5,9C12.9,9,15,4.7,15,4.7l0.1-0.2L15,4.3z M7.5,8C5.6,8,4,6.4,4,4.5S5.6,1,7.5,1
			S11,2.6,11,4.5S9.4,8,7.5,8z"/>
	</g>
</g>
</svg>
