<?xml version="1.0" encoding="utf-8"?>
<!-- Generator: Adobe Illustrator 21.1.0, SVG Export Plug-In . SVG Version: 6.00 Build 0)  -->
<svg version="1.1" id="Shape_199_1_" xmlns="http://www.w3.org/2000/svg" xmlns:xlink="http://www.w3.org/1999/xlink" x="0px"
	 y="0px" viewBox="0 0 12 13" style="enable-background:new 0 0 12 13;" xml:space="preserve">
<style type="text/css">
	.st0{fill-rule:evenodd;clip-rule:evenodd;}
</style>
<g id="Shape_199">
	<g>
		<path class="st0" d="M10.5,5H10V4c0-2.2-1.8-4-4-4S2,1.8,2,4v1H1.5C0.7,5,0,5.7,0,6.5v5C0,12.3,0.7,13,1.5,13h9
			c0.8,0,1.5-0.7,1.5-1.5v-5C12,5.7,11.3,5,10.5,5z M9,5H3V4c0-1.7,1.3-3,3-3s3,1.3,3,3V5z"/>
	</g>
</g>
</svg>
