<?xml version="1.0" encoding="utf-8"?>
<!-- Generator: Adobe Illustrator 21.1.0, SVG Export Plug-In . SVG Version: 6.00 Build 0)  -->
<svg version="1.1" id="Shape_201_1_" xmlns="http://www.w3.org/2000/svg" xmlns:xlink="http://www.w3.org/1999/xlink" x="0px"
	 y="0px" viewBox="0 0 12 12" style="enable-background:new 0 0 12 12;" xml:space="preserve">
<style type="text/css">
	.st0{fill-rule:evenodd;clip-rule:evenodd;}
</style>
<g id="Shape_201">
	<g>
		<path class="st0" d="M11.4,0.6C11,0.2,10.5,0,10,0C9.5,0,9,0.2,8.6,0.6h0L1.1,8.2l-1.4,4.1l4.1-1.4l0.1-0.1l7.6-7.4
			C12.2,2.6,12.2,1.4,11.4,0.6z M3.1,10.1l-1,0.3c-0.1-0.1-0.2-0.2-0.3-0.3C1.7,10.1,1.6,10,1.6,9.9l0.3-1c0,0,0,0,0,0
			C2,9,2.3,9,2.6,9.4C3,9.7,3,10,3.1,10.1C3.1,10.1,3,10.1,3.1,10.1z M10.7,2.7L9.9,3.5C9.8,3.2,9.6,2.9,9.3,2.7
			C9.1,2.4,8.8,2.2,8.5,2.1l0.8-0.8C9.5,1.1,9.7,1,10,1c0.3,0,0.5,0.1,0.7,0.3C11.1,1.7,11.1,2.3,10.7,2.7z"/>
	</g>
</g>
</svg>
