<?xml version="1.0" encoding="utf-8"?>
<!-- Generator: Adobe Illustrator 21.1.0, SVG Export Plug-In . SVG Version: 6.00 Build 0)  -->
<svg version="1.1" id="Shape_202_1_" xmlns="http://www.w3.org/2000/svg" xmlns:xlink="http://www.w3.org/1999/xlink" x="0px"
	 y="0px" viewBox="0 0 15 12" style="enable-background:new 0 0 15 12;" xml:space="preserve">
<style type="text/css">
	.st0{fill-rule:evenodd;clip-rule:evenodd;}
</style>
<g id="Shape_202">
	<g>
		<path class="st0" d="M10.9,8.7C10.9,8.7,10.9,8.7,10.9,8.7l-0.7-0.7c0,0,0,0,0,0L8.5,6.2c0,0,0,0,0,0L7.2,5h0L5.5,3.3h0l-1-1
			c0,0,0,0,0,0L2.2,0L1.5,0.7l2,2C0.7,3.8-0.4,6.1-0.5,6.3l-0.1,0.2l0.1,0.2C-0.4,6.9,1.6,11,7,11c1.6,0,2.9-0.4,3.9-0.9l1.9,1.9
			l0.7-0.7l-2.4-2.4L10.9,8.7z M7,10c-1.9,0-3.5-1.6-3.5-3.5c0-1,0.5-2,1.2-2.6l1.4,1.4C5.7,5.5,5.5,6,5.5,6.5C5.5,7.3,6.2,8,7,8
			c0.5,0,0.9-0.2,1.2-0.6l1.4,1.4C9,9.5,8,10,7,10z M14.5,6.3C14.4,6.1,12.4,2,7,2C6.5,2,6.1,2,5.7,2.1L6.7,3C6.8,3,6.9,3,7,3
			c1.9,0,3.5,1.6,3.5,3.5c0,0.1,0,0.2,0,0.3L12.6,9c1.2-1.1,1.8-2.2,1.8-2.3l0.1-0.2L14.5,6.3z"/>
	</g>
</g>
</svg>
