<?xml version="1.0" encoding="utf-8"?>
<!-- Generator: Adobe Illustrator 21.1.0, SVG Export Plug-In . SVG Version: 6.00 Build 0)  -->
<svg version="1.1" id="Shape_1_1_" xmlns="http://www.w3.org/2000/svg" xmlns:xlink="http://www.w3.org/1999/xlink" x="0px" y="0px"
	 viewBox="0 0 24 23" style="enable-background:new 0 0 24 23;" xml:space="preserve">
<style type="text/css">
	.st0{fill-rule:evenodd;clip-rule:evenodd;}
</style>
<g id="Shape_1">
	<g>
		<path class="st0" d="M0,23l14,0V0L0,0V23z M8,4h2v3H8V4z M8,10h2v3H8V10z M8,16h2v3H8V16z M4,4h2v3H4V4z M4,10h2v3H4V10z M4,16h2
			v3H4V16z M15,9v14l6.1,0c1.6,0,2.9-1.3,2.9-2.9L24,9H15z M21,19h-3v-2h3V19z M21,15h-3v-2h3V15z"/>
	</g>
</g>
</svg>
