<?xml version="1.0" encoding="utf-8"?>
<!-- Generator: Adobe Illustrator 21.1.0, SVG Export Plug-In . SVG Version: 6.00 Build 0)  -->
<svg version="1.1" id="Shape_139_1_" xmlns="http://www.w3.org/2000/svg" xmlns:xlink="http://www.w3.org/1999/xlink" x="0px"
	 y="0px" viewBox="0 0 24 24" style="enable-background:new 0 0 24 24;" xml:space="preserve">
<style type="text/css">
	.st0{fill-rule:evenodd;clip-rule:evenodd;}
</style>
<g id="Shape_139">
	<g>
		<path class="st0" d="M12,0C5.4,0,0,5.4,0,12c0,6.6,5.4,12,12,12s12-5.4,12-12C24,5.4,18.6,0,12,0z M20,6c1.2,1.6,2,3.6,2,5.8
			c-0.9-0.2-2.2-0.4-3.9-0.4c-0.9,0-1.9,0.1-3,0.2c-0.3-0.6-0.5-1.1-0.8-1.7c2.2-0.9,3.8-2,4.8-3C19.5,6.6,19.7,6.3,20,6z M12,2
			c2.5,0,4.8,1,6.6,2.5c-0.2,0.3-0.4,0.6-0.8,1c-0.9,0.8-2.2,1.8-4.3,2.6C12,5.4,10.6,3.5,9.7,2.2C10.4,2.1,11.2,2,12,2z M7.7,2.9
			C8.6,4,10,6,11.5,8.7C7.4,9.7,3.7,9.9,2.2,9.9C2.9,6.8,5,4.2,7.7,2.9z M2,12v-0.1c1.4,0,5.6-0.1,10.4-1.4c0.2,0.5,0.5,0.9,0.7,1.4
			c-4.3,1.2-7.3,4.8-8.7,6.6C2.9,16.8,2,14.5,2,12z M12,22c-2.3,0-4.4-0.8-6.1-2.1c1-1.4,4-5.1,8-6.2c0.9,2.3,1.7,4.8,2,7.4
			C14.7,21.7,13.4,22,12,22z M17.8,20.2c-0.4-2.4-1.1-4.7-1.8-6.8c0.8-0.1,1.5-0.1,2.2-0.1c1.8,0,3,0.3,3.8,0.4
			C21.4,16.4,19.9,18.7,17.8,20.2z"/>
	</g>
</g>
</svg>
