<?xml version="1.0" encoding="utf-8"?>
<!-- Generator: Adobe Illustrator 21.1.0, SVG Export Plug-In . SVG Version: 6.00 Build 0)  -->
<svg version="1.1" id="Shape_136_1_" xmlns="http://www.w3.org/2000/svg" xmlns:xlink="http://www.w3.org/1999/xlink" x="0px"
	 y="0px" viewBox="0 0 24 24" style="enable-background:new 0 0 24 24;" xml:space="preserve">
<style type="text/css">
	.st0{fill-rule:evenodd;clip-rule:evenodd;}
</style>
<g id="Shape_136">
	<g>
		<path class="st0" d="M12.2,0c-7.4-0.1-13.3,6.5-12,14c0.8,5.1,5,9.1,10.2,9.8c3.5,0.5,6.7-0.5,9.2-2.5l-1.3-1.6
			c-2,1.6-4.7,2.5-7.7,2.1c-4.3-0.6-7.7-4-8.4-8.2C1.1,7.4,6,1.9,12.2,2c5.3,0.1,9.7,4.4,9.8,9.7c0,0.1,0,0.2,0,0.3c0,2.2-1.8,4-4,4
			c-1.1,0-2-0.9-2-2V6h-2v0.8C13.3,6.3,12.4,6,11.5,6C9,6,7,8.1,7,10.5v3C7,16,9,18,11.5,18c1.3,0,2.5-0.6,3.4-1.6
			c0.7,0.9,1.9,1.6,3.1,1.6c3.3,0,6-2.7,6-6c0-0.1,0-0.3,0-0.4C23.8,5.3,18.5,0.1,12.2,0z M14,13.5c0,1.4-1.1,2.5-2.5,2.5
			C10.1,16,9,14.9,9,13.5v-3C9,9.1,10.1,8,11.5,8c1.4,0,2.5,1.1,2.5,2.5V13.5z"/>
	</g>
</g>
</svg>
