<?xml version="1.0" encoding="utf-8"?>
<!-- Generator: Adobe Illustrator 21.1.0, SVG Export Plug-In . SVG Version: 6.00 Build 0)  -->
<svg version="1.1" id="Shape_135_1_" xmlns="http://www.w3.org/2000/svg" xmlns:xlink="http://www.w3.org/1999/xlink" x="0px"
	 y="0px" viewBox="0 0 24 24" style="enable-background:new 0 0 24 24;" xml:space="preserve">
<style type="text/css">
	.st0{fill-rule:evenodd;clip-rule:evenodd;}
</style>
<g id="Shape_135">
	<g>
		<path class="st0" d="M14,10.8l-2.4-0.6c-0.9-0.2-2-0.5-2-1.3c0-0.9,0.7-1.5,2.1-1.5c2.7,0,2.5,1.9,3.8,1.9c0.7,0,1.3-0.4,1.3-1.1
			c0-1.7-2.7-2.9-4.9-2.9c-2.5,0-5.1,1-5.1,3.8c0,1.3,0.5,2.8,3.1,3.4l3.3,0.8c1,0.2,1.2,0.8,1.2,1.3c0,0.8-0.8,1.7-2.3,1.7
			c-3,0-2.6-2.3-4.2-2.3c-0.7,0-1.2,0.5-1.2,1.2c0,1.4,1.7,3.2,5.4,3.2c3.5,0,5.3-1.7,5.3-4C17.3,12.9,16.6,11.3,14,10.8z
			 M23.3,14.1c0.1-0.7,0.2-1.4,0.2-2.1c0-6.3-5.2-11.5-11.5-11.5c-0.7,0-1.4,0.1-2.1,0.2C9,0.3,8,0,7,0C3.1,0,0,3.1,0,7
			c0,1,0.3,2,0.7,2.9c-0.1,0.7-0.2,1.4-0.2,2.1c0,6.3,5.2,11.5,11.5,11.5c0.7,0,1.4-0.1,2.1-0.2C15,23.7,16,24,17,24
			c3.9,0,7-3.1,7-7C24,16,23.7,15,23.3,14.1z M17,22c-0.9,0-1.7-0.2-2.4-0.6c-0.2-0.1-0.5-0.1-0.7-0.1c-0.6,0.1-1.3,0.2-1.9,0.2
			c-5.3,0-9.5-4.2-9.5-9.5c0-0.7,0.1-1.3,0.2-1.9c0.1-0.2,0-0.5-0.1-0.7C2.2,8.7,2,7.9,2,7c0-2.8,2.2-5,5-5c0.9,0,1.7,0.2,2.4,0.6
			c0.2,0.1,0.5,0.1,0.7,0.1c0.6-0.1,1.3-0.2,1.9-0.2c5.3,0,9.5,4.2,9.5,9.5c0,0.7-0.1,1.3-0.2,1.9c-0.1,0.2,0,0.5,0.1,0.7
			c0.4,0.7,0.6,1.5,0.6,2.4C22,19.8,19.8,22,17,22z"/>
	</g>
</g>
</svg>
