<?xml version="1.0" encoding="utf-8"?>
<!-- Generator: Adobe Illustrator 21.1.0, SVG Export Plug-In . SVG Version: 6.00 Build 0)  -->
<svg version="1.1" id="Shape_140_1_" xmlns="http://www.w3.org/2000/svg" xmlns:xlink="http://www.w3.org/1999/xlink" x="0px"
	 y="0px" viewBox="0 0 26 20" style="enable-background:new 0 0 26 20;" xml:space="preserve">
<style type="text/css">
	.st0{fill-rule:evenodd;clip-rule:evenodd;}
</style>
<g id="Shape_140">
	<g>
		<path class="st0" d="M11.5,5.1L10,4.2v11.5l1.5-0.8l7-4L20,10l-1.5-0.9L11.5,5.1z M12,12.3V7.7l4,2.3L12,12.3z M25.5,3.8
			c-0.3-1.7-1.7-3-3.3-3.2c-2-0.3-5.4-0.7-9.1-0.7c-3.8,0-7.1,0.4-9.1,0.7c-1.7,0.2-3,1.5-3.3,3.2C0.3,5.3,0,7.3,0,10
			c0,2.6,0.3,4.7,0.5,6.1c0.3,1.7,1.7,3,3.3,3.2c2,0.3,5.4,0.7,9.1,0.7c3.7,0,7.1-0.4,9.1-0.7c1.7-0.2,3-1.5,3.3-3.2
			c0.3-1.4,0.5-3.5,0.5-6.1C26,7.4,25.7,5.3,25.5,3.8z M23.5,15.7c-0.2,0.8-0.8,1.5-1.7,1.6c-2,0.3-5.2,0.7-8.8,0.7
			c-3.6,0-6.9-0.4-8.8-0.7c-0.8-0.1-1.5-0.8-1.7-1.6C2.3,14.4,2,12.5,2,10c0-2.5,0.3-4.4,0.5-5.8c0.2-0.8,0.8-1.5,1.7-1.6
			c2-0.3,5.2-0.7,8.8-0.7c3.6,0,6.9,0.4,8.8,0.7c0.8,0.1,1.5,0.8,1.7,1.6C23.7,5.5,24,7.5,24,10C24,12.4,23.7,14.4,23.5,15.7z"/>
	</g>
</g>
</svg>
