<?xml version="1.0" encoding="utf-8"?>
<!-- Generator: Adobe Illustrator 21.1.0, SVG Export Plug-In . SVG Version: 6.00 Build 0)  -->
<svg version="1.1" id="Shape_3_1_" xmlns="http://www.w3.org/2000/svg" xmlns:xlink="http://www.w3.org/1999/xlink" x="0px" y="0px"
	 viewBox="0 0 4 16" style="enable-background:new 0 0 4 16;" xml:space="preserve">
<style type="text/css">
	.st0{fill-rule:evenodd;clip-rule:evenodd;}
</style>
<g id="Shape_3">
	<g>
		<path class="st0" d="M2,12c-1.1,0-2,0.9-2,2c0,1.1,0.9,2,2,2c1.1,0,2-0.9,2-2C4,12.9,3.1,12,2,12z M2,4c1.1,0,2-0.9,2-2
			c0-1.1-0.9-2-2-2C0.9,0,0,0.9,0,2C0,3.1,0.9,4,2,4z M2,6C0.9,6,0,6.9,0,8c0,1.1,0.9,2,2,2c1.1,0,2-0.9,2-2C4,6.9,3.1,6,2,6z"/>
	</g>
</g>
</svg>
