<?xml version="1.0" encoding="utf-8"?>
<!-- Generator: Adobe Illustrator 21.1.0, SVG Export Plug-In . SVG Version: 6.00 Build 0)  -->
<svg version="1.1" id="Shape_1_1_" xmlns="http://www.w3.org/2000/svg" xmlns:xlink="http://www.w3.org/1999/xlink" x="0px" y="0px"
	 viewBox="0 0 16 13" style="enable-background:new 0 0 16 13;" xml:space="preserve">
<style type="text/css">
	.st0{fill-rule:evenodd;clip-rule:evenodd;}
</style>
<g id="Shape_1">
	<g>
		<path class="st0" d="M15.7,6.2l-2.5-5.6c-0.1-0.2-0.2-0.3-0.4-0.4C12.7,0.1,12.5,0,12.3,0H3.7C3.5,0,3.3,0.1,3.1,0.2
			C2.9,0.3,2.8,0.4,2.7,0.6L0.3,6.2C0.1,6.6,0,7,0,7.5v4.9c0,0.2,0.1,0.3,0.2,0.5C0.3,12.9,0.5,13,0.7,13h14.7
			c0.2,0,0.3-0.1,0.5-0.2c0.1-0.1,0.2-0.3,0.2-0.5V7.5C16,7,15.9,6.6,15.7,6.2z M10.7,7.2l-1,1.9H6.3l-1-1.9H2.1c0,0,0,0,0-0.1
			c0,0,0-0.1,0-0.1l2.2-5h7.4l2.2,5c0,0,0,0,0,0.1c0,0,0,0.1,0,0.1H10.7z"/>
	</g>
</g>
</svg>
