<?xml version="1.0" encoding="utf-8"?>
<!-- Generator: Adobe Illustrator 21.1.0, SVG Export Plug-In . SVG Version: 6.00 Build 0)  -->
<svg version="1.1" id="Shape_130_1_" xmlns="http://www.w3.org/2000/svg" xmlns:xlink="http://www.w3.org/1999/xlink" x="0px"
	 y="0px" viewBox="0 0 20 20" style="enable-background:new 0 0 20 20;" xml:space="preserve">
<style type="text/css">
	.st0{fill-rule:evenodd;clip-rule:evenodd;}
</style>
<g id="Shape_130">
	<g>
		<path class="st0" d="M19.8,2L18,0.2C17.8,0.1,17.6,0,17.5,0c-0.2,0-0.4,0.1-0.5,0.2l-1.2,1.2l2.8,2.8L19.8,3
			C20.1,2.7,20.1,2.3,19.8,2z M14,18H2V6h6.8l2-2H2C0.9,4,0,4.9,0,6v12c0,1.1,0.9,2,2,2h12c1.1,0,2-0.9,2-2V9.2l-2,2V18z M6,11.2V14
			h2.8l9.1-9.1l-2.8-2.8L6,11.2z"/>
	</g>
</g>
</svg>
