<?xml version="1.0" encoding="utf-8"?>
<!-- Generator: Adobe Illustrator 21.1.0, SVG Export Plug-In . SVG Version: 6.00 Build 0)  -->
<svg version="1.1" id="Shape_1_1_" xmlns="http://www.w3.org/2000/svg" xmlns:xlink="http://www.w3.org/1999/xlink" x="0px" y="0px"
	 viewBox="0 0 16 12" style="enable-background:new 0 0 16 12;" xml:space="preserve">
<style type="text/css">
	.st0{fill-rule:evenodd;clip-rule:evenodd;}
</style>
<g id="Shape_1">
	<g>
		<path class="st0" d="M8,4c0,1.1-0.9,2-2,2c0,1.1,0.9,2,2,2c1.1,0,2-0.9,2-2C10,4.9,9.1,4,8,4z M8,0C3.9,0,0,4.6,0,6
			c0,1.4,3.9,6,8,6s8-4.6,8-6C16,4.6,12.1,0,8,0z M8,10c-2.2,0-4-1.8-4-4c0-2.2,1.8-4,4-4s4,1.8,4,4C12,8.2,10.2,10,8,10z"/>
	</g>
</g>
</svg>
