<?xml version="1.0" encoding="utf-8"?>
<!-- Generator: Adobe Illustrator 21.1.0, SVG Export Plug-In . SVG Version: 6.00 Build 0)  -->
<svg version="1.1" id="Shape_1_1_" xmlns="http://www.w3.org/2000/svg" xmlns:xlink="http://www.w3.org/1999/xlink" x="0px" y="0px"
	 viewBox="0 0 16 12" style="enable-background:new 0 0 16 12;" xml:space="preserve">
<style type="text/css">
	.st0{fill-rule:evenodd;clip-rule:evenodd;}
</style>
<g id="Shape_1">
	<g>
		<path class="st0" d="M8,4.3l2,1.4C9.8,4.7,9,4,8,4C8,4.1,8,4.2,8,4.3z M8,2c2.2,0,4,1.8,4,4c0,0.4-0.1,0.7-0.2,1l2.4,1.7
			C15.3,7.7,16,6.6,16,6c0-1.4-3.9-6-8-6C6.6,0,5.2,0.6,3.9,1.4l1.8,1.3C6.4,2.3,7.2,2,8,2z M8,10c-2.2,0-4-1.8-4-4
			c0-0.4,0.1-0.7,0.2-1L1.7,3.2C0.7,4.3,0,5.4,0,6c0,1.4,3.9,6,8,6c1.4,0,2.8-0.6,4.1-1.4l-1.8-1.3C9.6,9.7,8.8,10,8,10z M8.4,8
			L6,6.3C6.2,7.3,7,8,8,8C8.1,8,8.2,8,8.4,8z M0,1l15,11l1-1L1,0L0,1z"/>
	</g>
</g>
</svg>
