<?xml version="1.0" encoding="utf-8"?>
<!-- Generator: Adobe Illustrator 21.1.0, SVG Export Plug-In . SVG Version: 6.00 Build 0)  -->
<svg version="1.1" id="Shape_134_1_" xmlns="http://www.w3.org/2000/svg" xmlns:xlink="http://www.w3.org/1999/xlink" x="0px"
	 y="0px" viewBox="0 0 32 32" style="enable-background:new 0 0 32 32;" xml:space="preserve">
<style type="text/css">
	.st0{fill-rule:evenodd;clip-rule:evenodd;}
</style>
<g id="Shape_134">
	<g>
		<path class="st0" d="M12,13.4V8h-2v4.6l-1.7,1.7l1.4,1.4l2-2L12,13.4z M15,24h2v-2h-2V24z M11,24h2v-2h-2V24z M25,18h-2v2h2V18z
			 M21,22h-2v2h2V22z M24,8V7h-2v1h-4.1c-1.4-2.4-4-4-6.9-4c-4.4,0-8,3.6-8,8c0,2.9,1.6,5.5,4,6.9V28h22V8H24z M5,12
			c0-3.3,2.7-6,6-6s6,2.7,6,6s-2.7,6-6,6S5,15.3,5,12z M27,26H9v-6.3c0.6,0.2,1.3,0.3,2,0.3c3.7,0,6.8-2.6,7.7-6H27V26z M27,12h-8
			c0-0.7-0.1-1.4-0.3-2H22v1h2v-1h3V12z M21,18h-2v2h2V18z M25,22h-2v2h2V22z"/>
	</g>
</g>
</svg>
