<?xml version="1.0" encoding="utf-8"?>
<!-- Generator: Adobe Illustrator 21.1.0, SVG Export Plug-In . SVG Version: 6.00 Build 0)  -->
<svg version="1.1" id="Shape_135_1_" xmlns="http://www.w3.org/2000/svg" xmlns:xlink="http://www.w3.org/1999/xlink" x="0px"
	 y="0px" viewBox="0 0 32 32" style="enable-background:new 0 0 32 32;" xml:space="preserve">
<style type="text/css">
	.st0{fill-rule:evenodd;clip-rule:evenodd;}
</style>
<g id="Shape_135">
	<g>
		<path class="st0" d="M26,10c-0.4,0-0.9,0.1-1.3,0.2c0.2-1.1,0.3-2.2,0.3-3.2v-1H5.8v1c0,3.2,1.1,7,2.1,10.1C8.4,18.7,9,20,9.3,21
			H3.9l1,1.6c0,0,0.6,0.8,1.4,1.7C7.1,25,8.3,26,9.8,26H21c1.5,0,2.5-1,3.4-1.8c0.8-0.8,1.4-1.6,1.4-1.6l1.1-1.6h-5.5
			c0.2-0.6,0.5-1.2,0.8-2.1c0.1,0,1.6-0.4,3.2-1.2c0.8-0.4,1.7-1,2.4-1.8c0.7-0.8,1.2-1.8,1.2-2.9C29,11.2,27.5,10,26,10z M22.6,23
			c-0.6,0.5-1.3,1-1.6,1H9.8c-0.4,0-1.1-0.5-1.7-1H22.6z M22,12.7C22,12.7,22,12.7,22,12.7c-0.3,1.3-0.7,2.6-1,3.7
			c-0.9,2.6-1.6,4.1-1.8,4.6h-7.7c-0.2-0.4-0.9-2-1.8-4.6c-0.9-2.6-1.7-5.8-1.8-8.4h14.9C22.7,9.4,22.4,11.1,22,12.7z M26.3,14.6
			c-0.5,0.5-1.1,1-1.8,1.3c-0.5,0.3-1,0.5-1.5,0.7c0.4-1.1,0.7-2.3,1-3.6c0,0,0,0,0,0c0.4-0.7,1.3-1,1.9-1c0.6,0,1,0.2,1,1
			C27,13.6,26.7,14.1,26.3,14.6z"/>
	</g>
</g>
</svg>
