<?xml version="1.0" encoding="utf-8"?>
<!-- Generator: Adobe Illustrator 21.1.0, SVG Export Plug-In . SVG Version: 6.00 Build 0)  -->
<svg version="1.1" id="Shape_136_copy_2_1_" xmlns="http://www.w3.org/2000/svg" xmlns:xlink="http://www.w3.org/1999/xlink"
	 x="0px" y="0px" viewBox="0 0 32 32" style="enable-background:new 0 0 32 32;" xml:space="preserve">
<style type="text/css">
	.st0{fill-rule:evenodd;clip-rule:evenodd;}
</style>
<g id="Shape_136_copy_2">
	<g>
		<path class="st0" d="M25,21h-4v2h4V21z M31.4,12.6C31.1,12.2,30.5,12,30,12h-6V6H2v13.7L0.5,22v0C0.2,22.5,0,23,0,23.5
			C0,24.9,1.1,26,2.5,26H30c0.5,0,1.1-0.2,1.4-0.6S32,24.5,32,24V14C32,13.5,31.8,12.9,31.4,12.6z M14,24H2.5C2.3,24,2,23.7,2,23.5
			c0-0.1,0-0.2,0.1-0.3L3.6,21H14V24z M14,14v5H4V8h18v4h-6c-0.5,0-1.1,0.2-1.4,0.6S14,13.5,14,14z M30,24H16V14h14V24z"/>
	</g>
</g>
</svg>
