<?xml version="1.0" encoding="utf-8"?>
<!-- Generator: Adobe Illustrator 21.1.0, SVG Export Plug-In . SVG Version: 6.00 Build 0)  -->
<svg version="1.1" id="Shape_133_1_" xmlns="http://www.w3.org/2000/svg" xmlns:xlink="http://www.w3.org/1999/xlink" x="0px"
	 y="0px" viewBox="0 0 32 32" style="enable-background:new 0 0 32 32;" xml:space="preserve">
<style type="text/css">
	.st0{fill-rule:evenodd;clip-rule:evenodd;}
</style>
<g id="Shape_133">
	<g>
		<path class="st0" d="M15.9,19.6c0.2,1.3-0.2,2.7-1.2,3.7l-1.5,1.5c-0.8,0.8-1.9,1.3-3,1.3c-1.1,0-2.2-0.4-3-1.3
			c-1.7-1.7-1.7-4.4,0-6l1.5-1.5c0.8-0.8,1.9-1.3,3-1.3c0.2,0,0.4,0,0.7,0.1l1.6-1.6c-0.7-0.3-1.5-0.4-2.3-0.4
			c-1.7,0-3.3,0.7-4.4,1.8l-1.5,1.5c-1.2,1.2-1.8,2.8-1.8,4.4s0.7,3.2,1.8,4.4C7,27.3,8.5,28,10.2,28c1.7,0,3.3-0.7,4.4-1.8l1.5-1.5
			c1.2-1.2,1.8-2.8,1.8-4.4c0-0.8-0.2-1.6-0.4-2.3L15.9,19.6z M12.7,20.7l8-8l-1.4-1.4l-8,8L12.7,20.7z M26.2,5.8
			C25,4.7,23.4,4,21.7,4c-1.7,0-3.3,0.7-4.4,1.8l-1.5,1.5c-1.2,1.2-1.8,2.8-1.8,4.4c0,0.8,0.2,1.6,0.4,2.3l1.6-1.6
			c-0.2-1.3,0.2-2.7,1.2-3.7l1.5-1.5c0.8-0.8,1.9-1.3,3-1.3c1.1,0,2.2,0.4,3,1.3c1.7,1.7,1.7,4.4,0,6l-1.5,1.5
			c-0.8,0.8-1.9,1.3-3,1.3c-0.2,0-0.4,0-0.7-0.1l-1.6,1.6c0.7,0.3,1.5,0.4,2.3,0.4c1.7,0,3.3-0.7,4.4-1.8l1.5-1.5
			c1.2-1.2,1.8-2.8,1.8-4.4S27.3,7,26.2,5.8z"/>
	</g>
</g>
</svg>
