<?xml version="1.0" encoding="utf-8"?>
<!-- Generator: Adobe Illustrator 21.1.0, SVG Export Plug-In . SVG Version: 6.00 Build 0)  -->
<svg version="1.1" id="Shape_131_1_" xmlns="http://www.w3.org/2000/svg" xmlns:xlink="http://www.w3.org/1999/xlink" x="0px"
	 y="0px" viewBox="0 0 32 32" style="enable-background:new 0 0 32 32;" xml:space="preserve">
<style type="text/css">
	.st0{fill-rule:evenodd;clip-rule:evenodd;}
</style>
<g id="Shape_131">
	<g>
		<path class="st0" d="M8,11c-0.6,0-1,0.4-1,1s0.4,1,1,1s1-0.4,1-1S8.6,11,8,11z M16,11c-3.3,0-6,2.7-6,6s2.7,6,6,6s6-2.7,6-6
			S19.3,11,16,11z M16,21c-2.2,0-4-1.8-4-4s1.8-4,4-4s4,1.8,4,4S18.2,21,16,21z M22,8l-1.2-1.6L20.5,6h-9l-0.3,0.4L10,8H3v18h26V8
			H22z M27,24H5V10h6l0.3-0.4L12.5,8h7l1.2,1.6L21,10h6V24z"/>
	</g>
</g>
</svg>
