<?xml version="1.0" encoding="utf-8"?>
<!-- Generator: Adobe Illustrator 21.1.0, SVG Export Plug-In . SVG Version: 6.00 Build 0)  -->
<svg version="1.1" id="Shape_128_1_" xmlns="http://www.w3.org/2000/svg" xmlns:xlink="http://www.w3.org/1999/xlink" x="0px"
	 y="0px" viewBox="0 0 32 32" style="enable-background:new 0 0 32 32;" xml:space="preserve">
<style type="text/css">
	.st0{fill-rule:evenodd;clip-rule:evenodd;}
</style>
<g id="Shape_128">
	<g>
		<path class="st0" d="M20,7V6c0-0.5-0.2-1.1-0.6-1.4S18.5,4,18,4h-4c-0.5,0-1.1,0.2-1.4,0.6S12,5.5,12,6v1H6v2h1v16
			c0,1.6,1.4,3,3,3h12c1.6,0,3-1.4,3-3V9h1V7H20z M14,6h4v1h-4V6z M23,25c0,0.6-0.4,1-1,1H10c-0.6,0-1-0.4-1-1V9h14V25z M21,12h-2
			v11h2V12z M17,12h-2v11h2V12z M13,12h-2v11h2V12z"/>
	</g>
</g>
</svg>
