<?xml version="1.0" encoding="utf-8"?>
<!-- Generator: Adobe Illustrator 21.1.0, SVG Export Plug-In . SVG Version: 6.00 Build 0)  -->
<svg version="1.1" id="Shape_127_1_" xmlns="http://www.w3.org/2000/svg" xmlns:xlink="http://www.w3.org/1999/xlink" x="0px"
	 y="0px" viewBox="0 0 32 32" style="enable-background:new 0 0 32 32;" xml:space="preserve">
<style type="text/css">
	.st0{fill-rule:evenodd;clip-rule:evenodd;}
</style>
<g id="Shape_127">
	<g>
		<path class="st0" d="M9.6,15.3l1.4,1.4l4-4V23h2V12.7l4,4l1.4-1.4L16,8.9L9.6,15.3z M16,3C8.8,3,3,8.8,3,16c0,7.2,5.8,13,13,13
			c7.2,0,13-5.8,13-13C29,8.8,23.2,3,16,3z M16,27C9.9,27,5,22.1,5,16C5,9.9,9.9,5,16,5c6.1,0,11,4.9,11,11C27,22.1,22.1,27,16,27z"
			/>
	</g>
</g>
</svg>
