<?xml version="1.0" encoding="utf-8"?>
<!-- Generator: Adobe Illustrator 21.1.0, SVG Export Plug-In . SVG Version: 6.00 Build 0)  -->
<svg version="1.1" id="Shape_110_1_" xmlns="http://www.w3.org/2000/svg" xmlns:xlink="http://www.w3.org/1999/xlink" x="0px"
	 y="0px" viewBox="0 0 32 22" style="enable-background:new 0 0 32 22;" xml:space="preserve">
<style type="text/css">
	.st0{fill-rule:evenodd;clip-rule:evenodd;}
</style>
<g id="Shape_110">
	<g>
		<path class="st0" d="M16,7.6l-0.7,0.7l-4,4l1.4,1.4l2.3-2.3V18h2v-6.6l2.3,2.3l1.4-1.4l-4-4L16,7.6z M29.9,11.6
			c-0.2-3.5-3-6.3-6.6-6.5C22.1,2.1,19.4,0,16,0c-4.1,0-7.4,3.1-7.8,7.1c-1.8,0.3-3.2,1.5-3.8,3.2C1.9,11.1,0,13.3,0,16
			c0,3.3,2.7,6,6,6h20c3.3,0,6-2.7,6-6C32,14.2,31.1,12.7,29.9,11.6z M26,20H6c-2.3,0-4-1.7-4-4c0-2,1.4-3.6,3.3-3.9L5.9,12l0.1-0.7
			C6.4,10,7.6,9,9,9h1V8c0-3.4,2.6-6,6-6c2.8,0,5,1.8,5.8,4.3L22,7h1c2.8,0,5,2.2,5,5v0.5l0.4,0.3c0.9,0.7,1.6,1.9,1.6,3.2
			C30,18.3,28.3,20,26,20z"/>
	</g>
</g>
</svg>
