<?xml version="1.0" encoding="utf-8"?>
<!-- Generator: Adobe Illustrator 21.1.0, SVG Export Plug-In . SVG Version: 6.00 Build 0)  -->
<svg version="1.1" id="Shape_110_copy_1_" xmlns="http://www.w3.org/2000/svg" xmlns:xlink="http://www.w3.org/1999/xlink" x="0px"
	 y="0px" viewBox="0 0 32 32" style="enable-background:new 0 0 32 32;" xml:space="preserve">
<style type="text/css">
	.st0{fill-rule:evenodd;clip-rule:evenodd;}
</style>
<g id="Shape_110_copy">
	<g>
		<path class="st0" d="M29.9,16.6c-0.2-3.5-3-6.3-6.6-6.5C22.1,7.1,19.4,5,16,5c-4.1,0-7.4,3.1-7.8,7.1c-1.8,0.3-3.2,1.5-3.8,3.2
			C1.9,16.1,0,18.2,0,21c0,3.3,2.7,6,6,6h20c3.3,0,6-2.7,6-6C32,19.2,31.1,17.7,29.9,16.6z M19.3,18.7L17,16.4V23h-2v-6.6l-2.3,2.3
			l-1.4-1.4l4-4l0.7-0.7l0.7,0.7l4,4L19.3,18.7z"/>
	</g>
</g>
</svg>
