<?xml version="1.0" encoding="utf-8"?>
<!-- Generator: Adobe Illustrator 21.1.0, SVG Export Plug-In . SVG Version: 6.00 Build 0)  -->
<svg version="1.1" id="Shape_142_1_" xmlns="http://www.w3.org/2000/svg" xmlns:xlink="http://www.w3.org/1999/xlink" x="0px"
	 y="0px" viewBox="0 0 80 80" style="enable-background:new 0 0 80 80;" xml:space="preserve">
<style type="text/css">
	.st0{fill-rule:evenodd;clip-rule:evenodd;}
</style>
<g id="Shape_142">
	<g>
		<path class="st0" d="M68,18c0.6,0,1-0.4,1-1c0-0.6-0.4-1-1-1c-0.6,0-1,0.4-1,1C67,17.6,67.4,18,68,18z M60,53c-0.6,0-1,0.4-1,1
			c0,0.6,0.4,1,1,1c0.6,0,1-0.4,1-1C61,53.4,60.6,53,60,53z M56,53c-0.6,0-1,0.4-1,1c0,0.6,0.4,1,1,1c0.6,0,1-0.4,1-1
			C57,53.4,56.6,53,56,53z M52,53c-0.6,0-1,0.4-1,1c0,0.6,0.4,1,1,1c0.6,0,1-0.4,1-1C53,53.4,52.6,53,52,53z M64,55c0.6,0,1-0.4,1-1
			c0-0.6-0.4-1-1-1c-0.6,0-1,0.4-1,1C63,54.6,63.4,55,64,55z M68,55c0.6,0,1-0.4,1-1c0-0.6-0.4-1-1-1c-0.6,0-1,0.4-1,1
			C67,54.6,67.4,55,68,55z M48,53c-0.6,0-1,0.4-1,1c0,0.6,0.4,1,1,1c0.6,0,1-0.4,1-1C49,53.4,48.6,53,48,53z M64,18c0.6,0,1-0.4,1-1
			c0-0.6-0.4-1-1-1c-0.6,0-1,0.4-1,1C63,17.6,63.4,18,64,18z M24,53c-0.6,0-1,0.4-1,1c0,0.6,0.4,1,1,1s1-0.4,1-1
			C25,53.4,24.6,53,24,53z M44,53c-0.6,0-1,0.4-1,1c0,0.6,0.4,1,1,1c0.6,0,1-0.4,1-1C45,53.4,44.6,53,44,53z M20,53
			c-0.6,0-1,0.4-1,1c0,0.6,0.4,1,1,1c0.6,0,1-0.4,1-1C21,53.4,20.6,53,20,53z M28,53c-0.6,0-1,0.4-1,1c0,0.6,0.4,1,1,1
			c0.6,0,1-0.4,1-1C29,53.4,28.6,53,28,53z M60,18c0.6,0,1-0.4,1-1c0-0.6-0.4-1-1-1c-0.6,0-1,0.4-1,1C59,17.6,59.4,18,60,18z M32,53
			c-0.6,0-1,0.4-1,1c0,0.6,0.4,1,1,1c0.6,0,1-0.4,1-1C33,53.4,32.6,53,32,53z M40,53c-0.6,0-1,0.4-1,1c0,0.6,0.4,1,1,1
			c0.6,0,1-0.4,1-1C41,53.4,40.6,53,40,53z M36,53c-0.6,0-1,0.4-1,1c0,0.6,0.4,1,1,1c0.6,0,1-0.4,1-1C37,53.4,36.6,53,36,53z M74,10
			H41V8h-2v2H6c-1.1,0-2,0.9-2,2v4c0,1.1,0.9,2,2,2h1v35c-1.1,0-2,0.9-2,2v3c0,1.1,0.9,2,2,2h32v0.4l-12.2,8.7
			C26.6,69.1,26.3,69,26,69c-1.1,0-2,0.9-2,2c0,1.1,0.9,2,2,2c1.1,0,2-0.9,2-2c0-0.1,0-0.1,0-0.2l11-7.9V66h2v-3l11,7.8
			c0,0.1,0,0.1,0,0.2c0,1.1,0.9,2,2,2c1.1,0,2-0.9,2-2c0-1.1-0.9-2-2-2c-0.3,0-0.6,0.1-0.8,0.2L41,60.5V60h32c1.1,0,2-0.9,2-2v-3
			c0-1.1-0.9-2-2-2V18h1c1.1,0,2-0.9,2-2v-4C76,10.9,75.1,10,74,10z M74,16h-3v39h2v3H7v-3h2V16H6v-4h68V16z M56,18c0.6,0,1-0.4,1-1
			c0-0.6-0.4-1-1-1c-0.6,0-1,0.4-1,1C55,17.6,55.4,18,56,18z M16,18c0.6,0,1-0.4,1-1c0-0.6-0.4-1-1-1c-0.6,0-1,0.4-1,1
			C15,17.6,15.4,18,16,18z M20,18c0.6,0,1-0.4,1-1c0-0.6-0.4-1-1-1c-0.6,0-1,0.4-1,1C19,17.6,19.4,18,20,18z M20,44c1.1,0,2-0.9,2-2
			c0-0.2,0-0.3-0.1-0.5l10.6-10.6c0.2,0,0.3,0.1,0.5,0.1c0.2,0,0.3,0,0.5-0.1l8.6,8.6c0,0.2-0.1,0.3-0.1,0.5c0,1.1,0.9,2,2,2
			c1.1,0,2-0.9,2-2c0-0.2,0-0.3-0.1-0.5l12.6-12.6c0.2,0,0.3,0.1,0.5,0.1c1.1,0,2-0.9,2-2s-0.9-2-2-2c-1.1,0-2,0.9-2,2
			c0,0.2,0,0.3,0.1,0.5L44.5,38.1C44.3,38,44.2,38,44,38c-0.2,0-0.3,0-0.5,0.1l-8.6-8.6c0-0.2,0.1-0.3,0.1-0.5c0-1.1-0.9-2-2-2
			c-1.1,0-2,0.9-2,2c0,0.2,0,0.3,0.1,0.5L20.5,40.1C20.3,40,20.2,40,20,40c-1.1,0-2,0.9-2,2S18.9,44,20,44z M16,55c0.6,0,1-0.4,1-1
			c0-0.6-0.4-1-1-1c-0.6,0-1,0.4-1,1C15,54.6,15.4,55,16,55z M12,55c0.6,0,1-0.4,1-1c0-0.6-0.4-1-1-1c-0.6,0-1,0.4-1,1
			C11,54.6,11.4,55,12,55z M12,18c0.6,0,1-0.4,1-1c0-0.6-0.4-1-1-1c-0.6,0-1,0.4-1,1C11,17.6,11.4,18,12,18z M24,18c0.6,0,1-0.4,1-1
			c0-0.6-0.4-1-1-1s-1,0.4-1,1C23,17.6,23.4,18,24,18z M48,18c0.6,0,1-0.4,1-1c0-0.6-0.4-1-1-1c-0.6,0-1,0.4-1,1
			C47,17.6,47.4,18,48,18z M44,18c0.6,0,1-0.4,1-1c0-0.6-0.4-1-1-1c-0.6,0-1,0.4-1,1C43,17.6,43.4,18,44,18z M52,18c0.6,0,1-0.4,1-1
			c0-0.6-0.4-1-1-1c-0.6,0-1,0.4-1,1C51,17.6,51.4,18,52,18z M40,18c0.6,0,1-0.4,1-1c0-0.6-0.4-1-1-1c-0.6,0-1,0.4-1,1
			C39,17.6,39.4,18,40,18z M32,18c0.6,0,1-0.4,1-1c0-0.6-0.4-1-1-1c-0.6,0-1,0.4-1,1C31,17.6,31.4,18,32,18z M36,18c0.6,0,1-0.4,1-1
			c0-0.6-0.4-1-1-1c-0.6,0-1,0.4-1,1C35,17.6,35.4,18,36,18z M28,18c0.6,0,1-0.4,1-1c0-0.6-0.4-1-1-1c-0.6,0-1,0.4-1,1
			C27,17.6,27.4,18,28,18z"/>
	</g>
</g>
</svg>
