<?xml version="1.0" encoding="utf-8"?>
<!-- Generator: Adobe Illustrator 21.1.0, SVG Export Plug-In . SVG Version: 6.00 Build 0)  -->
<svg version="1.1" id="Shape_146_1_" xmlns="http://www.w3.org/2000/svg" xmlns:xlink="http://www.w3.org/1999/xlink" x="0px"
	 y="0px" viewBox="0 0 80 80" style="enable-background:new 0 0 80 80;" xml:space="preserve">
<style type="text/css">
	.st0{fill-rule:evenodd;clip-rule:evenodd;}
</style>
<g id="Shape_146">
	<g>
		<path class="st0" d="M22,45c-0.6,0-1,0.4-1,1c0,0.6,0.4,1,1,1c0.6,0,1-0.4,1-1C23,45.4,22.6,45,22,45z M22,49c-0.6,0-1,0.4-1,1
			c0,0.6,0.4,1,1,1c0.6,0,1-0.4,1-1C23,49.4,22.6,49,22,49z M22,53c-0.6,0-1,0.4-1,1c0,0.6,0.4,1,1,1c0.6,0,1-0.4,1-1
			C23,53.4,22.6,53,22,53z M22,41c-0.6,0-1,0.4-1,1s0.4,1,1,1c0.6,0,1-0.4,1-1S22.6,41,22,41z M22,61c-0.6,0-1,0.4-1,1
			c0,0.6,0.4,1,1,1c0.6,0,1-0.4,1-1C23,61.4,22.6,61,22,61z M22,57c-0.6,0-1,0.4-1,1c0,0.6,0.4,1,1,1c0.6,0,1-0.4,1-1
			C23,57.4,22.6,57,22,57z M22,65c-0.6,0-1,0.4-1,1c0,0.6,0.4,1,1,1c0.6,0,1-0.4,1-1C23,65.4,22.6,65,22,65z M51,40H28v2h23V40z
			 M22,37c-0.6,0-1,0.4-1,1c0,0.6,0.4,1,1,1c0.6,0,1-0.4,1-1C23,37.4,22.6,37,22,37z M22,29c-0.6,0-1,0.4-1,1c0,0.6,0.4,1,1,1
			c0.6,0,1-0.4,1-1C23,29.4,22.6,29,22,29z M28,54h23v-2H28V54z M28,48h27v-2H28V48z M28,36h27v-2H28V36z M50.4,9H15v62h50V23.6
			L50.4,9z M51,12.4L61.6,23H51V12.4z M63,69H17V11h32v14h14V69z M22,13c-0.6,0-1,0.4-1,1c0,0.6,0.4,1,1,1c0.6,0,1-0.4,1-1
			C23,13.4,22.6,13,22,13z M22,33c-0.6,0-1,0.4-1,1c0,0.6,0.4,1,1,1c0.6,0,1-0.4,1-1C23,33.4,22.6,33,22,33z M22,21
			c-0.6,0-1,0.4-1,1c0,0.6,0.4,1,1,1c0.6,0,1-0.4,1-1C23,21.4,22.6,21,22,21z M22,25c-0.6,0-1,0.4-1,1c0,0.6,0.4,1,1,1
			c0.6,0,1-0.4,1-1C23,25.4,22.6,25,22,25z M22,17c-0.6,0-1,0.4-1,1c0,0.6,0.4,1,1,1c0.6,0,1-0.4,1-1C23,17.4,22.6,17,22,17z"/>
	</g>
</g>
</svg>
