<?xml version="1.0" encoding="utf-8"?>
<!-- Generator: Adobe Illustrator 21.1.0, SVG Export Plug-In . SVG Version: 6.00 Build 0)  -->
<svg version="1.1" id="Shape_1_1_" xmlns="http://www.w3.org/2000/svg" xmlns:xlink="http://www.w3.org/1999/xlink" x="0px" y="0px"
	 viewBox="0 0 80 80" style="enable-background:new 0 0 80 80;" xml:space="preserve">
<style type="text/css">
	.st0{fill-rule:evenodd;clip-rule:evenodd;}
</style>
<g id="Shape_1">
	<g>
		<path class="st0" d="M25,49c-0.6,0-1,0.4-1,1s0.4,1,1,1c0.6,0,1-0.4,1-1S25.6,49,25,49z M25,53c-0.6,0-1,0.4-1,1c0,0.6,0.4,1,1,1
			c0.6,0,1-0.4,1-1C26,53.4,25.6,53,25,53z M25,45c-0.6,0-1,0.4-1,1c0,0.6,0.4,1,1,1c0.6,0,1-0.4,1-1C26,45.4,25.6,45,25,45z M25,65
			c-0.6,0-1,0.4-1,1c0,0.6,0.4,1,1,1c0.6,0,1-0.4,1-1C26,65.4,25.6,65,25,65z M25,41c-0.6,0-1,0.4-1,1c0,0.6,0.4,1,1,1
			c0.6,0,1-0.4,1-1C26,41.4,25.6,41,25,41z M25,57c-0.6,0-1,0.4-1,1c0,0.6,0.4,1,1,1c0.6,0,1-0.4,1-1C26,57.4,25.6,57,25,57z M25,61
			c-0.6,0-1,0.4-1,1c0,0.6,0.4,1,1,1c0.6,0,1-0.4,1-1C26,61.4,25.6,61,25,61z M25,33c-0.6,0-1,0.4-1,1c0,0.6,0.4,1,1,1
			c0.6,0,1-0.4,1-1C26,33.4,25.6,33,25,33z M44,51c-1.2,0-2,0.8-2,2c0,1.2,0.8,2,2,2c1.2,0,2-0.8,2-2C46,51.8,45.2,51,44,51z
			 M44.6,34c-4.2,0-6.5,2.4-6.6,5.8h3.3c0.1-1.7,1.3-2.8,3.1-2.8c1.8,0,3,1.1,3,2.5c0,1.4-0.6,2.1-2.3,3.2c-1.9,1.1-2.8,2.4-2.6,4.5
			l0,0.8h3.3v-0.7c0-1.4,0.5-2.1,2.4-3.2c1.9-1.1,3-2.6,3-4.8C51,36.2,48.4,34,44.6,34z M53.4,9H18v2h-6v58h6v2h50V23.6L53.4,9z
			 M18,67h-4V13h4V67z M54,12.4L64.6,23H54V12.4z M66,69H20V11h32v14h14V69z M25,13c-0.6,0-1,0.4-1,1c0,0.6,0.4,1,1,1
			c0.6,0,1-0.4,1-1C26,13.4,25.6,13,25,13z M25,17c-0.6,0-1,0.4-1,1s0.4,1,1,1c0.6,0,1-0.4,1-1S25.6,17,25,17z M25,29
			c-0.6,0-1,0.4-1,1c0,0.6,0.4,1,1,1c0.6,0,1-0.4,1-1C26,29.4,25.6,29,25,29z M25,37c-0.6,0-1,0.4-1,1c0,0.6,0.4,1,1,1
			c0.6,0,1-0.4,1-1C26,37.4,25.6,37,25,37z M25,25c-0.6,0-1,0.4-1,1c0,0.6,0.4,1,1,1c0.6,0,1-0.4,1-1C26,25.4,25.6,25,25,25z M25,21
			c-0.6,0-1,0.4-1,1c0,0.6,0.4,1,1,1c0.6,0,1-0.4,1-1C26,21.4,25.6,21,25,21z"/>
	</g>
</g>
</svg>
