<?xml version="1.0" encoding="utf-8"?>
<!-- Generator: Adobe Illustrator 21.1.0, SVG Export Plug-In . SVG Version: 6.00 Build 0)  -->
<svg version="1.1" id="Shape_145_1_" xmlns="http://www.w3.org/2000/svg" xmlns:xlink="http://www.w3.org/1999/xlink" x="0px"
	 y="0px" viewBox="0 0 80 80" style="enable-background:new 0 0 80 80;" xml:space="preserve">
<style type="text/css">
	.st0{fill-rule:evenodd;clip-rule:evenodd;}
</style>
<g id="Shape_145">
	<g>
		<path class="st0" d="M25.1,61L25.1,61l0.2-1l-0.6-0.7l-0.9,0.1l-0.3,0.2l-0.1,0.1l0,0.1c-1-0.6-2.2-0.9-3.5-0.9c-3.9,0-7,3.1-7,7
			c0,3.9,3.1,7,7,7c3.9,0,7-3.1,7-7C27,64.1,26.2,62.4,25.1,61L25.1,61z M20,71c-2.8,0-5-2.2-5-5c0-2.8,2.2-5,5-5c2.8,0,5,2.2,5,5
			C25,68.8,22.8,71,20,71z M19.9,29.8l0.1,0.5l0.3,0.2l0.1,0l0.9,0l0.6-0.7L21.6,29l-0.3-0.2l-0.1,0l-0.8,0C20.8,27.9,21,27,21,26
			c0-3.9-3.1-7-7-7c-3.9,0-7,3.1-7,7c0,3.9,3.1,7,7,7C16.5,33,18.6,31.7,19.9,29.8z M9,26c0-2.8,2.2-5,5-5c2.8,0,5,2.2,5,5
			c0,2.8-2.2,5-5,5C11.2,31,9,28.8,9,26z M31.3,49.8L31,50L31,50.1L30.8,51l0.6,0.7l0.9-0.1l0.3-0.2l0.1-0.1l0.2-0.9l-0.6-0.7
			L31.3,49.8z M28.8,53l-0.3,0.2l-0.1,0.1l-0.2,0.9l0.6,0.7l0.9-0.1l0.3-0.2l0.1-0.1l0.2-0.9l-0.6-0.7L28.8,53z M26.3,56.3L26,56.5
			L26,56.6l-0.2,0.9l0.6,0.7l0.9-0.1l0.3-0.2l0.1-0.1l0.2-0.9l-0.6-0.7L26.3,56.3z M41,22.2l-0.4-0.8l-0.9-0.2l-0.7,0.6L39,22.2v0.1
			l0.4,0.8l0.9,0.2l0.7-0.6l0.1-0.3V22.2z M39.7,25.4L39.1,26L39,26.3v0.1l0.4,0.8l0.9,0.2l0.7-0.6l0.1-0.3v-0.1l-0.4-0.8L39.7,25.4
			z M40,21c3.9,0,7-3.1,7-7c0-3.9-3.1-7-7-7c-3.9,0-7,3.1-7,7C33,17.9,36.1,21,40,21z M40,9c2.8,0,5,2.2,5,5c0,2.8-2.2,5-5,5
			c-2.8,0-5-2.2-5-5C35,11.2,37.2,9,40,9z M59.1,32.2l0.8,0.4l0.1,0c1.2,2,3.5,3.4,6,3.4c3.9,0,7-3.1,7-7c0-3.9-3.1-7-7-7
			c-3.9,0-7,3.1-7,7c0,0.7,0.1,1.3,0.3,1.9l-0.4,0.5L59.1,32.2z M66,24c2.8,0,5,2.2,5,5c0,2.8-2.2,5-5,5s-5-2.2-5-5
			C61,26.2,63.2,24,66,24z M27.5,34.4L27.5,34.4l1,0.1l0.6-0.7l-0.2-0.9l-0.3-0.2l-0.1-0.1l-0.9,0L27,33.3l0.2,0.9L27.5,34.4z
			 M23.9,32.5L23.9,32.5l1,0.1l0.6-0.7L25.2,31l-0.3-0.2l-0.1,0l-0.9,0l-0.6,0.7l0.2,0.9L23.9,32.5z M37.2,37.2c0.4-0.4,0.4-1,0-1.4
			c-0.2-0.2-0.4-0.3-0.7-0.3c-0.3,0-0.5,0.1-0.7,0.3c-0.4,0.4-0.4,1,0,1.4C36.1,37.6,36.8,37.6,37.2,37.2z M52.3,33.8L52,33.8
			l-0.1,0l-0.6,0.7l0.2,0.9l0.8,0.4l0.3-0.1l0.1,0l0.6-0.7l-0.2-0.9L52.3,33.8z M49.9,48.5l-0.9-0.3l-0.7,0.5l0,0.9l0.2,0.3l0.1,0.1
			l0.8,0.3l0.7-0.5l0-0.9L49.9,48.5L49.9,48.5z M55.7,54.3L54.9,54l-0.7,0.5l0,0.9l0.2,0.3l0.1,0.1l0.8,0.3l0.7-0.5l0-0.9L55.7,54.3
			L55.7,54.3z M52.8,51.4L52,51.1l-0.7,0.5l0,0.9l0.2,0.3l0.1,0.1l0.9,0.3l0.7-0.5l0-0.9L52.8,51.4L52.8,51.4z M56.9,32.5l-0.8-0.4
			l-0.3,0.1l-0.1,0L55.1,33l0.2,0.9l0.8,0.4l0.3-0.1l0.1,0l0.6-0.7L56.9,32.5z M66,59c-1.6,0-3,0.5-4.2,1.4l-0.2-0.2l-0.1-0.1
			l-0.9-0.3L60,60.4l0,0.9l0.2,0.3l0.1,0.1l0.3,0.1C59.6,62.9,59,64.4,59,66c0,3.9,3.1,7,7,7c3.9,0,7-3.1,7-7C73,62.1,69.9,59,66,59
			z M66,71c-2.8,0-5-2.2-5-5c0-2.8,2.2-5,5-5s5,2.2,5,5C71,68.8,68.8,71,66,71z M58.6,57.2l-0.9-0.3l-0.7,0.5l0,0.9l0.2,0.3l0.1,0.1
			l0.9,0.3l0.7-0.5l0-0.9L58.6,57.2L58.6,57.2z M49.4,36.7l0.1-0.1l-0.2-0.9l-0.4-0.2c-1.5-3-4.6-5.2-8.1-5.5l-0.2-0.4l-0.9-0.2
			L39.1,30c-3.1,0.3-5.8,2-7.5,4.5l-0.5,0l-0.6,0.7l0.2,0.8C30.3,37.3,30,38.6,30,40c0,3,1.3,5.6,3.4,7.5l-0.1,0.3l0.6,0.7l0.5-0.1
			C36.1,49.4,38,50,40,50c2.8,0,5.3-1.1,7.1-3l0.2-0.1l0-0.1C49,45,50,42.6,50,40C50,38.9,49.8,37.8,49.4,36.7z M40,48
			c-4.4,0-8-3.6-8-8c0-4.4,3.6-8,8-8s8,3.6,8,8C48,44.4,44.4,48,40,48z M40,44c-0.6,0-1,0.4-1,1c0,0.6,0.4,1,1,1c0.6,0,1-0.4,1-1
			C41,44.4,40.6,44,40,44z M36.5,42.5c-0.3,0-0.5,0.1-0.7,0.3c-0.4,0.4-0.4,1,0,1.4c0.4,0.4,1,0.4,1.4,0c0.4-0.4,0.4-1,0-1.4
			C37,42.6,36.7,42.5,36.5,42.5z M36,40c0-0.6-0.4-1-1-1c-0.6,0-1,0.4-1,1c0,0.6,0.4,1,1,1C35.6,41,36,40.6,36,40z M44.2,37.2
			c0.4-0.4,0.4-1,0-1.4c-0.2-0.2-0.4-0.3-0.7-0.3c-0.3,0-0.5,0.1-0.7,0.3c-0.4,0.4-0.4,1,0,1.4C43.2,37.6,43.9,37.6,44.2,37.2z
			 M44,40c0,0.6,0.4,1,1,1c0.6,0,1-0.4,1-1c0-0.6-0.4-1-1-1C44.4,39,44,39.4,44,40z M43.6,42.5c-0.3,0-0.5,0.1-0.7,0.3
			c-0.4,0.4-0.4,1,0,1.4c0.4,0.4,1,0.4,1.4,0c0.4-0.4,0.4-1,0-1.4C44.1,42.6,43.8,42.5,43.6,42.5z M40,34c-0.6,0-1,0.4-1,1
			c0,0.6,0.4,1,1,1c0.6,0,1-0.4,1-1C41,34.4,40.6,34,40,34z"/>
	</g>
</g>
</svg>
