<?xml version="1.0" encoding="utf-8"?>
<!-- Generator: Adobe Illustrator 21.1.0, SVG Export Plug-In . SVG Version: 6.00 Build 0)  -->
<svg version="1.1" id="Shape_143_1_" xmlns="http://www.w3.org/2000/svg" xmlns:xlink="http://www.w3.org/1999/xlink" x="0px"
	 y="0px" viewBox="0 0 80 80" style="enable-background:new 0 0 80 80;" xml:space="preserve">
<style type="text/css">
	.st0{fill-rule:evenodd;clip-rule:evenodd;}
</style>
<g id="Shape_143">
	<g>
		<path class="st0" d="M30,62c-0.6,0-1,0.4-1,1c0,0.6,0.4,1,1,1c0.6,0,1-0.4,1-1C31,62.4,30.6,62,30,62z M30,52c-0.6,0-1,0.4-1,1
			c0,0.6,0.4,1,1,1c0.6,0,1-0.4,1-1C31,52.4,30.6,52,30,52z M30,57c-0.6,0-1,0.4-1,1c0,0.6,0.4,1,1,1c0.6,0,1-0.4,1-1
			C31,57.4,30.6,57,30,57z M26,52c-0.6,0-1,0.4-1,1c0,0.6,0.4,1,1,1c0.6,0,1-0.4,1-1C27,52.4,26.6,52,26,52z M26,32
			c-0.6,0-1,0.4-1,1c0,0.6,0.4,1,1,1c0.6,0,1-0.4,1-1C27,32.4,26.6,32,26,32z M26,47c-0.6,0-1,0.4-1,1c0,0.6,0.4,1,1,1
			c0.6,0,1-0.4,1-1C27,47.4,26.6,47,26,47z M26,42c-0.6,0-1,0.4-1,1c0,0.6,0.4,1,1,1c0.6,0,1-0.4,1-1C27,42.4,26.6,42,26,42z M26,37
			c-0.6,0-1,0.4-1,1s0.4,1,1,1c0.6,0,1-0.4,1-1S26.6,37,26,37z M30,42c-0.6,0-1,0.4-1,1c0,0.6,0.4,1,1,1c0.6,0,1-0.4,1-1
			C31,42.4,30.6,42,30,42z M38,52c-0.6,0-1,0.4-1,1c0,0.6,0.4,1,1,1c0.6,0,1-0.4,1-1C39,52.4,38.6,52,38,52z M38,57
			c-0.6,0-1,0.4-1,1c0,0.6,0.4,1,1,1c0.6,0,1-0.4,1-1C39,57.4,38.6,57,38,57z M38,47c-0.6,0-1,0.4-1,1c0,0.6,0.4,1,1,1
			c0.6,0,1-0.4,1-1C39,47.4,38.6,47,38,47z M30,47c-0.6,0-1,0.4-1,1c0,0.6,0.4,1,1,1c0.6,0,1-0.4,1-1C31,47.4,30.6,47,30,47z M38,62
			c-0.6,0-1,0.4-1,1c0,0.6,0.4,1,1,1c0.6,0,1-0.4,1-1C39,62.4,38.6,62,38,62z M30,37c-0.6,0-1,0.4-1,1s0.4,1,1,1c0.6,0,1-0.4,1-1
			S30.6,37,30,37z M30,32c-0.6,0-1,0.4-1,1c0,0.6,0.4,1,1,1c0.6,0,1-0.4,1-1C31,32.4,30.6,32,30,32z M18,52c-0.6,0-1,0.4-1,1
			c0,0.6,0.4,1,1,1c0.6,0,1-0.4,1-1C19,52.4,18.6,52,18,52z M18,42c-0.6,0-1,0.4-1,1c0,0.6,0.4,1,1,1c0.6,0,1-0.4,1-1
			C19,42.4,18.6,42,18,42z M18,47c-0.6,0-1,0.4-1,1c0,0.6,0.4,1,1,1c0.6,0,1-0.4,1-1C19,47.4,18.6,47,18,47z M18,32
			c-0.6,0-1,0.4-1,1c0,0.6,0.4,1,1,1c0.6,0,1-0.4,1-1C19,32.4,18.6,32,18,32z M18,37c-0.6,0-1,0.4-1,1s0.4,1,1,1c0.6,0,1-0.4,1-1
			S18.6,37,18,37z M18,62c-0.6,0-1,0.4-1,1c0,0.6,0.4,1,1,1c0.6,0,1-0.4,1-1C19,62.4,18.6,62,18,62z M18,57c-0.6,0-1,0.4-1,1
			c0,0.6,0.4,1,1,1c0.6,0,1-0.4,1-1C19,57.4,18.6,57,18,57z M38,42c-0.6,0-1,0.4-1,1c0,0.6,0.4,1,1,1c0.6,0,1-0.4,1-1
			C39,42.4,38.6,42,38,42z M22,62c-0.6,0-1,0.4-1,1c0,0.6,0.4,1,1,1c0.6,0,1-0.4,1-1C23,62.4,22.6,62,22,62z M22,32
			c-0.6,0-1,0.4-1,1c0,0.6,0.4,1,1,1c0.6,0,1-0.4,1-1C23,32.4,22.6,32,22,32z M26,62c-0.6,0-1,0.4-1,1c0,0.6,0.4,1,1,1
			c0.6,0,1-0.4,1-1C27,62.4,26.6,62,26,62z M22,37c-0.6,0-1,0.4-1,1s0.4,1,1,1c0.6,0,1-0.4,1-1S22.6,37,22,37z M22,52
			c-0.6,0-1,0.4-1,1c0,0.6,0.4,1,1,1c0.6,0,1-0.4,1-1C23,52.4,22.6,52,22,52z M22,57c-0.6,0-1,0.4-1,1c0,0.6,0.4,1,1,1
			c0.6,0,1-0.4,1-1C23,57.4,22.6,57,22,57z M22,42c-0.6,0-1,0.4-1,1c0,0.6,0.4,1,1,1c0.6,0,1-0.4,1-1C23,42.4,22.6,42,22,42z M26,57
			c-0.6,0-1,0.4-1,1c0,0.6,0.4,1,1,1c0.6,0,1-0.4,1-1C27,57.4,26.6,57,26,57z M22,47c-0.6,0-1,0.4-1,1c0,0.6,0.4,1,1,1
			c0.6,0,1-0.4,1-1C23,47.4,22.6,47,22,47z M50,32c-0.6,0-1,0.4-1,1c0,0.6,0.4,1,1,1c0.6,0,1-0.4,1-1C51,32.4,50.6,32,50,32z M50,37
			c-0.6,0-1,0.4-1,1s0.4,1,1,1c0.6,0,1-0.4,1-1S50.6,37,50,37z M17,27h34v-2H17V27z M17,22h34v-2H17V22z M50,52c-0.6,0-1,0.4-1,1
			c0,0.6,0.4,1,1,1c0.6,0,1-0.4,1-1C51,52.4,50.6,52,50,52z M50,42c-0.6,0-1,0.4-1,1c0,0.6,0.4,1,1,1c0.6,0,1-0.4,1-1
			C51,42.4,50.6,42,50,42z M63,32c0.6,0,1-0.4,1-1c0-0.6-0.4-1-1-1c-0.6,0-1,0.4-1,1C62,31.6,62.4,32,63,32z M50,47
			c-0.6,0-1,0.4-1,1c0,0.6,0.4,1,1,1c0.6,0,1-0.4,1-1C51,47.4,50.6,47,50,47z M50,57c-0.6,0-1,0.4-1,1c0,0.6,0.4,1,1,1
			c0.6,0,1-0.4,1-1C51,57.4,50.6,57,50,57z M63,37c0.6,0,1-0.4,1-1c0-0.6-0.4-1-1-1c-0.6,0-1,0.4-1,1C62,36.6,62.4,37,63,37z M59,19
			V9H9v55c0,3.9,3.1,7,7,7h48c3.9,0,7-3.1,7-7V19H59z M16,69c-2.8,0-5-2.2-5-5V11h46v53c0,2,0.8,3.7,2.1,5H16z M69,64
			c0,2.8-2.2,5-5,5s-5-2.2-5-5v-2c0.6,0,1-0.4,1-1c0-0.6-0.4-1-1-1v-3c0.6,0,1-0.4,1-1c0-0.6-0.4-1-1-1v-3c0.6,0,1-0.4,1-1
			c0-0.6-0.4-1-1-1v-3c0.6,0,1-0.4,1-1c0-0.6-0.4-1-1-1v-3c0.6,0,1-0.4,1-1c0-0.6-0.4-1-1-1v-3c0.6,0,1-0.4,1-1c0-0.6-0.4-1-1-1v-3
			c0.6,0,1-0.4,1-1c0-0.6-0.4-1-1-1v-9h10V64z M63,57c0.6,0,1-0.4,1-1c0-0.6-0.4-1-1-1c-0.6,0-1,0.4-1,1C62,56.6,62.4,57,63,57z
			 M63,62c0.6,0,1-0.4,1-1c0-0.6-0.4-1-1-1c-0.6,0-1,0.4-1,1C62,61.6,62.4,62,63,62z M63,42c0.6,0,1-0.4,1-1c0-0.6-0.4-1-1-1
			c-0.6,0-1,0.4-1,1C62,41.6,62.4,42,63,42z M63,52c0.6,0,1-0.4,1-1c0-0.6-0.4-1-1-1c-0.6,0-1,0.4-1,1C62,51.6,62.4,52,63,52z
			 M63,47c0.6,0,1-0.4,1-1c0-0.6-0.4-1-1-1c-0.6,0-1,0.4-1,1C62,46.6,62.4,47,63,47z M42,57c-0.6,0-1,0.4-1,1c0,0.6,0.4,1,1,1
			c0.6,0,1-0.4,1-1C43,57.4,42.6,57,42,57z M42,47c-0.6,0-1,0.4-1,1c0,0.6,0.4,1,1,1c0.6,0,1-0.4,1-1C43,47.4,42.6,47,42,47z M42,42
			c-0.6,0-1,0.4-1,1c0,0.6,0.4,1,1,1c0.6,0,1-0.4,1-1C43,42.4,42.6,42,42,42z M42,52c-0.6,0-1,0.4-1,1c0,0.6,0.4,1,1,1
			c0.6,0,1-0.4,1-1C43,52.4,42.6,52,42,52z M42,37c-0.6,0-1,0.4-1,1s0.4,1,1,1c0.6,0,1-0.4,1-1S42.6,37,42,37z M42,62
			c-0.6,0-1,0.4-1,1c0,0.6,0.4,1,1,1c0.6,0,1-0.4,1-1C43,62.4,42.6,62,42,62z M38,32c-0.6,0-1,0.4-1,1c0,0.6,0.4,1,1,1
			c0.6,0,1-0.4,1-1C39,32.4,38.6,32,38,32z M38,37c-0.6,0-1,0.4-1,1s0.4,1,1,1c0.6,0,1-0.4,1-1S38.6,37,38,37z M42,32
			c-0.6,0-1,0.4-1,1c0,0.6,0.4,1,1,1c0.6,0,1-0.4,1-1C43,32.4,42.6,32,42,32z M46,62c-0.6,0-1,0.4-1,1c0,0.6,0.4,1,1,1
			c0.6,0,1-0.4,1-1C47,62.4,46.6,62,46,62z M46,37c-0.6,0-1,0.4-1,1s0.4,1,1,1c0.6,0,1-0.4,1-1S46.6,37,46,37z M46,32
			c-0.6,0-1,0.4-1,1c0,0.6,0.4,1,1,1c0.6,0,1-0.4,1-1C47,32.4,46.6,32,46,32z M46,42c-0.6,0-1,0.4-1,1c0,0.6,0.4,1,1,1
			c0.6,0,1-0.4,1-1C47,42.4,46.6,42,46,42z M50,62c-0.6,0-1,0.4-1,1c0,0.6,0.4,1,1,1c0.6,0,1-0.4,1-1C51,62.4,50.6,62,50,62z M46,57
			c-0.6,0-1,0.4-1,1c0,0.6,0.4,1,1,1c0.6,0,1-0.4,1-1C47,57.4,46.6,57,46,57z M46,52c-0.6,0-1,0.4-1,1c0,0.6,0.4,1,1,1
			c0.6,0,1-0.4,1-1C47,52.4,46.6,52,46,52z M46,47c-0.6,0-1,0.4-1,1c0,0.6,0.4,1,1,1c0.6,0,1-0.4,1-1C47,47.4,46.6,47,46,47z"/>
	</g>
</g>
</svg>
