<?xml version="1.0" encoding="utf-8"?>
<!-- Generator: Adobe Illustrator 21.1.0, SVG Export Plug-In . SVG Version: 6.00 Build 0)  -->
<svg version="1.1" id="Shape_144_1_" xmlns="http://www.w3.org/2000/svg" xmlns:xlink="http://www.w3.org/1999/xlink" x="0px"
	 y="0px" viewBox="0 0 80 80" style="enable-background:new 0 0 80 80;" xml:space="preserve">
<style type="text/css">
	.st0{fill-rule:evenodd;clip-rule:evenodd;}
</style>
<g id="Shape_144">
	<g>
		<path class="st0" d="M39.5,55.5c-0.6,0-1,0.4-1,1c0,0.6,0.4,1,1,1c0.6,0,1-0.4,1-1C40.5,55.9,40.1,55.5,39.5,55.5z M43.9,56.9
			c0.5-0.1,0.9-0.7,0.7-1.2c-0.1-0.4-0.5-0.7-0.9-0.7c-0.1,0-0.2,0-0.3,0c-0.5,0.1-0.8,0.7-0.7,1.2C42.8,56.7,43.4,57.1,43.9,56.9z
			 M44.4,65c0.5-0.1,0.9-0.6,0.8-1.2c-0.1-0.5-0.6-0.9-1.2-0.8c-0.5,0.1-0.9,0.6-0.8,1.2C43.3,64.8,43.8,65.1,44.4,65z M44,48.3
			c0.5-0.3,0.6-0.9,0.4-1.4c-0.2-0.3-0.5-0.5-0.9-0.5c-0.2,0-0.3,0.1-0.5,0.1c-0.2,0.1-0.4,0.3-0.5,0.6c-0.1,0.3,0,0.5,0.1,0.8
			C42.9,48.4,43.5,48.6,44,48.3z M49.6,18.7c0.2-0.5,0-1.1-0.5-1.3c-0.1-0.1-0.3-0.1-0.4-0.1c-0.4,0-0.8,0.2-0.9,0.6
			c-0.2,0.5,0,1.1,0.5,1.3C48.8,19.5,49.4,19.2,49.6,18.7z M48,55.2c0.5-0.3,0.6-0.9,0.4-1.4c-0.2-0.3-0.5-0.5-0.9-0.5
			c-0.2,0-0.3,0.1-0.5,0.1c-0.2,0.1-0.4,0.4-0.5,0.6c-0.1,0.3,0,0.5,0.1,0.8C46.9,55.3,47.5,55.5,48,55.2z M49.1,63.6
			c0.5-0.2,0.8-0.8,0.5-1.3c-0.2-0.4-0.5-0.6-0.9-0.6c-0.1,0-0.3,0-0.4,0.1c-0.5,0.2-0.8,0.8-0.5,1.3C48,63.6,48.6,63.8,49.1,63.6z
			 M42.7,24.8c-0.1,0.5,0.2,1.1,0.7,1.2c0.5,0.1,1.1-0.2,1.2-0.7c0.1-0.5-0.2-1.1-0.7-1.2c-0.1,0-0.2,0-0.3,0
			C43.2,24.1,42.8,24.4,42.7,24.8z M45.2,17.2c0.1-0.5-0.2-1.1-0.8-1.2c-0.1,0-0.3,0-0.4,0c-0.4,0.1-0.7,0.4-0.8,0.8
			c-0.1,0.5,0.2,1.1,0.8,1.2C44.5,18.1,45.1,17.7,45.2,17.2z M45.6,44c-0.3,0.5-0.1,1.1,0.4,1.4c0.5,0.3,1.1,0.1,1.4-0.4
			c0.3-0.5,0.1-1.1-0.4-1.4c-0.2-0.1-0.4-0.1-0.5-0.1C46,43.5,45.7,43.7,45.6,44z M39.5,33.5c0.6,0,1-0.4,1-1c0-0.6-0.4-1-1-1
			c-0.6,0-1,0.4-1,1C38.5,33.1,38.9,33.5,39.5,33.5z M46.6,26.1c-0.3,0.5-0.1,1.1,0.4,1.4c0.5,0.3,1.1,0.1,1.4-0.4
			c0.3-0.5,0.1-1.1-0.4-1.4c-0.2-0.1-0.4-0.1-0.5-0.1C47.1,25.7,46.8,25.9,46.6,26.1z M39.5,17.5c0.6,0,1-0.4,1-1c0-0.6-0.4-1-1-1
			c-0.6,0-1,0.4-1,1C38.5,17.1,38.9,17.5,39.5,17.5z M39.5,47.5c-0.6,0-1,0.4-1,1c0,0.6,0.4,1,1,1c0.6,0,1-0.4,1-1
			C40.5,47.9,40.1,47.5,39.5,47.5z M39.5,63.5c-0.6,0-1,0.4-1,1c0,0.6,0.4,1,1,1c0.6,0,1-0.4,1-1C40.5,63.9,40.1,63.5,39.5,63.5z
			 M39.5,25.5c0.6,0,1-0.4,1-1c0-0.6-0.4-1-1-1c-0.6,0-1,0.4-1,1C38.5,25.1,38.9,25.5,39.5,25.5z M48.5,40.5c0-0.6-0.4-1-1-1
			c-0.6,0-1,0.4-1,1c0,0.6,0.4,1,1,1C48.1,41.5,48.5,41.1,48.5,40.5z M64,45.4c0.1-0.5-0.2-1.1-0.8-1.2c-0.1,0-0.3,0-0.4,0
			c-0.4,0.1-0.7,0.4-0.8,0.8c-0.1,0.5,0.2,1.1,0.8,1.2C63.4,46.3,63.9,45.9,64,45.4z M61.3,50.6c0.5,0.2,1.1,0,1.3-0.5
			c0.2-0.5,0-1.1-0.5-1.3c-0.1-0.1-0.3-0.1-0.4-0.1c-0.4,0-0.8,0.2-0.9,0.6C60.5,49.8,60.8,50.4,61.3,50.6z M64.5,40.5
			c0-0.6-0.4-1-1-1c-0.6,0-1,0.4-1,1c0,0.6,0.4,1,1,1C64.1,41.5,64.5,41.1,64.5,40.5z M50.1,28.5C50.1,28.5,50.1,28.5,50.1,28.5
			L40,38.6c-0.2,0-0.3-0.1-0.5-0.1c-1.1,0-2,0.9-2,2c0,1.1,0.9,2,2,2c1.1,0,2-0.9,2-2c0-0.2,0-0.3-0.1-0.5l17.5-17.5h4.6l7-7h-6v-6
			l-7,7v4.6L50.1,28.5C50.1,28.5,50.1,28.5,50.1,28.5z M60.3,26.6c-0.2-0.3-0.6-0.5-1-0.4c-0.1,0-0.3,0.1-0.4,0.2
			c-0.5,0.3-0.6,0.9-0.3,1.4c0.3,0.5,0.9,0.6,1.4,0.3C60.5,27.7,60.6,27.1,60.3,26.6z M61.7,30.3c-0.1,0-0.3,0-0.4,0.1
			c-0.5,0.2-0.8,0.8-0.5,1.3c0.2,0.5,0.8,0.8,1.3,0.5c0.5-0.2,0.8-0.8,0.5-1.3C62.4,30.6,62.1,30.3,61.7,30.3z M63.2,36.8
			c0.5-0.1,0.9-0.6,0.8-1.2c-0.1-0.5-0.6-0.9-1.2-0.8c-0.5,0.1-0.9,0.6-0.8,1.2C62.2,36.6,62.7,36.9,63.2,36.8z M57.2,58.2
			c0.4-0.4,0.4-1,0-1.4c-0.2-0.2-0.4-0.3-0.7-0.3c-0.3,0-0.5,0.1-0.7,0.3c-0.4,0.4-0.4,1,0,1.4C56.2,58.6,56.8,58.6,57.2,58.2z
			 M54.5,40.5c0,0.6,0.4,1,1,1c0.6,0,1-0.4,1-1c0-0.6-0.4-1-1-1C54.9,39.5,54.5,39.9,54.5,40.5z M55.9,44.9c0.1-0.5-0.2-1.1-0.7-1.2
			c-0.1,0-0.2,0-0.3,0c-0.4,0-0.8,0.3-1,0.7c-0.1,0.5,0.2,1.1,0.7,1.2C55.2,45.8,55.8,45.4,55.9,44.9z M50.1,51.1
			c-0.4,0.4-0.4,1,0,1.4c0.4,0.4,1,0.4,1.4,0c0.4-0.4,0.4-1,0-1.4c-0.2-0.2-0.4-0.3-0.7-0.3C50.6,50.8,50.3,50.9,50.1,51.1z
			 M55,35.4L55,35.4c-0.1,0-0.2,0-0.3,0c-0.5,0.1-0.9,0.7-0.7,1.2c0.1,0.5,0.7,0.8,1.2,0.7c0.5-0.1,0.8-0.7,0.7-1.2
			C55.8,35.7,55.4,35.4,55,35.4z M54.2,49c0.3-0.5,0.1-1.1-0.4-1.4c-0.2-0.1-0.4-0.1-0.5-0.1c-0.3,0-0.6,0.2-0.8,0.5
			c-0.3,0.5-0.1,1.1,0.4,1.4C53.3,49.6,53.9,49.5,54.2,49z M59.6,52.9c-0.4-0.1-0.8,0.1-1,0.4c-0.3,0.5-0.2,1.1,0.3,1.4
			c0.5,0.3,1.1,0.2,1.4-0.3c0.3-0.5,0.2-1.1-0.3-1.4C59.9,52.9,59.8,52.9,59.6,52.9z M52.6,59.5c-0.1,0-0.3,0.1-0.4,0.2
			c-0.5,0.3-0.6,0.9-0.3,1.4c0.3,0.5,0.9,0.6,1.4,0.3c0.5-0.3,0.6-0.9,0.3-1.4C53.4,59.6,53,59.4,52.6,59.5z M53.3,31.5
			c-0.2,0-0.3,0.1-0.5,0.1c-0.2,0.1-0.4,0.4-0.5,0.6c-0.1,0.3,0,0.5,0.1,0.8c0.1,0.2,0.4,0.4,0.6,0.5c0.3,0.1,0.5,0,0.8-0.1
			c0.5-0.3,0.6-0.9,0.4-1.4C54,31.7,53.7,31.5,53.3,31.5z M21.8,58.2c0.4,0.4,1,0.4,1.4,0c0.4-0.4,0.4-1,0-1.4
			c-0.2-0.2-0.4-0.3-0.7-0.3c-0.3,0-0.5,0.1-0.7,0.3C21.4,57.2,21.4,57.8,21.8,58.2z M24,35.4c-0.4,0-0.8,0.3-1,0.7
			c-0.1,0.5,0.2,1.1,0.7,1.2c0.5,0.1,1.1-0.2,1.2-0.7c0.1-0.5-0.2-1.1-0.7-1.2C24.2,35.4,24.1,35.4,24,35.4z M25.4,49.5
			c0.3,0.1,0.5,0,0.8-0.1c0.2-0.1,0.4-0.3,0.5-0.6c0.1-0.3,0-0.5-0.1-0.8c-0.2-0.3-0.5-0.5-0.9-0.5c-0.2,0-0.3,0.1-0.5,0.1
			c-0.5,0.3-0.6,0.9-0.4,1.4C24.9,49.2,25.1,49.4,25.4,49.5z M27,61c0.3-0.5,0.2-1.1-0.3-1.4c-0.1-0.1-0.2-0.1-0.4-0.2
			c-0.4-0.1-0.8,0.1-1,0.4c-0.3,0.5-0.2,1.1,0.3,1.4C26.1,61.6,26.7,61.5,27,61z M53.7,21.1c0.3-0.5,0.2-1.1-0.3-1.4
			c-0.1-0.1-0.2-0.1-0.4-0.2c-0.4-0.1-0.8,0.1-1,0.4c-0.3,0.5-0.2,1.1,0.3,1.4C52.7,21.7,53.4,21.6,53.7,21.1z M25.1,33.4
			c0.2,0.1,0.5,0.2,0.8,0.1c0.3-0.1,0.5-0.2,0.6-0.5c0.3-0.5,0.1-1.1-0.4-1.4c-0.2-0.1-0.4-0.1-0.5-0.1c-0.3,0-0.6,0.2-0.8,0.5
			c-0.1,0.2-0.2,0.5-0.1,0.8C24.7,33,24.9,33.2,25.1,33.4z M27,20c-0.2-0.3-0.6-0.5-1-0.4c-0.1,0-0.3,0.1-0.4,0.2
			c-0.5,0.3-0.6,0.9-0.3,1.4c0.3,0.5,0.9,0.6,1.4,0.3C27.2,21.1,27.3,20.4,27,20z M22.5,40.5c0,0.6,0.4,1,1,1c0.6,0,1-0.4,1-1
			c0-0.6-0.4-1-1-1C22.9,39.5,22.5,39.9,22.5,40.5z M24.3,45.6c0.5-0.1,0.9-0.7,0.7-1.2c-0.1-0.4-0.5-0.7-1-0.7H24
			c-0.1,0-0.1,0-0.2,0c-0.5,0.1-0.9,0.7-0.7,1.2C23.2,45.4,23.8,45.7,24.3,45.6z M17.7,50.6c0.5-0.2,0.8-0.8,0.5-1.3
			c-0.2-0.4-0.5-0.6-0.9-0.6c-0.1,0-0.3,0-0.4,0.1c-0.5,0.2-0.8,0.8-0.5,1.3C16.6,50.6,17.2,50.8,17.7,50.6z M20.1,26.3
			c-0.1-0.1-0.2-0.1-0.4-0.2c-0.4-0.1-0.8,0.1-1,0.4c-0.3,0.5-0.2,1.1,0.3,1.4c0.5,0.3,1.1,0.2,1.4-0.3
			C20.7,27.3,20.6,26.6,20.1,26.3z M16.2,46.2c0.5-0.1,0.9-0.6,0.8-1.2c-0.1-0.5-0.6-0.9-1.2-0.8c-0.5,0.1-0.9,0.6-0.8,1.2
			C15.1,45.9,15.6,46.3,16.2,46.2z M17.7,30.4c-0.1-0.1-0.3-0.1-0.4-0.1c-0.4,0-0.8,0.2-0.9,0.6c-0.2,0.5,0,1.1,0.5,1.3
			c0.5,0.2,1.1,0,1.3-0.5C18.5,31.2,18.2,30.6,17.7,30.4z M19.4,52.9c-0.1,0-0.3,0.1-0.4,0.1c-0.5,0.3-0.6,0.9-0.3,1.4
			c0.3,0.5,0.9,0.6,1.4,0.3c0.5-0.3,0.6-0.9,0.3-1.4C20.1,52.9,19.7,52.8,19.4,52.9z M16.9,36c0.1-0.5-0.2-1.1-0.8-1.2
			c-0.1,0-0.3,0-0.4,0c-0.4,0.1-0.7,0.4-0.8,0.8c-0.1,0.5,0.2,1.1,0.8,1.2C16.3,36.9,16.8,36.6,16.9,36z M14.5,40.5c0,0.6,0.4,1,1,1
			c0.6,0,1-0.4,1-1c0-0.6-0.4-1-1-1C14.9,39.5,14.5,39.9,14.5,40.5z M22.5,22.5c-0.3,0-0.5,0.1-0.7,0.3c-0.4,0.4-0.4,1,0,1.4
			c0.4,0.4,1,0.4,1.4,0c0.4-0.4,0.4-1,0-1.4C23,22.6,22.8,22.5,22.5,22.5z M36.5,47.2c-0.1-0.3-0.2-0.5-0.5-0.6
			c-0.2-0.1-0.4-0.1-0.5-0.1c-0.3,0-0.7,0.2-0.8,0.5c-0.3,0.5-0.1,1.1,0.4,1.4c0.2,0.1,0.5,0.2,0.8,0.1c0.3-0.1,0.5-0.2,0.6-0.5
			C36.5,47.7,36.5,47.4,36.5,47.2z M36.3,56.2c0.1-0.5-0.2-1.1-0.7-1.2c-0.1,0-0.2,0-0.3,0c-0.4,0-0.8,0.3-1,0.7
			c-0.1,0.5,0.2,1.1,0.7,1.2C35.6,57.1,36.2,56.7,36.3,56.2z M36.4,33.1c-0.2-0.3-0.5-0.5-0.9-0.5c-0.2,0-0.3,0-0.5,0.1
			c-0.5,0.3-0.6,0.9-0.4,1.4c0.1,0.2,0.4,0.4,0.6,0.5c0.3,0.1,0.5,0,0.8-0.1c0.2-0.1,0.4-0.4,0.5-0.6C36.5,33.6,36.5,33.3,36.4,33.1
			z M34.6,65c0.5,0.1,1.1-0.2,1.2-0.8c0.1-0.5-0.2-1.1-0.8-1.2c-0.1,0-0.3,0-0.4,0c-0.4,0.1-0.7,0.4-0.8,0.8
			C33.7,64.4,34.1,64.9,34.6,65z M35.3,24c-0.1,0-0.1,0-0.2,0c-0.5,0.1-0.8,0.7-0.7,1.2c0.1,0.5,0.7,0.9,1.2,0.7
			c0.5-0.1,0.9-0.7,0.7-1.2C36.2,24.4,35.8,24.1,35.3,24C35.3,24,35.3,24,35.3,24z M28.2,50.8c-0.3,0-0.5,0.1-0.7,0.3
			c-0.4,0.4-0.4,1,0,1.4c0.4,0.4,1,0.4,1.4,0c0.4-0.4,0.4-1,0-1.4C28.7,50.9,28.5,50.8,28.2,50.8z M34.6,16
			c-0.5,0.1-0.9,0.6-0.8,1.2c0.1,0.5,0.6,0.9,1.2,0.8c0.5-0.1,0.9-0.6,0.8-1.2C35.7,16.2,35.2,15.9,34.6,16z M32,27.5
			c0.2-0.1,0.4-0.4,0.5-0.6c0.1-0.3,0-0.5-0.1-0.8c-0.2-0.3-0.5-0.5-0.9-0.5c-0.2,0-0.3,0.1-0.5,0.1c-0.5,0.3-0.6,0.9-0.4,1.4
			c0.1,0.2,0.4,0.4,0.6,0.5C31.5,27.7,31.8,27.6,32,27.5z M66.9,22.1l-1.4,1.4c3.2,4.9,5.1,10.7,5.1,16.9c0,17.1-13.9,31-31,31
			c-17.1,0-31-13.9-31-31c0-17.1,13.9-31,31-31c6,0,11.6,1.7,16.3,4.7l1.4-1.4C52.1,9.4,46,7.5,39.5,7.5c-18.2,0-33,14.8-33,33
			c0,18.2,14.8,33,33,33c18.2,0,33-14.8,33-33C72.5,33.7,70.4,27.4,66.9,22.1z M33.1,35.6c-0.2-0.1-0.4-0.1-0.5-0.1
			c-0.3,0-0.6,0.2-0.8,0.5c-0.1,0.2-0.2,0.5-0.1,0.8c0.1,0.3,0.2,0.5,0.5,0.6c0.2,0.1,0.5,0.2,0.8,0.1c0.3-0.1,0.5-0.2,0.6-0.5
			C33.7,36.5,33.5,35.9,33.1,35.6z M28.9,28.5c-0.2-0.2-0.4-0.3-0.7-0.3c-0.3,0-0.5,0.1-0.7,0.3c-0.4,0.4-0.4,1,0,1.4
			c0.4,0.4,1,0.4,1.4,0C29.3,29.5,29.3,28.9,28.9,28.5z M33.1,45.4c0.5-0.3,0.6-0.9,0.4-1.4c-0.2-0.3-0.5-0.5-0.9-0.5
			c-0.2,0-0.3,0.1-0.5,0.1c-0.2,0.1-0.4,0.4-0.5,0.6c-0.1,0.3,0,0.5,0.1,0.8C32,45.5,32.6,45.6,33.1,45.4z M31.8,55.3
			c0.3-0.1,0.5-0.2,0.6-0.5c0.1-0.2,0.2-0.5,0.1-0.8c-0.1-0.3-0.2-0.5-0.5-0.6c-0.2-0.1-0.4-0.1-0.5-0.1c-0.3,0-0.7,0.2-0.8,0.5
			c-0.3,0.5-0.1,1.1,0.4,1.4C31.2,55.4,31.5,55.4,31.8,55.3z M30.5,40.5c0,0.6,0.4,1,1,1c0.6,0,1-0.4,1-1c0-0.6-0.4-1-1-1
			C30.9,39.5,30.5,39.9,30.5,40.5z M30.3,17.3c-0.1,0-0.3,0-0.4,0.1c-0.5,0.2-0.8,0.8-0.5,1.3c0.2,0.5,0.8,0.8,1.3,0.5
			c0.5-0.2,0.8-0.8,0.5-1.3C31.1,17.6,30.7,17.3,30.3,17.3z M29.9,63.6c0.5,0.2,1.1,0,1.3-0.5c0.2-0.5,0-1.1-0.5-1.3
			c-0.1-0.1-0.3-0.1-0.4-0.1c-0.4,0-0.8,0.2-0.9,0.6C29.2,62.8,29.4,63.4,29.9,63.6z"/>
	</g>
</g>
</svg>
