<?xml version="1.0" encoding="utf-8"?>
<!-- Generator: Adobe Illustrator 21.1.0, SVG Export Plug-In . SVG Version: 6.00 Build 0)  -->
<svg version="1.1" id="Shape_149_1_" xmlns="http://www.w3.org/2000/svg" xmlns:xlink="http://www.w3.org/1999/xlink" x="0px"
	 y="0px" viewBox="0 0 80 80" style="enable-background:new 0 0 80 80;" xml:space="preserve">
<style type="text/css">
	.st0{fill-rule:evenodd;clip-rule:evenodd;}
</style>
<g id="Shape_149">
	<g>
		<path class="st0" d="M22,33c0.6,0,1-0.4,1-1c0-0.6-0.4-1-1-1c-0.6,0-1,0.4-1,1C21,32.6,21.4,33,22,33z M22,29c0.6,0,1-0.4,1-1
			s-0.4-1-1-1c-0.6,0-1,0.4-1,1S21.4,29,22,29z M22,37c0.6,0,1-0.4,1-1c0-0.6-0.4-1-1-1c-0.6,0-1,0.4-1,1C21,36.6,21.4,37,22,37z
			 M22,41c0.6,0,1-0.4,1-1c0-0.6-0.4-1-1-1c-0.6,0-1,0.4-1,1C21,40.6,21.4,41,22,41z M43,64h-6c-0.4,0-0.7,0.2-0.9,0.5
			c-0.2,0.3-0.2,0.7,0,1c0.2,0.3,0.5,0.5,0.9,0.5h6c0.4,0,0.7-0.2,0.9-0.5c0.2-0.3,0.2-0.7,0-1C43.7,64.2,43.4,64,43,64z M58,15H22
			c-0.4,0-0.7,0.2-0.9,0.5c-0.2,0.3-0.2,0.7,0,1c0.2,0.3,0.5,0.5,0.9,0.5h35v42H22c-0.4,0-0.7,0.2-0.9,0.5c-0.2,0.3-0.2,0.7,0,1
			c0.2,0.3,0.5,0.5,0.9,0.5h36c0.6,0,1-0.4,1-1V16C59,15.4,58.5,15,58,15z M22,45c0.6,0,1-0.4,1-1c0-0.6-0.4-1-1-1c-0.6,0-1,0.4-1,1
			C21,44.6,21.4,45,22,45z M22,21c0.6,0,1-0.4,1-1c0-0.6-0.4-1-1-1c-0.6,0-1,0.4-1,1C21,20.6,21.4,21,22,21z M22,25c0.6,0,1-0.4,1-1
			c0-0.6-0.4-1-1-1c-0.6,0-1,0.4-1,1C21,24.6,21.4,25,22,25z M31,27h17c0.4,0,0.7-0.2,0.9-0.5c0.2-0.3,0.2-0.7,0-1
			C48.7,25.2,48.4,25,48,25H31c-0.4,0-0.7,0.2-0.9,0.5c-0.2,0.3-0.2,0.7,0,1C30.3,26.8,30.6,27,31,27z M22,49c0.6,0,1-0.4,1-1
			c0-0.6-0.4-1-1-1c-0.6,0-1,0.4-1,1C21,48.6,21.4,49,22,49z M30.1,38.5c0.2,0.3,0.5,0.5,0.9,0.5h17c0.4,0,0.7-0.2,0.9-0.5
			c0.2-0.3,0.2-0.7,0-1C48.7,37.2,48.4,37,48,37H31c-0.4,0-0.7,0.2-0.9,0.5C29.9,37.8,29.9,38.2,30.1,38.5z M30.1,44.5
			c0.2,0.3,0.5,0.5,0.9,0.5h12c0.4,0,0.7-0.2,0.9-0.5c0.2-0.3,0.2-0.7,0-1C43.7,43.2,43.4,43,43,43H31c-0.4,0-0.7,0.2-0.9,0.5
			C29.9,43.8,29.9,44.2,30.1,44.5z M60,9H20c-2.2,0-4,1.8-4,4v54c0,2.2,1.8,4,4,4h40c2.2,0,4-1.8,4-4V13C64,10.8,62.2,9,60,9z
			 M62,67c0,1.1-0.9,2-2,2H20c-1.1,0-2-0.9-2-2V13c0-1.1,0.9-2,2-2h40c1.1,0,2,0.9,2,2V67z M30.1,50.5c0.2,0.3,0.5,0.5,0.9,0.5h17
			c0.4,0,0.7-0.2,0.9-0.5c0.2-0.3,0.2-0.7,0-1C48.7,49.2,48.4,49,48,49H31c-0.4,0-0.7,0.2-0.9,0.5C29.9,49.8,29.9,50.2,30.1,50.5z
			 M30.1,32.5c0.2,0.3,0.5,0.5,0.9,0.5h12c0.4,0,0.7-0.2,0.9-0.5c0.2-0.3,0.2-0.7,0-1C43.7,31.2,43.4,31,43,31H31
			c-0.4,0-0.7,0.2-0.9,0.5C29.9,31.8,29.9,32.2,30.1,32.5z M22,53c0.6,0,1-0.4,1-1c0-0.6-0.4-1-1-1c-0.6,0-1,0.4-1,1
			C21,52.6,21.4,53,22,53z M22,57c0.6,0,1-0.4,1-1c0-0.6-0.4-1-1-1c-0.6,0-1,0.4-1,1C21,56.6,21.4,57,22,57z"/>
	</g>
</g>
</svg>
