<svg xmlns="http://www.w3.org/2000/svg" width="50" height="51" viewBox="0 0 50 51"><path fill="#14b8d2" d="M25 1a25.01 25.01 0 0 0 0 50 25.01 25.01 0 0 0 0-50zm0 2c12.71 0 23 10.28 23 23 0 12.71-10.29 23-23 23S2 38.71 2 26C2 13.28 12.29 3 25 3zm.28 10.5c-3.73 0-6.21 2.28-6.75 5.72-.03.21.1.34.31.37l2.25.41c.22.04.37-.07.41-.28.43-2.19 1.71-3.4 3.72-3.4 2.04 0 3.47 1.3 3.47 3.34 0 1.22-.44 2.02-1.69 3.75l-2.41 3.3a4.73 4.73 0 0 0-1.06 3.23v1.47c0 .21.16.34.38.34h2.34c.21 0 .37-.13.37-.34v-1.16c0-1.22.23-1.72.94-2.69l2.38-3.28c1.22-1.69 1.84-2.96 1.84-4.69 0-3.55-2.63-6.09-6.5-6.09zm1.16 21c.21 0 .37.13.37.34v3.1c0 .21-.16.34-.37.34h-2.72c-.22 0-.38-.13-.38-.34v-3.1c0-.21.16-.34.38-.34z"/></svg>