<?xml version="1.0" encoding="utf-8"?>
<!-- Generator: Adobe Illustrator 21.1.0, SVG Export Plug-In . SVG Version: 6.00 Build 0)  -->
<svg version="1.1" id="Shape_169_1_" xmlns="http://www.w3.org/2000/svg" xmlns:xlink="http://www.w3.org/1999/xlink" x="0px"
	 y="0px" viewBox="0 0 16 12" style="enable-background:new 0 0 16 12;" xml:space="preserve">
<style type="text/css">
	.st0{fill-rule:evenodd;clip-rule:evenodd;}
</style>
<g id="Shape_169">
	<g>
		<path class="st0" d="M14,2h-2l-2-2H6L4,2H2c0,0-2,0-2,2v6c0,2,2,2,2,2s10.6,0,12,0c2,0,2-2,2-2s0-4,0-6S14,2,14,2z M8,10
			c-1.7,0-3-1.3-3-3c0-1.7,1.3-3,3-3c1.7,0,3,1.3,3,3C11,8.7,9.7,10,8,10z"/>
	</g>
</g>
</svg>
