<svg xmlns="http://www.w3.org/2000/svg" width="16" height="16" viewBox="0 0 16 16"><path fill="#0094f2" d="M10 11.76v-1.25c0-.08-.02-.14-.07-.18a.23.23 0 0 0-.18-.07H9v-4c0-.08-.02-.14-.07-.18a.23.23 0 0 0-.18-.07h-2.5a.23.23 0 0 0-.18.07c-.04.04-.07.1-.07.18v1.25c0 .07.03.13.07.18.05.04.11.07.18.07H7v2.5h-.75a.23.23 0 0 0-.18.07c-.04.04-.07.1-.07.18v1.25c0 .07.03.13.07.18.05.04.11.07.18.07h3.5c.08 0 .14-.03.18-.07a.26.26 0 0 0 .07-.18zm-1-7V3.51c0-.08-.02-.14-.07-.18a.23.23 0 0 0-.18-.07h-1.5a.23.23 0 0 0-.18.07c-.04.04-.07.1-.07.18v1.25c0 .07.03.13.07.18.05.04.11.07.18.07h1.5c.08 0 .14-.03.18-.07A.26.26 0 0 0 9 4.76zM8 0a8 8 0 1 1 0 16A8 8 0 0 1 8 0z"/></svg>