<?xml version="1.0" encoding="utf-8"?>
  <!DOCTYPE svg PUBLIC "-//W3C//DTD SVG 1.1//EN" "http://www.w3.org/Graphics/SVG/1.1/DTD/svg11.dtd">
  <svg version="1.1" xmlns="http://www.w3.org/2000/svg" xmlns:xlink="http://www.w3.org/1999/xlink" x="0px" y="0px" width="16px" height="16px" viewBox="0 0 16 16" enable-background="new 0 0 16 16" xml:space="preserve"><g transform="translate(0, 0)"><path fill="#444444" d="M15,16H1c-0.553,0-1-0.447-1-1V1c0-0.552,0.447-1,1-1h14c0.553,0,1,0.448,1,1v14C16,15.553,15.553,16,15,16z
	 M2,14h12V2H2V14z"></path>
<path data-color="color-2" fill="#444444" d="M10,5h1V3h-1C9.229,3,8.532,3.301,8,3.78C7.468,3.301,6.771,3,6,3H5v2h1c0.551,0,1,0.449,1,1
	v2H5v2h2c0,0.551-0.449,1-1,1H5v2h1c0.771,0,1.468-0.301,2-0.78C8.532,12.699,9.229,13,10,13h1v-2h-1c-0.551,0-1-0.449-1-1h2V8H9V6
	C9,5.449,9.449,5,10,5z"></path></g></svg>