<?xml version="1.0" encoding="utf-8"?>
  <!DOCTYPE svg PUBLIC "-//W3C//DTD SVG 1.1//EN" "http://www.w3.org/Graphics/SVG/1.1/DTD/svg11.dtd">
  <svg version="1.1" xmlns="http://www.w3.org/2000/svg" xmlns:xlink="http://www.w3.org/1999/xlink" x="0px" y="0px" width="16px" height="16px" viewBox="0 0 16 16" enable-background="new 0 0 16 16" xml:space="preserve"><g transform="translate(0, 0)"><path fill="#444444" d="M15,0H1C0.4,0,0,0.4,0,1v2c0,0.6,0.4,1,1,1h14c0.6,0,1-0.4,1-1V1C16,0.4,15.6,0,15,0z"></path>
<path data-color="color-2" fill="#444444" d="M3,6H1C0.4,6,0,6.4,0,7v8c0,0.6,0.4,1,1,1h2c0.6,0,1-0.4,1-1V7C4,6.4,3.6,6,3,6z"></path>
<path fill="#444444" d="M15,6H7C6.4,6,6,6.4,6,7v8c0,0.6,0.4,1,1,1h8c0.6,0,1-0.4,1-1V7C16,6.4,15.6,6,15,6z"></path></g></svg>