<?xml version="1.0" encoding="utf-8"?>
<!-- Generator: Adobe Illustrator 21.1.0, SVG Export Plug-In . SVG Version: 6.00 Build 0)  -->
<svg version="1.1" id="Shape_1_1_" xmlns="http://www.w3.org/2000/svg" xmlns:xlink="http://www.w3.org/1999/xlink" x="0px" y="0px"
	 viewBox="0 0 16 14" style="enable-background:new 0 0 16 14;" xml:space="preserve">
<style type="text/css">
	.st0{fill-rule:evenodd;clip-rule:evenodd;}
</style>
<g id="Shape_1">
	<g>
		<path class="st0" d="M4.8,5H1.2C0.5,5,0,5.5,0,6.1v6.7C0,13.5,0.5,14,1.2,14h3.7C5.5,14,6,13.5,6,12.9V6.1C6,5.5,5.5,5,4.8,5z
			 M16,6.2c0-1-1.4-1.7-2-1.7h-2.8c0.5-2-0.1-3.2-0.5-3.7C10.4,0.3,9.8,0,9.3,0C8.9,0,8.6,0.2,8.4,0.5c0,0.1,0,0.1,0,0.2v1.7
			C7.9,3.6,7.5,4.5,7,5.1v7.8C7.1,13,7.2,13,7.3,13h6c0.3,0,0.6-0.1,0.8-0.4c0.3-0.4,0.6-1,0.6-1.5c0.5-0.4,0.7-1,0.7-2
			c0.5-0.5,0.5-1.3,0.3-1.8C16,7.1,16,6.6,16,6.2z"/>
	</g>
</g>
</svg>
