<?xml version="1.0" encoding="utf-8"?>
<!-- Generator: Adobe Illustrator 21.1.0, SVG Export Plug-In . SVG Version: 6.00 Build 0)  -->
<svg version="1.1" id="Shape_126_1_" xmlns="http://www.w3.org/2000/svg" xmlns:xlink="http://www.w3.org/1999/xlink" x="0px"
	 y="0px" viewBox="0 0 10 14" style="enable-background:new 0 0 10 14;" xml:space="preserve">
<style type="text/css">
	.st0{fill-rule:evenodd;clip-rule:evenodd;}
</style>
<g id="Shape_126">
	<g>
		<path class="st0" d="M10,5.1C10,5,10,5,10,5.1C10,2.2,7.8,0,5,0C2.2,0,0,2.2,0,5c0,0.1,0,0.1,0,0.2C0,6.1,0.4,9,4.7,13.8
			c0,0,0.2,0.2,0.3,0.2c0.1,0,0.3-0.2,0.3-0.2C9.9,8.7,10,5.8,10,5.1z M5,8C3.3,8,2,6.7,2,5c0-1.7,1.3-3,3-3c1.7,0,3,1.3,3,3
			C8,6.7,6.7,8,5,8z"/>
	</g>
</g>
</svg>
