<svg width="1920px" height="1080px" viewBox="0 0 1920 1080" version="1.1" xmlns="http://www.w3.org/2000/svg" xmlns:xlink="http://www.w3.org/1999/xlink">
	<defs>
		<filter x="-2.6%" y="-2.9%" width="105.2%" height="105.7%" filterUnits="objectBoundingBox" id="filter-1">
			<feGaussianBlur stdDeviation="10" in="SourceGraphic"></feGaussianBlur>
		</filter>
		<filter x="-1.8%" y="-3.2%" width="103.6%" height="106.4%" filterUnits="objectBoundingBox" id="filter-2">
			<feGaussianBlur stdDeviation="10" in="SourceGraphic"></feGaussianBlur>
		</filter>
	</defs>
	<g id="Page-1" stroke="none" stroke-width="1" fill="none" fill-rule="evenodd">
		<g id="L1">
			<g id="borderL1" transform="translate(24.000000, 19.000000)">
				<g id="shadow">
					<path d="M34.1587962,578 L34.1587962,590.151829 L9,617.094735 L9,605.795278 L34.1587962,578 Z M34.1587962,601 L34.1587962,613.151829 L9,640.094735 L9,628.795278 L34.1587962,601 Z M34.1587962,624 L34.1587962,636.151829 L9,663.094735 L9,651.795278 L34.1587962,624 Z M34.1587962,647 L34.1587962,659.151829 L9,686.094735 L9,674.795278 L34.1587962,647 Z M34.1587962,670 L34.1587962,682.151829 L9,709.094735 L9,697.795278 L34.1587962,670 Z M34.1587962,693 L34.1587962,705.151829 L9,732.094735 L9,720.795278 L34.1587962,693 Z M34.1587962,716 L34.1587962,728.151829 L9,755.094735 L9,743.795278 L34.1587962,716 Z M34.1587962,739 L34.1587962,751.151829 L9,778.094735 L9,766.795278 L34.1587962,739 Z M34.1587962,762 L34.1587962,774.151829 L9,801.094735 L9,789.795278 L34.1587962,762 Z M34.1587962,785 L34.1587962,797.151829 L9,824.094735 L9,812.795278 L34.1587962,785 Z M34.1587962,808 L34.1587962,820.151829 L9,847.094735 L9,835.795278 L34.1587962,808 Z M34.1587962,831 L34.1587962,843.151829 L9,870.094735 L9,858.795278 L34.1587962,831 Z M34.1587962,854 L34.1587962,866.151829 L9,893.094735 L9,881.795278 L34.1587962,854 Z M34.1587962,877 L34.1587962,889.151829 L9,916.094735 L9,904.795278 L34.1587962,877 Z M34.1587962,900 L34.1587962,912.151829 L9,939.094735 L9,927.795278 L34.1587962,900 Z M34.1587962,923 L34.1587962,935.151829 L9,962.094735 L9,950.795278 L34.1587962,923 Z M34.1587962,946 L34.1587962,958.151829 L9,985.094735 L9,973.795278 L34.1587962,946 Z M34.1587962,969 L34.1587962,981.151829 L9,1008.09474 L9,996.795278 L34.1587962,969 Z M34.1587962,992 L34.1587962,1004.15183 L9,1031.09474 L9,1019.79528 L34.1587962,992 Z M34.1587962,1015 L34.1587962,1027.15183 L9,1054.09474 L9,1042.79528 L34.1587962,1015 Z M34.1587962,1038 L34.1587962,1050.15183 L25.8355155,1059.42465 L14.6411021,1059.42465 L34.1587962,1038 Z M1039.317,25.3538514 L1056.38455,10.4197454 L1142.82343,10.4197454 L1163.36643,25.3538514 L1039.317,25.3538514 Z M72.6794713,25.934106 L91.0675497,11 L362.458489,11 L385.801437,25.934106 L72.6794713,25.934106 Z" id="Combined-Shape" fill="#4FC1E9" filter="url(#filter-1)"></path>
					<polyline id="Path-100" stroke="#4FC1E9" stroke-width="8" filter="url(#filter-2)" points="0 1060.7473 0 599.745465 32.4198566 561.256243 32.4198566 40.3987116 83.7134827 0 368.962154 0 397.975334 18.3140519 1026.57044 18.3140519 1051.54582 0 1150.13443 0 1172.74426 18.3140519 1894.92968 18.3140519"></polyline>
				</g>
				<path d="M34.1587962,578 L34.1587962,590.151829 L9,617.094735 L9,605.795278 L34.1587962,578 Z M34.1587962,601 L34.1587962,613.151829 L9,640.094735 L9,628.795278 L34.1587962,601 Z M34.1587962,624 L34.1587962,636.151829 L9,663.094735 L9,651.795278 L34.1587962,624 Z M34.1587962,647 L34.1587962,659.151829 L9,686.094735 L9,674.795278 L34.1587962,647 Z M34.1587962,670 L34.1587962,682.151829 L9,709.094735 L9,697.795278 L34.1587962,670 Z M34.1587962,693 L34.1587962,705.151829 L9,732.094735 L9,720.795278 L34.1587962,693 Z M34.1587962,716 L34.1587962,728.151829 L9,755.094735 L9,743.795278 L34.1587962,716 Z M34.1587962,739 L34.1587962,751.151829 L9,778.094735 L9,766.795278 L34.1587962,739 Z M34.1587962,762 L34.1587962,774.151829 L9,801.094735 L9,789.795278 L34.1587962,762 Z M34.1587962,785 L34.1587962,797.151829 L9,824.094735 L9,812.795278 L34.1587962,785 Z M34.1587962,808 L34.1587962,820.151829 L9,847.094735 L9,835.795278 L34.1587962,808 Z M34.1587962,831 L34.1587962,843.151829 L9,870.094735 L9,858.795278 L34.1587962,831 Z M34.1587962,854 L34.1587962,866.151829 L9,893.094735 L9,881.795278 L34.1587962,854 Z M34.1587962,877 L34.1587962,889.151829 L9,916.094735 L9,904.795278 L34.1587962,877 Z M34.1587962,900 L34.1587962,912.151829 L9,939.094735 L9,927.795278 L34.1587962,900 Z M34.1587962,923 L34.1587962,935.151829 L9,962.094735 L9,950.795278 L34.1587962,923 Z M34.1587962,946 L34.1587962,958.151829 L9,985.094735 L9,973.795278 L34.1587962,946 Z M34.1587962,969 L34.1587962,981.151829 L9,1008.09474 L9,996.795278 L34.1587962,969 Z M34.1587962,992 L34.1587962,1004.15183 L9,1031.09474 L9,1019.79528 L34.1587962,992 Z M34.1587962,1015 L34.1587962,1027.15183 L9,1054.09474 L9,1042.79528 L34.1587962,1015 Z M34.1587962,1038 L34.1587962,1050.15183 L25.8355155,1059.42465 L14.6411021,1059.42465 L34.1587962,1038 Z M1039.317,25.3538514 L1056.38455,10.4197454 L1142.82343,10.4197454 L1163.36643,25.3538514 L1039.317,25.3538514 Z M72.6794713,25.934106 L91.0675497,11 L362.458489,11 L385.801437,25.934106 L72.6794713,25.934106 Z" id="Combined-Shape" fill="#4FC1E9"></path>
				<polyline id="Path-100" stroke="#4FC1E9" stroke-width="8" points="0 1060.7473 0 599.745465 32.4198566 561.256243 32.4198566 40.3987116 83.7134827 0 368.962154 0 397.975334 18.3140519 1026.57044 18.3140519 1051.54582 0 1150.13443 0 1173 18 1896 18"></polyline>
			</g>
		</g>
	</g>
</svg>