<svg width="1823px" height="845px" viewBox="0 0 1823 845" version="1.1" xmlns="http://www.w3.org/2000/svg" xmlns:xlink="http://www.w3.org/1999/xlink">
	<defs>
		<filter x="-92.7%" y="-3.8%" width="285.4%" height="107.7%" filterUnits="objectBoundingBox" id="filter-1">
			<feGaussianBlur stdDeviation="10" in="SourceGraphic"></feGaussianBlur>
		</filter>
		<filter x="-92.7%" y="-3.8%" width="285.4%" height="107.7%" filterUnits="objectBoundingBox" id="filter-2">
			<feGaussianBlur stdDeviation="10" in="SourceGraphic"></feGaussianBlur>
		</filter>
	</defs>
	<g id="Page-1" stroke="none" stroke-width="1" fill="none" fill-rule="evenodd">
		<g id="L1" transform="translate(-93.000000, -207.000000)" fill="#4FC1E9">
			<g id="ariaL1" transform="translate(118.000000, 142.000000)">
				<g id="frameL1" transform="translate(0.000000, 90.000000)">
					<path d="M17.191407,0 L33.0005269,0 L33.0005269,9.86395298 L17.191407,22.3069361 L17.191407,769.684195 L33.0005269,784.840184 L33.0005269,795 L17.191407,795 L0.103936708,769.684195 L0.103936708,663.028459 L9.34825258,632.465277 L9.34825258,504.060837 L0.103936708,487.99493 L0.103936708,285.295441 L9.34825258,265.383319 L9.34825258,136.638357 L0.103936708,114.437485 L0.103936708,9.86395298 L17.191407,0 Z M4.95872235,22.4650244 C4.95872235,27.0819719 4.95872235,29.3904457 4.95872235,29.3904457 C4.95872235,29.3904457 7.31177382,27.5168766 12.0178768,23.7697383 L12.0178768,16.9917497 L4.95872235,22.4650244 Z M4.95872235,35.815685 C4.95872235,40.4326325 4.95872235,42.7411062 4.95872235,42.7411062 C4.95872235,42.7411062 7.31177382,40.8675371 12.0178768,37.1203988 L12.0178768,30.3424103 L4.95872235,35.815685 Z M4.95872235,47.9526491 C4.95872235,52.5695966 4.95872235,54.8780703 4.95872235,54.8780703 C4.95872235,54.8780703 7.31177382,53.0045012 12.0178768,49.2573629 L12.0178768,42.4793744 L4.95872235,47.9526491 Z M4.95872235,736.356964 L12.0178768,741.830239 L12.0178768,735.05225 C7.31177382,731.305112 4.95872235,729.431543 4.95872235,729.431543 C4.95872235,729.431543 4.95872235,731.740016 4.95872235,736.356964 Z M4.95872235,749.707624 L12.0178768,755.180899 L12.0178768,748.402911 C7.31177382,744.655772 4.95872235,742.782203 4.95872235,742.782203 C4.95872235,742.782203 4.95872235,745.090677 4.95872235,749.707624 Z M4.95872235,763.058285 L12.0178768,768.53156 L12.0178768,761.753571 C7.31177382,758.006433 4.95872235,756.132864 4.95872235,756.132864 C4.95872235,756.132864 4.95872235,758.441337 4.95872235,763.058285 Z" id="left_shadow" stroke="#52C3EA" filter="url(#filter-1)"></path>
					<path d="M17.191407,0 L33.0005269,0 L33.0005269,9.86395298 L17.191407,22.3069361 L17.191407,769.684195 L33.0005269,784.840184 L33.0005269,795 L17.191407,795 L0.103936708,769.684195 L0.103936708,663.028459 L9.34825258,632.465277 L9.34825258,504.060837 L0.103936708,487.99493 L0.103936708,285.295441 L9.34825258,265.383319 L9.34825258,136.638357 L0.103936708,114.437485 L0.103936708,9.86395298 L17.191407,0 Z M4.95872235,22.4650244 C4.95872235,27.0819719 4.95872235,29.3904457 4.95872235,29.3904457 C4.95872235,29.3904457 7.31177382,27.5168766 12.0178768,23.7697383 L12.0178768,16.9917497 L4.95872235,22.4650244 Z M4.95872235,35.815685 C4.95872235,40.4326325 4.95872235,42.7411062 4.95872235,42.7411062 C4.95872235,42.7411062 7.31177382,40.8675371 12.0178768,37.1203988 L12.0178768,30.3424103 L4.95872235,35.815685 Z M4.95872235,47.9526491 C4.95872235,52.5695966 4.95872235,54.8780703 4.95872235,54.8780703 C4.95872235,54.8780703 7.31177382,53.0045012 12.0178768,49.2573629 L12.0178768,42.4793744 L4.95872235,47.9526491 Z M4.95872235,736.356964 L12.0178768,741.830239 L12.0178768,735.05225 C7.31177382,731.305112 4.95872235,729.431543 4.95872235,729.431543 C4.95872235,729.431543 4.95872235,731.740016 4.95872235,736.356964 Z M4.95872235,749.707624 L12.0178768,755.180899 L12.0178768,748.402911 C7.31177382,744.655772 4.95872235,742.782203 4.95872235,742.782203 C4.95872235,742.782203 4.95872235,745.090677 4.95872235,749.707624 Z M4.95872235,763.058285 L12.0178768,768.53156 L12.0178768,761.753571 C7.31177382,758.006433 4.95872235,756.132864 4.95872235,756.132864 C4.95872235,756.132864 4.95872235,758.441337 4.95872235,763.058285 Z" id="left" stroke="#52C3EA"></path>
					<path d="M1756.19088,0 L1772,0 L1772,9.86395298 L1756.19088,22.3069361 L1756.19088,769.684195 L1772,784.840184 L1772,795 L1756.19088,795 L1739.10341,769.684195 L1739.10341,663.028459 L1748.34773,632.465277 L1748.34773,504.060837 L1739.10341,487.99493 L1739.10341,285.295441 L1748.34773,265.383319 L1748.34773,136.638357 L1739.10341,114.437485 L1739.10341,9.86395298 L1756.19088,0 Z M1743.9582,22.4650244 C1743.9582,27.0819719 1743.9582,29.3904457 1743.9582,29.3904457 C1743.9582,29.3904457 1746.31125,27.5168766 1751.01735,23.7697383 L1751.01735,16.9917497 L1743.9582,22.4650244 Z M1743.9582,35.815685 C1743.9582,40.4326325 1743.9582,42.7411062 1743.9582,42.7411062 C1743.9582,42.7411062 1746.31125,40.8675371 1751.01735,37.1203988 L1751.01735,30.3424103 L1743.9582,35.815685 Z M1743.9582,47.9526491 C1743.9582,52.5695966 1743.9582,54.8780703 1743.9582,54.8780703 C1743.9582,54.8780703 1746.31125,53.0045012 1751.01735,49.2573629 L1751.01735,42.4793744 L1743.9582,47.9526491 Z M1743.9582,736.356964 L1751.01735,741.830239 L1751.01735,735.05225 C1746.31125,731.305112 1743.9582,729.431543 1743.9582,729.431543 C1743.9582,729.431543 1743.9582,731.740016 1743.9582,736.356964 Z M1743.9582,749.707624 L1751.01735,755.180899 L1751.01735,748.402911 C1746.31125,744.655772 1743.9582,742.782203 1743.9582,742.782203 C1743.9582,742.782203 1743.9582,745.090677 1743.9582,749.707624 Z M1743.9582,763.058285 L1751.01735,768.53156 L1751.01735,761.753571 C1746.31125,758.006433 1743.9582,756.132864 1743.9582,756.132864 C1743.9582,756.132864 1743.9582,758.441337 1743.9582,763.058285 Z" id="shadow" stroke="#B4F0FA" filter="url(#filter-2)" transform="translate(1755.551705, 397.500000) scale(-1, 1) translate(-1755.551705, -397.500000) "></path>
					<path d="M1756.19088,0 L1772,0 L1772,9.86395298 L1756.19088,22.3069361 L1756.19088,769.684195 L1772,784.840184 L1772,795 L1756.19088,795 L1739.10341,769.684195 L1739.10341,663.028459 L1748.34773,632.465277 L1748.34773,504.060837 L1739.10341,487.99493 L1739.10341,285.295441 L1748.34773,265.383319 L1748.34773,136.638357 L1739.10341,114.437485 L1739.10341,9.86395298 L1756.19088,0 Z M1743.9582,22.4650244 C1743.9582,27.0819719 1743.9582,29.3904457 1743.9582,29.3904457 C1743.9582,29.3904457 1746.31125,27.5168766 1751.01735,23.7697383 L1751.01735,16.9917497 L1743.9582,22.4650244 Z M1743.9582,35.815685 C1743.9582,40.4326325 1743.9582,42.7411062 1743.9582,42.7411062 C1743.9582,42.7411062 1746.31125,40.8675371 1751.01735,37.1203988 L1751.01735,30.3424103 L1743.9582,35.815685 Z M1743.9582,47.9526491 C1743.9582,52.5695966 1743.9582,54.8780703 1743.9582,54.8780703 C1743.9582,54.8780703 1746.31125,53.0045012 1751.01735,49.2573629 L1751.01735,42.4793744 L1743.9582,47.9526491 Z M1743.9582,736.356964 L1751.01735,741.830239 L1751.01735,735.05225 C1746.31125,731.305112 1743.9582,729.431543 1743.9582,729.431543 C1743.9582,729.431543 1743.9582,731.740016 1743.9582,736.356964 Z M1743.9582,749.707624 L1751.01735,755.180899 L1751.01735,748.402911 C1746.31125,744.655772 1743.9582,742.782203 1743.9582,742.782203 C1743.9582,742.782203 1743.9582,745.090677 1743.9582,749.707624 Z M1743.9582,763.058285 L1751.01735,768.53156 L1751.01735,761.753571 C1746.31125,758.006433 1743.9582,756.132864 1743.9582,756.132864 C1743.9582,756.132864 1743.9582,758.441337 1743.9582,763.058285 Z" id="right" stroke="#49C0EB" transform="translate(1755.551705, 397.500000) scale(-1, 1) translate(-1755.551705, -397.500000) "></path>
					<rect id="Rectangle-5" opacity="0.1" x="17" y="17" width="1748" height="762"></rect>
				</g>
			</g>
		</g>
	</g>
</svg>