<svg width="428px" height="428px" viewBox="0 0 428 428" version="1.1" xmlns="http://www.w3.org/2000/svg" xmlns:xlink="http://www.w3.org/1999/xlink">
	<defs></defs>
	<g id="Page-1" stroke="none" stroke-width="1" fill="none" fill-rule="evenodd">
		<g id="L1" transform="translate(-660.000000, -416.000000)">
			<g id="ariaL1" transform="translate(118.000000, 142.000000)">
				<g id="pchartL1" transform="translate(542.000000, 274.000000)">
					<g id="pchartBorderL1">
						<g id="Minor-tickmarks" transform="translate(11.000000, 11.000000)">
							<path d="M203,0.144463722 C275.472809,0.144463722 342.43649,38.8151349 378.672894,101.572232 C414.909299,164.329329 414.909299,241.670671 378.672894,304.427768 C342.43649,367.184865 275.472809,405.855536 203,405.855536 C130.527191,405.855536 63.5635103,367.184865 27.3271056,304.427768 C-8.90929916,241.670671 -8.90929916,164.329329 27.3271056,101.572232 C63.5635103,38.8151349 130.527191,0.144463722 203,0.144463722 L203,17.2270352 C136.63421,17.2270352 75.3077782,52.6306646 42.1248831,110.113518 C8.94198803,167.596371 8.94198803,238.403629 42.1248831,295.886482 C75.3077782,353.369335 136.63421,388.772965 203,388.772965 C269.36579,388.772965 330.692222,353.369335 363.875117,295.886482 C397.058012,238.403629 397.058012,167.596371 363.875117,110.113518 C330.692222,52.6306646 269.36579,17.2270352 203,17.2270352 L203,0.144463722 Z" id="Base-plate" fill-opacity="0.002" fill="#455A64"></path>
							<path d="M201.097682,0.267537375 L201.266006,17.0999567 C202.422002,17.0813748 203.577998,17.0813748 204.733994,17.0999567 L204.902318,0.267537375 C203.639988,0.248752623 202.360012,0.248752623 201.097682,0.267537375 Z" id="Tick-minor-0" stroke="#FFFFFF" stroke-width="0.25" fill="#8CE4FC"></path>
							<path d="M216.248845,0.704231915 L215.154692,17.49526 C215.997473,17.5534242 216.396051,17.5814147 216.888724,17.6175157 C217.521352,17.6638721 218.085423,17.7079988 218.623401,17.7537711 L220.0541,0.985140551 C218.353977,0.850424627 217.320751,0.77312368 216.248845,0.704232243 Z M215.030493,17.4866915 L215.03046,17.4866893 C215.030471,17.48669 215.030482,17.4866908 215.030493,17.4866915 Z" id="Tick-minor-1" stroke="#FFFFFF" stroke-width="0.25" fill="#8CE4FC"></path>
							<path d="M231.335356,2.25049677 L228.999849,18.935695 C229.992535,19.0759417 231.010104,19.2307987 232.427863,19.4543437 L235.100067,2.83197284 C234.175811,2.68489712 233.699082,2.60930265 233.216885,2.5340798 C232.518263,2.42509478 231.91407,2.33379614 231.335356,2.25049682 Z" id="Tick-minor-2" stroke="#FFFFFF" stroke-width="0.25" fill="#8CE4FC"></path>
							<path d="M246.250616,4.92599896 L242.67365,21.380044 C243.318395,21.5170714 243.938828,21.6593003 244.981423,21.9050987 C245.283163,21.9762825 245.283163,21.9762825 245.583909,22.0471451 C245.76171,22.0889858 245.916468,22.12526 246.062159,22.1592067 L249.975981,5.78848849 C248.147912,5.34649814 247.275145,5.14233461 246.250616,4.92599896 Z" id="Tick-minor-3" stroke="#FFFFFF" stroke-width="0.25" fill="#8CE4FC"></path>
							<path d="M260.930101,8.71292135 L256.132549,24.8520569 C257.431392,25.2468493 258.454813,25.5663649 259.441256,25.8880472 L264.574865,9.8560392 C264.288066,9.76504044 263.972926,9.66441387 263.406605,9.48338552 C262.313308,9.13433285 261.629012,8.92037705 260.930101,8.71292135 Z" id="Tick-minor-4" stroke="#FFFFFF" stroke-width="0.25" fill="#8CE4FC"></path>
							<path d="M275.288544,13.5883421 L269.291913,29.3268678 C270.872852,29.9418329 271.63303,30.2409508 272.5212,30.6019698 L278.833433,14.9897129 C277.857516,14.5934874 277.026573,14.2660633 275.288544,13.5883421 Z" id="Tick-minor-5" stroke="#FFFFFF" stroke-width="0.25" fill="#8CE4FC"></path>
							<path d="M289.241405,19.5290167 L282.087656,34.7622941 C283.246333,35.3095431 284.25367,35.7963336 285.217379,36.2769671 L292.665484,21.1703574 C291.723467,20.7083742 290.920927,20.324725 289.241405,19.5290171 Z" id="Tick-minor-6" stroke="#FFFFFF" stroke-width="0.25" fill="#8CE4FC"></path>
							<path d="M302.702865,26.4937618 L294.433784,41.1382413 C294.71471,41.2977611 295.27702,41.6166809 295.408085,41.6911624 C296.258419,42.1743918 296.857025,42.5203014 297.444372,42.871269 L306.007038,28.3967872 C304.386273,27.4539414 303.611794,27.0068318 302.702865,26.493762 Z" id="Tick-minor-7" stroke="#FFFFFF" stroke-width="0.25" fill="#8CE4FC"></path>
							<path d="M315.630364,34.4397944 L306.288063,48.4322054 C307.077198,48.9591299 307.752952,49.420221 309.157978,50.3860218 L318.773724,36.5831134 C317.241032,35.5222636 316.505538,35.0189965 315.630364,34.4397944 Z" id="Tick-minor-8" stroke="#FFFFFF" stroke-width="0.25" fill="#8CE4FC"></path>
							<path d="M327.916456,43.3251874 L317.543261,56.5809944 C318.483965,57.318273 319.378913,58.0352151 320.25413,58.7535346 L330.879499,45.6874869 C329.923066,44.9079235 328.944564,44.1281036 327.916456,43.3251874 Z" id="Tick-minor-9" stroke="#FFFFFF" stroke-width="0.25" fill="#8CE4FC"></path>
							<path d="M339.497818,53.1064159 L328.157102,65.5622663 C329.415383,66.7037965 330.017311,67.2563936 330.708939,67.9134625 L342.281521,55.6886079 C341.723278,55.1560436 341.141189,54.6137507 340.402455,53.9351054 C340.150631,53.7037646 340.07294,53.6325977 339.497818,53.1064159 Z" id="Tick-minor-10" stroke="#FFFFFF" stroke-width="0.25" fill="#8CE4FC"></path>
							<path d="M350.311392,63.7184794 L338.086537,75.2910613 C338.743606,75.9826895 339.296204,76.5846171 340.437734,77.8428976 L352.893584,66.5021824 C352.367402,65.9270604 352.296235,65.8493691 352.064895,65.597545 C351.386249,64.8588114 350.843956,64.2767218 350.311392,63.7184795 Z" id="Tick-minor-11" stroke="#FFFFFF" stroke-width="0.25" fill="#8CE4FC"></path>
							<path d="M360.312513,75.1205014 L347.246465,85.7458703 C347.964785,86.6210874 348.681727,87.516035 349.419006,88.4567388 L362.674813,78.0835438 C361.871896,77.0554361 361.092076,76.0769342 360.312513,75.1205014 Z" id="Tick-minor-12" stroke="#FFFFFF" stroke-width="0.25" fill="#8CE4FC"></path>
							<path d="M369.416887,87.2262761 L355.61398,96.8420205 C356.093642,97.5397705 356.319941,97.8696635 356.598168,98.277446 C356.955101,98.8005844 357.270584,99.2670613 357.567783,99.711945 L371.560206,90.369636 C370.981004,89.4944622 370.477736,88.7589683 369.416886,87.2262764 Z" id="Tick-minor-13" stroke="#FFFFFF" stroke-width="0.25" fill="#8CE4FC"></path>
							<path d="M377.603213,99.9929621 L363.128731,108.555628 C363.479699,109.142975 363.825608,109.741581 364.308838,110.591915 C364.383319,110.72298 364.702238,111.285289 364.861759,111.566216 L379.506238,103.297135 C378.993168,102.388206 378.546059,101.613727 377.603212,99.9929623 Z" id="Tick-minor-14" stroke="#FFFFFF" stroke-width="0.25" fill="#8CE4FC"></path>
							<path d="M384.829643,113.334516 L369.723033,120.782621 C370.203666,121.74633 370.690457,122.753667 371.237706,123.912344 L386.470983,116.758595 C385.675275,115.079073 385.291626,114.276533 384.829643,113.334516 Z" id="Tick-minor-15" stroke="#FFFFFF" stroke-width="0.25" fill="#8CE4FC"></path>
							<path d="M391.010287,127.166567 L375.398016,133.478806 C375.601451,133.979634 375.810891,134.50476 376.042655,135.093712 C376.223152,135.552386 376.367963,135.923465 376.673134,136.708086 L392.411619,130.711471 C391.733611,128.972607 391.406292,128.141941 391.010287,127.166567 Z" id="Tick-minor-16" stroke="#FFFFFF" stroke-width="0.25" fill="#8CE4FC"></path>
							<path d="M396.143961,141.425135 L380.111953,146.558744 C380.433635,147.545187 380.753151,148.568609 381.147943,149.867451 L397.287079,145.069898 C397.079623,144.370988 396.865667,143.686692 396.516614,142.593395 C396.335586,142.027074 396.23496,141.711934 396.143961,141.425135 Z" id="Tick-minor-17" stroke="#FFFFFF" stroke-width="0.25" fill="#8CE4FC"></path>
							<path d="M400.211512,156.024018 L383.840793,159.937841 C383.87474,160.083532 383.911014,160.23829 383.952855,160.416091 C384.023717,160.716837 384.023717,160.716837 384.094901,161.018577 C384.3407,162.061172 384.482929,162.681605 384.619956,163.32635 L401.074001,159.749384 C400.857665,158.724855 400.653502,157.852088 400.211512,156.024019 Z" id="Tick-minor-18" stroke="#FFFFFF" stroke-width="0.25" fill="#8CE4FC"></path>
							<path d="M403.168027,170.899933 L386.545656,173.572137 C386.769201,174.989896 386.924058,176.007466 387.064305,177.000151 L403.749503,174.664644 C403.666204,174.08593 403.574905,173.481737 403.46592,172.783115 C403.390697,172.300918 403.315103,171.824189 403.168027,170.899933 Z" id="Tick-minor-19" stroke="#FFFFFF" stroke-width="0.25" fill="#8CE4FC"></path>
							<path d="M405.014859,185.9459 L388.246245,187.376597 C388.327664,188.330643 388.387468,189.147164 388.504737,190.845308 L405.295768,189.751155 C405.226876,188.679249 405.149575,187.646023 405.014859,185.945902 Z" id="Tick-minor-20" stroke="#FFFFFF" stroke-width="0.25" fill="#8CE4FC"></path>
							<path d="M405.732463,201.097682 L388.900043,201.266006 C388.918625,202.422002 388.918625,203.577998 388.900043,204.733994 L405.732463,204.902318 C405.751247,203.639988 405.751247,202.360012 405.732463,201.097682 Z" id="Tick-minor-21" stroke="#FFFFFF" stroke-width="0.25" fill="#8CE4FC"></path>
							<path d="M405.295768,216.248845 L388.50474,215.154692 C388.446576,215.997473 388.418585,216.396051 388.382484,216.888724 C388.336128,217.521352 388.292001,218.085423 388.246229,218.623401 L405.014859,220.0541 C405.149575,218.353977 405.226876,217.320751 405.295768,216.248845 Z" id="Tick-minor-22" stroke="#FFFFFF" stroke-width="0.25" fill="#8CE4FC"></path>
							<path d="M403.749503,231.335356 L387.064305,228.999849 C386.924058,229.992535 386.769201,231.010104 386.545656,232.427863 L403.168027,235.100067 C403.315103,234.175811 403.390697,233.699082 403.46592,233.216885 C403.574905,232.518263 403.666204,231.91407 403.749503,231.335356 Z" id="Tick-minor-23" stroke="#FFFFFF" stroke-width="0.25" fill="#8CE4FC"></path>
							<path d="M401.074002,246.250616 L384.619956,242.67365 C384.482929,243.318395 384.3407,243.938828 384.094901,244.981423 C384.023717,245.283163 384.023717,245.283163 383.952855,245.583909 C383.911014,245.76171 383.87474,245.916468 383.840793,246.062159 L400.211512,249.975982 C400.653502,248.147912 400.857665,247.275145 401.074001,246.250616 Z" id="Tick-minor-24" stroke="#FFFFFF" stroke-width="0.25" fill="#8CE4FC"></path>
							<path d="M397.287079,260.930101 L381.147943,256.132549 C380.753151,257.431392 380.433635,258.454813 380.111953,259.441256 L396.143961,264.574865 C396.23496,264.288066 396.335586,263.972926 396.516614,263.406605 C396.865667,262.313308 397.079623,261.629012 397.287079,260.930101 Z" id="Tick-minor-25" stroke="#FFFFFF" stroke-width="0.25" fill="#8CE4FC"></path>
							<path d="M392.411619,275.288529 L376.673132,269.291913 C376.058167,270.872852 375.759049,271.63303 375.39803,272.5212 L391.010287,278.833433 C391.406292,277.858059 391.733611,277.027393 392.411618,275.288529 Z" id="Tick-minor-26" stroke="#FFFFFF" stroke-width="0.25" fill="#8CE4FC"></path>
							<path d="M386.470983,289.241405 L371.237706,282.087656 C370.690457,283.246333 370.203666,284.25367 369.723033,285.217379 L384.829643,292.665484 C385.291626,291.723467 385.675275,290.920927 386.470983,289.241405 Z" id="Tick-minor-27" stroke="#FFFFFF" stroke-width="0.25" fill="#8CE4FC"></path>
							<path d="M379.506238,302.702865 L364.861759,294.433784 C364.702238,294.714711 364.383319,295.27702 364.308838,295.408085 C363.825608,296.258419 363.479699,296.857025 363.128731,297.444372 L377.603213,306.007038 C378.546059,304.386273 378.993168,303.611794 379.506238,302.702865 Z" id="Tick-minor-28" stroke="#FFFFFF" stroke-width="0.25" fill="#8CE4FC"></path>
							<path d="M371.560206,315.630364 L357.567795,306.288063 C357.04087,307.077198 356.579779,307.752952 355.613978,309.157978 L369.416887,318.773724 C370.477736,317.241032 370.981004,316.505538 371.560206,315.630364 Z" id="Tick-minor-29" stroke="#FFFFFF" stroke-width="0.25" fill="#8CE4FC"></path>
							<path d="M362.674813,327.916456 L349.419006,317.543261 C348.681727,318.483965 347.964785,319.378913 347.246465,320.25413 L360.312513,330.879499 C361.092076,329.923066 361.871896,328.944564 362.674813,327.916456 Z" id="Tick-minor-30" stroke="#FFFFFF" stroke-width="0.25" fill="#8CE4FC"></path>
							<path d="M352.893584,339.497818 L340.437734,328.157102 C339.296204,329.415383 338.743606,330.017311 338.086537,330.708939 L350.311392,342.281521 C350.843956,341.723278 351.386249,341.141189 352.064895,340.402455 C352.296235,340.150631 352.367402,340.07294 352.893584,339.497818 Z" id="Tick-minor-31" stroke="#FFFFFF" stroke-width="0.25" fill="#8CE4FC"></path>
							<path d="M342.281521,350.311392 L330.708938,338.086536 C330.017311,338.743606 329.415383,339.296204 328.157102,340.437734 L339.497818,352.893584 C340.07294,352.367402 340.150631,352.296235 340.402455,352.064895 C341.141189,351.386249 341.723278,350.843956 342.281521,350.311392 Z" id="Tick-minor-32" stroke="#FFFFFF" stroke-width="0.25" fill="#8CE4FC"></path>
							<path d="M330.879499,360.312513 L320.25413,347.246465 C319.378913,347.964785 318.483965,348.681727 317.543261,349.419006 L327.916456,362.674813 C328.944564,361.871896 329.923066,361.092076 330.879499,360.312513 Z" id="Tick-minor-33" stroke="#FFFFFF" stroke-width="0.25" fill="#8CE4FC"></path>
							<path d="M318.773724,369.416886 L309.157978,355.613978 C307.752952,356.579779 307.077198,357.04087 306.288063,357.567795 L315.630364,371.560206 C316.505538,370.981004 317.241032,370.477736 318.773724,369.416886 Z" id="Tick-minor-34" stroke="#FFFFFF" stroke-width="0.25" fill="#8CE4FC"></path>
							<path d="M306.007038,377.603212 L297.444372,363.128731 C296.857025,363.479699 296.258419,363.825608 295.408085,364.308838 C295.27702,364.383319 294.714711,364.702238 294.433784,364.861759 L302.702865,379.506238 C303.611794,378.993168 304.386273,378.546059 306.007038,377.603212 Z" id="Tick-minor-35" stroke="#FFFFFF" stroke-width="0.25" fill="#8CE4FC"></path>
							<path d="M292.665484,384.829643 L285.217379,369.723033 C284.25367,370.203666 283.246333,370.690457 282.087656,371.237706 L289.241405,386.470983 C290.920927,385.675275 291.723467,385.291626 292.665484,384.829643 Z" id="Tick-minor-36" stroke="#FFFFFF" stroke-width="0.25" fill="#8CE4FC"></path>
							<path d="M278.833433,391.010287 L272.521199,375.398029 C271.63303,375.759049 270.872852,376.058167 269.291913,376.673132 L275.288529,392.411619 C277.027393,391.733611 277.858059,391.406292 278.833433,391.010287 Z" id="Tick-minor-37" stroke="#FFFFFF" stroke-width="0.25" fill="#8CE4FC"></path>
							<path d="M264.574865,396.143961 L259.441256,380.111953 C258.454813,380.433635 257.431391,380.753151 256.132549,381.147943 L260.930102,397.287079 C261.629012,397.079623 262.313308,396.865667 263.406605,396.516614 C263.972926,396.335586 264.288066,396.23496 264.574865,396.143961 Z" id="Tick-minor-38" stroke="#FFFFFF" stroke-width="0.25" fill="#8CE4FC"></path>
							<path d="M249.975982,400.211516 L246.062159,383.840793 C245.916468,383.87474 245.76171,383.911014 245.583909,383.952855 C245.283163,384.023717 245.283163,384.023717 244.981423,384.094901 C243.938828,384.3407 243.318395,384.482929 242.67365,384.619956 L246.25061,401.073974 C246.827632,400.951874 247.432772,400.815999 248.112229,400.657094 C248.64049,400.533549 249.067612,400.431207 249.975982,400.211516 Z" id="Tick-minor-39" stroke="#FFFFFF" stroke-width="0.25" fill="#8CE4FC"></path>
							<path d="M235.100067,403.168027 L232.427863,386.545656 C231.010104,386.769201 229.992534,386.924058 228.999849,387.064305 L231.335356,403.749503 C231.91407,403.666204 232.518263,403.574905 233.216885,403.46592 C233.699082,403.390697 234.175811,403.315103 235.100067,403.168027 Z" id="Tick-minor-40" stroke="#FFFFFF" stroke-width="0.25" fill="#8CE4FC"></path>
							<path d="M220.0541,405.014859 L218.623401,388.246229 C218.085423,388.292001 217.521352,388.336128 216.888724,388.382484 C216.396051,388.418585 215.997473,388.446576 215.154692,388.50474 L216.248845,405.295768 C217.320751,405.226876 218.353977,405.149575 220.054098,405.014859 Z" id="Tick-minor-41" stroke="#FFFFFF" stroke-width="0.25" fill="#8CE4FC"></path>
							<path d="M204.902318,405.732463 L204.733994,388.900043 C203.577998,388.918625 202.422002,388.918625 201.266006,388.900043 L201.097682,405.732463 C202.360012,405.751247 203.639988,405.751247 204.902318,405.732463 Z" id="Tick-minor-42" stroke="#FFFFFF" stroke-width="0.25" fill="#8CE4FC"></path>
							<path d="M189.751155,405.295768 L190.845308,388.50474 C190.002527,388.446576 189.603949,388.418585 189.111276,388.382484 C188.478648,388.336128 187.914577,388.292001 187.376599,388.246229 L185.9459,405.014859 C187.646023,405.149575 188.679249,405.226876 189.751155,405.295768 Z" id="Tick-minor-43" stroke="#FFFFFF" stroke-width="0.25" fill="#8CE4FC"></path>
							<path d="M174.664644,403.749503 L177.000151,387.064305 C176.007465,386.924058 174.989896,386.769201 173.572137,386.545656 L170.899933,403.168027 C171.824189,403.315103 172.300918,403.390697 172.783115,403.46592 C173.481737,403.574905 174.08593,403.666204 174.664644,403.749503 Z" id="Tick-minor-44" stroke="#FFFFFF" stroke-width="0.25" fill="#8CE4FC"></path>
							<path d="M159.749384,401.074002 L163.32635,384.619956 C162.681605,384.482929 162.061172,384.3407 161.018577,384.094901 C160.716837,384.023717 160.716837,384.023717 160.416091,383.952855 C160.23829,383.911014 160.083532,383.87474 159.937841,383.840793 L156.024018,400.211512 C157.852088,400.653502 158.724855,400.857665 159.749384,401.074001 Z" id="Tick-minor-45" stroke="#FFFFFF" stroke-width="0.25" fill="#8CE4FC"></path>
							<path d="M145.069898,397.287079 L149.867451,381.147943 C148.568608,380.753151 147.545187,380.433635 146.558744,380.111953 L141.425135,396.143961 C141.711934,396.23496 142.027074,396.335586 142.593395,396.516614 C143.686692,396.865667 144.370988,397.079623 145.069899,397.287079 Z" id="Tick-minor-46" stroke="#FFFFFF" stroke-width="0.25" fill="#8CE4FC"></path>
							<path d="M130.711471,392.411619 L136.708086,376.673134 C135.923465,376.367963 135.552386,376.223152 135.093712,376.042655 C134.50476,375.810891 133.979634,375.601451 133.478806,375.398016 L127.166567,391.010287 C128.141941,391.406292 128.972607,391.733611 130.711471,392.411618 Z" id="Tick-minor-47" stroke="#FFFFFF" stroke-width="0.25" fill="#8CE4FC"></path>
							<path d="M116.758595,386.470983 L123.912344,371.237706 C122.753667,370.690457 121.74633,370.203666 120.782621,369.723033 L113.334516,384.829643 C114.276533,385.291626 115.079073,385.675275 116.758595,386.470983 Z" id="Tick-minor-48" stroke="#FFFFFF" stroke-width="0.25" fill="#8CE4FC"></path>
							<path d="M103.297135,379.506238 L111.566216,364.861759 C111.28529,364.702239 110.72298,364.383319 110.591915,364.308838 C109.741581,363.825608 109.142975,363.479699 108.555628,363.128731 L99.9929623,377.603212 C101.613727,378.546059 102.388206,378.993168 103.297135,379.506238 Z" id="Tick-minor-49" stroke="#FFFFFF" stroke-width="0.25" fill="#8CE4FC"></path>
							<path d="M90.369636,371.560206 L99.7119442,357.567784 C99.1282517,357.177872 98.5175122,356.76335 97.7647654,356.247579 C97.49968,356.065946 97.2839637,355.917798 96.8420201,355.613981 L87.2262761,369.416887 C88.7589683,370.477736 89.4944622,370.981004 90.369636,371.560206 Z" id="Tick-minor-50" stroke="#FFFFFF" stroke-width="0.25" fill="#8CE4FC"></path>
							<path d="M78.0835438,362.674813 L88.4567388,349.419006 C87.516035,348.681727 86.6210874,347.964785 85.7458703,347.246465 L75.1205014,360.312513 C76.0769342,361.092076 77.0554361,361.871896 78.0835438,362.674813 Z" id="Tick-minor-51" stroke="#FFFFFF" stroke-width="0.25" fill="#8CE4FC"></path>
							<path d="M66.5021824,352.893584 L77.8428976,340.437734 C76.5846171,339.296204 75.9826895,338.743606 75.2910613,338.086537 L63.7184794,350.311392 C64.2767218,350.843956 64.8588114,351.386249 65.597545,352.064895 C65.8493691,352.296235 65.9270604,352.367402 66.5021824,352.893584 Z" id="Tick-minor-52" stroke="#FFFFFF" stroke-width="0.25" fill="#8CE4FC"></path>
							<path d="M55.6886079,342.281521 L67.9134635,330.708938 C67.2563936,330.017311 66.7037965,329.415383 65.5622663,328.157102 L53.1064159,339.497818 C53.6325977,340.07294 53.7037646,340.150631 53.9351054,340.402455 C54.6137507,341.141189 55.1560436,341.723278 55.6886079,342.281521 Z" id="Tick-minor-53" stroke="#FFFFFF" stroke-width="0.25" fill="#8CE4FC"></path>
							<path d="M45.6874869,330.879499 L58.7535346,320.25413 C58.0352151,319.378913 57.318273,318.483965 56.5809944,317.543261 L43.3251874,327.916456 C44.1281036,328.944564 44.9079235,329.923066 45.6874869,330.879499 Z" id="Tick-minor-54" stroke="#FFFFFF" stroke-width="0.25" fill="#8CE4FC"></path>
							<path d="M36.5831134,318.773724 L50.3860218,309.157978 C49.420221,307.752952 48.9591299,307.077198 48.4322047,306.288063 L34.4397944,315.630364 C35.0189965,316.505538 35.5222636,317.241032 36.5831138,318.773724 Z" id="Tick-minor-55" stroke="#FFFFFF" stroke-width="0.25" fill="#8CE4FC"></path>
							<path d="M28.3967872,306.007038 L42.8712688,297.444372 C42.5203014,296.857025 42.1743918,296.258419 41.6911624,295.408085 C41.616681,295.27702 41.2977617,294.714711 41.1382413,294.433784 L26.493762,302.702865 C27.0068318,303.611794 27.4539414,304.386273 28.3967875,306.007038 Z" id="Tick-minor-56" stroke="#FFFFFF" stroke-width="0.25" fill="#8CE4FC"></path>
							<path d="M21.1703574,292.665484 L36.276967,285.217379 C35.7963336,284.25367 35.3095431,283.246333 34.7622941,282.087656 L19.5290167,289.241405 C20.324725,290.920927 20.7083742,291.723467 21.1703574,292.665484 Z" id="Tick-minor-57" stroke="#FFFFFF" stroke-width="0.25" fill="#8CE4FC"></path>
							<path d="M14.9897126,278.833433 L30.6019698,272.5212 C30.2409508,271.63303 29.9418329,270.872852 29.3268678,269.291913 L13.5883815,275.288529 C14.2663885,277.027393 14.5937077,277.858059 14.9897129,278.833433 Z" id="Tick-minor-58" stroke="#FFFFFF" stroke-width="0.25" fill="#8CE4FC"></path>
							<path d="M9.8560392,264.574865 L25.8880471,259.441256 C25.5663648,258.454813 25.2468492,257.431391 24.852057,256.132549 L8.71292135,260.930101 C8.92037705,261.629012 9.13433285,262.313308 9.48338552,263.406605 C9.66441387,263.972926 9.76504044,264.288066 9.8560392,264.574865 Z" id="Tick-minor-59" stroke="#FFFFFF" stroke-width="0.25" fill="#8CE4FC"></path>
							<path d="M5.78848849,249.975981 L22.1592067,246.062159 C22.12526,245.916468 22.0889858,245.76171 22.0471451,245.583909 C21.9762825,245.283163 21.9762825,245.283163 21.9050987,244.981423 C21.6593003,243.938828 21.5170714,243.318395 21.380044,242.67365 L4.92599896,246.250616 C5.14233461,247.275145 5.34649814,248.147912 5.78848849,249.975981 Z" id="Tick-minor-60" stroke="#FFFFFF" stroke-width="0.25" fill="#8CE4FC"></path>
							<path d="M2.83197273,235.100067 L19.4543436,232.427863 C19.2307986,231.010104 19.0759416,229.992534 18.9356952,228.999849 L2.25049677,231.335356 C2.33379614,231.91407 2.42509478,232.518263 2.5340798,233.216885 C2.60930265,233.699082 2.68489712,234.175811 2.83197284,235.100067 Z" id="Tick-minor-61" stroke="#FFFFFF" stroke-width="0.25" fill="#8CE4FC"></path>
							<path d="M0.985140551,220.0541 L17.7537711,218.623401 C17.7079988,218.085423 17.6638721,217.521352 17.6175157,216.888724 C17.5814143,216.396046 17.5534236,215.997464 17.4952599,215.154692 L0.704232243,216.248845 C0.77312368,217.320751 0.850424627,218.353977 0.985140547,220.054098 Z" id="Tick-minor-62" stroke="#FFFFFF" stroke-width="0.25" fill="#8CE4FC"></path>
							<path d="M0.267537375,204.902318 L17.0999567,204.733994 C17.0813748,203.577998 17.0813748,202.422002 17.0999567,201.266006 L0.267537375,201.097682 C0.248752623,202.360012 0.248752623,203.639988 0.267537375,204.902318 Z" id="Tick-minor-63" stroke="#FFFFFF" stroke-width="0.25" fill="#8CE4FC"></path>
							<path d="M0.704231915,189.751155 L17.4952626,190.845308 C17.6125316,189.147164 17.6723365,188.330643 17.7537542,187.376597 L0.985140551,185.9459 C0.850424627,187.646023 0.77312368,188.679249 0.704232243,189.751155 Z" id="Tick-minor-64" stroke="#FFFFFF" stroke-width="0.25" fill="#8CE4FC"></path>
							<path d="M2.25049677,174.664644 L18.935695,177.000151 C19.0759417,176.007465 19.2307987,174.989896 19.4543437,173.572137 L2.83197284,170.899933 C2.68489712,171.824189 2.60930265,172.300918 2.5340798,172.783115 C2.42509478,173.481737 2.33379614,174.08593 2.25049682,174.664644 Z" id="Tick-minor-65" stroke="#FFFFFF" stroke-width="0.25" fill="#8CE4FC"></path>
							<path d="M4.92599896,159.749384 L21.380044,163.32635 C21.5170714,162.681605 21.6593003,162.061172 21.9050987,161.018577 C21.9762825,160.716837 21.9762825,160.716837 22.0471451,160.416091 C22.0889858,160.23829 22.12526,160.083532 22.1592067,159.937841 L5.78848777,156.024018 C5.34649814,157.852088 5.14233461,158.724855 4.92599896,159.749384 Z" id="Tick-minor-66" stroke="#FFFFFF" stroke-width="0.25" fill="#8CE4FC"></path>
							<path d="M8.71292135,145.069899 L24.8520569,149.867451 C25.2468493,148.568608 25.5663649,147.545187 25.8880472,146.558744 L9.8560392,141.425135 C9.76504044,141.711934 9.66441387,142.027074 9.48338552,142.593395 C9.13433285,143.686692 8.92037705,144.370988 8.71292135,145.069899 Z" id="Tick-minor-67" stroke="#FFFFFF" stroke-width="0.25" fill="#8CE4FC"></path>
							<path d="M13.5883815,130.711471 L29.3268678,136.708087 C29.9418329,135.127148 30.2409508,134.36697 30.6019698,133.4788 L14.9897129,127.166567 C14.5937077,128.141941 14.2663885,128.972607 13.5883815,130.711471 Z" id="Tick-minor-68" stroke="#FFFFFF" stroke-width="0.25" fill="#8CE4FC"></path>
							<path d="M19.5290171,116.758595 L34.7622941,123.912344 C35.3095431,122.753667 35.7963336,121.74633 36.2769671,120.782621 L21.1703574,113.334516 C20.7083742,114.276533 20.324725,115.079073 19.5290171,116.758595 Z" id="Tick-minor-69" stroke="#FFFFFF" stroke-width="0.25" fill="#8CE4FC"></path>
							<path d="M26.4937618,103.297135 L41.1382413,111.566216 C41.2977617,111.285289 41.616681,110.72298 41.6911624,110.591915 C42.1743918,109.741581 42.5203014,109.142975 42.871269,108.555628 L28.3967875,99.9929623 C27.4539414,101.613727 27.0068318,102.388206 26.493762,103.297135 Z" id="Tick-minor-70" stroke="#FFFFFF" stroke-width="0.25" fill="#8CE4FC"></path>
							<path d="M34.439794,90.3696357 L48.4322167,99.711945 C48.7294157,99.2670613 49.0448992,98.8005844 49.4018322,98.277446 C49.6800588,97.8696635 49.9063582,97.5397705 50.38602,96.8420205 L36.5831138,87.2262764 C35.5222636,88.7589683 35.0189965,89.4944622 34.4397944,90.369636 Z" id="Tick-minor-71" stroke="#FFFFFF" stroke-width="0.25" fill="#8CE4FC"></path>
							<path d="M43.3251874,78.0835438 L56.5809944,88.4567388 C57.318273,87.516035 58.0352151,86.6210874 58.7535346,85.7458703 L45.6874869,75.1205014 C44.9079235,76.0769342 44.1281036,77.0554361 43.3251874,78.0835438 Z" id="Tick-minor-72" stroke="#FFFFFF" stroke-width="0.25" fill="#8CE4FC"></path>
							<path d="M53.1064159,66.5021824 L65.5622664,77.8428976 C66.7037965,76.5846171 67.2563936,75.9826895 67.9134625,75.2910613 L55.6886079,63.7184794 C55.1560436,64.2767218 54.6137507,64.8588114 53.9351054,65.597545 C53.7037646,65.8493691 53.6325977,65.9270604 53.1064159,66.5021824 Z" id="Tick-minor-73" stroke="#FFFFFF" stroke-width="0.25" fill="#8CE4FC"></path>
							<path d="M63.7184794,55.6886079 L75.2910613,67.9134625 C75.9826895,67.2563936 76.5846171,66.7037965 77.8428976,65.5622663 L66.5021824,53.1064159 C65.9270604,53.6325977 65.8493691,53.7037646 65.597545,53.9351054 C64.8588114,54.6137507 64.2767218,55.1560436 63.7184795,55.6886079 Z" id="Tick-minor-74" stroke="#FFFFFF" stroke-width="0.25" fill="#8CE4FC"></path>
							<path d="M75.1205014,45.6874869 L85.7458703,58.7535346 C86.6210874,58.0352151 87.516035,57.318273 88.4567388,56.5809944 L78.0835438,43.3251874 C77.0554361,44.1281036 76.0769342,44.9079235 75.1205014,45.6874869 Z" id="Tick-minor-75" stroke="#FFFFFF" stroke-width="0.25" fill="#8CE4FC"></path>
							<path d="M87.2262764,36.5831138 L96.8420201,50.3860194 C97.2839637,50.0822019 97.49968,49.9340536 97.7647654,49.752421 C98.5175121,49.2366501 99.1282516,48.8221278 99.7119443,48.4322156 L90.3696357,34.439794 C89.4944622,35.0189965 88.7589683,35.5222636 87.2262764,36.5831138 Z" id="Tick-minor-76" stroke="#FFFFFF" stroke-width="0.25" fill="#8CE4FC"></path>
							<path d="M99.9929623,28.3967875 L108.555628,42.8712688 C109.142975,42.5203014 109.741581,42.1743918 110.591915,41.6911624 C110.72298,41.616681 111.285289,41.2977617 111.566216,41.1382413 L103.297135,26.493762 C102.388206,27.0068318 101.613727,27.4539414 99.9929623,28.3967875 Z" id="Tick-minor-77" stroke="#FFFFFF" stroke-width="0.25" fill="#8CE4FC"></path>
							<path d="M99.9929623,28.3967875 L108.555628,42.8712688 C109.142975,42.5203014 109.741581,42.1743918 110.591915,41.6911624 C110.72298,41.616681 111.285289,41.2977617 111.566216,41.1382413 L103.297135,26.493762 C102.388206,27.0068318 101.613727,27.4539414 99.9929623,28.3967875 Z" id="Tick-minor-77" stroke="#FFFFFF" stroke-width="0.25" fill="#8CE4FC"></path>
							<path d="M113.334516,21.1703574 L120.782621,36.276967 C121.74633,35.7963336 122.753667,35.3095431 123.912344,34.7622941 L116.758595,19.5290171 C115.079073,20.324725 114.276533,20.7083742 113.334516,21.1703574 Z" id="Tick-minor-78" stroke="#FFFFFF" stroke-width="0.25" fill="#8CE4FC"></path>
							<path d="M127.166567,14.9897126 L133.478801,30.6019706 C134.36697,30.2409508 135.127148,29.9418329 136.708087,29.3268678 L130.711471,13.5883815 C128.972607,14.2663885 128.141941,14.5937077 127.166567,14.9897129 Z" id="Tick-minor-79" stroke="#FFFFFF" stroke-width="0.25" fill="#8CE4FC"></path>
							<path d="M141.425135,9.85603913 L146.558744,25.8880471 C147.545187,25.5663648 148.568609,25.2468492 149.867451,24.852057 L145.069899,8.71292135 C144.370988,8.92037705 143.686692,9.13433285 142.593395,9.48338552 C142.027074,9.66441387 141.711934,9.76504044 141.425135,9.8560392 Z" id="Tick-minor-80" stroke="#FFFFFF" stroke-width="0.25" fill="#8CE4FC"></path>
							<path d="M156.024019,5.78848849 L159.937841,22.1592068 C160.083532,22.12526 160.23829,22.0889858 160.416091,22.0471451 C160.716837,21.9762825 160.716837,21.9762825 161.018577,21.9050987 C162.061172,21.6593003 162.681605,21.5170714 163.32635,21.380044 L159.749384,4.92599896 C158.724855,5.14233461 157.852088,5.34649814 156.024019,5.78848849 Z" id="Tick-minor-81" stroke="#FFFFFF" stroke-width="0.25" fill="#8CE4FC"></path>
							<path d="M170.899933,2.83197284 L173.572137,19.4543436 C174.989896,19.2307986 176.007466,19.0759416 177.000151,18.9356952 L174.664644,2.25049677 C174.08593,2.33379614 173.481737,2.42509478 172.783115,2.5340798 C172.300918,2.60930265 171.824189,2.68489712 170.899933,2.83197284 Z" id="Tick-minor-82" stroke="#FFFFFF" stroke-width="0.25" fill="#8CE4FC"></path>
							<path d="M185.9459,0.985140551 L187.376599,17.7537711 C187.914577,17.7079988 188.478648,17.6638721 189.111276,17.6175157 C189.603954,17.5814143 190.002536,17.5534236 190.845308,17.4952599 L189.751155,0.704232243 C188.679249,0.77312368 187.646023,0.850424627 185.945902,0.985140547 Z" id="Tick-minor-83" stroke="#FFFFFF" stroke-width="0.25" fill="#8CE4FC"></path>
						</g>
						<g id="Major-tickmarks">
							<path d="M214,0 C290.4622,0 361.1036,40.7884 399.324,107 C437.5444,173.2116 437.5444,254.7884 399.324,321 C361.1036,387.2116 290.4622,428 214,428 C137.5378,428 66.8964,387.2116 28.676,321 C-9.5444,254.7884 -9.5444,173.2116 28.676,107 C66.8964,40.7884 137.5378,0 214,0 L214,42.8 C152.8388,42.8 96.3214,75.435 65.7408,128.4 C35.1602,181.365 35.1602,246.635 65.7408,299.6 C96.3214,352.565 152.8388,385.2 214,385.2 C275.1612,385.2 331.6786,352.565 362.2592,299.6 C392.8398,246.635 392.8398,181.365 362.2592,128.4 C331.6786,75.435 275.1612,42.8 214,42.8 L214,0 Z" id="Base-plate" fill-opacity="0.002" fill="#455A64"></path>
							<path d="M211.86,0.0214 C213.2938,-4.03756889e-15 214.7062,-4.03756889e-15 216.14,0.0214 L215.712,42.8 C214.5778,42.7786 213.4222,42.7786 212.288,42.8 L211.86,0.0214 Z" id="Tick-major-0" fill="#4FC1E9"></path>
							<path d="M319.1382,27.606 C320.3794,28.3122 321.6206,29.0184 322.8404,29.746 L301.0766,66.5968 C300.0922,66.019 299.0864,65.4412 298.102,64.8848 L319.1382,27.606 Z" id="Tick-major-7" fill="#4FC1E9"></path>
							<path d="M398.254,105.1596 C398.9816,106.3794 399.6878,107.6206 400.394,108.8618 L363.1152,129.898 C362.5588,128.9136 361.981,127.9078 361.4032,126.9234 L398.254,105.1596 Z" id="Tick-major-14" fill="#4FC1E9"></path>
							<path d="M427.9786,211.86 C428,213.2938 428,214.7062 427.9786,216.14 L385.2,215.712 C385.2214,214.5778 385.2214,213.4222 385.2,212.288 L427.9786,211.86 Z" id="Tick-major-21" fill="#4FC1E9"></path>
							<path d="M400.394,319.1382 C399.6878,320.3794 398.9816,321.6206 398.254,322.8404 L361.4032,301.0766 C361.981,300.0922 362.5588,299.0864 363.1152,298.102 L400.394,319.1382 Z" id="Tick-major-28" fill="#4FC1E9"></path>
							<path d="M322.8404,398.254 C321.6206,398.9816 320.3794,399.6878 319.1382,400.394 L298.102,363.1152 C299.0864,362.5588 300.0922,361.981 301.0766,361.4032 L322.8404,398.254 Z" id="Tick-major-35" fill="#4FC1E9"></path>
							<path d="M216.14,427.9786 C214.7062,428 213.2938,428 211.86,427.9786 L212.288,385.2 C213.4222,385.2214 214.5778,385.2214 215.712,385.2 L216.14,427.9786 Z" id="Tick-major-42" fill="#4FC1E9"></path>
							<path d="M108.8618,400.394 C107.6206,399.6878 106.3794,398.9816 105.1596,398.254 L126.9234,361.4032 C127.9078,361.981 128.9136,362.5588 129.898,363.1152 L108.8618,400.394 Z" id="Tick-major-49" fill="#4FC1E9"></path>
							<path d="M29.746,322.8404 C29.0184,321.6206 28.3122,320.3794 27.606,319.1382 L64.8848,298.102 C65.4412,299.0864 66.019,300.0922 66.5968,301.0766 L29.746,322.8404 Z" id="Tick-major-56" fill="#4FC1E9"></path>
							<path d="M0.0214,216.14 C-4.03756889e-15,214.7062 -4.03756889e-15,213.2938 0.0214,211.86 L42.8,212.288 C42.7786,213.4222 42.7786,214.5778 42.8,215.712 L0.0214,216.14 Z" id="Tick-major-63" fill="#4FC1E9"></path>
							<path d="M27.606,108.8618 C28.3122,107.6206 29.0184,106.3794 29.746,105.1596 L66.5968,126.9234 C66.019,127.9078 65.4412,128.9136 64.8848,129.898 L27.606,108.8618 Z" id="Tick-major-70" fill="#4FC1E9"></path>
							<path d="M105.1596,29.746 C106.3794,29.0184 107.6206,28.3122 108.8618,27.606 L129.898,64.8848 C128.9136,65.4412 127.9078,66.019 126.9234,66.5968 L105.1596,29.746 Z" id="Tick-major-77" fill="#4FC1E9"></path>
						</g>
						<circle id="Oval-9" stroke="#4FC1E9" stroke-width="8" opacity="0.2" cx="214.123239" cy="214.123239" r="125.123239"></circle>
						<circle id="Oval-9-Copy" stroke="#4FC1E9" stroke-width="8" opacity="0.2" cx="214.274648" cy="214.274648" r="102.274648"></circle>
					</g>
				</g>
			</g>
		</g>
	</g>
</svg>