<svg width="405px" height="132px" viewBox="0 0 426 137" version="1.1" xmlns="http://www.w3.org/2000/svg" xmlns:xlink="http://www.w3.org/1999/xlink">
	<defs>
		<filter x="-8.2%" y="-36.4%" width="116.4%" height="172.8%" filterUnits="objectBoundingBox" id="filter-1">
			<feGaussianBlur stdDeviation="10" in="SourceGraphic"></feGaussianBlur>
		</filter>
		<filter x="-8.2%" y="-36.4%" width="116.4%" height="172.8%" filterUnits="objectBoundingBox" id="filter-2">
			<feGaussianBlur stdDeviation="10" in="SourceGraphic"></feGaussianBlur>
		</filter>
		<filter x="-8.2%" y="-36.4%" width="116.4%" height="172.8%" filterUnits="objectBoundingBox" id="filter-3">
			<feGaussianBlur stdDeviation="10" in="SourceGraphic"></feGaussianBlur>
		</filter>
		<filter x="-181.9%" y="-39.2%" width="463.8%" height="178.3%" filterUnits="objectBoundingBox" id="filter-4">
			<feGaussianBlur stdDeviation="10" in="SourceGraphic"></feGaussianBlur>
		</filter>
		<filter x="-181.9%" y="-39.2%" width="463.8%" height="178.3%" filterUnits="objectBoundingBox" id="filter-5">
			<feGaussianBlur stdDeviation="10" in="SourceGraphic"></feGaussianBlur>
		</filter>
	</defs>
	<g id="Page-1" stroke="none" stroke-width="1" fill="none" fill-rule="evenodd">
		<g id="L1" transform="translate(-180.000000, -564.000000)" stroke="#4FC1E9">
			<g id="ariaL1" transform="translate(118.000000, 142.000000)">
				<g id="selectL1" transform="translate(54.000000, 203.000000)">
					<g id="select_center" transform="translate(31.000000, 0.000000)">
						<g id="select3" transform="translate(0.000000, 244.216216)">
							<g id="shadow">
								<polygon id="Path-42-Copy" stroke-width="2" filter="url(#filter-1)" points="18.3891442 0.863845097 360.256261 0.863845097 379.63206 43.7013105 360.256261 86.0290031 18.3891442 86.0290031 0.907941786 43.7013105"></polygon>
								<polygon id="Path-42-Copy-2" stroke-width="2" filter="url(#filter-2)" points="18.3891442 0.863845097 360.256261 0.863845097 379.63206 43.7013105 360.256261 86.0290031 18.3891442 86.0290031 0.907941786 43.7013105"></polygon>
								<polygon id="Path-42-Copy-3" stroke-width="2" filter="url(#filter-3)" points="18.3891442 0.863845097 360.256261 0.863845097 379.63206 43.7013105 360.256261 86.0290031 18.3891442 86.0290031 0.907941786 43.7013105"></polygon>
								<polyline id="Path-43-Copy-3" stroke-width="7" filter="url(#filter-4)" points="27.1638787 0.972972973 8.74680307 45.0119119 27.1638787 86.5145383"></polyline>
								<polyline id="Path-43-Copy-2" stroke-width="7" filter="url(#filter-5)" transform="translate(361.996262, 43.743756) rotate(-180.000000) translate(-361.996262, -43.743756) " points="371.204799 0.972972973 352.787724 45.0119119 371.204799 86.5145383"></polyline>
							</g>
							<polygon id="Path-42" stroke-width="2" points="18.3891442 0.863845097 360.256261 0.863845097 379.63206 43.7013105 360.256261 86.0290031 18.3891442 86.0290031 0.907941786 43.7013105"></polygon>
							<polyline id="Path-43" stroke-width="7" points="36.1873524 0.607156162 17.7702767 44.6460951 36.1873524 86.1487215"></polyline>
							<polyline id="Path-43-Copy" stroke-width="7" transform="translate(353.249459, 43.743756) rotate(-180.000000) translate(-353.249459, -43.743756) " points="362.457996 0.972972973 344.040921 45.0119119 362.457996 86.5145383"></polyline>
						</g>
					</g>
				</g>
			</g>
		</g>
	</g>
</svg>