<svg width="259px" height="205px" viewBox="0 0 259 205" version="1.1" xmlns="http://www.w3.org/2000/svg" xmlns:xlink="http://www.w3.org/1999/xlink">
	<defs>
		<filter x="-15.8%" y="-21.9%" width="131.7%" height="143.8%" filterUnits="objectBoundingBox" id="filter-1">
			<feGaussianBlur stdDeviation="10" in="SourceGraphic"></feGaussianBlur>
		</filter>
		<filter x="-51.7%" y="-136.6%" width="203.4%" height="373.2%" filterUnits="objectBoundingBox" id="filter-2">
			<feGaussianBlur stdDeviation="10" in="SourceGraphic"></feGaussianBlur>
		</filter>
	</defs>
	<g id="Page-1" stroke="none" stroke-width="1" fill="none" fill-rule="evenodd">
		<g id="L1" transform="translate(-1082.000000, -327.000000)" stroke="#4FC1E9">
			<g id="ariaL1" transform="translate(118.000000, 142.000000)">
				<g id="subframeL1" transform="translate(994.000000, 216.000000)">
					<g id="subframe1">
						<g id="frame">
							<polygon id="Path-40" stroke-width="4" filter="url(#filter-1)" points="0.164740894 14.3559413 0.164740894 133.601673 12.1717185 147.023381 189.767788 147.023381 202.157618 133.601673 202.157618 14.3559413 189.767788 0.937879532 12.1717185 0.937879532"></polygon>
							<polyline id="Path-41" stroke-width="12" filter="url(#filter-2)" points="0.164740894 26.3580038 0.164740894 13.559214 12.3199839 0 69.8077612 0"></polyline>
						</g>
						<g id="frame-copy">
							<polygon id="Path-40" stroke-width="4" fill-opacity="0.1" fill="#4FC1E9" points="0.164740894 14.3559413 0.164740894 133.601673 12.1717185 147.023381 189.767788 147.023381 202.157618 133.601673 202.157618 14.3559413 189.767788 0.937879532 12.1717185 0.937879532"></polygon>
							<polyline id="Path-41" stroke-width="12" points="0.164740894 26.3580038 0.164740894 13.559214 12.3199839 0 69.8077612 0"></polyline>
						</g>
					</g>
				</g>
			</g>
		</g>
	</g>
</svg>