<svg width="1822px" height="845px" viewBox="0 0 1822 845" version="1.1" xmlns="http://www.w3.org/2000/svg" xmlns:xlink="http://www.w3.org/1999/xlink">
	<defs>
		<filter x="-95.0%" y="-3.8%" width="290.1%" height="107.7%" filterUnits="objectBoundingBox" id="filter-1">
			<feGaussianBlur stdDeviation="10" in="SourceGraphic"></feGaussianBlur>
		</filter>
		<filter x="-95.0%" y="-3.8%" width="290.1%" height="107.7%" filterUnits="objectBoundingBox" id="filter-2">
			<feGaussianBlur stdDeviation="10" in="SourceGraphic"></feGaussianBlur>
		</filter>
	</defs>
	<g id="Page-1" stroke="none" stroke-width="1" fill="none" fill-rule="evenodd">
		<g id="R2" transform="translate(-4.000000, -141.000000)">
			<g id="ariaR2" transform="translate(29.000000, 76.000000)">
				<g id="frameR2" transform="translate(0.000000, 90.000000)">
					<path d="M1756.57824,0 L1772,0 L1772,9.86395298 L1756.57824,22.3069361 L1756.57824,769.684195 L1772,784.840184 L1772,795 L1756.57824,795 L1739.90945,769.684195 L1739.90945,663.028459 L1748.92726,632.465277 L1748.92726,504.060837 L1739.90945,487.99493 L1739.90945,285.295441 L1748.92726,265.383319 L1748.92726,136.638357 L1739.90945,114.437485 L1739.90945,9.86395298 L1756.57824,0 Z M1744.64528,22.4650244 C1744.64528,27.0819719 1744.64528,29.3904457 1744.64528,29.3904457 C1744.64528,29.3904457 1746.94068,27.5168766 1751.53147,23.7697383 L1751.53147,16.9917497 L1744.64528,22.4650244 Z M1744.64528,35.815685 C1744.64528,40.4326325 1744.64528,42.7411062 1744.64528,42.7411062 C1744.64528,42.7411062 1746.94068,40.8675371 1751.53147,37.1203988 L1751.53147,30.3424103 L1744.64528,35.815685 Z M1744.64528,47.9526491 C1744.64528,52.5695966 1744.64528,54.8780703 1744.64528,54.8780703 C1744.64528,54.8780703 1746.94068,53.0045012 1751.53147,49.2573629 L1751.53147,42.4793744 L1744.64528,47.9526491 Z M1744.64528,736.356964 L1751.53147,741.830239 L1751.53147,735.05225 C1746.94068,731.305112 1744.64528,729.431543 1744.64528,729.431543 C1744.64528,729.431543 1744.64528,731.740016 1744.64528,736.356964 Z M1744.64528,749.707624 L1751.53147,755.180899 L1751.53147,748.402911 C1746.94068,744.655772 1744.64528,742.782203 1744.64528,742.782203 C1744.64528,742.782203 1744.64528,745.090677 1744.64528,749.707624 Z M1744.64528,763.058285 L1751.53147,768.53156 L1751.53147,761.753571 C1746.94068,758.006433 1744.64528,756.132864 1744.64528,756.132864 C1744.64528,756.132864 1744.64528,758.441337 1744.64528,763.058285 Z" id="shadow" stroke="#4FC1E9" fill="#4FC1E9" filter="url(#filter-1)" transform="translate(1755.954726, 397.500000) scale(-1, 1) translate(-1755.954726, -397.500000) "></path>
					<path d="M1756.57824,0 L1772,0 L1772,9.86395298 L1756.57824,22.3069361 L1756.57824,769.684195 L1772,784.840184 L1772,795 L1756.57824,795 L1739.90945,769.684195 L1739.90945,663.028459 L1748.92726,632.465277 L1748.92726,504.060837 L1739.90945,487.99493 L1739.90945,285.295441 L1748.92726,265.383319 L1748.92726,136.638357 L1739.90945,114.437485 L1739.90945,9.86395298 L1756.57824,0 Z M1744.64528,22.4650244 C1744.64528,27.0819719 1744.64528,29.3904457 1744.64528,29.3904457 C1744.64528,29.3904457 1746.94068,27.5168766 1751.53147,23.7697383 L1751.53147,16.9917497 L1744.64528,22.4650244 Z M1744.64528,35.815685 C1744.64528,40.4326325 1744.64528,42.7411062 1744.64528,42.7411062 C1744.64528,42.7411062 1746.94068,40.8675371 1751.53147,37.1203988 L1751.53147,30.3424103 L1744.64528,35.815685 Z M1744.64528,47.9526491 C1744.64528,52.5695966 1744.64528,54.8780703 1744.64528,54.8780703 C1744.64528,54.8780703 1746.94068,53.0045012 1751.53147,49.2573629 L1751.53147,42.4793744 L1744.64528,47.9526491 Z M1744.64528,736.356964 L1751.53147,741.830239 L1751.53147,735.05225 C1746.94068,731.305112 1744.64528,729.431543 1744.64528,729.431543 C1744.64528,729.431543 1744.64528,731.740016 1744.64528,736.356964 Z M1744.64528,749.707624 L1751.53147,755.180899 L1751.53147,748.402911 C1746.94068,744.655772 1744.64528,742.782203 1744.64528,742.782203 C1744.64528,742.782203 1744.64528,745.090677 1744.64528,749.707624 Z M1744.64528,763.058285 L1751.53147,768.53156 L1751.53147,761.753571 C1746.94068,758.006433 1744.64528,756.132864 1744.64528,756.132864 C1744.64528,756.132864 1744.64528,758.441337 1744.64528,763.058285 Z" id="right" stroke="#4FC1E9" fill="#4FC1E9" transform="translate(1755.954726, 397.500000) scale(-1, 1) translate(-1755.954726, -397.500000) "></path>
					<path d="M16.6687885,0 L32.090549,0 L32.090549,9.86395298 L16.6687885,22.3069361 L16.6687885,769.684195 L32.090549,784.840184 L32.090549,795 L16.6687885,795 L0,769.684195 L0,663.028459 L9.01780911,632.465277 L9.01780911,504.060837 L0,487.99493 L0,285.295441 L9.01780911,265.383319 L9.01780911,136.638357 L0,114.437485 L0,9.86395298 L16.6687885,0 Z M4.73583235,22.4650244 C4.73583235,27.0819719 4.73583235,29.3904457 4.73583235,29.3904457 C4.73583235,29.3904457 7.03122871,27.5168766 11.6220214,23.7697383 L11.6220214,16.9917497 L4.73583235,22.4650244 Z M4.73583235,35.815685 C4.73583235,40.4326325 4.73583235,42.7411062 4.73583235,42.7411062 C4.73583235,42.7411062 7.03122871,40.8675371 11.6220214,37.1203988 L11.6220214,30.3424103 L4.73583235,35.815685 Z M4.73583235,47.9526491 C4.73583235,52.5695966 4.73583235,54.8780703 4.73583235,54.8780703 C4.73583235,54.8780703 7.03122871,53.0045012 11.6220214,49.2573629 L11.6220214,42.4793744 L4.73583235,47.9526491 Z M4.73583235,736.356964 L11.6220214,741.830239 L11.6220214,735.05225 C7.03122871,731.305112 4.73583235,729.431543 4.73583235,729.431543 C4.73583235,729.431543 4.73583235,731.740016 4.73583235,736.356964 Z M4.73583235,749.707624 L11.6220214,755.180899 L11.6220214,748.402911 C7.03122871,744.655772 4.73583235,742.782203 4.73583235,742.782203 C4.73583235,742.782203 4.73583235,745.090677 4.73583235,749.707624 Z M4.73583235,763.058285 L11.6220214,768.53156 L11.6220214,761.753571 C7.03122871,758.006433 4.73583235,756.132864 4.73583235,756.132864 C4.73583235,756.132864 4.73583235,758.441337 4.73583235,763.058285 Z" id="shadow" stroke="#4FC1E9" fill="#4FC1E9" filter="url(#filter-2)"></path>
					<path d="M16.6687885,0 L32.090549,0 L32.090549,9.86395298 L16.6687885,22.3069361 L16.6687885,769.684195 L32.090549,784.840184 L32.090549,795 L16.6687885,795 L0,769.684195 L0,663.028459 L9.01780911,632.465277 L9.01780911,504.060837 L0,487.99493 L0,285.295441 L9.01780911,265.383319 L9.01780911,136.638357 L0,114.437485 L0,9.86395298 L16.6687885,0 Z M4.73583235,22.4650244 C4.73583235,27.0819719 4.73583235,29.3904457 4.73583235,29.3904457 C4.73583235,29.3904457 7.03122871,27.5168766 11.6220214,23.7697383 L11.6220214,16.9917497 L4.73583235,22.4650244 Z M4.73583235,35.815685 C4.73583235,40.4326325 4.73583235,42.7411062 4.73583235,42.7411062 C4.73583235,42.7411062 7.03122871,40.8675371 11.6220214,37.1203988 L11.6220214,30.3424103 L4.73583235,35.815685 Z M4.73583235,47.9526491 C4.73583235,52.5695966 4.73583235,54.8780703 4.73583235,54.8780703 C4.73583235,54.8780703 7.03122871,53.0045012 11.6220214,49.2573629 L11.6220214,42.4793744 L4.73583235,47.9526491 Z M4.73583235,736.356964 L11.6220214,741.830239 L11.6220214,735.05225 C7.03122871,731.305112 4.73583235,729.431543 4.73583235,729.431543 C4.73583235,729.431543 4.73583235,731.740016 4.73583235,736.356964 Z M4.73583235,749.707624 L11.6220214,755.180899 L11.6220214,748.402911 C7.03122871,744.655772 4.73583235,742.782203 4.73583235,742.782203 C4.73583235,742.782203 4.73583235,745.090677 4.73583235,749.707624 Z M4.73583235,763.058285 L11.6220214,768.53156 L11.6220214,761.753571 C7.03122871,758.006433 4.73583235,756.132864 4.73583235,756.132864 C4.73583235,756.132864 4.73583235,758.441337 4.73583235,763.058285 Z" id="left" stroke="#4FC1E9" fill="#4FC1E9"></path>
					<rect id="Rectangle-5" fill-opacity="0.1" fill="#99E7FE" x="8.02263724" y="16.9125561" width="1751.94341" height="761.132287"></rect>
				</g>
			</g>
		</g>
	</g>
</svg>