
<svg width="282px" height="281px" viewBox="0 0 282 281" version="1.1" xmlns="http://www.w3.org/2000/svg" xmlns:xlink="http://www.w3.org/1999/xlink">
    <!-- Generator: Sketch 51.2 (57519) - http://www.bohemiancoding.com/sketch -->
    <desc>Created with Sketch.</desc>
    <defs></defs>
    <g id="Page-1" stroke="none" stroke-width="1" fill="none" fill-rule="evenodd">
        <g id="R2" transform="translate(-157.000000, -242.000000)">
            <g id="ariaR2" transform="translate(29.000000, 76.000000)">
                <g id="piechartR2" transform="translate(99.000000, 108.000000)">
                    <g id="pchart1_sec" transform="translate(0.000000, 29.000000)">
                        <circle id="circle_in" stroke="#233E54" stroke-width="4" cx="171" cy="170" r="106"></circle>
                        <path d="M170,307 C245.663011,307 307,245.663011 307,170 C307,94.3369893 245.663011,33 170,33 C94.3369893,33 33,94.3369893 33,170 C33,245.663011 94.3369893,307 170,307 Z" id="circle_ot" stroke="#2B485A" stroke-width="4" stroke-dasharray="8,8"></path>
                        <path d="M157,104.035307 C191.830293,68.6472706 242.600339,54.8198787 290.185193,67.7786807 C313.570853,74.1390008 334.888205,86.6494982 352,104.035307 L348.097794,108 C314.660161,74.0269246 265.917056,60.7459038 220.235045,73.1863537 C197.787017,79.2945025 177.338354,91.3006574 160.902206,108 L157,104.035307 Z" id="acr_in_u" fill="#4FC1E9" transform="translate(254.500000, 85.500000) rotate(-315.000000) translate(-254.500000, -85.500000) "></path>
                        <path d="M-12,272.035307 C22.8302927,236.647271 73.6003394,222.819879 121.185193,235.778681 C144.570853,242.139001 165.888205,254.649498 183,272.035307 L179.097794,276 C145.660161,242.026925 96.9170556,228.745904 51.2350445,241.186354 C28.7870174,247.294503 8.33835384,259.300657 -8.09779381,276 L-12,272.035307 Z" id="acr_out_d" fill="#4FC1E9" transform="translate(85.500000, 253.500000) rotate(-135.000000) translate(-85.500000, -253.500000) "></path>
                    </g>
                </g>
            </g>
        </g>
    </g>
</svg>