<svg width="177px" height="176px" viewBox="0 0 177 176" version="1.1" xmlns="http://www.w3.org/2000/svg" xmlns:xlink="http://www.w3.org/1999/xlink">

	<defs></defs>
	<g id="Page-1" stroke="none" stroke-width="1" fill="none" fill-rule="evenodd">
		<g id="R2" transform="translate(-1483.000000, -295.000000)" fill="#4FC1E9">
			<g id="ariaR2" transform="translate(29.000000, 76.000000)">
				<g id="piechartR2" transform="translate(101.000000, 108.000000)">
					<g id="pchart1_sec-copy-3" transform="translate(1273.000000, 29.000000)">
						<path d="M154.499841,102.471721 C154.264347,102.524018 154.017885,102.489423 153.805889,102.374314 C153.320543,102.110784 153.140726,101.503699 153.404257,101.018353 L157.235412,93.9624649 C157.396999,93.6648697 157.396999,93.305716 157.235412,93.0081209 L152.944497,85.1055218 C152.902843,85.0288075 152.871413,84.9469692 152.85101,84.8620938 C152.721926,84.3251272 153.052581,83.7851868 153.589548,83.6561034 L153.589539,83.6560672 C158.18219,82.5520224 163.872857,82 170.661541,82 C177.841274,82 183.351,82.6174503 187.190718,83.8523509 C187.434868,83.9308726 187.639519,84.1001937 187.762375,84.3253193 L192.499675,93.0062621 C192.662611,93.3048333 192.662611,93.6657525 192.499675,93.9643237 L187.961066,102.281081 C187.736832,102.691976 187.257558,102.892328 186.807604,102.763265 L186.807591,102.763311 C182.172969,101.433929 176.790953,100.769237 170.661541,100.769237 C164.99798,100.769237 159.610747,101.336732 154.499841,102.471721 Z M193.532519,105.398227 C193.306534,105.313828 193.118675,105.150582 193.003573,104.938582 C192.740057,104.453228 192.919891,103.846149 193.405245,103.582632 L200.461235,99.7516632 C200.758834,99.5900854 200.954444,99.2888737 200.981008,98.951283 L201.686407,89.9866058 C201.693255,89.8995814 201.711468,89.8138283 201.740583,89.7315333 C201.924777,89.2108912 202.49616,88.9381466 203.016802,89.1223411 L203.016815,89.1223061 C207.469841,90.6977129 212.54309,93.3341076 218.236559,97.0314901 C224.25799,100.941853 228.542547,104.460502 231.090231,107.587437 C231.252226,107.786265 231.331642,108.03973 231.312065,108.295448 L230.557119,118.156018 C230.531155,118.495162 230.334585,118.797855 230.035322,118.959516 L221.699293,123.462632 C221.287445,123.685111 220.776372,123.592109 220.469303,123.238805 L220.469266,123.238837 C217.306379,119.599727 213.154657,116.111013 208.0141,112.772697 C203.264238,109.6881 198.437044,107.229944 193.532519,105.398227 Z M224.585716,129.169676 C224.438795,128.978347 224.365989,128.740357 224.38072,128.499576 C224.414444,127.94833 224.888655,127.528796 225.439901,127.56252 L233.453824,128.052778 C233.791826,128.073456 234.11733,127.921671 234.318753,127.649455 L239.667521,120.420782 C239.719444,120.35061 239.780332,120.287539 239.848632,120.233177 C240.280736,119.889256 240.909829,119.960742 241.25375,120.392846 L241.253779,120.392823 C244.195322,124.088588 247.100604,129.01279 249.969626,135.165427 C253.003912,141.672475 254.772823,146.926928 255.276358,150.928786 C255.308375,151.183246 255.241408,151.440281 255.089295,151.646768 L249.223759,159.608945 C249.022021,159.882797 248.694917,160.035328 248.35546,160.01384 L238.899819,159.415276 C238.432657,159.385703 238.048526,159.036006 237.975338,158.573665 L237.975291,158.573672 C237.221445,153.811457 235.549321,148.652783 232.95892,143.09765 C230.565396,137.96472 227.774328,133.322062 224.585716,129.169676 Z M238.019553,165.63878 C238.000539,165.398299 238.069098,165.159051 238.212591,164.965138 C238.541104,164.521192 239.167306,164.427615 239.611252,164.756128 L246.06528,169.531988 C246.33749,169.73342 246.693149,169.783404 247.010336,169.664807 L255.433208,166.51548 C255.514972,166.484908 255.600388,166.465174 255.687277,166.456782 C256.236983,166.403686 256.725651,166.806268 256.778747,167.355974 L256.778784,167.35597 C257.23291,172.057579 256.987573,177.769691 256.042771,184.492309 C255.043545,191.602169 253.665298,196.972342 251.90803,200.602827 C251.796293,200.833673 251.600138,201.012768 251.360105,201.103096 L242.10434,204.58614 C241.785998,204.705937 241.428591,204.655707 241.155602,204.452803 L233.551436,198.800894 C233.175746,198.521658 233.044046,198.019164 233.234475,197.591551 L233.234431,197.591532 C235.195891,193.187028 236.603145,187.949896 237.456194,181.880136 C238.24441,176.271692 238.432196,170.857907 238.019553,165.63878 Z M229.497552,203.627472 C229.612581,203.415433 229.800383,203.252122 230.026339,203.167644 C230.543644,202.974241 231.119787,203.236815 231.31319,203.75412 L234.124873,211.274608 C234.24346,211.591799 234.514517,211.827425 234.845125,211.900714 L243.624386,213.846891 C243.709611,213.865783 243.791995,213.895754 243.869437,213.936038 C244.359377,214.1909 244.549946,214.794681 244.295085,215.284621 L244.295118,215.284638 C242.115301,219.475074 238.798504,224.132035 234.344726,229.25552 C229.634398,234.674133 225.553697,238.427292 222.102624,240.514996 C221.883186,240.647744 221.621134,240.691111 221.37063,240.636136 L211.71109,238.516211 C211.37886,238.4433 211.106471,238.206516 210.988032,237.887666 L207.688891,229.00605 C207.525895,228.567248 207.68912,228.074092 208.081721,227.819181 L208.081695,227.81914 C212.125578,225.1935 216.158148,221.567717 220.179403,216.941792 C223.895034,212.667448 227.001083,208.229342 229.497552,203.627472 Z M201.66435,231.079333 C201.876307,230.964151 202.122757,230.929471 202.358269,230.981687 C202.897452,231.10123 203.237639,231.635232 203.118096,232.174416 L201.38022,240.01298 C201.306921,240.343587 201.405917,240.688827 201.643273,240.930355 L207.946217,247.344084 C208.007402,247.406345 208.060172,247.47635 208.10318,247.552314 C208.375271,248.032899 208.206253,248.643064 207.725668,248.915155 L207.725686,248.915187 C203.615263,251.242369 198.2972,253.341568 191.771498,255.212783 C184.869896,257.191785 179.403416,258.11694 175.372057,257.988247 C175.115721,257.980064 174.872327,257.873712 174.692177,257.691171 L167.7456,250.65229 C167.506678,250.410196 167.407195,250.063258 167.481522,249.731342 L169.551905,240.485752 C169.654194,240.028966 170.059677,239.70427 170.527775,239.70431 L170.527775,239.704261 C175.349287,239.704671 180.706027,238.860128 186.597995,237.170634 C192.04216,235.609545 197.064278,233.579111 201.66435,231.079333 Z M163.224693,238.893715 C163.465479,238.908355 163.692858,239.009544 163.864913,239.178627 C164.258819,239.565729 164.264335,240.19886 163.877233,240.592766 L158.249624,246.319311 C158.012269,246.560839 157.913273,246.90608 157.986571,247.236686 L159.933012,256.015888 C159.951907,256.101112 159.959562,256.188443 159.95578,256.275655 C159.931855,256.8274 159.465181,257.255283 158.913436,257.231358 L158.913434,257.231396 C154.194379,257.026766 148.572001,255.988843 142.046298,254.117628 C135.144696,252.138625 130.0186,250.026408 126.668011,247.780975 C126.454962,247.638199 126.30491,247.419027 126.248867,247.168759 L124.087874,237.518324 C124.013547,237.186408 124.11303,236.83947 124.351951,236.597376 L131.007152,229.853807 C131.335957,229.520636 131.851889,229.460151 132.248838,229.708239 L132.248864,229.708198 C136.337521,232.263557 141.327833,234.385985 147.219801,236.075479 C152.663966,237.636568 157.99893,238.57598 163.224693,238.893715 Z M126.691871,225.148756 C126.885838,225.292176 127.021423,225.500879 127.073631,225.736393 C127.193158,226.27558 126.852956,226.809572 126.313769,226.929099 L118.475158,228.666769 C118.14455,228.740057 117.873493,228.975683 117.754906,229.292874 L114.605832,237.715841 C114.575263,237.797607 114.534118,237.875017 114.483448,237.946099 C114.16288,238.395802 113.538453,238.500486 113.088751,238.179919 L113.088729,238.179949 C109.242446,235.43815 105.092416,231.505508 100.638638,226.382023 C95.9283095,220.96341 92.7796,216.400084 91.1925094,212.692044 C91.0915936,212.456266 91.0851186,212.19073 91.1744228,211.950314 L94.6180646,202.679817 C94.7365036,202.360967 95.0088928,202.124183 95.3411229,202.051272 L104.595455,200.02032 C105.052672,199.91998 105.518312,200.15025 105.716102,200.574508 L105.716146,200.574487 C107.753434,204.944434 110.782706,209.44237 114.803961,214.068296 C118.519592,218.34264 122.482228,222.036126 126.691871,225.148756 Z M103.409248,193.891723 C103.49381,194.117648 103.493853,194.366525 103.409368,194.592478 C103.215949,195.109777 102.639798,195.372334 102.1225,195.178915 L94.6020849,192.367034 C94.2848974,192.248437 93.9292389,192.298422 93.6570285,192.499853 L86.4285169,197.848839 C86.3583464,197.900764 86.2816786,197.943277 86.2004689,197.975295 C85.6866929,198.177853 85.105989,197.925562 84.9034304,197.411786 L84.9033958,197.411799 C83.1709221,193.017498 81.8322841,187.459038 80.8874818,180.736421 C79.8882562,173.626561 79.7328919,168.084523 80.421389,164.110307 C80.4651674,163.857605 80.6043588,163.631381 80.8101953,163.47839 L88.7473509,157.579038 C89.0203402,157.376135 89.3777469,157.325905 89.6960888,157.445702 L98.56356,160.782673 C99.0016639,160.947539 99.2667683,161.394265 99.2015823,161.857802 L99.2016303,161.857809 C98.5301997,166.632341 98.621009,172.054488 99.4740581,178.124248 C100.262274,183.732692 101.574003,188.988517 103.409248,193.891723 Z M100.80537,154.997341 C100.753242,155.232873 100.61773,155.441623 100.423812,155.58511 C99.9798564,155.913609 99.3536571,155.820014 99.0251573,155.376058 L94.2494668,148.921905 C94.0480435,148.649688 93.7225397,148.497903 93.3845374,148.518582 L84.4089312,149.067689 C84.3218007,149.073019 84.2343473,149.066918 84.1488012,149.04954 C83.6075911,148.939597 83.2579797,148.411734 83.3679223,147.870523 L83.3678858,147.870516 C84.3082194,143.241572 86.2128972,137.850781 89.0819192,131.698143 C92.1162053,125.191095 95.004316,120.458534 97.7462511,117.500459 C97.9205982,117.312369 98.1605445,117.19845 98.4164985,117.182247 L108.286174,116.55752 C108.625631,116.536031 108.952735,116.688562 109.154473,116.962414 L114.773915,124.590605 C115.051548,124.967481 115.030579,125.486524 114.723449,125.839775 L114.723485,125.839807 C111.559979,129.47838 108.683026,134.075233 106.092625,139.630365 C103.699101,144.763295 101.936682,149.88562 100.80537,154.997341 Z M120.084086,120.967103 C119.915067,121.139223 119.689525,121.244442 119.449037,121.263365 C118.898463,121.306688 118.417014,120.895479 118.373691,120.344904 L117.743856,112.340742 C117.717292,112.003151 117.521683,111.70194 117.224083,111.540362 L109.321355,107.249684 C109.244639,107.208033 109.173708,107.156515 109.11037,107.096445 C108.709658,106.716411 108.692896,106.083491 109.07293,105.68278 L109.072903,105.682754 C112.323318,102.255488 116.79526,98.6931631 122.48873,94.9957806 C128.510161,91.0854179 133.467293,88.6024437 137.360127,87.546858 C137.607654,87.4797381 137.871508,87.5102818 138.097155,87.6321762 L146.79817,92.3325086 C147.097433,92.4941702 147.294004,92.7968625 147.319968,93.1360067 L148.0432,102.58293 C148.078932,103.049662 147.786098,103.478723 147.338442,103.615544 L147.338456,103.61559 C142.727502,105.024872 137.851746,107.398671 132.711189,110.736987 C127.961327,113.821584 123.752293,117.231623 120.084086,120.967103 Z" id="circle_ct"></path>
					</g>
				</g>
			</g>
		</g>
	</g>
</svg>