<svg width="1824px" height="845px" viewBox="0 0 1824 845" version="1.1" xmlns="http://www.w3.org/2000/svg" xmlns:xlink="http://www.w3.org/1999/xlink">
	<defs>
		<filter x="-1.7%" y="-3.8%" width="103.4%" height="107.7%" filterUnits="objectBoundingBox" id="filter-1">
			<feGaussianBlur stdDeviation="10" in="SourceGraphic"></feGaussianBlur>
		</filter>
	</defs>
	<g id="Page-1" stroke="none" stroke-width="1" fill="none" fill-rule="evenodd">
		<g id="R1" transform="translate(-2.000000, -210.000000)">
			<g id="ariaR1" transform="translate(28.000000, 150.000000)">
				<g id="frameR1" transform="translate(0.000000, 85.000000)">
					<path d="M1755.02648,0 L1772,9.86395298 L1772,114.437485 L1762.81733,136.638357 L1762.81733,265.383319 L1772,285.295441 L1772,487.99493 L1762.81733,504.060837 L1762.81733,632.465277 L1772,663.028459 L1772,769.684195 L1755.02648,795 L1739.32278,795 L1739.32278,784.840184 L1755.02648,769.684195 L1755.02648,22.3069361 L1739.32278,9.86395298 L1739.32278,0 L1755.02648,0 Z M1767.17759,22.4650244 L1760.16551,16.9917497 L1760.16551,23.7697383 C1764.84023,27.5168766 1767.17759,29.3904457 1767.17759,29.3904457 C1767.17759,29.3904457 1767.17759,27.0819719 1767.17759,22.4650244 Z M1767.17759,35.815685 L1760.16551,30.3424103 L1760.16551,37.1203988 C1764.84023,40.8675371 1767.17759,42.7411062 1767.17759,42.7411062 C1767.17759,42.7411062 1767.17759,40.4326325 1767.17759,35.815685 Z M1767.17759,47.9526491 L1760.16551,42.4793744 L1760.16551,49.2573629 C1764.84023,53.0045012 1767.17759,54.8780703 1767.17759,54.8780703 C1767.17759,54.8780703 1767.17759,52.5695966 1767.17759,47.9526491 Z M1767.17759,736.356964 C1767.17759,731.740016 1767.17759,729.431543 1767.17759,729.431543 C1767.17759,729.431543 1764.84023,731.305112 1760.16551,735.05225 L1760.16551,741.830239 L1767.17759,736.356964 Z M1767.17759,749.707624 C1767.17759,745.090677 1767.17759,742.782203 1767.17759,742.782203 C1767.17759,742.782203 1764.84023,744.655772 1760.16551,748.402911 L1760.16551,755.180899 L1767.17759,749.707624 Z M1767.17759,763.058285 C1767.17759,758.441337 1767.17759,756.132864 1767.17759,756.132864 C1767.17759,756.132864 1764.84023,758.006433 1760.16551,761.753571 L1760.16551,768.53156 L1767.17759,763.058285 Z M16.9735211,0 L32.6772165,0 L32.6772165,9.86395298 L16.9735211,22.3069361 L16.9735211,769.684195 L32.6772165,784.840184 L32.6772165,795 L16.9735211,795 L0,769.684195 L0,663.028459 L9.18266936,632.465277 L9.18266936,504.060837 L0,487.99493 L0,285.295441 L9.18266936,265.383319 L9.18266936,136.638357 L0,114.437485 L0,9.86395298 L16.9735211,0 Z M4.82241109,22.4650244 C4.82241109,27.0819719 4.82241109,29.3904457 4.82241109,29.3904457 C4.82241109,29.3904457 7.15977104,27.5168766 11.8344909,23.7697383 L11.8344909,16.9917497 L4.82241109,22.4650244 Z M4.82241109,35.815685 C4.82241109,40.4326325 4.82241109,42.7411062 4.82241109,42.7411062 C4.82241109,42.7411062 7.15977104,40.8675371 11.8344909,37.1203988 L11.8344909,30.3424103 L4.82241109,35.815685 Z M4.82241109,47.9526491 C4.82241109,52.5695966 4.82241109,54.8780703 4.82241109,54.8780703 C4.82241109,54.8780703 7.15977104,53.0045012 11.8344909,49.2573629 L11.8344909,42.4793744 L4.82241109,47.9526491 Z M4.82241109,736.356964 L11.8344909,741.830239 L11.8344909,735.05225 C7.15977104,731.305112 4.82241109,729.431543 4.82241109,729.431543 C4.82241109,729.431543 4.82241109,731.740016 4.82241109,736.356964 Z M4.82241109,749.707624 L11.8344909,755.180899 L11.8344909,748.402911 C7.15977104,744.655772 4.82241109,742.782203 4.82241109,742.782203 C4.82241109,742.782203 4.82241109,745.090677 4.82241109,749.707624 Z M4.82241109,763.058285 L11.8344909,768.53156 L11.8344909,761.753571 C7.15977104,758.006433 4.82241109,756.132864 4.82241109,756.132864 C4.82241109,756.132864 4.82241109,758.441337 4.82241109,763.058285 Z" id="shadow" stroke="#4FC1E9" fill="#4FC1E9" filter="url(#filter-1)"></path>
					<path d="M1755.02747,0 L1772,9.86395298 L1772,114.437485 L1762.81787,136.638357 L1762.81787,265.383319 L1772,285.295441 L1772,487.99493 L1762.81787,504.060837 L1762.81787,632.465277 L1772,663.028459 L1772,769.684195 L1755.02747,795 L1739.32469,795 L1739.32469,784.840184 L1755.02747,769.684195 L1755.02747,22.3069361 L1739.32469,9.86395298 L1739.32469,0 L1755.02747,0 Z M1767.17787,22.4650244 L1760.1662,16.9917497 L1760.1662,23.7697383 C1764.84065,27.5168766 1767.17787,29.3904457 1767.17787,29.3904457 C1767.17787,29.3904457 1767.17787,27.0819719 1767.17787,22.4650244 Z M1767.17787,35.815685 L1760.1662,30.3424103 L1760.1662,37.1203988 C1764.84065,40.8675371 1767.17787,42.7411062 1767.17787,42.7411062 C1767.17787,42.7411062 1767.17787,40.4326325 1767.17787,35.815685 Z M1767.17787,47.9526491 L1760.1662,42.4793744 L1760.1662,49.2573629 C1764.84065,53.0045012 1767.17787,54.8780703 1767.17787,54.8780703 C1767.17787,54.8780703 1767.17787,52.5695966 1767.17787,47.9526491 Z M1767.17787,736.356964 C1767.17787,731.740016 1767.17787,729.431543 1767.17787,729.431543 C1767.17787,729.431543 1764.84065,731.305112 1760.1662,735.05225 L1760.1662,741.830239 L1767.17787,736.356964 Z M1767.17787,749.707624 C1767.17787,745.090677 1767.17787,742.782203 1767.17787,742.782203 C1767.17787,742.782203 1764.84065,744.655772 1760.1662,748.402911 L1760.1662,755.180899 L1767.17787,749.707624 Z M1767.17787,763.058285 C1767.17787,758.441337 1767.17787,756.132864 1767.17787,756.132864 C1767.17787,756.132864 1764.84065,758.006433 1760.1662,761.753571 L1760.1662,768.53156 L1767.17787,763.058285 Z M17.0757698,0 L32.7785503,0 L32.7785503,9.86395298 L17.0757698,22.3069361 L17.0757698,769.684195 L32.7785503,784.840184 L32.7785503,795 L17.0757698,795 L0.103237582,769.684195 L0.103237582,663.028459 L9.28537195,632.465277 L9.28537195,504.060837 L0.103237582,487.99493 L0.103237582,285.295441 L9.28537195,265.383319 L9.28537195,136.638357 L0.103237582,114.437485 L0.103237582,9.86395298 L17.0757698,0 Z M4.92536771,22.4650244 C4.92536771,27.0819719 4.92536771,29.3904457 4.92536771,29.3904457 C4.92536771,29.3904457 7.26259149,27.5168766 11.937039,23.7697383 L11.937039,16.9917497 L4.92536771,22.4650244 Z M4.92536771,35.815685 C4.92536771,40.4326325 4.92536771,42.7411062 4.92536771,42.7411062 C4.92536771,42.7411062 7.26259149,40.8675371 11.937039,37.1203988 L11.937039,30.3424103 L4.92536771,35.815685 Z M4.92536771,47.9526491 C4.92536771,52.5695966 4.92536771,54.8780703 4.92536771,54.8780703 C4.92536771,54.8780703 7.26259149,53.0045012 11.937039,49.2573629 L11.937039,42.4793744 L4.92536771,47.9526491 Z M4.92536771,736.356964 L11.937039,741.830239 L11.937039,735.05225 C7.26259149,731.305112 4.92536771,729.431543 4.92536771,729.431543 C4.92536771,729.431543 4.92536771,731.740016 4.92536771,736.356964 Z M4.92536771,749.707624 L11.937039,755.180899 L11.937039,748.402911 C7.26259149,744.655772 4.92536771,742.782203 4.92536771,742.782203 C4.92536771,742.782203 4.92536771,745.090677 4.92536771,749.707624 Z M4.92536771,763.058285 L11.937039,768.53156 L11.937039,761.753571 C7.26259149,758.006433 4.92536771,756.132864 4.92536771,756.132864 C4.92536771,756.132864 4.92536771,758.441337 4.92536771,763.058285 Z" id="frameBorder" stroke="#4FC1E9" fill="#4FC1E9"></path>
					<rect id="Rectangle-5" fill-opacity="0.1" fill="#99E7FE" x="8" y="18" width="1752" height="761"></rect>
				</g>
			</g>
		</g>
	</g>
</svg>