<svg width="1663px" height="740px" viewBox="0 0 1663 740" version="1.1" xmlns="http://www.w3.org/2000/svg" xmlns:xlink="http://www.w3.org/1999/xlink">
	<defs>
		<filter x="-2.1%" y="-4.9%" width="104.1%" height="109.8%" filterUnits="objectBoundingBox" id="filter-1">
			<feGaussianBlur stdDeviation="10" in="SourceGraphic"></feGaussianBlur>
		</filter>
		<filter x="-12.8%" y="-64.9%" width="125.7%" height="229.8%" filterUnits="objectBoundingBox" id="filter-2">
			<feGaussianBlur stdDeviation="10" in="SourceGraphic"></feGaussianBlur>
		</filter>
		<filter x="-52.1%" y="-137.0%" width="204.2%" height="374.1%" filterUnits="objectBoundingBox" id="filter-3">
			<feGaussianBlur stdDeviation="10" in="SourceGraphic"></feGaussianBlur>
		</filter>
		<filter x="-52.1%" y="-127.6%" width="204.2%" height="355.2%" filterUnits="objectBoundingBox" id="filter-4">
			<feGaussianBlur stdDeviation="10" in="SourceGraphic"></feGaussianBlur>
		</filter>
		<filter x="-6.9%" y="-1850.0%" width="113.8%" height="3800.0%" filterUnits="objectBoundingBox" id="filter-5">
			<feGaussianBlur stdDeviation="10" in="SourceGraphic"></feGaussianBlur>
		</filter>
		<filter x="-56.9%" y="-176.2%" width="213.8%" height="452.4%" filterUnits="objectBoundingBox" id="filter-6">
			<feGaussianBlur stdDeviation="10" in="SourceGraphic"></feGaussianBlur>
		</filter>
		<filter x="-88.2%" y="-93.8%" width="276.5%" height="287.5%" filterUnits="objectBoundingBox" id="filter-7">
			<feGaussianBlur stdDeviation="10" in="SourceGraphic"></feGaussianBlur>
		</filter>
	</defs>
	<g id="Page-1" stroke="none" stroke-width="1" fill="none" fill-rule="evenodd">
		<g id="R1" transform="translate(-78.000000, -273.000000)">
			<g id="ariaR1" transform="translate(30.000000, 142.000000)">
				<g id="frame" transform="translate(80.000000, 163.000000)">
					<g id="shadow">
						<polygon id="Path-50" stroke="#4FC1E9" stroke-width="6" filter="url(#filter-1)" points="57.9587347 1 525.706108 1 577.922044 56.8177247 1597 56.8177247 1597 675 1235.64391 675 1207.19826 662.107001 401.981055 662.107001 367.70614 675 2 675 2 56.8177247"></polygon>
						<polyline id="Path-51" stroke="#4FC1E9" stroke-width="14" filter="url(#filter-2)" points="410 0 523.602723 0 578.599551 57 698 57"></polyline>
						<polyline id="Path-52" stroke="#4FC1E9" stroke-width="14" filter="url(#filter-3)" points="1528 55 1599 55 1599 82"></polyline>
						<polyline id="Path-53" stroke="#4FC1E9" stroke-width="14" filter="url(#filter-4)" points="0 647 0 676 71 676"></polyline>
						<path d="M534,662 L1070,662" id="Path-54" stroke="#4FC1E9" stroke-width="14" filter="url(#filter-5)"></path>
						<polyline id="Path-55" stroke="#4FC1E9" stroke-width="14" filter="url(#filter-6)" points="1534 675 1599 675 1599 654"></polyline>
						<polygon id="Path-56" fill="#4FC1E9" filter="url(#filter-7)" points="6 12.3867702 6 34 40 2 18.1416462 2"></polygon>
					</g>
					<polygon id="Path-50" stroke="#4FC1E9" stroke-width="6" fill-opacity="0.1" fill="#4FC1E9" points="57.9587347 1 525.706108 1 577.922044 56.8177247 1597 56.8177247 1597 675 1235.64391 675 1207.19826 662.107001 401.981055 662.107001 367.70614 675 2 675 2 56.8177247"></polygon>
					<polyline id="Path-51" stroke="#4FC1E9" stroke-width="14" points="410 0 523.602723 0 578.599551 57 698 57"></polyline>
					<polyline id="Path-52" stroke="#4FC1E9" stroke-width="14" points="1528 55 1599 55 1599 82"></polyline>
					<polyline id="Path-53" stroke="#4FC1E9" stroke-width="14" points="0 647 0 676 71 676"></polyline>
					<path d="M534,662 L1070,662" id="Path-54" stroke="#4FC1E9" stroke-width="14"></path>
					<polyline id="Path-55" stroke="#4FC1E9" stroke-width="14" points="1534 675 1599 675 1599 654"></polyline>
					<polygon id="Path-56" fill="#4FC1E9" points="6 12.3867702 6 34 40 2 18.1416462 2"></polygon>
				</g>
			</g>
		</g>
	</g>
</svg>