<svg width="1920px" height="1080px" viewBox="0 0 1920 1080" version="1.1" xmlns="http://www.w3.org/2000/svg" xmlns:xlink="http://www.w3.org/1999/xlink">

	<defs>
		<filter x="-1.8%" y="-3.2%" width="103.6%" height="106.4%" filterUnits="objectBoundingBox" id="filter-1">
			<feGaussianBlur stdDeviation="10" in="SourceGraphic"></feGaussianBlur>
		</filter>
		<filter x="-2.3%" y="-2.9%" width="104.7%" height="105.7%" filterUnits="objectBoundingBox" id="filter-2">
			<feGaussianBlur stdDeviation="10" in="SourceGraphic"></feGaussianBlur>
		</filter>
	</defs>
	<g id="Page-1" stroke="none" stroke-width="1" fill="none" fill-rule="evenodd">
		<g id="L2">
			<g id="borderL2" transform="translate(24.000000, -1.000000)">
				<g id="shadow">
					<polyline id="Path-68-" stroke="#4FC1E9" stroke-width="8" filter="url(#filter-1)" points="3.63797881e-12 2.76873541 0 314.780801 32.2926443 346.222215 32.2926443 640.869106 0 701.263217 0 987.959516 32.2926443 1016.88372 850.54234 1016.88372 902.206942 1067 1282.96798 1067 1304.2363 1046.07389 1894.69523 1046.07389"></polyline>
					<path d="M15.4469164,0.775779908 L26.4077617,0.775779908 L10,18.0947353 L10,6.7952779 L15.4469164,0.775779908 Z M35.1587962,2 L35.1587962,14.1518287 L10,41.0947353 L10,29.7952779 L35.1587962,2 Z M35.1587962,25 L35.1587962,37.1518287 L10,64.0947353 L10,52.7952779 L35.1587962,25 Z M35.1587962,48 L35.1587962,60.1518287 L10,87.0947353 L10,75.7952779 L35.1587962,48 Z M35.1587962,71 L35.1587962,83.1518287 L10,110.094735 L10,98.7952779 L35.1587962,71 Z M35.1587962,94 L35.1587962,106.151829 L10,133.094735 L10,121.795278 L35.1587962,94 Z M35.1587962,117 L35.1587962,129.151829 L10,156.094735 L10,144.795278 L35.1587962,117 Z M35.1587962,140 L35.1587962,152.151829 L10,179.094735 L10,167.795278 L35.1587962,140 Z M35.1587962,163 L35.1587962,175.151829 L10,202.094735 L10,190.795278 L35.1587962,163 Z M35.1587962,186 L35.1587962,198.151829 L10,225.094735 L10,213.795278 L35.1587962,186 Z M35.1587962,209 L35.1587962,221.151829 L10,248.094735 L10,236.795278 L35.1587962,209 Z M35.1587962,232 L35.1587962,244.151829 L10,271.094735 L10,259.795278 L35.1587962,232 Z M35.1587962,255 L35.1587962,267.151829 L10,294.094735 L10,282.795278 L35.1587962,255 Z M35.1587962,279 L35.1587962,334.746261 L10,312.410643 L10,306.795278 L35.1587962,279 Z M34.4427441,669.180063 L34.4427441,1000.86809 L14.5691438,977.705292 L14.5691438,704.506385 L34.4427441,669.180063 Z M880.865824,1018.11304 L886.400439,1018.11304 L905.225325,1018.11304 L924.542287,1034.76245 L1286.94808,1034.76245 L1270.14142,1051.41185 L915.684916,1051.41185 L880.865824,1018.11304 Z" id="Combined-Shape" fill="#4FC1E9" filter="url(#filter-2)"></path>
				</g>
				<polyline id="Path-68-" stroke="#4FC1E9" stroke-width="8" points="4.09272616e-12 1.04246416 0 314.780801 32.2926443 346.222215 32.2926443 640.869106 0 701.263217 0 987.959516 32.2926443 1016.88372 850.54234 1016.88372 902.206942 1067 1282.96798 1067 1304.2363 1046.07389 1896 1046"></polyline>
				<path d="M14.4469164,0.775779908 L25.4077617,0.775779908 L9,18.0947353 L9,6.7952779 L14.4469164,0.775779908 Z M34.1587962,2 L34.1587962,14.1518287 L9,41.0947353 L9,29.7952779 L34.1587962,2 Z M34.1587962,25 L34.1587962,37.1518287 L9,64.0947353 L9,52.7952779 L34.1587962,25 Z M34.1587962,48 L34.1587962,60.1518287 L9,87.0947353 L9,75.7952779 L34.1587962,48 Z M34.1587962,71 L34.1587962,83.1518287 L9,110.094735 L9,98.7952779 L34.1587962,71 Z M34.1587962,94 L34.1587962,106.151829 L9,133.094735 L9,121.795278 L34.1587962,94 Z M34.1587962,117 L34.1587962,129.151829 L9,156.094735 L9,144.795278 L34.1587962,117 Z M34.1587962,140 L34.1587962,152.151829 L9,179.094735 L9,167.795278 L34.1587962,140 Z M34.1587962,163 L34.1587962,175.151829 L9,202.094735 L9,190.795278 L34.1587962,163 Z M34.1587962,186 L34.1587962,198.151829 L9,225.094735 L9,213.795278 L34.1587962,186 Z M34.1587962,209 L34.1587962,221.151829 L9,248.094735 L9,236.795278 L34.1587962,209 Z M34.1587962,232 L34.1587962,244.151829 L9,271.094735 L9,259.795278 L34.1587962,232 Z M34.1587962,255 L34.1587962,267.151829 L9,294.094735 L9,282.795278 L34.1587962,255 Z M34.1587962,279 L34.1587962,334.746261 L9,312.410643 L9,306.795278 L34.1587962,279 Z M33,669 L33,1001 L14,984 L14,704.506385 L33,669 Z M879.865824,1018.11304 L885.400439,1018.11304 L904.225325,1018.11304 L923.542287,1034.76245 L1285.94808,1034.76245 L1269.14142,1051.41185 L914.684916,1051.41185 L879.865824,1018.11304 Z" id="Combined-Shape" fill="#4FC1E9"></path>
			</g>
		</g>
	</g>
</svg>