<svg width="1824px" height="845px" viewBox="0 0 1824 845" version="1.1" xmlns="http://www.w3.org/2000/svg" xmlns:xlink="http://www.w3.org/1999/xlink">
	<defs>
		<filter x="-92.4%" y="-3.8%" width="284.8%" height="107.7%" filterUnits="objectBoundingBox" id="filter-1">
			<feGaussianBlur stdDeviation="10" in="SourceGraphic"></feGaussianBlur>
		</filter>
		<filter x="-92.4%" y="-3.8%" width="284.8%" height="107.7%" filterUnits="objectBoundingBox" id="filter-2">
			<feGaussianBlur stdDeviation="10" in="SourceGraphic"></feGaussianBlur>
		</filter>
	</defs>
	<g id="Page-1" stroke="none" stroke-width="1" fill="none" fill-rule="evenodd">
		<g id="L2" transform="translate(-92.000000, -141.000000)" fill="#4FC1E9">
			<g id="ariaL2" transform="translate(118.000000, 76.000000)">
				<g id="frameL2" transform="translate(0.000000, 90.000000)">
					<path d="M17.1411845,0 L33,0 L33,9.86395298 L17.1411845,22.3069361 L17.1411845,769.684195 L33,784.840184 L33,795 L17.1411845,795 L0,769.684195 L0,663.028459 L9.27337519,632.465277 L9.27337519,504.060837 L0,487.99493 L0,285.295441 L9.27337519,265.383319 L9.27337519,136.638357 L0,114.437485 L0,9.86395298 L17.1411845,0 Z M4.87004656,22.4650244 C4.87004656,27.0819719 4.87004656,29.3904457 4.87004656,29.3904457 C4.87004656,29.3904457 7.23049481,27.5168766 11.9513913,23.7697383 L11.9513913,16.9917497 L4.87004656,22.4650244 Z M4.87004656,35.815685 C4.87004656,40.4326325 4.87004656,42.7411062 4.87004656,42.7411062 C4.87004656,42.7411062 7.23049481,40.8675371 11.9513913,37.1203988 L11.9513913,30.3424103 L4.87004656,35.815685 Z M4.87004656,47.9526491 C4.87004656,52.5695966 4.87004656,54.8780703 4.87004656,54.8780703 C4.87004656,54.8780703 7.23049481,53.0045012 11.9513913,49.2573629 L11.9513913,42.4793744 L4.87004656,47.9526491 Z M4.87004656,736.356964 L11.9513913,741.830239 L11.9513913,735.05225 C7.23049481,731.305112 4.87004656,729.431543 4.87004656,729.431543 C4.87004656,729.431543 4.87004656,731.740016 4.87004656,736.356964 Z M4.87004656,749.707624 L11.9513913,755.180899 L11.9513913,748.402911 C7.23049481,744.655772 4.87004656,742.782203 4.87004656,742.782203 C4.87004656,742.782203 4.87004656,745.090677 4.87004656,749.707624 Z M4.87004656,763.058285 L11.9513913,768.53156 L11.9513913,761.753571 C7.23049481,758.006433 4.87004656,756.132864 4.87004656,756.132864 C4.87004656,756.132864 4.87004656,758.441337 4.87004656,763.058285 Z" id="Combined-Shape" stroke="#4FC1E9" filter="url(#filter-1)"></path>
					<path d="M17.1411845,0 L33,0 L33,9.86395298 L17.1411845,22.3069361 L17.1411845,769.684195 L33,784.840184 L33,795 L17.1411845,795 L0,769.684195 L0,663.028459 L9.27337519,632.465277 L9.27337519,504.060837 L0,487.99493 L0,285.295441 L9.27337519,265.383319 L9.27337519,136.638357 L0,114.437485 L0,9.86395298 L17.1411845,0 Z M4.87004656,22.4650244 C4.87004656,27.0819719 4.87004656,29.3904457 4.87004656,29.3904457 C4.87004656,29.3904457 7.23049481,27.5168766 11.9513913,23.7697383 L11.9513913,16.9917497 L4.87004656,22.4650244 Z M4.87004656,35.815685 C4.87004656,40.4326325 4.87004656,42.7411062 4.87004656,42.7411062 C4.87004656,42.7411062 7.23049481,40.8675371 11.9513913,37.1203988 L11.9513913,30.3424103 L4.87004656,35.815685 Z M4.87004656,47.9526491 C4.87004656,52.5695966 4.87004656,54.8780703 4.87004656,54.8780703 C4.87004656,54.8780703 7.23049481,53.0045012 11.9513913,49.2573629 L11.9513913,42.4793744 L4.87004656,47.9526491 Z M4.87004656,736.356964 L11.9513913,741.830239 L11.9513913,735.05225 C7.23049481,731.305112 4.87004656,729.431543 4.87004656,729.431543 C4.87004656,729.431543 4.87004656,731.740016 4.87004656,736.356964 Z M4.87004656,749.707624 L11.9513913,755.180899 L11.9513913,748.402911 C7.23049481,744.655772 4.87004656,742.782203 4.87004656,742.782203 C4.87004656,742.782203 4.87004656,745.090677 4.87004656,749.707624 Z M4.87004656,763.058285 L11.9513913,768.53156 L11.9513913,761.753571 C7.23049481,758.006433 4.87004656,756.132864 4.87004656,756.132864 C4.87004656,756.132864 4.87004656,758.441337 4.87004656,763.058285 Z" id="Combined-Shape-Copy-2" stroke="#4FC1E9"></path>
					<path d="M1756.14118,0 L1772,0 L1772,9.86395298 L1756.14118,22.3069361 L1756.14118,769.684195 L1772,784.840184 L1772,795 L1756.14118,795 L1739,769.684195 L1739,663.028459 L1748.27338,632.465277 L1748.27338,504.060837 L1739,487.99493 L1739,285.295441 L1748.27338,265.383319 L1748.27338,136.638357 L1739,114.437485 L1739,9.86395298 L1756.14118,0 Z M1743.87005,22.4650244 C1743.87005,27.0819719 1743.87005,29.3904457 1743.87005,29.3904457 C1743.87005,29.3904457 1746.23049,27.5168766 1750.95139,23.7697383 L1750.95139,16.9917497 L1743.87005,22.4650244 Z M1743.87005,35.815685 C1743.87005,40.4326325 1743.87005,42.7411062 1743.87005,42.7411062 C1743.87005,42.7411062 1746.23049,40.8675371 1750.95139,37.1203988 L1750.95139,30.3424103 L1743.87005,35.815685 Z M1743.87005,47.9526491 C1743.87005,52.5695966 1743.87005,54.8780703 1743.87005,54.8780703 C1743.87005,54.8780703 1746.23049,53.0045012 1750.95139,49.2573629 L1750.95139,42.4793744 L1743.87005,47.9526491 Z M1743.87005,736.356964 L1750.95139,741.830239 L1750.95139,735.05225 C1746.23049,731.305112 1743.87005,729.431543 1743.87005,729.431543 C1743.87005,729.431543 1743.87005,731.740016 1743.87005,736.356964 Z M1743.87005,749.707624 L1750.95139,755.180899 L1750.95139,748.402911 C1746.23049,744.655772 1743.87005,742.782203 1743.87005,742.782203 C1743.87005,742.782203 1743.87005,745.090677 1743.87005,749.707624 Z M1743.87005,763.058285 L1750.95139,768.53156 L1750.95139,761.753571 C1746.23049,758.006433 1743.87005,756.132864 1743.87005,756.132864 C1743.87005,756.132864 1743.87005,758.441337 1743.87005,763.058285 Z" id="Combined-Shape-Copy" stroke="#4FC1E9" filter="url(#filter-2)" transform="translate(1755.500000, 397.500000) scale(-1, 1) translate(-1755.500000, -397.500000) "></path>
					<path d="M1756.14118,0 L1772,0 L1772,9.86395298 L1756.14118,22.3069361 L1756.14118,769.684195 L1772,784.840184 L1772,795 L1756.14118,795 L1739,769.684195 L1739,663.028459 L1748.27338,632.465277 L1748.27338,504.060837 L1739,487.99493 L1739,285.295441 L1748.27338,265.383319 L1748.27338,136.638357 L1739,114.437485 L1739,9.86395298 L1756.14118,0 Z M1743.87005,22.4650244 C1743.87005,27.0819719 1743.87005,29.3904457 1743.87005,29.3904457 C1743.87005,29.3904457 1746.23049,27.5168766 1750.95139,23.7697383 L1750.95139,16.9917497 L1743.87005,22.4650244 Z M1743.87005,35.815685 C1743.87005,40.4326325 1743.87005,42.7411062 1743.87005,42.7411062 C1743.87005,42.7411062 1746.23049,40.8675371 1750.95139,37.1203988 L1750.95139,30.3424103 L1743.87005,35.815685 Z M1743.87005,47.9526491 C1743.87005,52.5695966 1743.87005,54.8780703 1743.87005,54.8780703 C1743.87005,54.8780703 1746.23049,53.0045012 1750.95139,49.2573629 L1750.95139,42.4793744 L1743.87005,47.9526491 Z M1743.87005,736.356964 L1750.95139,741.830239 L1750.95139,735.05225 C1746.23049,731.305112 1743.87005,729.431543 1743.87005,729.431543 C1743.87005,729.431543 1743.87005,731.740016 1743.87005,736.356964 Z M1743.87005,749.707624 L1750.95139,755.180899 L1750.95139,748.402911 C1746.23049,744.655772 1743.87005,742.782203 1743.87005,742.782203 C1743.87005,742.782203 1743.87005,745.090677 1743.87005,749.707624 Z M1743.87005,763.058285 L1750.95139,768.53156 L1750.95139,761.753571 C1746.23049,758.006433 1743.87005,756.132864 1743.87005,756.132864 C1743.87005,756.132864 1743.87005,758.441337 1743.87005,763.058285 Z" id="Combined-Shape-Copy-3" stroke="#4FC1E9" transform="translate(1755.500000, 397.500000) scale(-1, 1) translate(-1755.500000, -397.500000) "></path>
					<rect id="Rectangle-5" opacity="0.1" x="8" y="12" width="1752" height="768"></rect>
				</g>
			</g>
		</g>
	</g>
</svg>